<svg width="14" height="13" viewBox="0 0 14 13" fill="none" xmlns="http://www.w3.org/2000/svg">
<path d="M7.24375 0.91107C7.56919 0.585633 8.09683 0.585633 8.42226 0.91107L13.4223 5.91107C13.5785 6.06735 13.6663 6.27931 13.6663 6.50033C13.6663 6.72134 13.5785 6.9333 13.4223 7.08958L8.42226 12.0896C8.09683 12.415 7.56919 12.415 7.24375 12.0896C6.91831 11.7641 6.91832 11.2365 7.24375 10.9111L10.8212 7.33366L1.16634 7.33366C0.706104 7.33366 0.333008 6.96056 0.333008 6.50033C0.333008 6.04009 0.706104 5.66699 1.16634 5.66699L10.8212 5.66699L7.24375 2.08958C6.91831 1.76414 6.91831 1.23651 7.24375 0.91107Z" fill="white"/>
</svg>
