<svg xmlns="http://www.w3.org/2000/svg" fill="none" viewBox="0 0 37 55" height="55" width="37">
<path fill="#231F20" d="M24.0398 54.3764C23.9175 54.6565 23.7631 54.8856 23.3899 54.8219C23.2933 54.8092 23.1711 54.8283 23.081 54.8792C22.6306 55.1147 22.2638 54.9938 21.942 54.6501C21.8391 54.5419 21.6975 54.351 21.5688 54.5546C21.3436 54.8983 21.0669 54.7392 20.7902 54.7137C20.1081 54.6628 19.4196 54.6437 18.9756 54.0964C17.9267 54.8601 16.8392 55.1974 15.6038 54.8092C15.4365 54.7583 15.3078 54.7837 15.1533 54.8474C14.645 55.051 14.2139 54.9556 13.8149 54.5737C13.4803 54.2428 13.0878 53.9691 12.7467 53.6509C12.1612 53.0908 11.8716 52.359 11.6593 51.608C11.1831 49.9469 10.4431 48.4577 9.18829 47.2103C8.58342 46.6057 8.16516 45.8228 7.78551 45.04C7.48951 44.4291 7.20638 43.8117 7.02621 43.1562C6.9876 43.0162 6.8396 42.908 6.74951 42.7807C5.76499 41.3551 4.88342 39.885 4.36864 38.2048C4.05977 37.1929 3.68012 36.1937 3.76377 35.1436C3.82168 34.4499 3.48708 34.119 3.02377 33.7435C2.22586 33.1007 1.37647 32.4961 0.790903 31.6369C0.630033 31.3951 0.456294 31.1659 0.379077 30.8796C0.211772 30.3004 0.334033 30.0713 0.874555 29.8167C1.18342 29.6703 1.42795 29.6894 1.65316 29.944C1.91699 30.2368 2.25803 30.4595 2.47038 30.8032C2.65699 31.0959 2.92082 31.3123 3.24255 31.5542C3.28116 31.2678 3.22325 31.0387 3.12029 30.8541C2.57334 29.8676 2.38673 28.773 2.20655 27.6911C1.9749 26.3291 1.40864 25.0881 0.938903 23.8088C0.610729 22.9242 0.12812 22.0905 0.0509029 21.1295C0.0380333 20.9704 0.00585938 20.8176 0.00585938 20.6585C0.00585938 20.3976 0.14099 20.1812 0.379077 20.1048C0.610729 20.0285 0.758729 20.2385 0.906729 20.3849C1.0676 20.544 1.11264 20.7476 1.18342 20.9449C1.38934 21.5686 1.59525 22.1923 1.8076 22.8097C1.86551 22.9751 1.89769 23.1661 2.15508 23.2997C2.29664 23.0197 2.20012 22.746 2.19369 22.4851C2.19369 22.1732 2.06499 21.8168 2.52186 21.7277C2.83716 21.6641 3.22325 21.9759 3.3069 22.3642C3.4356 22.9242 3.6029 23.5097 3.51282 24.0761C3.19751 26.1318 3.85386 28.022 4.49734 29.9122C4.85125 30.9559 5.18586 32.006 5.27595 33.1134C5.30812 33.4698 5.41108 33.7562 5.71351 33.9917C6.20899 34.3799 6.63368 34.8509 7.10986 35.3027C6.96186 34.7681 6.8589 34.2208 6.66586 33.7117C6.27977 32.6806 6.31195 31.6496 6.60795 30.625C6.77525 30.0522 6.7109 29.5558 6.45351 29.0339C6.08673 28.302 5.66847 27.6338 5.03142 27.0864C4.4716 26.6091 4.04047 26.0045 3.84742 25.2663C3.62864 24.4135 3.77021 24.2416 4.74186 24.3753C4.35577 22.8988 4.16916 21.4159 3.44203 20.0539C2.80499 18.8638 1.91055 17.8519 1.26708 16.6745C1.01612 16.2099 0.713685 15.7771 0.443425 15.3253C0.282555 15.058 0.256816 14.7843 0.417685 14.5043C0.694381 14.0206 1.05473 13.9761 1.40221 14.4152C1.56308 14.6188 1.66603 14.8671 1.80116 15.0898C1.99421 15.3953 2.08429 15.7644 2.47038 16.0317C2.50255 15.5671 2.34169 15.2044 2.18725 14.8671C2.00064 14.4406 2.01995 13.9951 1.93629 13.556C1.88482 13.2951 2.00708 13.0851 2.26447 12.9896C2.51542 12.9005 2.65699 13.0787 2.79212 13.2442C3.19751 13.7342 3.53212 14.2752 3.71229 14.8734C3.98899 15.8153 4.4909 16.649 4.92203 17.5146C5.34673 18.3674 5.54621 19.2902 5.68777 20.2194C5.68777 20.2449 5.68777 20.2703 5.68777 20.2958C5.77786 21.104 5.72638 21.9378 6.46638 22.5551C6.93612 22.9497 7.05195 23.6434 7.61177 24.1652C7.56673 23.427 7.70186 22.8224 7.25142 22.2369C6.90395 21.7914 6.68516 21.225 6.48568 20.6904C5.81003 18.8702 4.94777 17.12 4.23351 15.3189C3.96968 14.6507 3.8989 13.9442 3.80238 13.2442C3.71873 12.6396 3.55142 12.0668 3.33908 11.5004C3.19108 11.1058 3.09455 10.6921 3.12029 10.272C3.15247 9.6929 3.40342 9.56562 3.93108 9.81382C3.99542 9.84564 4.06621 9.86474 4.27212 9.94111C4.03403 9.34287 3.86673 8.83372 3.63508 8.35641C3.25542 7.5736 3.03021 6.73352 2.70203 5.93162C2.68273 5.88707 2.67629 5.82979 2.66342 5.77888C2.61195 5.42884 2.4189 5.04062 2.82429 4.77969C3.12029 4.58876 3.57073 4.74787 3.93751 5.16154C4.18203 5.44157 4.40082 5.75342 4.4716 6.11618C4.69038 7.22993 5.0636 8.29276 5.53977 9.32377C5.89368 10.0875 5.97734 10.8957 6.00951 11.6976C6.0996 14.3452 6.83316 16.8591 7.61821 19.3539C7.81125 19.9585 8.07508 20.5503 8.62203 21.0595C8.80864 20.6713 8.71855 20.404 8.62203 20.143C8.41612 19.6339 8.1716 19.1311 8.00429 18.6092C7.48951 17.0182 6.98116 15.4144 6.69803 13.7597C6.60151 13.1805 6.60795 12.6141 6.91681 12.0795C7.05195 11.8504 7.23212 11.704 7.47664 11.704C7.75334 11.704 7.8756 11.9331 7.97212 12.1559C8.10081 12.4486 8.11368 12.7668 8.13942 13.0787C8.20377 13.9697 8.26812 14.8607 8.42255 15.739C8.51908 16.299 8.82151 16.7381 9.0789 17.3873C9.45212 16.4899 9.40064 15.7199 9.36847 14.9562C9.31055 13.5433 9.09177 12.1368 8.88586 10.743C8.84725 10.4821 8.73786 10.2402 8.60273 10.0175C8.39038 9.65472 8.17803 9.29195 7.99142 8.91646C7.5796 8.07638 7.52168 7.22993 7.90777 6.33893C8.21021 5.64523 8.43542 4.91334 8.56412 4.16235C8.6156 3.8696 8.75716 3.62139 8.86012 3.35409C8.9309 3.16953 9.04029 3.01042 9.25908 3.04861C9.43925 3.08043 9.47786 3.2459 9.51647 3.405C9.64516 3.97142 9.72238 4.55057 9.6516 5.12336C9.58725 5.62613 9.68377 6.11618 9.69664 6.6126C9.70951 6.93717 9.85751 7.19811 10.1406 7.54178C10.25 6.88626 10.2243 6.35803 10.1792 5.82979C10.1085 4.98971 10.0312 4.16235 10.2372 3.32863C10.3079 3.05497 10.3272 2.79403 10.6297 2.72403C10.9643 2.64129 11.2217 2.76221 11.4598 3.02951C12.5408 4.25782 12.8239 5.65796 12.4636 7.21084C12.2319 8.20366 12.0132 9.20922 11.7493 10.1893C11.4855 11.1758 11.6464 12.1686 11.5756 13.346C12.322 12.245 12.7081 11.2267 12.6695 10.0684C12.6566 9.782 12.6695 9.48925 12.7017 9.20285C12.7339 8.85282 12.8304 8.44551 13.1006 8.2864C13.654 7.96819 13.6154 7.49723 13.6219 7.00718C13.6412 6.09073 13.6347 5.16791 13.6798 4.25145C13.6991 3.83777 13.802 3.4241 13.9114 3.01678C13.9822 2.76858 14.1045 2.52674 14.3361 2.36763C14.7672 2.06851 15.2112 2.19579 15.3914 2.68584C15.4815 2.93405 15.5201 3.17589 15.4815 3.44955C15.4107 4.0478 15.4107 4.6524 15.3914 5.25701C15.3786 5.54976 15.3592 5.84252 15.7904 5.86798C15.977 5.88071 16.0092 6.0589 16.0542 6.21165C16.1572 6.55532 16.2923 6.88626 16.421 7.24266C16.8071 6.96263 16.6526 6.64442 16.6333 6.3453C16.5175 4.59512 16.2666 2.85768 16.5111 1.09478C16.5626 0.732012 16.7106 0.44562 16.9486 0.191049C17.2253 -0.114436 17.4827 -0.0635215 17.6758 0.318335C17.8688 0.693826 17.8238 1.12023 17.9203 1.61665C18.1777 1.36844 18.2034 1.13933 18.2742 0.929304C18.345 0.712919 18.5123 0.560177 18.7311 0.541084C18.9885 0.521991 19.1686 0.662005 19.2909 0.903847C19.5032 1.31752 19.5933 1.74393 19.4904 2.20216C19.3746 2.7113 19.2137 3.21408 19.0979 3.72322C18.9306 4.42965 18.5509 5.0979 18.7439 5.86161C18.789 6.03981 18.7439 6.2371 18.6281 6.38985C18.1262 7.02627 18.3965 7.7518 18.3643 8.44551C18.3579 8.59188 18.4222 8.71917 18.5895 8.69371C19.0464 8.63007 19.1172 8.98647 19.2137 9.2665C19.426 9.88383 19.5998 10.5139 19.7992 11.1376C19.8829 11.3985 19.8893 11.6913 20.121 11.9013C20.3848 11.6913 20.2175 11.494 20.1789 11.3031C20.0309 10.6666 19.8186 10.0429 19.87 9.38105C19.9151 8.821 20.0502 8.74463 20.6873 9.02465C20.5135 8.38186 20.4041 7.78362 20.3333 7.17902C20.1853 6.00799 20.0373 4.83696 20.0116 3.65958C20.0116 3.63412 20.0116 3.60866 20.0116 3.5832C20.0052 2.92132 20.1982 2.60311 20.6293 2.55856C20.9382 2.52674 21.35 2.90223 21.4659 3.38591C21.6653 4.25782 21.9034 5.12336 21.9356 6.01435C21.9678 6.80352 22.1222 7.5736 22.1415 8.35641C22.4182 8.36913 22.4053 8.17821 22.3989 8.04456C22.3281 6.84171 22.5855 5.63886 22.4761 4.42965C22.4311 3.91415 22.5147 3.38591 22.7142 2.88313C22.8493 2.53946 23.081 2.36126 23.4285 2.36126C23.8081 2.36126 23.969 2.64766 24.0526 2.97223C24.2714 3.79322 24.2006 4.63967 24.3165 5.47339C24.3679 5.86798 24.4645 6.2371 24.6189 6.59987C24.8377 7.13447 25.0565 7.66906 24.8506 8.26731C24.7926 8.44551 24.8055 8.61098 25.0114 8.7319C25.4232 8.9801 25.4168 9.39378 25.3139 9.78837C25.1852 10.2784 25.1659 10.7748 25.153 11.2712C25.153 11.4749 25.1273 11.7358 25.2366 11.8822C25.8801 12.7414 25.494 13.5624 25.1916 14.3897C24.4902 16.2926 23.866 18.2083 23.8789 20.2703C23.8789 20.6776 23.9561 21.0468 24.1556 21.3968C24.3036 21.6514 24.4773 21.6832 24.5867 21.4413C24.754 21.0595 24.9406 20.684 24.9857 20.2512C25.0565 19.5639 24.9857 18.8829 24.9085 18.2083C24.8184 17.4 24.9085 16.6809 25.3718 15.9681C26.1182 14.8352 26.1439 13.5369 26.0152 12.245C25.938 11.494 26.1118 10.7812 26.2212 10.062C26.2662 9.75655 26.5429 9.66108 26.826 9.82019C27.1671 10.0111 27.2507 10.3357 27.2507 10.6985C27.2507 11.2967 27.2507 11.8949 27.3086 12.5059C27.6561 11.984 28.3511 11.7422 28.3446 10.9403C28.3446 10.463 28.6342 9.99202 28.9431 9.59107C29.0589 9.43833 29.1876 9.33014 29.3935 9.30468C29.9147 9.2474 30.1399 9.40015 30.2107 9.91565C30.2815 10.4248 30.1206 10.9085 30.0177 11.3922C29.7281 12.7796 29.5286 14.1797 29.6316 15.5989C29.6702 16.159 29.593 16.7 29.3227 17.2027C28.6921 18.3547 28.4219 19.6021 28.3897 20.9067C28.3768 21.4541 28.2867 22.0014 28.2481 22.5551C28.2288 22.7142 28.1323 22.9179 28.4026 23.0642C28.5634 22.7142 28.7436 22.396 28.8079 22.0014C28.9946 20.8686 29.1426 19.7294 29.4514 18.6156C29.593 18.1065 29.7732 17.6037 30.082 17.1773C30.7384 16.2736 30.9314 15.2107 31.1888 14.1733C31.3561 13.5115 31.562 12.8623 31.8323 12.2386C31.9481 11.9713 32.0832 11.6722 32.4436 11.7295C32.7653 11.7804 32.9069 12.0604 32.9906 12.3468C33.1965 13.066 33.1707 13.7979 33.1257 14.5361C33.1257 14.6379 33.0678 14.7398 33.1643 14.8671C33.4539 14.7843 33.5633 14.4916 33.7949 14.3325C34.2582 14.0079 34.5928 14.1288 34.7022 14.6889C34.7344 14.8416 34.7344 15.0071 34.7086 15.1598C34.5606 16.019 34.3097 16.8272 33.7499 17.5337C33.2673 18.1446 32.8619 18.8193 32.1605 19.2266C32.0639 19.2839 31.9481 19.4939 31.9803 19.5512C32.3278 20.1239 32.0189 20.7922 32.2892 21.4923C32.4114 21.1931 32.4886 20.9767 32.5916 20.7667C32.6559 20.6267 32.6495 20.4103 32.8168 20.3721C33.3573 20.2321 33.4088 19.7548 33.5632 19.3602C33.7499 18.8765 34.0523 18.4947 34.4706 18.2019C34.6893 18.0556 34.8695 18.0937 34.9918 18.3356C35.2427 18.8065 35.262 19.2775 35.0239 19.7675C34.6121 20.6203 34.2325 21.4859 33.8271 22.3387C33.6405 22.7269 33.5761 23.1279 33.6083 23.5606C33.6662 24.3434 33.6083 25.1263 33.5761 25.9027C33.8721 25.9218 33.8528 25.7309 33.885 25.5908C34.2389 24.0889 34.6379 22.5996 35.1012 21.1231C35.2878 20.5249 36.0085 19.8694 36.2144 20.0667C36.6005 20.4358 36.6391 20.9449 36.5554 21.4541C36.4074 22.3833 36.2916 23.3252 36.0857 24.2416C35.8219 25.4126 35.3907 26.5328 34.8888 27.6401C34.4512 28.5884 33.6791 29.3776 33.5118 30.4468C33.3509 31.4205 33.0999 32.3752 32.7525 33.3616C33.1707 33.2407 33.293 32.9543 33.4732 32.7379C34.033 32.076 34.6636 31.4969 35.3586 30.975C35.6867 30.7268 36.0471 30.7204 36.4139 30.7459C36.6584 30.765 36.89 30.8414 36.9544 31.1278C37.0059 31.3569 36.9029 31.5223 36.7227 31.6751C36.1629 32.1524 35.6031 32.6297 35.0561 33.1261C34.7151 33.4316 34.3998 33.7626 34.1231 34.1381C34.4834 34.1317 34.6765 33.8644 34.9146 33.6926C35.3135 33.4125 35.7253 33.2025 36.2337 33.2343C36.7292 33.2662 36.9029 33.5144 36.697 33.9599C36.5168 34.3481 36.2144 34.6345 35.8476 34.8763C34.9918 35.4491 34.1553 36.0473 33.2351 36.5247C32.405 36.9447 31.8773 37.6257 31.5942 38.4721C30.8799 40.6105 30.1271 42.7298 29.9019 44.9955C29.7667 46.3256 29.4193 47.6239 28.6728 48.7822C28.3639 49.2659 28.1966 49.8196 27.8492 50.3033C27.5403 50.7361 27.1735 50.997 26.6652 50.9524C26.3499 50.927 26.2662 51.0606 26.1246 51.2707C25.6034 52.0344 25.3525 52.9254 24.8763 53.7082C24.6575 54.0709 24.3872 54.3191 23.9819 54.4273C24.4902 53.5554 24.8827 52.6199 25.4104 51.7734C26.0539 50.7488 26.337 49.5778 26.9032 48.534C27.0191 48.3113 27.0448 48.0376 27.0963 47.783C27.122 47.6685 27.0319 47.6749 26.9612 47.7067C26.9161 47.7258 26.8904 47.7703 26.8518 47.8021C27.373 45.8547 27.2893 43.8372 27.5403 41.8452C27.0899 42.4752 26.8325 43.1626 26.7488 43.9136C26.6137 45.1355 26.7874 46.3765 26.5686 47.5985C26.5365 47.764 26.5944 47.9103 26.8132 47.904C26.7681 48.0249 26.7102 48.1458 26.6652 48.2667C26.53 48.6613 26.2855 48.7059 25.9638 48.4704C26.1632 48.394 26.2083 48.2158 26.2469 48.0313C26.3692 47.4648 26.4657 46.892 26.4078 46.3129C26.337 45.5746 26.382 44.8491 26.4657 44.1172C26.4786 44.009 26.5686 43.8563 26.3112 43.8117C26.1954 44.1936 26.2019 44.5755 26.2533 44.9573C26.3499 45.6446 26.2984 46.3193 26.0732 46.9748C25.4426 48.8331 24.7412 50.6661 23.8467 52.4162C23.5958 52.9063 23.3384 53.3836 23.377 53.9691C23.4092 54.421 23.6215 54.491 24.0012 54.3892M29.4321 40.5341C28.8787 40.6805 28.8272 40.7505 28.8079 41.3233C28.6085 41.9152 28.2996 42.4943 28.6664 43.1308C28.6986 43.188 28.6792 43.3153 28.6406 43.3535C28.0808 43.8054 28.8916 44.5564 28.2739 44.9891C28.7436 45.3074 28.4026 45.4155 28.1452 45.581C28.0551 45.6383 27.9586 45.8419 27.9907 45.9247C28.1966 46.4656 27.714 46.8793 27.7398 47.363C27.7591 47.7258 27.3151 47.9103 27.4052 48.2095C27.5467 48.6613 27.3279 48.9923 27.1413 49.3487C27.7977 49.5205 27.8041 49.5205 27.7977 49.0304C27.7977 48.9732 27.7526 48.9286 27.8106 48.9159C28.4412 48.7886 28.1645 48.3367 28.1645 47.9803C28.1645 47.7258 28.1966 47.4712 28.557 47.5858C28.6986 47.6303 28.8144 47.6749 28.8852 47.5285C28.9559 47.3948 29.0203 47.2294 28.8337 47.1148C28.7436 47.0575 28.6342 47.013 28.6728 46.8857C28.7565 46.6311 29.0332 47.0002 29.1168 46.7711C29.1683 46.6247 28.7307 46.5802 29.0074 46.3574C29.0267 46.3447 29.0589 46.3447 29.0782 46.3384C29.4707 46.2047 29.4321 45.8483 29.4192 45.5683C29.4064 45.2373 29.0203 45.4728 28.7629 45.161C29.7474 45.3392 29.5351 44.6518 29.6252 44.1809C29.7603 43.5126 29.8439 42.838 29.9984 42.1761C30.3072 40.8205 30.8156 39.5286 31.2982 38.2239C31.7036 37.1165 32.4951 36.3019 33.5504 35.7928C34.3612 35.3982 35.0819 34.8827 35.8283 34.3926C35.9827 34.2908 36.1114 34.1571 36.2401 34.0235C36.3109 33.9471 36.3559 33.8453 36.298 33.7307C36.2272 33.5844 36.0921 33.578 35.957 33.6035C35.854 33.6225 35.7575 33.6735 35.661 33.7053C34.9596 33.9662 34.3354 34.3354 33.8592 34.9272C33.7949 35.0036 33.7306 35.1054 33.6083 35.0609C33.4539 35.0036 33.4346 34.8636 33.4796 34.7299C33.6212 34.2781 33.7949 33.8198 34.1681 33.508C34.9146 32.8907 35.4615 32.0506 36.3238 31.5542C36.4267 31.4969 36.5619 31.3887 36.5104 31.2487C36.4396 31.0577 36.2401 31.0832 36.0986 31.1214C35.5516 31.2678 35.0626 31.5414 34.6893 31.9615C33.8078 32.9543 32.9584 33.9726 32.154 35.0354C31.1373 36.3846 30.3523 37.7975 29.9276 39.414C29.3999 39.6304 29.3549 40.0505 29.445 40.5278M27.0641 34.068C26.4013 34.5708 25.9252 35.1945 25.8801 36.0728C26.2662 35.3982 26.6587 34.7299 27.0448 34.0553C27.2765 33.9408 27.4245 33.7689 27.4309 33.508C27.225 33.6416 26.9998 33.7689 27.0641 34.0744M8.96308 38.3894C8.80864 38.6121 8.87299 38.854 8.9309 39.0704C9.11751 39.6813 9.13038 40.305 9.18829 40.9287C9.21403 41.1897 9.25264 41.4506 9.36203 41.6924C9.84464 42.7235 10.4624 43.6781 11.1445 44.6009C11.0158 43.5826 10.6812 42.6343 10.1471 41.7688C9.89612 41.3615 9.6709 40.9542 9.61942 40.4769C9.53577 39.7386 9.23977 39.0704 8.95664 38.3894C8.66064 37.7402 8.64134 37.0338 8.4869 36.3465C9.14325 36.9574 8.80221 37.9757 9.47786 38.7076C9.43281 38.1921 9.36847 37.8039 9.36203 37.4157C9.34916 36.6774 9.09821 36.041 8.66708 35.4491C8.42255 35.1118 8.20377 34.7681 8.04934 34.3608C7.65681 33.3234 7.79195 32.2924 8.01073 31.2614C8.08794 30.8732 8.21021 30.4977 8.13299 30.1031C8.10081 29.9249 8.08794 29.7085 7.84986 29.6894C7.63108 29.6703 7.41229 29.7467 7.30934 29.9504C7.21925 30.1286 7.23855 30.3131 7.47021 30.4022C7.58603 30.4468 7.63108 30.5359 7.61821 30.6441C7.50882 31.4714 7.2836 32.2924 7.29647 33.1452C7.05838 32.7316 7.14847 32.2988 7.12273 31.866C7.10342 31.4523 7.41229 31.0578 7.25142 30.5995C6.91682 30.7204 6.89108 30.9496 6.85247 31.1405C6.53716 32.7061 6.98116 34.1571 7.64395 35.5382C7.86273 35.9837 8.08151 36.4228 8.21021 36.8938C8.3389 37.352 8.54481 37.7784 8.67994 38.2303C8.71855 38.3767 8.80864 38.4467 8.96308 38.3894ZM3.06238 17.9155C3.13316 17.9155 3.25542 17.9283 3.26829 17.8901C3.37125 17.6482 2.97229 16.7318 2.7149 16.6936C2.53473 16.6618 2.54116 16.8209 2.63769 16.9418C2.11647 16.4199 1.62742 15.8726 1.40864 15.1534C1.35073 14.9689 1.24777 14.8161 1.09977 14.7079C1.04829 14.6698 0.938903 14.657 0.88099 14.6889C0.829511 14.7143 0.778033 14.8225 0.790903 14.8798C0.861685 15.268 1.00969 15.6308 1.2349 15.9617C1.85908 16.8973 2.45108 17.8583 3.10099 18.7874C3.88603 19.9076 4.36864 21.1613 4.65177 22.5296C5.01855 24.2925 5.58482 26.0173 6.21542 27.7101C6.33125 28.0284 6.52429 28.3147 6.66586 28.6266C6.76882 28.8366 6.81386 29.0912 6.95542 29.263C7.16777 29.5303 7.34151 29.0785 7.58603 29.1739C7.70829 29.2185 7.8756 29.3203 8.06221 29.1676C8.12655 28.8748 7.88847 28.6011 7.91421 28.2829C7.95925 27.7674 7.39299 28.0538 7.19351 27.8629C7.26429 27.6656 7.41229 27.6592 7.51525 27.5892C7.78551 27.4047 7.62464 27.2328 7.47664 27.0801C7.34151 26.9337 7.16134 27.1946 7.03908 27.0801C6.8396 26.8764 7.27073 26.8319 7.18708 26.6409C7.16777 26.5964 7.11629 26.5518 7.07125 26.5455C7.0069 26.5328 6.89751 26.59 6.87177 26.5646C6.80742 26.4946 6.89108 26.4437 6.92968 26.3736C7.11629 26.1 6.96829 25.9982 6.69803 26.0236C6.5629 26.0363 6.44708 26.2591 6.24116 25.9918C6.48568 25.7881 6.70447 25.4254 6.37629 25.2344C5.96447 24.9926 6.00951 24.6171 5.86151 24.2925C5.69421 23.9107 5.57195 23.4906 5.33386 23.1597C4.83838 22.4596 4.90916 21.6259 4.63247 20.8813C4.94134 21.1995 4.87699 21.6641 5.14725 21.9887C5.30168 21.9632 5.44325 21.8741 5.43038 21.7468C5.35316 21.1359 5.5076 20.474 5.07647 19.933C5.00568 19.8439 4.83838 19.6912 5.01212 19.6275C5.33386 19.513 5.15369 19.3284 5.10864 19.1884C4.88986 18.5201 4.73542 17.8264 4.34934 17.2091C3.69299 16.159 3.47421 14.9052 2.78569 13.8615C2.68916 13.7151 2.65055 13.5051 2.29664 13.556C2.47038 14.6507 2.72134 15.7326 3.09455 16.7572C3.47421 17.8073 4.05977 18.7811 4.55525 19.793C4.04047 19.1566 3.57073 18.5138 3.04308 17.9092M8.65421 23.7388L8.64134 23.7261C8.7829 24.1143 8.70568 24.6107 9.21403 24.8335C9.29125 24.8717 9.53577 25.0881 9.40064 25.209C8.98881 25.5718 9.73525 25.8009 9.47142 26.1382C9.42638 26.1954 9.56151 26.31 9.69021 26.2591C10.0119 26.1318 10.0763 26.31 10.0312 26.5646C9.9476 27.0546 9.91542 27.5129 10.4881 27.7611C10.649 27.8311 10.6104 27.9647 10.5589 28.092C10.501 28.232 10.5332 28.3402 10.694 28.3975C10.8999 27.5129 10.8742 27.4428 10.1792 27.0483C11.0479 26.6282 10.3594 25.8772 10.6233 25.2981C10.1599 25.0244 10.2693 24.6362 10.3852 24.2353C10.3916 24.2162 10.3723 24.1716 10.3594 24.1652C9.92829 23.9234 9.97977 23.5861 10.1406 23.2042C10.1728 23.1342 10.0763 23.0133 10.0441 22.9115C9.87681 22.4405 9.70951 21.9696 9.54221 21.505C9.47142 21.3204 9.45212 21.0277 9.17542 21.0977C8.92447 21.1677 9.18186 21.4222 9.10464 21.5814C9.0789 21.6259 9.04673 21.6577 9.00168 21.715C8.51264 21.6004 8.18447 21.3077 7.92064 20.8876C7.42516 20.0985 7.14847 19.2266 6.89108 18.3419C6.27334 16.1972 5.75212 14.0461 5.62986 11.8058C5.59768 11.2394 5.47542 10.6985 5.17942 10.1384C4.60673 9.03102 4.22708 7.81544 3.64151 6.69533C3.57073 6.56168 3.55142 6.39621 3.64151 6.24347C3.93751 6.24347 3.83455 6.66351 4.11125 6.68897C3.98255 5.75342 3.61577 5.30156 2.91438 5.25701C3.03664 6.04618 3.35195 6.76534 3.62864 7.49087C3.92464 8.24821 4.25925 8.99283 4.54238 9.75018C4.62603 9.97929 4.73542 10.2975 4.47803 10.4757C4.28499 10.6157 4.09838 10.4121 3.91177 10.3102C3.60934 10.1511 3.4549 10.2402 3.48064 10.5775C3.49995 10.8066 3.55786 11.0421 3.63508 11.2649C3.86029 11.8822 4.01473 12.5123 4.12412 13.1614C4.31073 14.2688 4.4909 15.3826 4.96708 16.4136C5.03786 16.5663 5.05073 16.77 5.36603 16.7891C5.22447 16.2099 5.08934 15.6562 4.94134 15.1089C4.70325 14.2243 4.36864 13.3651 4.22708 12.455C4.09195 11.5513 4.13055 11.4685 4.96708 11.0167C5.03786 11.2458 5.14725 11.5576 4.88342 11.6404C4.37508 11.8122 4.51021 12.1559 4.57455 12.4677C4.72255 13.1551 4.88342 13.8488 5.08934 14.5234C5.58482 16.1208 5.73925 17.8201 6.55003 19.322C6.58221 19.392 6.62725 19.4939 6.59508 19.5448C6.35699 19.9967 6.73021 20.3403 6.82029 20.7285C6.84603 20.8431 6.89751 20.9958 7.08412 20.9322C7.49595 20.7922 7.36725 21.0086 7.31577 21.2377C7.18708 21.7468 7.30934 21.9187 7.83699 22.0141C8.0236 22.0459 8.08151 22.186 7.99142 22.2814C7.66968 22.6315 7.88203 22.7906 8.15229 23.026C8.36464 23.2106 8.47403 23.5034 8.62203 23.7452M12.0518 50.8888L12.026 50.857C11.9552 51.4489 12.322 51.8753 12.5987 52.4608C12.7274 51.9326 12.4379 51.538 12.5408 51.1243C12.6824 50.5451 12.4443 50.0996 11.9681 49.7623C11.7944 49.6351 11.5627 49.5332 11.5627 49.3105C11.5627 48.6995 11.2539 48.1013 11.5563 47.4776C11.9038 46.7457 11.9552 45.9629 11.7622 45.1737C11.7172 45.0019 11.7365 44.8109 11.7236 44.6264C11.6464 43.5508 11.5434 42.4816 10.9128 41.5524C10.5911 41.0751 10.3466 40.5278 9.85108 40.1714C9.87681 40.6869 10.057 41.1324 10.3144 41.5652C11.1123 42.9271 11.6206 44.3654 11.4276 45.982C11.3954 46.2874 11.3954 46.5866 11.0737 46.8029C10.8935 46.4402 11.3504 46.1983 11.1573 45.8738C10.5589 46.0711 10.1342 45.7847 9.81247 45.3328C9.44568 44.8237 9.12395 44.2763 8.99525 43.6463C8.86655 43.0289 8.73142 42.418 8.57055 41.807C8.17803 40.3687 7.73403 38.9431 7.44447 37.4793C7.29647 36.7156 7.04551 35.9073 6.49212 35.3536C4.97995 33.8198 3.39699 32.3624 1.83334 30.8796C1.64673 30.7077 1.48586 30.4722 1.17699 30.4659C1.00325 30.5677 1.17699 30.6886 1.17055 30.7968C1.16412 30.9623 0.874555 31.0005 0.983946 31.1723C1.04829 31.2614 1.24777 31.1659 1.33786 31.2869C1.3636 31.3187 1.35716 31.3887 1.34429 31.4396C1.25421 31.8151 1.49873 31.9042 1.78829 32.0442C2.20655 32.2415 2.34812 32.8779 2.95942 32.8079C2.95942 32.8843 2.95942 32.967 2.97229 33.037C3.04951 33.3425 3.22325 33.5653 3.57073 33.5271C3.77664 33.5016 3.91177 33.5589 3.89247 33.7435C3.83455 34.3735 4.52951 34.0299 4.62603 34.2781C4.75473 34.6281 4.76116 34.9972 5.2116 35.0991C5.31455 35.1245 5.49473 35.1754 5.49473 35.1882C5.41751 35.7482 6.05455 35.9646 6.10603 36.3655C6.19612 37.0465 6.8396 37.492 6.80099 38.2239C6.78812 38.5039 7.01977 38.784 7.0069 39.1213C6.99403 39.4204 6.94899 39.8468 7.19351 40.0123C7.70186 40.3687 6.99403 40.5087 7.11629 40.7696C7.16134 40.8587 7.10342 41.0115 7.16134 41.0751C7.40586 41.3297 7.47021 41.5779 7.25142 41.8834C7.20638 41.947 7.22568 42.1443 7.27716 42.1761C7.59247 42.3925 7.40586 42.7425 7.50881 42.9398C7.70186 43.3472 7.68255 43.799 7.86273 44.1745C7.99786 44.4545 8.28742 44.6455 8.23595 45.0337C8.21664 45.1864 8.35821 45.3328 8.53838 45.3392C8.84725 45.3519 8.91803 45.4537 8.75716 45.7274C8.62203 45.9565 8.73142 46.2302 8.95021 46.2111C9.41994 46.1729 9.28481 46.4275 9.30412 46.682C9.32986 47.0384 9.56794 47.153 9.99264 47.0702C10.1792 47.0321 10.2822 47.1148 10.1857 47.2548C10.0119 47.5221 10.1342 47.6939 10.3079 47.8721C10.9772 48.5722 11.3761 49.4187 11.6593 50.3288C11.7365 50.5579 11.8266 50.7679 12.0518 50.8888ZM9.43925 8.43914C9.58725 8.96738 9.64516 9.5147 9.68377 10.0557C9.75455 11.0485 9.76099 12.0413 9.81247 13.0341C9.87038 14.2434 9.84464 15.4462 9.72238 16.649C9.64516 17.4382 9.47142 18.2592 10.0956 18.9465C10.1599 19.0166 10.1599 19.1438 10.1986 19.2393C10.6619 20.3021 10.9386 21.4286 11.3311 22.5105C11.8201 23.8661 12.2963 25.2217 12.4765 26.66C12.4958 26.8128 12.4958 27.0419 12.6695 27.0546C13.3452 27.1246 13.4803 27.7738 13.8792 28.1684C14.3426 26.9464 14.3297 26.6791 13.6347 25.6927C13.4159 25.3872 13.2679 25.0562 13.1006 24.7317C12.2963 23.2297 11.4533 21.7468 11.1895 20.0157C10.9579 18.5074 10.7326 17.0118 11.1059 15.4971C11.3504 14.5107 11.3311 13.5369 11.093 12.5568C11.0415 12.3532 11.0286 12.1495 11.0415 11.9331C11.1252 10.7876 11.5177 9.68017 11.4405 8.51551C11.4405 8.4646 11.4533 8.38186 11.4791 8.36913C12.0325 8.17821 11.6721 7.77089 11.6914 7.45904C11.6979 7.35722 11.5499 7.22357 11.7944 7.18538C12.2126 7.1281 12.0968 6.84171 11.981 6.61896C11.8652 6.38985 11.4083 6.17346 12.0582 6.00799C12.1547 5.98253 12.1933 5.61977 11.9102 5.51158C11.7944 5.46703 11.5692 5.42248 11.6786 5.29519C11.981 4.93243 11.9681 4.70968 11.4919 4.56967C11.4147 4.54421 11.3439 4.45511 11.4147 4.39783C11.8266 4.05416 11.2539 3.88232 11.2796 3.59593C11.2925 3.45592 11.1509 3.29045 10.9707 3.29045C10.7262 3.29045 10.7198 3.51956 10.6683 3.68503C10.4624 4.31509 10.6876 4.93243 10.7584 5.54976C10.8549 6.36439 10.8935 7.18538 10.6426 7.94909C10.5139 8.33731 10.4431 8.66825 10.4817 9.06284C10.5525 9.74382 10.5846 10.4248 10.6297 11.144C10.3852 11.0421 10.3852 10.9085 10.3723 10.7812C10.3015 10.132 10.1792 9.47652 10.1792 8.82736C10.1792 8.26094 9.83177 7.96182 9.46499 7.50996C9.33629 7.90454 9.47142 8.17821 9.45212 8.44551C9.08534 8.13366 9.38777 7.51632 8.85368 7.22993C8.71855 7.71361 8.87942 8.12093 9.09177 8.50278C9.23977 8.76372 9.32986 8.4646 9.44568 8.42641M29.8954 32.4006C29.7024 32.407 29.7088 32.2988 29.7088 32.1524C29.7088 31.9042 30.0627 31.8469 30.0241 31.5478C29.6573 31.5733 29.5415 31.7769 29.5093 32.0633C29.49 32.1906 29.4965 32.3942 29.3485 32.3815C28.7307 32.3242 28.705 33.0179 28.2674 33.1771C27.8556 33.3298 28.4219 33.9408 27.9779 33.9153C27.5146 33.8899 27.4309 34.2017 27.2829 34.4244C26.6459 35.3918 26.0667 36.3974 25.6871 37.492C25.3782 38.3703 24.8119 39.1722 24.9535 40.1777C25.0179 40.6423 24.9986 41.1197 25.0243 41.5906C25.0565 42.1443 25.0436 42.6853 24.7154 43.1817C24.5352 43.4553 24.5159 43.729 24.6704 44.0663C24.8827 44.55 24.8827 45.0973 24.6832 45.6001C24.4645 46.1602 24.265 46.7393 23.9819 47.2675C22.8944 49.2914 22.4182 51.4871 22.0643 53.7209C22.0064 54.0709 22.0965 54.3701 22.3925 54.5419C22.682 54.7074 22.9137 54.5101 23.1646 54.3573C22.9973 54.1219 22.489 54.2428 22.6692 53.8482C22.7914 53.5745 23.0939 53.3709 22.9008 53.0145C23.3577 52.6644 23.3834 52.1744 23.3255 51.6716C23.3126 51.5762 23.3834 51.4871 23.4478 51.5125C23.866 51.6398 24.0076 51.5634 23.7824 51.137C23.7245 51.0225 23.7952 50.927 23.9239 50.9206C24.1556 50.9015 24.2779 50.8061 24.1878 50.5706C24.0462 50.2206 24.4259 50.316 24.5288 50.1696C24.6897 49.9405 24.265 49.8387 24.4001 49.616C24.4259 49.5778 24.4773 49.5396 24.5224 49.5269C24.7476 49.4759 24.8506 49.3805 24.7154 49.145C24.6382 48.9986 24.7283 48.9032 24.8699 48.8459C25.1401 48.7377 25.2366 48.5659 25.1015 48.2858C25.05 48.1776 25.1208 48.0758 25.2045 48.0185C25.4683 47.8467 25.494 47.5985 25.449 47.3248C25.4233 47.153 25.4683 47.0193 25.6356 46.9366C25.745 46.8857 25.8158 46.7202 25.7514 46.6884C25.2881 46.4275 25.6806 46.1092 25.7514 45.9056C25.9316 45.4283 25.8994 45.0082 25.6485 44.5945C25.5584 44.4545 25.5262 44.3782 25.6806 44.2954C25.8608 44.2063 25.9123 44.0981 25.7707 43.9327C25.6678 43.8054 25.7321 43.7226 25.8222 43.6017C26.2083 43.0544 26.5236 42.4625 26.4528 41.7752C26.3306 40.6169 26.4271 39.4777 26.6973 38.3448C26.8968 37.4984 27.1606 36.6901 27.6754 35.9582C28.0808 35.3855 28.5441 34.8509 28.9624 34.2908C28.8015 34.1444 28.5634 34.3417 28.5184 34.119C28.4605 33.8262 28.7436 33.8962 28.898 33.8453C28.9688 33.8198 29.0911 33.7944 29.1168 33.8262C29.3935 34.189 29.5608 33.858 29.7539 33.7371C30.037 33.5525 30.2686 33.3171 30.5839 32.9607C29.9984 33.0498 29.9083 32.7443 29.8697 32.4006C30.1592 32.5979 30.4038 32.4515 30.674 32.3306C31.1952 32.1015 31.3304 31.7133 30.9443 31.2932C30.7706 31.1087 30.8285 30.8541 30.6547 30.695C30.2944 31.0896 30.3008 31.0832 30.7577 31.376C30.925 31.4778 30.9379 31.7069 30.7641 31.7324C30.3201 31.8024 30.1786 32.197 29.8761 32.4197M14.5227 17.0691C14.1559 17.3491 14.1238 17.7819 14.0208 18.1701C13.9436 18.4756 13.8728 18.7874 13.6991 19.0484C13.4417 19.4366 13.1457 19.4366 12.8947 19.0547C12.6373 18.6729 12.618 18.2719 12.6373 17.8073C12.6888 16.4136 12.766 15.0325 13.0299 13.6642C13.0427 13.6133 13.062 13.5178 12.9269 13.5051C12.3285 14.5043 12.3542 15.6244 12.3542 16.7445C12.0904 15.9553 11.9874 15.1789 12.2512 14.3706C12.4314 13.8169 12.6502 13.2887 12.8947 12.7668C13.313 11.8695 13.4739 10.9148 13.4674 9.93474C13.4674 9.61653 13.4417 9.28559 13.1457 8.96737C12.9719 9.29195 13.0299 9.55289 13.0363 9.80109C13.0556 10.8385 12.9269 11.8313 12.3799 12.7541C11.9359 13.5051 11.6593 14.3261 11.4919 15.1853C11.4662 15.3316 11.3568 15.5289 11.5627 15.5926C11.9295 15.7199 11.8137 15.9999 11.833 16.2481C11.8973 17.3491 11.8909 18.4501 12.0775 19.5448C12.4893 21.9059 13.7184 23.9298 14.8123 26.0109C14.7415 25.3426 14.5678 24.6871 14.1881 24.1334C14.0015 23.8598 13.8986 23.5734 13.8471 23.2806C13.7763 22.886 13.6669 22.5233 13.5125 22.1541C13.3387 21.7468 13.2165 21.3141 13.0749 20.894C13.0041 20.6904 12.9591 20.4867 13.2358 20.3849C13.461 20.5249 13.3902 20.7667 13.4417 20.9513C13.9307 22.6951 14.6192 24.3689 15.2048 26.0809C15.5973 27.2201 15.6424 27.4683 15.4107 28.7539C15.3914 28.8493 15.4107 28.9703 15.4429 29.0594C15.8676 30.0904 15.9384 31.1978 16.2022 32.267C16.8907 35.08 16.6398 37.9566 16.7363 40.8078C16.7942 42.4307 16.762 44.0663 16.6591 45.6892C16.6398 45.982 16.8328 46.2429 16.7299 46.5293C16.3759 47.4839 16.6012 48.4895 16.4339 49.4632C16.3566 49.9087 16.3052 50.3924 16.6398 50.7997C16.3631 51.5125 16.6848 52.1871 16.8135 52.8745C16.8714 53.1799 16.8457 53.5554 17.3605 53.39C17.4827 53.3518 17.4892 53.4472 17.4441 53.5173C17.3926 53.5936 17.2318 53.6445 17.3026 53.7591C17.4184 53.9437 17.5213 53.7718 17.6114 53.7082C17.7401 53.6254 17.8238 53.6 17.9203 53.7655C18.0232 53.9373 18.1841 54.0518 18.5831 53.9946C18.1519 53.5045 18.1133 52.9827 18.1005 52.4735C18.0876 51.748 17.8045 51.067 17.8109 50.3288C17.8109 50.0996 18.0619 49.6605 17.5342 49.5714C17.5213 49.5714 17.5085 49.4632 17.5342 49.4314C18.0104 48.8077 17.8173 48.1585 17.5857 47.5158C17.5535 47.4203 17.457 47.3248 17.5535 47.2357C17.8752 46.943 17.6886 46.5993 17.6565 46.2747C17.605 45.651 17.5149 45.0146 17.5278 44.3973C17.5471 43.6845 17.4763 42.9971 17.3926 42.3034C17.2897 41.3933 17.1803 40.4641 17.2125 39.5668C17.2575 38.4148 17.2125 37.2629 17.0902 36.1364C16.8779 34.1826 16.7234 32.2288 16.4918 30.2749C16.3566 29.123 16.0928 28.0029 15.7325 26.9082C15.3142 25.6163 14.9281 24.318 14.5034 23.026C13.9629 21.3777 14.0337 19.6721 14.2975 17.9728C14.3426 17.6673 14.5034 17.3746 14.4712 17.05C14.7672 16.6554 14.7801 16.0954 15.1919 15.758C15.0311 16.3881 14.7029 16.9927 14.645 17.6164C14.5806 18.2528 14.1495 18.8765 14.5099 19.6848C14.9925 17.8073 15.5587 16.1017 16.1636 14.4088C16.2344 14.2179 16.3116 13.9888 16.2794 13.7979C16.2022 13.3142 16.3052 12.8559 16.3695 12.3914C16.614 10.5775 16.8586 8.76372 17.8238 7.14083C17.8752 7.05173 17.901 6.94354 17.9525 6.85444C18.197 6.45985 18.2163 6.0589 18.0232 5.62613C17.8238 5.67068 17.7401 5.83615 17.6243 5.98253C17.2318 6.48531 17.1932 7.21084 16.762 7.62451C16.2794 8.08911 16.3052 8.52824 16.3824 9.06284C16.4596 9.61017 16.4146 10.1639 16.3373 10.7112C16.1958 11.6976 16.0285 12.6777 15.8612 13.6578C15.7646 14.2179 15.5845 14.7525 15.2306 15.2298C15.4879 14.0779 15.7003 12.9196 15.8612 11.7358C15.6166 11.7931 15.6102 11.9586 15.5587 12.105C15.0826 13.4987 14.9667 14.9752 14.5034 16.369C14.4262 16.5854 14.3747 16.8209 14.4906 17.0564M20.9768 36.1046C20.9318 36.4292 20.4299 36.5183 20.6422 37.0211C21.1377 38.1985 21.009 39.4204 20.7516 40.6487C20.5972 41.387 20.3333 42.1125 20.3462 42.8889C20.3655 44.0918 20.3912 45.301 20.6229 46.4847C20.6679 46.7329 20.5328 47.0257 20.7838 47.2675C21.1827 46.3829 21.2406 45.4665 21.4144 44.5755C21.5946 43.6463 21.6653 42.7107 21.6139 41.7625C21.5109 39.9677 20.8996 38.2048 21.2792 36.3783C21.2921 36.3083 21.2664 36.2192 21.2278 36.1555C21.157 36.0537 21.0476 36.0855 20.9446 36.1237C21.0412 36.0346 21.1506 35.9519 21.2278 35.85C21.35 35.6909 21.2921 34.9336 21.1441 34.9145C20.6551 34.8445 20.9125 34.5326 20.8803 34.3099C21.0026 34.3799 21.0798 34.539 21.1699 34.539C21.3629 34.5517 21.3565 34.329 21.4337 34.2017C21.5045 34.0871 21.3307 34.0108 21.3372 33.9408C21.3629 33.6926 21.0733 33.2725 21.6718 33.2789C21.7812 33.2789 21.8198 33.0816 21.7876 32.9479C21.749 32.8016 21.6396 32.8397 21.5366 32.8779C21.4079 32.9225 21.2792 32.9734 21.1956 32.8143C21.1312 32.687 21.3886 31.6624 21.5173 31.5796C21.5752 31.5478 21.6653 31.5287 21.7297 31.5478C21.8262 31.5733 21.8133 31.6751 21.794 31.7451C21.7232 31.9742 21.5173 32.2097 21.8648 32.477C22.0772 31.9742 22.1994 31.4778 22.2573 30.975C22.4375 29.3776 22.0579 27.8629 21.5624 26.3609C21.4337 25.9727 21.3886 25.5972 21.4272 25.2026C21.4401 25.069 21.4272 24.8971 21.5559 24.8526C22.2187 24.6426 21.9227 24.2034 21.7812 23.8534C21.601 23.4143 21.4337 22.9751 21.4337 22.4914C21.4337 21.2886 21.2986 20.0921 21.4723 18.8893C21.6332 17.8073 21.6911 16.7191 22.0128 15.6499C22.2509 14.8734 22.534 14.1288 22.9137 13.4096C23.0617 13.136 23.2483 12.8432 22.9266 12.5568L22.9008 12.5823C23.2097 12.6141 23.3899 12.4677 23.4864 12.1877C23.6666 11.6658 23.8789 11.163 23.9368 10.603C23.9883 10.0684 24.0912 9.5338 24.2328 9.00556C24.4194 8.30549 24.5224 7.54814 24.1749 6.84807C23.8789 6.24347 23.821 5.60068 23.8017 4.93879C23.7888 4.49329 23.821 4.0478 23.7245 3.60866C23.6859 3.4241 23.6601 3.2459 23.5314 3.09952C23.4027 2.95951 23.2676 2.91496 23.1839 3.13771C23.1389 3.25863 23.1132 3.39228 23.1003 3.51956C22.9266 5.02789 22.8558 6.53622 22.9072 8.05092C22.9201 8.47096 22.9523 8.891 22.7528 9.28559C22.5919 9.61017 22.3217 9.62926 22.0128 9.57835C21.7039 9.52743 21.6332 9.31741 21.6653 9.06284C21.6911 8.87827 21.6846 8.7128 21.6074 8.52824C21.4401 8.15911 21.4208 7.77726 21.5688 7.38267C21.6396 7.19811 21.7232 6.98172 21.3822 6.91172C21.3114 6.89899 21.2342 6.68897 21.2342 6.56805C21.2085 5.84252 20.8996 5.14881 20.9768 4.40419C21.0154 4.0478 20.9639 3.67867 20.565 3.41773C20.4556 3.7614 20.4041 4.06689 20.4492 4.3851C20.5328 5.03426 20.5972 5.68978 20.7194 6.33257C20.9575 7.59269 21.2599 8.84009 21.0991 10.1384C21.0733 10.3675 21.1184 10.6157 21.2921 10.8003C21.601 11.1312 21.646 11.5513 21.6782 11.9713C21.8262 13.8742 21.5366 15.739 21.0347 17.5655C20.713 18.7493 20.5392 19.9203 20.6679 21.1231C20.758 21.9759 20.4299 22.8797 20.9446 23.6879C20.5392 24.1271 20.7838 24.6871 20.6551 25.1835C20.3398 26.38 20.2883 27.6147 20.1789 28.843C20.0695 30.1286 20.3076 31.4078 20.2304 32.6934C20.6744 33.228 19.9215 34.0108 20.61 34.4945C20.6165 34.4945 20.61 34.5517 20.5907 34.5645C20.1789 34.7808 20.5071 35.0672 20.61 35.2009C20.8546 35.5255 20.8481 35.78 20.5135 36.0664C20.7259 36.0792 20.8546 36.0855 20.9833 36.0919M21.6975 50.4115C21.8841 50.3733 22.5147 50.9779 22.1351 50.1124C22.09 50.0105 22.2316 49.9469 22.3217 49.8896C22.4632 49.8005 22.5212 49.6541 22.5855 49.5078C23.1132 48.2222 23.6279 46.9302 24.1813 45.6574C24.3873 45.1928 24.4001 44.7282 24.2714 44.2763C24.1556 43.8754 24.1942 43.519 24.3036 43.1244C24.4452 42.5898 24.5546 42.0297 24.4066 41.3933C23.9433 41.7115 24.0462 42.278 23.673 42.5389C23.1132 42.1316 22.7464 41.5779 22.5855 41.0242C22.1672 39.5604 22.3217 38.0712 22.682 36.6647C23.2869 34.2972 23.673 31.8915 24.2006 29.5112C24.3293 28.9448 24.3744 28.3593 24.2135 27.7738C23.7116 30.2877 23.2226 32.8079 22.4697 35.2645C22.4182 35.1627 22.4053 35.0609 22.4053 34.959C22.4053 33.9726 22.8429 33.0816 23.0038 32.1269C23.2676 30.5613 23.8532 29.0466 23.8467 27.4301C23.8467 27.3156 23.8596 27.2074 23.9626 27.1628C24.2199 27.0546 24.1299 26.8828 24.0784 26.7046C24.0076 26.4755 23.9883 26.24 23.8982 26.0236C23.7695 25.7054 23.7052 25.3172 23.2933 25.1644C23.2097 25.3554 23.2226 25.5081 23.2676 25.6609C23.4027 26.0809 23.3834 26.5391 23.6408 26.9401C23.821 27.2201 23.7502 27.5638 23.4542 27.6847C23.1196 27.8183 22.9587 27.4238 22.933 27.2328C22.8493 26.7173 22.4375 26.3736 22.3153 25.8963C22.2702 25.7372 22.2187 25.5336 21.9549 25.5781C21.897 25.7945 21.9549 25.9982 22.0193 26.1954C22.2252 26.8446 22.4375 27.4938 22.6306 28.1429C22.8365 28.8748 22.9266 29.6067 22.8107 30.3831C22.5533 32.1206 22.1415 33.8262 21.8713 35.5573C21.6589 36.9129 21.5366 38.2557 21.8005 39.6241C22.0643 40.9924 22.2187 42.3734 21.9742 43.7672C21.7361 45.1228 21.5817 46.4847 21.0219 47.783C20.7645 48.3813 20.4942 49.0623 20.7709 49.7687C20.7838 49.8069 20.7838 49.8896 20.7645 49.896C20.2111 50.1251 20.4878 50.5197 20.5392 50.8888C20.565 51.0797 20.565 51.2961 20.4878 51.5061C20.1982 52.2889 20.2368 52.6326 20.6679 53.3581C20.7902 53.5682 20.9318 53.7527 20.6679 53.9627C20.5843 54.0328 20.5586 54.1473 20.6744 54.2237C20.8031 54.3128 20.9382 54.281 21.0347 54.1919C21.202 54.0328 21.2278 53.8164 21.1892 53.6127C21.1634 53.46 21.0862 53.32 21.0412 53.1672C21.0026 53.0527 21.0605 52.9572 21.1699 52.919C21.2857 52.8745 21.4208 52.7917 21.5431 52.8872C21.646 52.9699 21.5495 53.0654 21.5302 53.1609C21.5045 53.2627 21.4401 53.4027 21.6267 53.4663C21.8841 53.129 21.8069 52.7026 21.9549 52.3462C21.9806 52.2953 21.9227 52.1489 21.8841 52.1426C21.3758 52.0471 21.6589 51.818 21.8262 51.6843C22.2187 51.3789 22.2187 51.1243 21.8133 50.8188C21.7232 50.7488 21.5946 50.577 21.7104 50.3988M24.9278 9.19649C24.6382 9.41287 24.6318 9.6929 24.5352 9.92202C24.3358 10.3993 24.3873 10.9085 24.3293 11.3985C24.2393 12.1813 23.8081 12.8178 23.4606 13.486C22.9201 14.5361 22.5662 15.6562 22.238 16.77C22.0064 17.5655 21.9613 18.4247 21.8906 19.2584C21.7426 20.9131 21.7039 22.5615 22.4182 24.1334C22.5276 24.3753 22.5662 24.6489 22.3088 24.8462C22.2123 24.9226 22.1286 25.0308 22.2059 25.1008C22.5726 25.4254 22.534 26.0109 23.126 26.4118C22.8622 25.8581 22.8944 25.4445 22.9201 25.0244C22.9394 24.6235 23.1132 24.528 23.4735 24.7062C23.7245 24.8271 23.8725 25.0372 24.0205 25.2599C24.1299 25.4254 24.1427 25.6608 24.458 25.7945C24.6318 25.0562 25.0565 24.4389 25.3267 23.6752C24.9213 23.8598 24.8827 24.3307 24.5095 24.4007C24.4194 24.3371 24.4066 24.2925 24.4516 24.2416C24.5288 24.1398 24.6125 24.038 24.6961 23.9298C25.9059 22.3578 26.6845 20.6394 26.4592 18.6156C26.337 17.5337 26.4142 16.5218 27.1092 15.6244C27.1864 15.5226 27.2443 15.3953 27.3086 15.2807C27.5982 14.7589 27.9586 14.2497 27.6754 13.5942C27.6304 13.4924 27.6947 13.3524 27.7912 13.3333C27.9328 13.3014 28.0229 13.4033 28.0679 13.5496C28.1838 13.9442 28.1194 14.3197 27.9843 14.7016C27.7526 15.3507 27.3151 15.8917 27.0062 16.4963C26.6716 17.1582 26.6394 17.5273 26.9032 18.2719C26.9869 17.2473 27.373 16.4581 27.8942 15.7135C28.0293 15.5226 28.0872 15.2807 28.2031 15.0771C28.7179 14.1861 28.409 13.3396 28.1773 12.4614C27.8106 12.5314 27.8813 12.8241 27.7398 12.9705C27.4631 13.2633 27.1349 13.2251 26.9933 12.8559C26.9226 12.665 26.9097 12.4486 26.9032 12.2386C26.8968 11.7931 26.9161 11.3476 26.9161 10.9021C26.9161 10.6857 26.9161 10.4566 26.6523 10.3166C26.4399 11.0103 26.3885 11.6849 26.4399 12.3723C26.5622 13.8679 26.4721 15.3125 25.5326 16.5854C25.2881 16.9227 25.3074 17.33 25.3267 17.7246C25.3718 18.5074 25.5777 19.2839 25.449 20.073C25.3396 20.7413 25.2366 21.435 24.6832 21.9187C24.2843 22.2751 24.0719 22.2178 23.8339 21.7405C23.5829 21.2313 23.5057 20.6967 23.5314 20.1367C23.5572 19.4875 23.5507 18.832 23.6601 18.1828C23.377 19.1184 23.2097 20.0667 23.2933 21.0404C23.3512 21.7023 23.3512 22.4087 24.2392 22.7078C23.4092 22.9369 23.2483 22.8542 23.1003 22.256C22.8879 21.4032 22.9137 20.5376 22.9845 19.6721C23.0746 18.6156 23.422 17.6228 23.6859 16.6109C23.9754 15.4971 24.6833 14.4343 24.1685 13.1996C24.1492 13.1551 24.2199 13.0469 24.2714 13.0087C24.3615 12.945 24.4709 12.945 24.561 13.0214C24.7219 13.1487 24.7347 13.3333 24.7412 13.5242C24.7476 13.8106 24.6253 14.0906 24.754 14.4406C25.1594 13.8806 25.3267 13.1805 25.0822 12.7159C24.6897 11.9904 24.8377 11.3031 24.8184 10.5839C24.8055 10.132 25.153 9.73109 24.9213 9.1774M18.0039 7.78999C17.6886 8.17821 17.5278 8.45187 17.4699 8.75735C17.2639 9.83292 16.8907 10.883 16.8586 11.9968C16.8457 12.3341 16.6719 12.7414 16.8071 12.996C17.2125 13.7597 17.2961 14.5807 17.4184 15.408C17.6179 16.7572 17.8173 18.1065 17.8109 19.4748C17.798 20.7094 17.6436 21.925 17.5278 23.147C17.4377 24.1143 17.0001 24.6489 16.1443 25.0626C16.125 24.7635 16.569 24.3498 15.9255 24.3116C15.829 24.3053 15.8805 24.1462 15.9577 24.0571C16.1893 23.7707 16.1765 23.5479 15.7839 23.4079C15.6166 23.3506 15.5266 23.2042 15.7325 23.0642C16.0542 22.8478 16.0542 22.8542 15.7968 22.606C15.6681 22.4914 15.5587 22.3451 15.7968 22.256C15.9577 22.1923 16.1765 22.256 16.1893 21.9759C16.1893 21.7596 16.0799 21.6386 15.9062 21.5432C15.8032 21.4859 15.7518 21.3077 15.8226 21.2886C16.3566 21.1295 16.0671 20.8431 16.0027 20.544C15.9706 20.4103 16.2794 20.2894 16.2794 20.0348C16.2794 19.793 16.0928 19.6593 16.0478 19.4748C16.0027 19.3029 16.4017 19.2011 16.2408 18.9465C16.125 18.762 16.1765 18.6029 16.2279 18.4247C16.2859 18.2401 16.3052 18.0492 15.9963 18.0746C15.8676 18.0874 15.7775 17.9474 15.8612 17.8837C16.1057 17.6737 15.829 17.3873 16.0156 17.1582C16.2022 16.9354 16.1443 16.649 16.0349 16.3945C15.8032 16.439 15.8097 16.5854 15.7582 16.7C15.4558 17.3491 15.43 18.0746 15.2048 18.7493C14.9539 19.5002 14.838 20.2767 14.838 21.0722C14.838 22.8606 15.4686 24.5153 15.9834 26.1891C16.3116 27.2456 16.6462 28.2893 16.8199 29.3776C17.0516 30.835 17.0838 32.3051 17.2446 33.7626C17.3862 35.0418 17.5986 36.321 17.605 37.6002C17.605 39.3313 17.7401 41.056 17.8559 42.7807C17.8688 42.9653 17.8109 43.1753 17.9718 43.3726C18.1648 43.2071 18.1519 43.0226 18.1648 42.8444C18.2099 42.1698 18.2613 41.4888 18.2742 40.8078C18.2935 39.6813 18.3836 38.5612 18.1584 37.4347C17.9525 36.4101 17.8238 35.3664 17.6436 34.3354C17.4441 33.2089 17.3476 32.0506 17.3219 30.8923C17.309 30.294 17.3219 29.6767 17.1031 29.1103C16.91 28.6139 16.8843 28.0984 16.7363 27.6147C16.9679 27.4747 17.1224 27.6974 17.3283 27.6338C17.3154 27.1055 17.5342 26.6473 17.7337 26.1636C18.0297 25.4445 18.4544 24.7699 18.538 23.968C18.7375 21.9568 18.7697 19.9394 18.7761 17.9219C18.789 15.2998 18.3193 12.6968 18.2356 10.0811C18.2034 9.38105 18.1069 8.68098 18.0297 7.78999M29.0267 10.8957C28.705 11.704 28.6921 12.5314 28.8208 13.3524C28.9173 13.9761 28.8208 14.5552 28.5892 15.1216C28.409 15.5608 28.2095 15.9872 27.9328 16.3754C27.4309 17.0691 27.2636 17.8773 27.3086 18.692C27.3859 20.264 26.9998 21.8168 27.2121 23.3952C27.2636 23.7834 27.077 24.1716 27.1478 24.5662C27.3472 25.7245 27.2958 26.8637 26.9547 27.9965C26.9483 28.022 26.9933 28.0602 27.0255 28.1047C27.2829 27.8311 27.5081 27.5383 27.7977 27.3219C27.9907 27.1755 28.2417 27.0164 28.5312 27.1946C28.8144 27.3792 28.8852 27.6401 28.8337 27.9456C28.7822 28.232 28.6857 28.5057 28.5248 28.7539C27.4888 30.415 26.7424 32.2033 26.1568 34.0617C26.1182 34.189 25.9959 34.3544 26.2405 34.4754C26.8711 33.5398 27.5403 32.6425 28.1516 31.6942C28.9559 30.4341 29.5158 29.1103 29.7024 27.621C29.9276 25.8009 29.9791 23.9616 30.1206 22.135C30.2236 20.7922 30.4681 19.4684 30.8671 18.221C31.3754 16.5981 31.9481 15.0071 32.2377 13.3269C32.2441 13.2951 32.3085 13.2696 32.4693 13.1551C32.6431 14.6698 31.9481 15.9172 31.6071 17.2282C32.5659 15.9235 33.0099 14.4916 32.7846 12.875C32.7718 12.7987 32.7589 12.7159 32.7203 12.6459C32.6173 12.4423 32.4693 12.3659 32.302 12.5759C32.1926 12.7223 32.0768 12.8814 32.0253 13.0532C31.8001 13.8233 31.5878 14.6061 31.3819 15.3826C31.2146 16.0063 31.0279 16.5918 30.6547 17.1073C30.0306 17.9728 29.7796 18.9275 29.7667 19.9839C29.7603 20.5058 29.8375 21.034 29.7796 21.5495C29.6638 22.5424 29.5415 23.5288 29.4514 24.5216C29.4128 24.9608 29.4128 25.419 29.2198 25.8327C28.9946 26.3227 28.5634 26.3736 28.2417 25.9536C28.01 25.6545 27.9264 25.3045 27.8942 24.929C27.7977 23.6179 27.965 22.3069 27.9779 21.0022C27.9907 19.5575 28.2288 18.1956 28.7629 16.8654C28.9109 16.4963 28.9431 16.1081 28.9559 15.7135C28.9881 14.8798 29.0203 14.0461 29.0911 13.206C29.1683 12.4423 29.3871 11.6531 29.0332 10.8894M20.2239 41.9788C20.3784 41.0369 20.5457 40.1396 20.6744 39.2422C20.7323 38.854 20.7516 38.4594 20.6229 38.0712C20.3012 37.1165 20.2304 36.1237 20.1081 35.1372C19.9408 33.8326 20.0052 32.5152 19.9022 31.2169C19.7671 29.5621 19.8121 27.9138 20.1274 26.3036C20.3333 25.2599 20.417 24.2353 20.3719 23.1852C20.2947 21.2504 20.4041 19.3029 19.9987 17.3873C19.9537 17.1836 19.9666 16.9673 19.9537 16.7636C19.8765 15.548 20.1596 14.3643 20.3269 13.1742C20.3526 12.996 20.4749 12.7605 20.314 12.6523C19.6706 12.2132 19.6706 11.494 19.4196 10.8767C19.2008 10.3421 19.1429 9.74382 18.8212 9.2665C18.6603 9.31105 18.6346 9.39378 18.6346 9.47015C18.6281 10.8894 18.6217 12.3086 18.8405 13.7088C18.9692 14.517 19.0271 15.3253 19.0657 16.1272C19.1879 18.5647 19.1558 21.0022 18.9949 23.4397C18.9756 23.7452 18.8469 24.1016 19.3874 24.0825C19.6191 24.0761 19.7027 24.2671 19.7092 24.458C19.722 24.8208 19.7606 25.1708 19.6641 25.5463C19.2587 27.1437 18.9692 28.7539 18.9499 30.4086C18.9306 31.8596 19.2845 33.2725 19.2845 34.7172C19.2845 35.1627 19.2845 35.6082 19.3359 36.0537C19.5097 37.7466 19.8057 39.4268 19.9344 41.126C19.9537 41.3933 19.8765 41.7115 20.2239 41.9916M8.42255 25.5781C8.57055 25.6799 8.66064 25.7118 8.67994 25.7627C9.36847 27.5574 10.4495 29.1548 11.3697 30.8286C12.0132 32.006 12.4379 33.2852 12.7017 34.5963C13.2358 37.2884 12.7725 39.9423 12.3478 42.5962C12.1998 42.6216 12.2448 42.2589 12.0067 42.4434C11.9746 42.8826 12.026 43.3217 12.0646 43.7672C12.1032 44.1936 12.0904 44.6136 12.7274 44.5564C12.8239 44.5436 13.0685 44.5946 13.0041 44.8491C12.7725 44.9191 12.5601 44.6646 12.3156 44.8237C12.2062 45.0082 12.1998 45.2564 12.3156 45.4092C12.5215 45.7019 12.1226 46.3384 12.8432 46.3511C12.914 46.3511 12.869 46.5102 12.8175 46.612C12.5987 47.0512 12.7274 47.4648 13.1521 47.7576C13.2293 47.8149 13.3902 47.8021 13.2744 47.9358C12.914 48.3686 13.4867 48.6549 13.4288 49.0241C13.358 49.4632 14.0916 49.4059 13.9243 49.8705C13.9693 49.8833 14.0208 49.9214 14.0594 49.9087C14.3426 49.8387 14.4841 49.5014 14.4005 49.1386C14.3232 48.8077 14.1559 48.7886 13.8857 48.9413C13.7699 49.0114 13.6283 49.005 13.5961 48.8141C14.3297 48.5213 14.349 48.4386 13.8149 47.834C13.6798 47.6749 13.5382 47.5157 13.4095 47.3503C13.1586 47.0384 13.2744 46.8284 13.6026 46.6884C13.6798 46.7584 13.6476 46.8284 13.6154 46.892C13.4224 47.223 13.7119 47.363 13.8792 47.5412C13.95 47.6176 14.0659 47.6494 14.1688 47.573C14.4198 47.3821 14.2975 47.153 14.2267 46.9302C14.1881 46.8029 14.1881 46.6438 14.1045 46.5611C13.6347 46.0965 13.654 45.4601 13.4546 44.9C13.358 44.6327 13.3387 44.34 13.2615 44.06C12.9462 42.9653 12.8561 41.8579 12.9719 40.7251C13.1457 39.0895 13.4546 37.4602 13.2165 35.7928C13.0041 34.2972 12.5537 32.8716 12.0132 31.4842C11.6592 30.5677 11.0801 29.7276 10.5846 28.8684C9.69021 27.3219 8.71855 25.8136 8.36464 24.0252C8.33247 23.8661 8.28742 23.6561 8.01716 23.6052C7.94638 23.8979 8.0429 24.2289 7.8756 24.5026C7.70829 24.7826 7.54742 24.7953 7.36081 24.5153C6.92325 23.8598 6.49855 23.1979 6.06099 22.5487C5.97734 22.4214 5.83577 22.2878 5.66847 22.3896C5.53334 22.4724 5.61699 22.6187 5.6556 22.746C5.87438 23.4843 6.22186 24.1589 6.62081 24.808C7.66325 26.5328 8.74429 28.2384 9.76742 29.9822C10.1921 30.7077 10.7648 31.3441 11.0737 32.1333C11.7944 33.9917 12.0582 35.9328 12.0968 37.9057C12.1226 39.0004 12.0518 40.095 12.174 41.2469C12.5151 40.4832 12.5601 39.7259 12.6052 38.9749C12.6759 37.8484 12.573 36.7347 12.4765 35.6082C12.3413 34.0362 11.8652 32.5597 11.2346 31.1596C10.6361 29.8294 9.77386 28.6139 9.11108 27.3028C8.84725 26.7619 8.59629 26.2336 8.44186 25.5654M15.4622 49.7114C15.6488 49.495 16.0735 49.4441 16.0027 49.0368C15.8998 48.4449 16.2215 47.8021 15.7839 47.2484C15.6746 47.1084 15.829 47.0702 15.8998 47.013C16.0156 46.9111 16.0349 46.7966 16.0156 46.6629C15.8869 45.8547 16.0156 45.04 15.9384 44.2254C15.8869 43.7163 16.0799 43.1944 15.8354 42.698C16.2794 42.2716 15.9191 41.8134 15.8869 41.3679C15.8354 40.6169 15.3528 39.9677 15.3464 39.2104C15.3335 37.7911 15.1469 36.391 14.7415 35.0227C14.69 34.8508 14.5999 34.5836 14.6772 34.5008C14.9667 34.1826 14.7608 33.9217 14.6772 33.6289C14.4455 32.8716 14.2718 32.1079 14.4712 31.3123C14.7222 30.294 14.8059 29.2439 15.1276 28.2384C15.1855 28.0602 15.2177 27.8756 15.1469 27.6974C15.089 27.551 15.0053 27.4047 14.8187 27.3983C14.6707 27.3983 14.5871 27.5001 14.5227 27.621C14.2396 28.1175 14.1881 28.6648 14.1817 29.2185C14.1817 29.403 14.2139 29.5812 14.2139 29.7658C14.2139 29.8358 14.1688 29.9122 14.0723 29.9185C13.9822 29.9185 13.905 29.8931 13.8857 29.8167C13.8278 29.5876 13.8085 29.3521 13.7377 29.1294C13.5704 28.5821 13.4803 27.9902 12.9655 27.5574C12.8175 27.7802 12.8304 27.9584 12.8561 28.1366C12.9591 28.9448 13.062 29.7467 13.1714 30.555C13.3194 31.6687 13.4803 32.7697 14.0208 33.8008C14.3104 34.3481 14.4712 34.9972 14.5292 35.6082C14.7093 37.7211 14.9796 39.8404 14.8059 41.9661C14.7737 42.3671 14.9796 42.5453 15.3979 42.8253C14.8316 42.8062 14.6257 43.0035 14.7286 43.3853C14.8959 44.0154 14.3619 44.7027 14.9474 45.3201C15.0761 45.4537 14.6707 45.6765 14.645 45.9692C14.6192 46.2874 14.9474 46.4593 14.8959 46.6693C14.6643 47.7003 14.6514 47.9422 15.0632 48.8459C15.1405 49.0113 15.0375 48.9986 14.9667 49.0432C14.838 49.1259 14.8187 49.2723 14.8509 49.3932C14.9539 49.7369 14.9088 50.0678 14.8831 50.4242C14.8445 51.0288 15.134 51.6207 15.1469 52.2508C15.1469 52.4926 15.5459 52.6835 15.3464 53.0527C15.2756 53.1863 15.4365 53.3391 15.6231 53.3518C15.7775 53.3645 15.9384 53.3454 16.0928 53.3709C16.2022 53.39 16.2666 53.4854 16.273 53.6C16.273 53.7464 16.1572 53.7464 16.0542 53.7527C15.9126 53.7527 15.7518 53.6064 15.6295 53.8036C15.6295 54.0455 15.9191 53.9882 15.9963 54.1664C16.0671 54.3128 16.1507 54.5228 16.3952 54.4401C16.5432 54.2237 16.4081 53.9882 16.4918 53.7527C16.7041 53.1799 16.6655 53.1545 16.0156 53.0908C15.9319 53.0845 15.874 53.0399 15.8612 52.8872C16.2279 52.7535 16.4146 52.5181 16.0478 52.1553C16.0092 52.1171 16.0092 51.9962 16.0349 51.9325C16.1893 51.5634 16.0928 51.2516 15.9319 50.8888C15.7839 50.5451 16.1829 50.176 16.0349 49.7878C16.022 49.7496 15.9641 49.7178 15.9319 49.686C15.7968 49.6541 15.681 49.9023 15.4879 49.7241M33.3123 29.804C33.3316 29.263 33.3831 28.7284 33.3638 28.2002C33.3187 27.2328 33.2093 26.2655 33.1707 25.3045C33.0999 23.5606 33.145 21.8359 34.3032 20.3594C34.5606 20.0285 34.7022 19.6212 34.8052 19.2075C34.8309 19.0993 34.8309 18.9911 34.7151 18.9402C34.6121 18.8893 34.4899 18.9147 34.4191 18.9911C34.329 19.0802 34.2711 19.2011 34.2132 19.322C33.9043 19.9776 33.6598 20.6649 33.0742 21.1549C32.9005 21.3013 32.8554 21.5113 32.849 21.7277C32.849 21.9632 32.849 22.1987 32.849 22.4342C32.849 22.6506 32.849 22.8924 32.598 22.9497C32.2892 23.0197 32.154 22.7715 32.1283 22.536C32.0511 21.9696 31.7937 21.4286 31.8387 20.8367C31.858 20.6331 31.8966 20.3594 31.6135 20.3276C31.2918 20.2894 31.266 20.5822 31.2081 20.8049C31.1888 20.8813 31.1631 20.9577 31.1502 21.034C30.9572 21.9441 31.414 22.7778 31.4591 23.6625C31.4591 23.7898 31.5685 23.9043 31.6972 23.9616C31.7937 24.0061 31.9031 24.0507 31.9031 24.1716C31.9031 24.999 32.1347 25.8009 32.0961 26.6473C32.0575 27.5256 32.0382 28.4166 32.3278 29.2758C32.3921 29.4667 32.3664 29.5812 32.1347 29.5685C32.0189 29.5621 31.9481 29.6003 31.8773 29.6958C31.6907 29.9758 32.0961 30.1222 32.0318 30.3259C31.9739 30.5104 31.4655 30.4277 31.6779 30.835C31.7551 30.9877 31.7551 31.1278 31.665 31.2805C31.4912 31.5733 31.6071 31.8151 31.7937 32.0697C32.006 32.3624 31.369 32.4961 31.6199 32.8207C31.8323 33.0943 31.7358 33.2407 31.4269 33.3234C31.2789 33.3616 31.1759 33.5271 31.2081 33.6162C31.4076 34.068 31.1952 34.2844 30.7899 34.4054C30.7706 34.4054 30.7641 34.4499 30.7512 34.4754C30.4746 34.9081 30.5904 35.5446 30.0177 35.8119C30.185 36.3146 29.7925 36.5247 29.5093 36.8047C29.3678 36.9447 29.2455 37.142 29.2519 37.3647C29.2519 37.5366 29.1876 37.6384 29.0589 37.7657C28.5441 38.2748 28.2996 38.9494 27.9972 39.5859C27.9521 39.6813 27.8878 39.8532 27.9586 39.8723C28.5119 40.0314 28.1645 40.375 28.113 40.6232C27.7848 42.1952 27.817 43.799 27.6111 45.4219C27.9521 45.2437 27.9328 44.9573 27.965 44.7091C28.0358 44.1872 28.0872 43.6654 28.1194 43.1435C28.2159 41.7688 28.4669 40.4514 29.4064 39.344C29.6252 39.0895 29.741 38.7585 29.8632 38.4339C30.2365 37.4538 30.6419 36.4928 31.2982 35.64C31.6135 35.2327 32.0575 34.8572 32.1476 34.329C32.3085 33.4125 32.7203 32.5788 32.7718 31.6051C32.8426 30.3068 32.7396 29.0466 32.598 27.7738C32.4693 26.6282 32.3986 25.4763 32.4629 24.318C32.4758 24.1334 32.4629 23.9425 32.5659 23.7834C32.5916 23.7452 32.6495 23.7197 32.6946 23.7134C32.7911 23.6943 32.8361 23.7707 32.849 23.8407C32.8619 23.917 32.849 23.9998 32.8426 24.0761C32.6495 25.9154 32.9713 27.742 33.0742 29.5685C33.0871 29.6576 33.0871 29.7849 33.2994 29.8104M19.3681 24.6298C18.7504 24.7699 18.6024 25.1772 18.4672 25.559C17.946 27.0037 17.6822 28.4802 17.6886 30.0204C17.6951 32.5979 18.2356 35.1118 18.5638 37.6511C18.7826 39.3568 18.7053 41.056 18.5638 42.7489C18.4351 44.2509 17.8173 45.7019 18.1005 47.2484C18.1906 47.7576 18.1455 48.2922 18.1584 48.8141C18.1712 50.0233 18.2485 51.2261 18.493 52.4099C18.6152 53.0017 18.9756 53.4918 19.3617 53.9564C19.4453 54.0582 19.5805 54.1473 19.7092 54.0709C19.8636 53.9818 19.8379 53.7973 19.8314 53.6445C19.8186 53.5045 19.7606 53.3963 19.5869 53.4154C19.4453 53.4282 19.2716 53.5427 19.2008 53.3072C19.2523 53.0845 19.5033 53.1099 19.6191 52.9763C19.6963 52.8872 19.7027 52.709 19.6255 52.7217C19.0528 52.8235 18.9692 52.7344 19.4389 52.3399C19.4968 52.2889 19.4389 52.1808 19.3617 52.1553C19.0914 52.0662 19.1622 51.9262 19.2523 51.7353C19.3424 51.5443 19.0399 51.3852 19.2394 51.1052C19.4839 50.7743 18.8469 50.8824 18.8469 50.6342C18.9499 50.4433 19.3424 50.5579 19.2266 50.2142C18.4801 50.1378 19.0657 49.9214 19.1686 49.7369C19.2459 49.6096 19.1686 49.4887 19.0721 49.3868C18.9692 49.285 18.7375 49.3678 18.7053 49.1514C18.7954 48.9477 19.2909 49.005 19.1043 48.7059C18.9499 48.4513 18.7439 48.3304 19.1493 48.1585C19.2523 48.114 19.2523 47.9867 19.1944 47.8849L19.2072 46.5802C19.5032 45.7401 19.3681 45.3646 18.6088 44.8555C18.5766 44.8364 18.5831 44.7664 18.5702 44.7091C18.7504 44.5436 18.9692 44.6709 19.1622 44.6391C19.2909 44.62 19.4518 44.6009 19.4003 44.4163C19.2652 43.939 19.8121 43.449 19.3617 42.9717C19.2587 42.8571 19.4067 42.8126 19.4711 42.7425C19.7735 42.4116 19.5869 42.0107 19.5805 41.6543C19.5805 41.3742 19.1558 41.5652 18.982 41.406C18.9563 41.3806 18.9563 41.3169 18.9499 41.2724C19.0206 41.1769 19.13 41.1833 19.2266 41.1451C19.6512 40.9924 19.677 40.8842 19.3166 40.636C19.0657 40.4641 19.0979 40.3814 19.3295 40.2668C19.4839 40.1905 19.5419 40.0377 19.4003 39.9741C19.085 39.8341 19.0335 39.7386 19.3424 39.5159C19.5226 39.3886 19.4968 39.1976 19.2909 39.0704C19.1879 39.0004 19.0271 38.9367 19.1622 38.784C19.4518 38.4467 19.3939 38.1412 19.1236 37.8166C18.8533 37.4857 19.3874 37.1484 19.1429 36.811C19.085 36.7283 19.0142 36.6328 18.9241 36.5947C18.6796 36.4865 18.7697 36.3974 18.9112 36.2701C19.0786 36.1237 19.0335 35.9328 18.9499 35.7609C18.8855 35.6209 18.7633 35.5127 18.8405 35.3345C18.9692 35.0481 18.8212 34.8699 18.6796 34.6026C18.5509 34.3544 18.7697 33.8898 18.3772 33.6353C18.8019 33.3743 18.9434 33.0943 18.4286 32.7697C18.4158 32.7697 18.4544 32.6806 18.4737 32.6361C18.6367 32.2118 18.5595 31.8703 18.242 31.6114C18.242 31.325 18.7375 31.4205 18.6474 31.0196C18.5702 30.6759 18.1069 30.8159 18.0554 30.5168C18.0812 30.4595 18.0876 30.4277 18.1069 30.415C18.1519 30.3831 18.197 30.3704 18.242 30.3386C18.641 30.0904 18.641 30.0904 18.2742 29.7467C18.197 29.6767 18.0876 29.6131 18.2034 29.5049C18.6796 29.0657 18.7826 28.4102 18.7118 27.9011C18.6281 27.271 19.1365 26.6919 18.7826 26.0809C18.7697 26.0682 18.8276 25.9918 18.8662 25.9727C19.4132 25.6609 19.0721 25.0944 19.3746 24.6107M26.7681 24.7953C26.2598 25.5208 25.7257 26.1954 25.2045 26.8828C24.8827 27.3092 24.6704 27.7738 24.754 28.3402C24.8119 28.7284 24.7219 29.1166 24.6318 29.5049C24.3551 30.7523 24.0591 32.006 23.8725 33.2725C23.7116 34.3672 23.422 35.4236 23.1646 36.4865C22.9072 37.5557 22.785 38.6503 22.83 39.7577C22.8558 40.3369 23.0359 40.8905 23.2676 41.4251C23.3384 41.5842 23.4092 41.7752 23.6923 41.7243C23.7824 41.4951 23.8596 41.2597 23.8725 40.9924C23.969 39.344 24.0655 37.702 24.1685 36.0601C24.2328 35.0609 24.4323 34.0935 24.7733 33.1516C25.3267 31.6305 25.8737 30.1095 26.4142 28.582C26.8453 27.3601 27.0191 26.1127 26.7617 24.8017M14.2782 45.8929C14.3232 44.4164 14.4069 42.9589 14.4906 41.4951C14.5935 39.6813 14.3104 37.8866 14.1817 36.0855C14.1238 35.22 13.8921 34.3863 13.4932 33.5971C13.2872 33.1771 13.0942 32.757 12.9977 32.2797C12.7982 31.3441 12.6309 30.3895 12.3671 29.473C11.9166 27.9074 11.6528 26.3036 11.3697 24.7062C11.1187 23.2997 10.5525 21.995 9.94116 20.7222C9.40708 19.6148 8.78934 18.5392 8.39038 17.3682C7.88847 15.9044 7.38012 14.447 7.45734 12.8623C7.46377 12.7096 7.53455 12.4805 7.26429 12.4295C7.0069 12.6205 7.06481 12.8941 7.04551 13.1487C7.0069 13.8169 7.21925 14.447 7.36725 15.0834C7.64395 16.2545 7.92708 17.4319 8.46116 18.5201C8.9309 19.4875 9.43925 20.4358 9.90255 21.4032C10.7455 23.1661 11.0737 25.0372 11.1573 26.9655C11.1959 27.8502 11.1895 28.773 11.6271 29.5812C12.1933 30.625 12.5215 31.7387 12.8947 32.8525C13.2615 33.9535 13.6026 35.0291 13.6347 36.2064C13.6605 37.3329 13.7956 38.4339 13.4867 39.554C13.3194 40.1459 13.3001 40.7951 13.2615 41.4188C13.1779 42.6916 13.7441 43.8308 13.9307 45.04C13.9758 45.3264 13.9565 45.6637 14.2846 45.8865M11.537 41.8897C11.8266 41.6033 11.878 41.3679 11.73 41.1069C11.6335 40.9351 11.6142 40.7633 11.6013 40.5787C11.4984 39.2358 11.0093 37.9757 10.6619 36.6901C10.4109 35.7609 10.1792 34.7936 9.66447 33.9726C9.17542 33.1898 8.96951 32.3497 8.77647 31.4778C8.73786 31.3187 8.79577 31.0959 8.51908 31.0259C8.13942 32.3242 8.09438 33.5653 8.84081 34.7936C9.38134 35.6846 9.8189 36.6265 9.80603 37.7402C9.79316 38.3512 9.85108 38.9876 10.1664 39.5668C10.5911 40.3496 11.2474 40.9796 11.5434 41.8834M4.84482 33.088C5.00569 32.8843 4.9156 32.7061 4.87055 32.5343C4.4716 31.045 4.08551 29.5431 3.56429 28.092C3.25542 27.2137 3.12029 26.3227 3.17177 25.3936C3.21038 24.6362 3.19108 23.8725 3.17177 23.1151C3.17177 22.8797 3.10742 22.6506 3.04308 22.4214C2.99803 22.2623 2.88221 22.135 2.6956 22.1796C2.52186 22.2178 2.55403 22.3769 2.56047 22.4978C2.5669 22.7078 2.59908 22.9179 2.60551 23.1215C2.61195 23.3697 2.57977 23.6243 2.31595 23.7134C2.01995 23.8152 1.91699 23.5543 1.78829 23.3506C1.39577 22.7142 1.26708 21.9823 0.996816 21.3077C0.900294 21.0658 0.893859 20.7858 0.58499 20.6904C0.501338 20.7795 0.482033 20.8749 0.527077 20.9767C1.06116 22.3387 1.56308 23.707 2.14221 25.0499C2.58621 26.0682 2.62482 26.0491 2.63125 27.3474C2.63125 27.6083 2.66986 27.8693 2.70847 28.1302C2.90795 29.6258 3.6029 30.9623 4.07264 32.3752C4.16273 32.687 4.47803 32.967 4.84482 33.088ZM14.6064 12.4614C14.8187 12.2132 15.4686 12.105 14.8831 11.6022C14.7672 11.5004 14.9088 11.3094 15.0439 11.3667C15.4493 11.5513 15.4429 11.2649 15.4429 11.0358C15.4429 10.4057 15.4815 9.76291 15.3786 9.15194C15.1147 7.58633 15.1019 6.02072 15.1469 4.44238C15.1598 3.97142 15.1469 3.50047 15.134 3.02315C15.134 2.86404 15.0826 2.68584 14.9152 2.62856C14.7158 2.55856 14.5549 2.69857 14.4519 2.85768C14.3812 2.95951 14.3554 3.09952 14.3104 3.22044C14.0466 3.97142 14.0401 4.76696 14.0208 5.5434C14.0079 6.08436 13.7699 6.7717 14.6514 6.94354C14.7351 6.96263 14.8123 7.10264 14.7544 7.21084C14.6772 7.35721 14.5678 7.35085 14.4391 7.23629C14.2911 7.10264 14.0208 7.01355 14.0337 7.27448C14.053 7.72634 13.654 8.27367 14.2396 8.64916C14.3426 8.7128 14.3554 8.8019 14.3039 8.91646C14.0079 9.59744 14.0594 10.1893 14.793 10.5839C14.941 10.6603 15.0504 10.8003 14.941 10.9721C14.8573 11.093 14.7222 11.0549 14.5806 11.0167C14.2074 10.9148 14.0723 11.0167 14.246 11.3158C14.4519 11.6722 14.4198 12.0668 14.6064 12.455M30.4617 22.2751C30.3845 23.1279 30.4359 23.9934 30.2815 24.8335C30.2365 25.0817 30.333 25.1835 30.629 25.209C31.2596 25.2663 31.3626 25.4572 31.2982 26.0873C31.2339 26.6664 30.9379 27.1246 30.5711 27.5447C30.1592 28.0156 29.9598 28.5693 29.7796 29.1485C29.4579 30.1731 29.1168 31.1978 28.4154 32.0506C28.2095 32.2988 28.0358 32.5852 27.9328 33.0689C28.6857 32.2733 29.3099 31.6051 29.9533 30.9496C30.6998 30.1858 31.1695 29.2694 31.6006 28.3148C31.6779 28.1429 31.6907 27.952 31.6392 27.7738C31.4848 27.2837 31.517 26.7746 31.5878 26.2909C31.6779 25.6354 31.4977 25.0435 31.2982 24.4516C31.0859 23.8279 30.9121 23.1979 30.7384 22.5678C30.7062 22.4533 30.7062 22.3005 30.4746 22.2687M15.2048 29.8485C14.838 31.0641 14.6257 32.2479 15.0761 33.508C15.6939 35.2454 15.9899 37.0465 15.9191 38.9049C15.8869 39.8595 16.0992 40.7951 16.2794 41.7815C16.5432 41.5652 16.4982 41.3488 16.4789 41.1451C16.3438 39.6813 16.3502 38.2176 16.3888 36.7474C16.4017 36.3592 16.3888 35.9646 16.3566 35.5764C16.2086 33.7244 15.681 31.9297 15.4236 30.0967C15.4107 29.9886 15.3528 29.9058 15.2048 29.8549M16.7556 14.0461C16.5111 14.727 16.1765 15.2425 16.3052 15.8662C16.7749 18.151 16.6912 20.4485 16.4789 22.7524C16.4339 23.2361 16.3502 23.7516 16.6398 24.2098C17.6886 23.5543 17.6179 17.2091 16.7556 14.0397M6.8589 42.1188C6.69803 40.7887 6.78812 39.535 6.37629 38.3321C6.02238 37.3075 5.64273 36.3083 4.90916 35.4746C4.70969 35.2454 4.52308 35.0036 4.1756 34.9972C3.80882 36.5119 5.6749 40.8269 6.8589 42.1188ZM27.122 29.0275C26.8132 29.6067 26.5107 30.154 26.2276 30.7141C25.2559 32.6488 24.4516 34.6345 24.5159 36.8556C24.5288 37.2693 24.4452 37.6893 24.4194 38.1094C24.3615 38.994 24.31 39.885 24.2714 40.7696C24.265 40.9033 24.2135 41.1133 24.561 41.0751C24.5031 39.9359 24.4838 38.7903 25.2173 37.7275C24.7154 37.8611 24.6318 37.8039 24.7347 37.4793C24.8956 36.9574 25.1015 36.4419 25.2495 35.9137C25.2946 35.7609 25.1594 35.5637 25.1594 35.3918C25.153 35.0609 25.4683 35.3855 25.5712 35.2073C25.6292 35.0991 25.6356 35.01 25.5712 34.9209C25.4554 34.7745 25.3396 34.6345 25.346 34.4308C25.346 34.3417 25.301 34.1699 25.4554 34.2017C26.0989 34.3544 25.8222 33.8262 25.8608 33.6226C25.9187 33.3489 25.7192 33.0561 26.1311 32.8588C26.3048 32.7761 26.3756 32.4388 26.2791 32.2097C26.1439 31.8978 26.189 31.8215 26.5365 31.6687C26.8775 31.5223 26.5944 31.115 26.5107 30.8286C26.944 30.7438 27.1263 30.4828 27.0577 30.0458C27.0512 29.9949 27.0255 29.944 27.0255 29.8931C27.0448 29.7722 27.0963 29.7658 27.2314 29.7722C27.5789 29.7913 27.6175 29.7403 27.5081 29.5112C27.4373 29.3521 27.4245 29.1357 27.1413 29.0212M26.974 40.7505C27.9521 38.1857 29.5801 35.9646 30.8349 33.3934C29.5222 34.1953 27.9264 35.8309 27.3537 37.7084C27.0577 38.6885 26.7617 39.6877 26.974 40.7505ZM12.2448 47.0702C11.7236 48.0058 11.7879 48.6168 12.47 49.4187C12.7789 49.7878 13.1328 50.2842 13.0942 50.4306C12.9719 50.8952 13.4352 51.3598 13.0685 51.8116C13.3709 52.1171 12.9076 52.5117 13.165 52.8172C13.5575 52.7917 13.2937 52.2317 13.6926 52.2317C13.8599 52.5817 13.5446 52.8235 13.4803 53.1099C13.3966 53.4727 13.5511 53.8609 13.8406 54.0773C14.2203 54.3637 14.1045 53.6636 14.4262 53.8164C14.4391 53.88 14.4777 53.95 14.4777 54.0264C14.4841 54.1982 14.4005 54.4146 14.6579 54.4783C14.9024 54.5419 15.1405 54.491 15.3142 54.3064C15.4751 54.1346 15.3399 53.95 15.2627 53.7973C15.0118 53.3263 14.9152 52.8108 14.8059 52.3017C14.7479 52.0535 14.793 51.7162 14.542 51.608C14.2074 51.468 14.2203 51.9707 13.8921 52.0344C13.9886 51.7925 13.5511 51.5825 13.8149 51.4234C14.1817 51.207 13.9693 51.0479 13.8664 50.8697C13.4739 50.1951 13.1264 49.5014 12.869 48.7568C12.6824 48.1967 12.5794 47.5858 12.2448 47.0639M13.2679 18.7493C13.4417 18.7493 13.4932 18.6856 13.5125 18.6156C13.8471 17.4573 14.1302 16.2926 14.5163 15.1534C14.7093 14.5934 14.6514 14.097 14.4841 13.5751C14.394 13.3014 14.2782 13.0341 14.2074 12.7541C14.1366 12.4805 14.1495 12.175 13.8728 11.7867C13.3452 14.1988 12.721 16.4199 13.2679 18.7493ZM17.1031 6.01435C17.6114 5.7216 17.7272 5.15518 18.242 5.05971C18.2742 5.05971 18.2935 4.97698 18.3128 4.92606C18.6667 3.99688 18.937 3.04861 19.13 2.07487C19.1622 1.91577 19.1558 1.75666 19.0399 1.62937C18.9499 1.54027 18.8469 1.43845 18.7053 1.47663C18.5895 1.50845 18.5445 1.61028 18.5316 1.71847C18.5059 1.92213 18.5059 2.13215 18.4158 2.32944C18.3321 2.50128 18.2742 2.67311 18.0361 2.65402C17.8173 2.63493 17.6822 2.50764 17.6436 2.32308C17.5857 2.06851 17.605 1.80121 17.5406 1.54664C17.4827 1.29843 17.6243 0.840205 17.2318 0.859297C16.9293 0.872026 16.9551 1.3048 16.9422 1.58482C16.865 3.02951 16.9422 4.46147 17.1031 6.01435ZM33.8271 28.2193C34.1488 28.1175 34.3097 27.9202 34.2646 27.6274C34.226 27.4047 34.1231 27.2074 34.4834 27.2201C34.6057 27.2201 34.67 27.1437 34.7022 27.0292C34.8824 26.3864 35.1398 25.7627 35.3006 25.1199C35.3714 24.8335 35.41 24.6107 35.6353 24.4135C35.8991 24.178 35.4937 23.8216 35.7639 23.5415C35.9313 23.3697 35.957 23.1024 35.8026 22.886C35.6739 22.7078 35.7189 22.6124 35.8991 22.5296C36.0342 22.466 36.1307 22.3323 36.0921 22.2178C35.9892 21.8741 36.1179 21.575 36.1822 21.2504C36.2144 21.0849 36.2015 20.8749 35.9892 20.7795C35.7897 20.9004 35.7382 21.1104 35.706 21.3077C35.6288 21.9123 35.4358 22.4724 35.1526 23.007C35.1076 23.0961 35.1076 23.2106 35.0819 23.3124C34.7408 24.5153 34.4512 25.7309 33.8592 26.851C33.6276 27.2774 33.589 27.7483 33.8206 28.2129M20.0309 43.3917C19.4003 49.1195 19.3746 50.927 19.8443 51.8371C19.9408 50.4115 20.3912 49.0559 20.4234 47.6303C20.4556 46.1983 20.0824 44.8109 20.0309 43.3917ZM8.53195 28.7475C8.7636 31.3696 9.89612 33.7053 10.9128 36.0855C10.7069 33.4571 9.78673 31.0514 8.53195 28.7475ZM30.7319 20.4676C31.1309 19.8757 31.5106 19.443 31.9031 19.1184C32.7525 18.4056 33.2479 17.4573 33.8979 16.6109C34.2839 16.1144 34.226 15.5226 34.3933 14.9752C34.4512 14.7843 34.3483 14.587 34.0973 14.6379C33.9043 14.6761 33.737 14.778 33.8721 15.0262C34.0137 15.2871 33.9429 15.5353 33.8464 15.7835C33.5954 16.4518 33.1707 17.0182 32.746 17.591C32.7074 17.6482 32.6109 17.661 32.5208 17.5337C32.7332 16.7445 33.5375 16.1654 33.589 15.1789C33.1064 15.6817 30.8478 19.8248 30.7384 20.474M20.4878 18.011C21.2921 16.159 21.6267 12.3977 21.1119 11.3922C20.4813 12.7923 20.0824 16.77 20.4878 18.011ZM24.7026 27.0674C24.9213 26.5455 25.198 26.2591 25.4297 25.9536C25.8286 25.4317 26.2019 24.8971 26.5236 24.3244C26.9161 23.6434 26.7681 22.9497 26.7295 22.1096C26.2147 22.7397 26.0667 23.3888 25.7064 23.9234C25.2688 24.5789 24.9664 25.3108 24.6189 26.0109C24.4709 26.3164 24.4645 26.5964 24.7026 27.0674ZM9.51647 10.7621C9.51003 10.0493 9.51647 9.5338 9.0789 9.03738C8.66708 8.56643 8.52551 7.91727 8.48047 7.27448C8.44829 6.82898 8.95021 6.70806 9.00168 6.24983C9.04673 5.84888 9.2269 5.87434 9.2269 5.74069C9.2269 5.53067 9.2269 5.32065 9.24621 5.11699C9.27194 4.77332 9.25908 4.43602 9.17542 4.0287C9.0596 4.15599 9.00168 4.18781 8.99525 4.226C8.79577 5.28246 8.50621 6.31348 8.16516 7.33812C8.05577 7.66906 8.10725 8.01274 8.26812 8.33095C8.66064 9.09466 9.04673 9.86474 9.51003 10.7621M11.4276 16.0126C10.8613 19.6403 12.322 23.2933 14.1817 25.6036C13.4674 24.0125 12.5601 22.5933 12.0839 20.9767C11.6078 19.3539 11.5112 17.6928 11.4276 16.019M11.5949 38.7967C11.8008 36.6456 11.4212 33.3552 10.398 31.9106C10.2693 32.0633 10.3852 32.197 10.4302 32.3433C10.8356 33.7498 11.3053 35.1627 11.2732 36.6392C11.2603 37.3393 11.2474 38.0139 11.5949 38.7967ZM9.31055 42.4371C9.25264 42.4625 9.20116 42.488 9.14968 42.5134C9.32986 43.5381 9.60012 44.5245 10.3466 45.3392C10.398 45.3964 10.4688 45.441 10.5396 45.4728C10.7391 45.5556 10.8485 45.4601 10.8485 45.2692C10.8485 45.1419 10.8163 45.0019 10.7584 44.8937C10.2886 44.0727 9.7996 43.2581 9.32342 42.4371M28.6278 25.7118C28.9946 25.0881 29.3099 23.1597 29.1812 22.5169C28.8401 22.8415 28.8466 23.3952 28.4026 23.6561C28.3575 23.6816 28.3446 23.8025 28.3446 23.8725C28.3446 24.4771 28.3832 25.0817 28.6342 25.7118M8.68638 40.5023C8.7636 40.0823 8.80864 39.6813 8.64134 39.2677C8.49334 38.8794 8.37108 38.4785 8.30673 38.0712C8.23595 37.6448 7.94638 37.3266 7.85629 36.9129C7.77908 36.5501 7.66968 36.1746 7.34795 35.9137C7.95282 37.4029 8.06221 39.0258 8.68638 40.5023ZM5.44325 26.6409C5.39821 25.9154 5.09577 25.349 4.67108 24.8399C4.56812 24.7126 4.36221 24.5917 4.18847 24.7317C4.05334 24.8399 4.11768 25.0117 4.16273 25.1644C4.3236 25.7818 4.72899 26.2655 5.11508 26.7491C5.15368 26.8001 5.25021 26.8382 5.31455 26.8255C5.44969 26.8128 5.44325 26.6919 5.44325 26.6346M15.6038 6.49167C15.4429 7.88545 15.8161 9.22194 15.9834 10.5839C16.3438 9.18376 15.7775 7.84726 15.6038 6.49167ZM8.84081 17.6419C9.0789 18.762 9.67734 19.7166 10.2758 20.6649C10.1535 19.4939 9.34273 18.6411 8.84081 17.6419ZM27.7591 28.302C27.9521 28.2575 28.0229 28.6202 28.2224 28.4484C28.4026 28.2893 28.4476 28.0411 28.454 27.8056C28.454 27.691 28.3704 27.602 28.261 27.5956C28.0293 27.5829 27.8685 27.7356 27.7333 27.8947C27.6497 27.9902 27.6175 28.1238 27.5467 28.2384C27.2121 28.7475 27.2121 28.7475 27.8363 29.0976C28.0165 28.8239 27.6368 28.6266 27.7655 28.302M30.1271 27.5001C30.5453 26.9719 30.8413 26.5709 30.9057 26.0427C30.9186 25.9091 30.8992 25.7818 30.7577 25.7245C30.6097 25.6672 30.5003 25.7563 30.4295 25.8645C30.3587 25.9663 30.2879 26.0873 30.2686 26.2082C30.2107 26.5837 30.185 26.9592 30.1335 27.5065M20.4556 11.2394C20.8546 10.4566 20.7773 9.93474 20.2819 9.55925C20.1918 9.73745 20.2368 9.92202 20.2626 10.1002C20.3205 10.4502 20.3784 10.8003 20.4492 11.2458M29.6445 11.3349C29.7088 10.9848 29.7796 10.6348 29.8311 10.2848C29.8504 10.1575 29.7796 10.0366 29.6445 9.97929C29.4836 9.90929 29.3356 9.96657 29.2198 10.0811C29.1297 10.183 29.0911 10.3357 29.194 10.4312C29.4772 10.6794 29.4386 11.0358 29.638 11.3349M27.6432 40.4514C27.2443 41.0496 27.2057 41.1578 27.2057 41.8834C27.4245 41.3424 27.6497 40.9733 27.6432 40.4514ZM14.3747 26.0936C14.4005 26.4818 14.4841 26.8446 14.9474 26.9464C15.0504 26.9719 15.1662 26.9719 15.1919 26.8446C15.2048 26.7873 15.1469 26.66 15.1019 26.6537C14.7672 26.5773 14.6257 26.2909 14.3683 26.0936M27.4759 50.0742C27.4245 49.9023 27.3601 49.8514 27.2829 49.8578C27.122 49.8769 26.929 49.6796 26.7874 49.9024C26.7617 49.9469 26.7424 50.0105 26.7617 50.0487C26.8839 50.3224 27.0706 50.0169 27.225 50.0933C27.2765 50.1187 27.3666 50.0805 27.4759 50.0678M14.8316 13.4096C15.0182 13.136 15.1083 12.945 15.0375 12.6968C14.8573 12.7987 14.7672 12.9259 14.7351 13.0787C14.7222 13.1487 14.7737 13.2251 14.8316 13.4096ZM20.5199 53.7018C20.5199 53.5427 20.417 53.4791 20.2754 53.46C20.1918 53.4472 20.121 53.4854 20.1403 53.5873C20.1596 53.7145 20.1853 53.8546 20.3333 53.8864C20.4556 53.9118 20.5071 53.81 20.5199 53.7018ZM14.2653 50.5451C14.3876 50.5388 14.4519 50.456 14.4777 50.3478C14.5034 50.246 14.5034 50.0996 14.4005 50.0678C14.2525 50.0233 14.1752 50.1442 14.1495 50.2842C14.1302 50.3988 14.1688 50.4815 14.2653 50.5388M10.7584 22.0014C10.7584 21.7532 10.7262 21.645 10.5975 21.5877C10.6426 21.6959 10.6812 21.8041 10.7584 22.0014ZM12.0196 26.6155C12.1419 26.3927 12.1547 26.2336 11.9681 26.0809C11.9166 26.2527 11.9231 26.4055 12.0196 26.6155ZM17.0387 54.281C17.013 54.2173 17.0066 54.1091 16.9036 54.16C16.8457 54.1855 16.8006 54.2619 16.7813 54.3319C16.7556 54.4082 16.8006 54.4846 16.8843 54.491C17.0194 54.491 17.0323 54.3892 17.0452 54.2873"></path>
</svg>
