<svg xmlns="http://www.w3.org/2000/svg" width="10" height="10" viewBox="0 0 10 10" fill="none">
<path d="M4.61578 9.61579C4.61578 9.82737 4.78736 10 4.99999 10C5.21157 10 5.3842 9.82842 5.3842 9.61579V5.92799L7.99159 8.5358C8.06737 8.61053 8.16527 8.64843 8.26422 8.64843V8.64738C8.36211 8.64738 8.46106 8.61053 8.5358 8.53474C8.68527 8.38422 8.68527 8.14001 8.5358 7.99053L5.92947 5.3842H9.61579C9.82737 5.3842 10 5.21157 10 4.99999C10 4.78842 9.82842 4.61578 9.61579 4.61578H5.92803L8.53581 2.00843C8.68528 1.8579 8.68528 1.61369 8.53581 1.46422C8.38528 1.31474 8.14107 1.31474 7.9916 1.46422L5.3842 4.07119V0.384211C5.3842 0.172632 5.21157 0 4.99999 0C4.78842 0 4.61578 0.171579 4.61578 0.384211V4.07052L2.00843 1.46316C1.8579 1.31369 1.61369 1.31369 1.46422 1.46316C1.31474 1.61369 1.31474 1.8579 1.46422 2.00737L4.07221 4.61578H0.384211C0.172632 4.61578 0 4.78842 0 4.99999C0 5.21157 0.171579 5.3842 0.384211 5.3842H4.07098L1.46318 7.99159C1.31371 8.14211 1.31371 8.38632 1.46318 8.5358C1.53897 8.61053 1.63686 8.64843 1.73581 8.64843C1.83476 8.64843 1.93265 8.61053 2.00739 8.5358L4.61578 5.92782V9.61579Z" fill="black"/>
</svg>