<svg xmlns="http://www.w3.org/2000/svg" fill="none" viewBox="0 0 65 63" height="63" width="65">
<path fill="black" d="M61.9424 22.8877C62.1138 24.0369 62.2518 25.0743 62.7611 26.0737C63.2013 26.935 63.4321 27.9153 63.663 28.867C63.9128 29.8997 63.6082 30.8657 63.0514 31.7437C62.8158 32.1148 62.9372 32.2838 63.2441 32.5407C63.7986 33.0095 64.3412 33.5187 64.7743 34.0968C64.9718 34.3586 64.9171 34.8249 64.9409 35.1985C64.9671 35.5958 64.9052 36.0003 64.9576 36.3929C65.0694 37.2138 64.9766 37.9752 64.4816 38.6604C63.8153 39.5813 63.306 40.5711 63.1799 41.7203C63.1561 41.9463 63.1418 42.1795 63.168 42.4055C63.3893 44.3304 62.8896 45.996 61.4808 47.3784C60.9905 47.859 60.5646 48.4206 60.1814 48.994C59.2795 50.3455 58.004 51.0997 56.4547 51.4661C55.8146 51.6184 55.1887 51.8302 54.5486 51.9753C53.0731 52.3084 52.3069 53.3316 51.7286 54.645C51.2003 55.8394 50.5816 57.01 49.8843 58.1141C48.2565 60.6909 45.7197 61.8544 42.8545 62.5278C39.649 63.2796 36.5268 63.1702 33.4593 61.9353C32.3456 61.488 31.1819 61.3143 29.992 61.3738C28.7665 61.4356 27.6504 61.1002 26.4962 60.7099C24.2854 59.9628 22.0294 59.3442 19.7663 58.7731C19.2309 58.6375 18.5907 58.8755 18.0077 58.9825C17.3437 59.1039 16.7036 59.1158 16.0849 58.7969C14.3857 57.9261 12.658 57.1052 10.9875 56.182C8.92898 55.0423 7.67962 53.3125 7.48924 50.9094C7.46306 50.5644 7.48924 50.2122 7.51541 49.8672C7.76053 46.6694 7.55349 43.481 7.24888 40.2998C7.19891 39.7668 6.88478 39.2505 6.64919 38.7461C6.42073 38.256 6.11613 37.8015 5.88053 37.3161C5.36651 36.2573 4.78347 35.2746 4.02434 34.3372C3.1129 33.2093 2.62267 31.7508 1.77786 30.5564C0.388096 28.5839 0.0168564 26.352 0.000198211 24.0679C-0.01646 21.56 1.01873 19.3329 2.40849 17.2867C2.82019 16.6776 3.1248 16.1113 3.16049 15.338C3.22474 13.958 3.19143 12.4994 4.14094 11.3526C4.79061 10.5698 5.54499 9.86548 6.30175 9.18022C7.28934 8.28558 8.27217 7.37429 9.34543 6.59386C11.649 4.92117 14.0002 3.30559 16.8606 2.69886C18.3527 2.3824 19.8496 2.08498 21.3488 1.81136C22.8409 1.54011 24.2759 1.91843 25.6871 2.33244C27.1673 2.76786 28.6475 3.21756 30.0968 3.74577C30.794 4.00036 31.3128 3.80526 31.8887 3.47929C33.4546 2.59416 35.03 1.7257 36.6149 0.876269C38.4758 -0.118301 40.47 -0.263442 42.4095 0.426571C45.1415 1.39735 47.9305 2.0374 50.7934 2.40382C52.8233 2.66317 54.6604 3.4198 56.4095 4.48099C57.9326 5.40418 58.7131 6.88652 59.6269 8.29986C60.4242 9.53713 60.7978 10.8363 60.6764 12.3138C60.5693 13.6106 60.6169 13.6177 61.8306 14.1126C62.4422 14.3601 62.8063 14.7836 63.0466 15.4165C63.613 16.906 63.7106 18.4716 63.9105 20.0229C63.989 20.6321 64.1199 21.2531 64.077 21.8598C64.008 22.7997 63.5821 23.0876 62.6397 22.9948C62.435 22.9734 62.2304 22.9305 61.94 22.8853L61.9424 22.8877ZM32.6954 39.3838C32.3694 39.4337 31.9173 39.3695 31.7459 39.5598C31.4175 39.9239 31.4889 40.3593 32.0339 40.5758C32.2528 40.1785 32.4741 39.7811 32.6954 39.3838C32.6026 39.7335 32.5503 40.1023 32.4075 40.4307C32.229 40.8376 32.3742 41.0446 32.7359 41.1826C33.6711 41.5347 34.6016 41.8964 35.544 42.2247C35.8486 42.3294 36.1841 42.3603 36.5102 42.3865C37.4502 42.4579 37.5525 42.3532 37.5501 41.3467C37.167 41.2301 36.7624 41.1159 36.3626 40.9875C35.5416 40.7257 34.7039 40.4997 33.9067 40.1785C33.4665 40 33.0952 39.6574 32.6931 39.3885L32.6954 39.3838ZM11.8846 25.0291C12.0107 25.16 12.1345 25.2908 12.2559 25.4169C12.4272 25.3384 12.5962 25.2908 12.7318 25.1909C12.827 25.1219 12.8722 24.9839 12.9388 24.8768C12.8127 24.8388 12.6747 24.7483 12.5628 24.7745C12.3272 24.8316 12.1059 24.9482 11.8775 25.0386C12.0726 24.8483 12.2606 24.6508 12.4677 24.4723C12.5795 24.3772 12.8175 24.3391 12.8389 24.2392C13.0459 23.266 13.2292 22.2881 13.4029 21.3078C13.5028 20.7463 13.4695 20.1372 13.6789 19.6256C13.8931 19.1021 14.3334 18.6715 14.6784 18.1908C13.1959 17.9957 12.6414 18.1718 12.5224 19.1117H13.5504C13.5504 19.145 13.5528 19.1783 13.5552 19.2116C13.1768 19.3091 12.7984 19.4043 12.3939 19.5066C12.7009 20.4036 12.3415 21.1579 12.1059 21.9264C11.7942 22.9448 11.492 23.9608 11.8846 25.0267V25.0291ZM21.1013 49.7839C20.8919 49.5769 20.6325 49.3985 20.4826 49.1534C20.2732 48.8132 20.1494 48.4229 19.9805 48.0565C19.7021 47.4522 19.4022 46.8549 19.1357 46.2458C18.962 45.8532 18.8287 45.444 18.6217 44.892C18.4075 45.1823 18.2028 45.3322 18.2147 45.4654C18.2647 46.0103 18.2385 46.6313 18.5003 47.0691C18.9929 47.89 19.6449 48.6204 20.278 49.3461C20.4707 49.565 20.8253 49.6436 21.1037 49.7839C21.1823 49.91 21.2417 50.0528 21.3393 50.1623C22.2222 51.1425 23.4263 51.4423 24.6424 51.7017C25.9941 51.992 27.2696 52.4203 28.4357 53.2126C29.1139 53.6742 29.9397 53.9216 30.6988 54.2643C30.7321 54.2 30.7678 54.1382 30.8012 54.0739C30.4347 53.7075 30.0325 53.3696 29.7112 52.9675C29.0235 52.1038 28.3262 51.4114 27.0721 51.3567C25.8941 51.3067 24.7162 51.0045 23.5644 50.7047C22.7196 50.4858 21.92 50.0956 21.1013 49.7816V49.7839ZM53.8418 15.2262C54.3058 14.874 54.7723 14.5195 55.2482 14.1602C53.9179 13.3964 52.4734 12.9277 50.8957 12.8754C49.8581 12.8421 48.7349 12.3091 47.9496 13.5773C47.8972 13.4916 47.8449 13.4036 47.7925 13.3179C48.0662 13.1276 48.3375 12.9372 48.6897 12.6922C47.4474 12.5399 47.2642 12.6327 46.7692 13.5701C46.9001 13.6106 47.0238 13.6772 47.1523 13.6867C48.228 13.77 49.306 13.9366 50.3769 13.8913C51.5263 13.8414 52.4496 14.1983 53.2826 14.9359C53.4349 15.0715 53.6586 15.1262 53.8489 15.219C53.956 15.5664 54.1178 15.9257 54.5462 15.7139C55.084 15.4498 55.5719 15.0858 56.0835 14.7669C55.8217 14.3958 55.5528 14.3196 55.134 14.6099C54.7485 14.8764 54.2773 15.0263 53.8442 15.2262H53.8418ZM15.735 34.6298C16.2348 34.4752 16.0849 34.0826 16.0896 33.7304C14.8236 33.9755 14.0978 34.4942 14.2072 34.9891C14.7213 34.8654 15.2353 34.744 15.7517 34.6203C15.4138 34.8059 15.0901 35.0176 14.7379 35.1675C14.3072 35.3531 14.2144 35.6363 14.262 36.0836C14.3429 36.8474 14.3572 37.6183 14.3833 38.3868C14.4 38.8793 14.3857 39.3719 14.3857 39.8858C15.0758 39.6193 15.6541 39.4195 16.2062 39.1625C16.349 39.0959 16.4728 38.8532 16.4894 38.6795C16.587 37.723 16.6512 36.7641 16.7202 35.8052C16.7512 35.3793 16.1301 34.6465 15.735 34.6298ZM34.6349 61.557C34.7563 61.1573 34.8777 60.7575 34.9943 60.3768C34.09 60.1008 33.1952 59.8224 32.298 59.5559C31.6341 59.3585 30.9725 59.161 30.3014 58.992C30.1681 58.9587 29.9135 59.0111 29.8612 59.1039C29.5185 59.713 29.2186 60.3435 28.8688 61.0359C29.3757 60.9955 29.8802 60.867 30.3561 60.9336C31.5722 61.1073 32.7716 61.3809 33.9829 61.5903C34.197 61.6284 34.4279 61.557 34.6516 61.5356C34.7444 61.6664 34.811 61.8473 34.9395 61.9139C35.0252 61.9591 35.2275 61.8734 35.3179 61.7854C35.4655 61.645 35.5654 61.4547 35.6844 61.2834L35.7629 61.3357C35.6535 61.5713 35.5464 61.8092 35.4369 62.0424C36.5958 62.5658 40.4891 62.8466 41.5243 62.4897C41.6242 62.454 41.7622 62.3779 41.786 62.2922C41.9431 61.745 42.0716 61.1929 42.2049 60.6623C41.7289 60.6623 41.322 60.7147 40.9365 60.6505C40.0417 60.5029 39.1659 60.2079 38.2688 60.1413C37.3978 60.0746 36.4935 60.1294 35.6416 60.3126C35.3322 60.3792 35.1394 60.9693 34.8848 61.3167C34.8182 61.4071 34.7206 61.4737 34.6373 61.5522L34.6349 61.557ZM55.303 7.00787C55.3315 7.12684 55.3244 7.27436 55.3934 7.36001C55.9241 8.00006 56.4833 8.61631 57.0068 9.26112C57.271 9.58709 57.5613 9.92972 57.6922 10.3152C57.9683 11.1289 58.1491 11.9736 58.3633 12.8064C58.5085 13.3679 58.6441 13.9294 58.8226 14.6456C59.2866 14.2316 59.7673 13.9937 59.9363 13.6153C60.4432 12.4875 60.5669 11.2717 59.9934 10.1367C59.3342 8.83046 58.5608 7.58367 57.835 6.31072C57.8183 6.28217 57.7707 6.27265 57.7279 6.24648C57.5923 6.28455 57.4495 6.32737 57.2186 6.394C57.3519 6.19175 57.4376 6.06089 57.5375 5.90861C57.359 5.77298 57.2139 5.66353 57.0283 5.52315C56.4333 6.03471 55.867 6.52486 55.2982 7.01739C55.7384 6.42017 56.1787 5.82295 56.6999 5.11866C55.7408 4.619 54.7152 4.09554 53.7038 3.55304C52.9779 3.16283 52.3378 3.11048 51.8547 3.91709C51.8476 3.93136 51.7952 3.91709 51.7214 3.91709C51.8595 3.61491 51.9904 3.33176 52.1236 3.0391C51.9071 2.97724 51.7429 2.91062 51.5739 2.88445C49.8367 2.60606 48.1019 2.32768 46.3623 2.07309C46.2338 2.05405 46.022 2.1635 45.9506 2.27533C45.7316 2.62985 45.5603 3.01769 45.3366 3.46025C46.0172 3.76957 46.6121 4.09316 47.2404 4.3192C48.435 4.74986 49.5725 5.41132 50.8909 5.39229C52.433 5.37325 53.768 5.88243 54.9436 6.86035C55.0388 6.93887 55.1816 6.96028 55.303 7.00787ZM10.7352 26.6399C10.5805 26.0094 10.402 25.386 10.2712 24.7507C9.71667 22.0335 10.2378 19.6042 12.2344 17.5841C12.6414 17.1725 13.015 16.718 13.4671 16.3683C14.5285 15.545 15.6279 14.7693 16.7107 13.9746C16.7417 13.9532 16.7631 13.9175 16.7821 13.8842C17.0939 13.3512 17.4032 12.8183 17.7316 12.2543C16.7916 12.497 15.8826 12.8444 15.1925 13.6391C14.7117 14.1911 14.2406 14.7574 13.7146 15.2642C12.9912 15.9614 12.1845 16.5753 11.4872 17.2938C11.066 17.7292 10.7257 18.267 10.4473 18.8095C10.1403 19.4091 9.96892 20.0753 9.69287 20.6939C9.00989 22.2239 9.28356 23.8561 9.16933 25.4431C9.15029 25.693 9.30974 25.9594 9.39779 26.2164C9.74047 27.2205 10.0736 28.2293 10.4354 29.2263C10.6995 29.952 10.9089 30.7253 11.3182 31.363C11.8323 32.1696 12.1392 32.9976 12.3082 33.9303C12.4748 34.8487 12.9388 35.6387 13.8051 36.2168C13.8193 35.6339 13.8193 35.1866 13.4053 34.7607C13.1197 34.4656 12.9246 33.9755 12.9008 33.5591C12.8317 32.3718 12.4105 31.2987 12.0274 30.2042C11.6704 29.1858 11.3349 28.158 10.9898 27.1348C11.2825 27.8082 11.6062 28.4697 11.8656 29.1549C12.4058 30.5778 13.0626 31.9649 13.1245 33.5353C13.1411 33.9446 13.3934 34.3443 13.5933 34.8987C13.6766 34.6655 13.7075 34.6179 13.7075 34.5679C13.7123 33.1546 14.1335 31.9507 15.3638 31.1179C15.4685 31.0465 15.4947 30.8014 15.4899 30.6373C15.4852 30.4707 15.3495 30.3018 15.359 30.14C15.4019 29.4143 14.9688 29.1168 14.3619 28.9194C13.6266 28.6814 12.9365 28.3198 12.6057 27.5893C12.1678 26.6209 11.7656 25.6287 11.4491 24.6151C11.1588 23.6919 11.4372 22.7806 11.7704 21.9003C12.0274 21.2198 12.1083 20.5393 11.9465 19.8064C11.8727 19.4662 11.9465 19.007 12.1321 18.7191C12.4391 18.2408 12.8579 17.8197 13.2887 17.439C13.9241 16.8751 14.6261 16.3873 15.271 15.8305C15.6494 15.5046 15.9682 15.1096 16.3133 14.7455L16.1824 14.6171C15.8897 14.8621 15.5994 15.112 15.3019 15.3499C14.895 15.6759 14.5095 16.0351 14.0668 16.304C12.6985 17.1344 11.7347 18.3479 11.0279 19.7208C9.87611 21.9526 10.2735 24.3082 10.74 26.6399H10.7352ZM14.9283 57.2266C15.2876 56.9839 15.647 56.7412 16.0016 56.5032C15.5161 56.2248 15.0045 56.0202 14.6023 55.6871C13.1292 54.4617 12.1726 52.8533 11.4182 51.1235C11.116 50.4311 11.0541 49.6578 10.5044 49.044C9.77617 48.2326 9.50012 47.2309 9.6191 46.1316C9.62624 46.0626 9.59293 45.9865 9.57865 45.9151C9.05035 45.8342 8.54346 45.7581 7.94615 45.6676V50.2788C8.82189 50.3859 9.70715 50.4954 10.5948 50.6048C10.5948 50.6429 10.59 50.681 10.59 50.719H7.89141C7.96518 51.992 8.50538 53.0413 9.19551 54.0358C9.55485 54.5545 9.92133 55.0399 10.6805 54.9067C10.8946 54.8686 11.135 54.9638 11.4872 55.0161C11.0803 55.1399 10.7852 55.2279 10.4544 55.3302C11.7347 56.4461 13.3196 56.7031 14.7617 57.2765C15.0092 57.4169 15.3305 57.7357 15.4875 57.6667C16.0587 57.4217 16.5751 57.0457 17.1129 56.7198C17.0962 56.665 17.0772 56.6079 17.0605 56.5532C16.7964 56.5937 16.518 56.5984 16.2681 56.6841C15.8136 56.8387 15.3757 57.041 14.9307 57.2242L14.9283 57.2266ZM48.9229 25.6644C49.4512 26.5733 49.8296 27.4989 49.3155 28.5506C50.1008 28.8385 50.6958 28.5863 50.9266 27.8558C51.0908 27.3371 51.2931 26.8231 51.3907 26.2902C51.4763 25.8167 51.6144 25.2337 51.4192 24.8578C51.1765 24.3843 50.6291 24.0583 50.196 23.6895C49.7915 23.3421 49.4536 22.9258 49.5773 22.3904C49.8081 21.4101 49.4583 20.6368 48.8348 19.9539C48.5707 19.6637 48.1971 19.4733 47.8782 19.233C47.3856 18.8618 47.2095 19.4257 46.8144 19.6708C46.9572 19.3686 47.0476 19.1807 47.15 18.9641C45.5246 18.1718 43.7969 18.2432 42.0906 18.2717C41.8146 18.2765 41.4933 18.6929 41.291 18.9855C41.0935 19.2735 41.0198 19.647 40.8913 19.9849C40.8484 19.973 40.8056 19.9635 40.7627 19.9516C40.7984 19.6637 40.8341 19.3781 40.8746 19.045C39.9417 19.4805 40.075 20.337 39.9108 21.0746C40.6985 20.4679 41.5814 20.2442 42.5261 20.2204C42.9521 20.2109 43.3781 20.2109 43.8041 20.2085C45.408 20.199 46.5931 20.9342 47.3499 22.3119C47.9472 23.4016 48.0519 24.7269 48.9395 25.6858C48.8634 25.6287 48.7587 25.5883 48.7182 25.5145C48.3517 24.8221 47.9448 24.144 47.6473 23.423C47.0024 21.8598 46.0363 20.6249 44.2586 20.4679C43.1972 20.3751 42.1002 20.5274 41.0388 20.6892C40.0988 20.8319 39.6324 21.5648 39.7752 22.3619C40.2725 22.5046 40.7509 22.6569 41.2363 22.7782C41.9645 22.9591 42.6927 23.1447 43.4281 23.2827C45.3128 23.6396 46.6312 24.6437 47.0572 26.5638C47.1976 27.1967 47.0786 27.8843 47.0786 28.5744C47.4141 28.5744 47.852 28.5791 48.2922 28.5744C48.93 28.5648 49.4179 28.0723 49.3251 27.4584C49.2346 26.8541 49.0585 26.264 48.9205 25.6668L48.9229 25.6644ZM54.432 46.1507C54.2868 46.3957 54.1869 46.6908 53.987 46.8764C52.4639 48.2754 50.722 49.1201 48.585 48.9297C48.2446 48.8988 47.8924 48.9607 47.5474 48.9892C46.6859 49.0582 45.8435 49.6007 44.9535 49.0915C44.8702 49.044 44.7298 49.1034 44.6132 49.1106C43.4209 49.1962 42.2215 49.4104 41.0412 49.3342C39.7966 49.2533 38.4258 49.2843 37.512 48.0042C37.3883 48.1565 37.2764 48.2897 37.1717 48.4301C37.0218 48.6323 36.8766 48.8417 36.7291 49.0487C36.9956 49.2224 37.2479 49.4342 37.5358 49.5627C37.8285 49.6911 38.1569 49.7459 38.4734 49.8149C39.0493 49.9362 39.6229 50.0909 40.2059 50.1432C40.7223 50.1908 41.253 50.0766 41.7694 50.117C42.5761 50.1813 43.4066 50.5049 44.1705 50.3788C45.6603 50.1337 47.1357 49.891 48.6468 49.9362C48.6849 49.9362 48.7206 49.9172 48.7587 49.91C50.0675 49.6531 51.3788 49.4175 52.6781 49.1249C53.1017 49.0297 53.5063 48.8108 53.8918 48.5966C54.025 48.5229 54.0726 48.2921 54.1583 48.1327C54.3487 48.1422 54.5176 48.0827 54.6485 47.9756C55.2363 47.5045 55.7813 46.9692 56.4048 46.5528C57.0283 46.1364 57.3852 45.6153 57.5518 44.892C57.7113 44.202 57.8612 43.481 58.1943 42.8719C58.6393 42.0605 59.0249 41.2658 59.0629 40.326C59.0915 39.6503 59.1867 38.9793 59.1938 38.3035C59.1962 38.0513 59.0629 37.7825 58.9392 37.5493C58.8916 37.4612 58.6536 37.3756 58.5727 37.4184C58.1229 37.6611 57.6922 37.9419 57.2401 38.2203C57.7184 38.8698 57.8802 39.5051 57.5613 40.2237C57.4685 40.4307 57.4923 40.6853 57.4185 40.9018C57.2329 41.4395 57.0711 41.9939 56.8093 42.496C56.3239 43.4287 55.441 44.1306 55.2197 45.2275C55.1887 45.3797 55.0245 45.5082 54.9222 45.6462C55.1364 45.0752 55.2435 44.4256 55.5885 43.945C56.5166 42.6554 57.2686 41.3039 57.3876 39.6978C57.4162 39.3195 57.2115 38.8865 57.0021 38.5486C56.945 38.4558 56.469 38.6152 56.1906 38.6795C56.0645 38.708 55.9502 38.7842 55.8313 38.8389C56.1144 39.4813 55.8051 41.9677 55.3196 42.5769C54.7913 43.2383 54.1988 43.8403 53.9179 44.6731C53.8442 44.892 53.6229 45.0847 53.4277 45.2346C51.7452 46.5218 50.1603 47.9994 47.8449 48.0327C46.6978 48.0494 45.5532 48.461 44.4037 48.0898C43.4352 47.7758 42.4928 47.8709 41.5076 48.0637C40.3463 48.2921 39.1184 48.4491 38.433 47.0786C37.7072 47.7496 37.7905 48.2159 38.6781 48.58C38.8566 48.6537 39.0374 48.7418 39.2254 48.7703C40.9674 49.0368 42.7118 49.2272 44.468 48.8607C44.7536 48.8013 45.0725 48.8988 45.3771 48.9107C45.6936 48.925 46.0172 48.9583 46.329 48.9202C47.0357 48.8346 47.7544 48.5562 48.4398 48.6276C50.9123 48.8917 52.7424 47.7258 54.4296 46.1554L54.432 46.1507ZM17.6698 27.744C17.2152 28.0319 16.7607 28.3198 16.2157 28.6624C16.4704 29.4285 16.6489 30.2232 16.9915 30.9394C17.3699 31.7222 17.6245 31.7389 18.4479 31.3059C17.734 30.6587 17.5936 29.8878 17.8911 28.986C17.991 28.6886 17.9529 28.334 17.9291 28.0104C17.922 27.92 17.7483 27.8415 17.6483 27.7559C17.7174 27.5941 17.8697 27.4204 17.8435 27.2752C17.6483 26.1783 17.4246 25.0886 17.1986 23.9965C16.8035 22.0977 16.8892 20.268 17.9506 18.5692C18.06 18.3931 18.1624 18.2146 18.3099 17.9672C17.6245 17.7483 16.9915 17.5127 16.3395 17.3628C16.1396 17.3152 15.8516 17.4509 15.6684 17.5889C15.4471 17.7554 15.3043 18.0219 15.1139 18.2337C14.3691 19.0641 13.4695 19.8278 13.6837 21.1198C13.8289 21.9931 13.648 22.8068 13.3601 23.6182C13.3006 23.7871 13.2696 23.9679 13.2173 24.1844C13.9074 24.1392 14.5166 24.1012 15.1282 24.0631C14.607 24.2534 14.0787 24.3629 13.56 24.5128C13.4291 24.5509 13.222 24.7579 13.2411 24.8078C13.56 25.5716 13.7908 26.4187 14.2905 27.0468C14.7332 27.606 15.4828 27.92 16.0468 28.3079C16.6179 28.1104 17.1415 27.9272 17.6674 27.744H17.6698ZM37.9904 50.079C37.9166 50.0052 37.8547 49.9005 37.7643 49.8648C37.2907 49.6721 36.8124 49.496 36.2317 49.2771C35.0871 50.3121 33.5117 50.8237 31.8601 51.1378C32.1243 51.5399 32.3313 51.8873 32.5693 52.2133C33.1999 53.0722 33.9567 53.7075 35.1228 53.5766C35.2941 53.5576 35.475 53.5457 35.6439 53.5742C36.0675 53.6456 36.2674 53.4267 36.4388 53.0793C36.9195 52.1109 37.4264 51.1592 37.9237 50.2003C37.5144 51.3162 37.1075 52.4298 36.691 53.5623C37.2241 53.5623 37.7643 53.5671 38.3069 53.5576C38.3973 53.5576 38.483 53.4814 38.5734 53.4505C39.5729 53.1031 40.5724 52.7581 41.5695 52.406C41.7146 52.3536 41.8479 52.2656 41.9407 52.218C42.8664 52.6439 43.7208 53.2388 44.6536 53.4053C45.4389 53.5457 46.3147 53.1888 47.15 53.0532C47.2499 52.4964 47.3546 51.9396 47.4427 51.3805C47.4689 51.2115 47.4474 51.0331 47.4474 50.8594C47.4665 50.8594 47.4855 50.857 47.5045 50.8546C47.5617 51.5256 47.6212 52.199 47.6854 52.9461C48.2304 52.7914 48.7539 52.7082 49.218 52.494C49.9747 52.1443 50.7196 51.8016 51.5311 51.5732C52.7876 51.2187 54.0036 50.7238 55.2339 50.286C55.2554 50.2788 55.2625 50.2241 55.2744 50.1908C54.9555 49.7149 54.6343 49.2391 54.3344 48.7894C53.8204 48.9916 53.3492 49.2224 52.8518 49.3604C52.1641 49.5484 51.4621 49.6888 50.76 49.8101C49.7129 49.9862 48.654 50.2765 47.6116 50.236C46.7954 50.2051 46.0577 50.3383 45.289 50.493C44.7298 50.6048 44.142 50.65 43.5708 50.631C42.4785 50.5953 41.3886 50.4692 40.2963 50.4264C39.6395 50.4002 38.9803 50.4835 38.3949 50.0671C38.3069 50.0052 38.126 50.0742 37.988 50.0814L37.9904 50.079ZM48.4326 34.9843C48.6825 34.7488 48.9633 34.537 49.1775 34.2705C49.4988 33.8708 49.87 33.4734 50.0437 33.0071C50.4316 31.9673 50.3174 30.9133 49.8676 29.8997C49.5868 29.2667 48.9419 28.9598 48.2899 29.1287C48.347 29.6474 48.4112 30.1614 48.4564 30.6753C48.4945 31.0965 48.4398 31.5414 48.554 31.9388C48.6968 32.4313 48.6254 32.8501 48.2827 33.1665C47.8924 33.5258 47.4641 33.9041 46.981 34.0921C46.1362 34.4252 45.3747 34.8416 44.7298 35.484C44.5537 35.6577 44.3347 35.8623 44.1087 35.898C42.6713 36.1264 41.2339 36.3763 39.7847 36.4929C38.7542 36.5737 37.7072 36.4096 36.6696 36.4429C35.8819 36.4691 35.2608 36.1645 34.8634 35.4911C34.6492 35.1271 34.2946 34.8487 34.0091 34.5275C33.8591 34.3586 33.614 34.1849 33.5997 33.9993C33.5474 33.3735 33.5807 32.7382 33.5807 32.0768C33.4974 32.0887 33.288 32.1101 33.0833 32.1458C32.0696 32.3171 31.5912 33.5377 32.1814 34.3681C32.348 34.6013 32.4503 34.9249 32.4694 35.2151C32.5241 36.1122 33.269 36.9211 34.1542 37.0806C34.6968 37.1781 35.2655 37.3232 35.7391 37.5921C36.6196 38.0942 37.512 38.1394 38.4853 38.018C40.094 37.8181 41.7123 37.6397 43.3305 37.5707C44.2491 37.5326 45.0225 37.2804 45.7578 36.7665C46.6407 36.1478 47.5521 35.5649 48.4517 34.9677C47.7687 35.4983 47.0738 36.0122 46.4051 36.5595C45.6817 37.1543 44.9558 37.7468 43.9849 37.8515C42.9664 37.9609 41.9431 38.0085 40.9222 38.0989C40.1535 38.1679 39.3825 38.2345 38.621 38.3511C37.5572 38.5129 36.5601 38.4582 35.6035 37.8634C35.1608 37.5874 34.6111 37.4494 34.09 37.347C33.0714 37.1448 32.2623 36.2906 32.1648 35.2556C32.1433 35.0391 32.0696 34.7773 31.9244 34.6298C31.4223 34.123 31.408 33.5829 31.6912 32.9809C31.7745 32.8001 31.8363 32.6097 31.9268 32.3694C31.0082 32.5122 30.2967 32.8691 29.9278 33.6733C29.7374 34.0849 29.6874 34.5584 29.5518 34.9986C29.1996 36.1264 29.5661 37.19 29.8278 38.2607C29.8659 38.4177 29.9992 38.5653 30.1158 38.6914C30.6393 39.2577 31.496 39.1625 31.8935 38.5153C32.0838 38.206 32.3004 37.9133 32.5074 37.6135C32.5336 37.6349 32.5598 37.654 32.5836 37.6754C32.3694 38.1084 32.1552 38.5415 31.9934 38.8722C32.4741 39.1054 32.8692 39.3195 33.2808 39.4932C34.2113 39.8906 35.1466 40.2832 36.0889 40.652C36.4102 40.7781 36.76 40.8304 37.0956 40.9232C38.2402 41.242 39.3968 41.3848 40.5843 41.1945C41.2982 41.0802 42.0121 40.9827 42.757 40.8709C42.7593 40.8494 42.7784 40.7352 42.8141 40.5282C42.9259 40.7971 42.9973 40.9708 43.0402 41.0755C45.3461 41.2658 46.6288 39.5527 48.2803 38.4368C48.1161 38.1608 47.9567 37.8919 47.7973 37.6207C47.8234 37.604 47.8496 37.5874 47.8758 37.5707C48.0852 37.83 48.2922 38.087 48.5421 38.3963C48.6492 38.1988 48.6992 38.0513 48.7944 37.9395C49.1632 37.5065 49.4869 37.0068 49.9366 36.6808C50.5411 36.2406 51.2479 35.9456 51.9047 35.572C52.0499 35.4911 52.2093 35.3698 52.2735 35.227C52.4663 34.794 52.6138 34.3419 52.7876 33.8779C52.6234 33.7637 52.4568 33.6448 52.1974 33.4639C52.5139 33.4925 52.7162 33.5115 52.8137 33.5187C53.0184 33.038 53.1683 32.6074 53.3801 32.2124C53.5634 31.8698 53.63 31.5676 53.3468 31.2583C53.0541 30.9371 53.1184 30.6135 53.2611 30.2375C53.3873 29.9044 53.5015 29.5094 53.4349 29.1787C53.3825 28.917 53.0779 28.6671 52.8256 28.503C52.7376 28.4459 52.4282 28.6219 52.295 28.7623C51.8928 29.1787 51.4216 29.2977 50.8671 29.2263C50.5197 29.1811 50.1675 29.1668 49.7534 29.1335C50.979 30.9371 51.0028 33.7042 48.435 34.9843H48.4326ZM21.6963 5.63736C21.6058 5.44701 21.513 5.25904 21.4226 5.06869C21.0561 4.28113 20.7039 3.48404 20.3089 2.71075C20.2351 2.56799 19.9924 2.51089 19.8258 2.41571C19.7996 2.46092 19.7758 2.50851 19.7497 2.55372C19.9043 2.87255 20.0566 3.19138 20.2113 3.51022L20.0995 3.57208C19.8924 3.24135 19.6854 2.91062 19.4498 2.5323C17.6983 3.06766 15.7969 3.09145 14.1668 4.08364C14.4048 4.43103 14.6285 4.75462 14.8521 5.07583C14.5428 4.98066 14.3096 4.81648 14.1335 4.60472C13.8931 4.31682 13.6837 4.28113 13.3529 4.48575C12.5462 4.98304 11.6919 5.4018 10.9018 5.91812C10.2331 6.35355 9.62386 6.88414 9.20503 7.20536C10.0356 8.06668 10.8042 8.86615 11.5729 9.66323C11.5086 9.72985 11.442 9.79648 11.3777 9.8631C10.5234 9.13264 9.66908 8.39979 8.80047 7.65743C8.46017 7.97627 8.18174 8.24038 7.90569 8.49973C8.30073 8.82808 8.67673 9.14453 9.0551 9.45861C9.02655 9.49192 8.99799 9.52761 8.96943 9.56092C8.5506 9.28491 8.13177 9.00891 7.67724 8.70911C7.09896 9.12074 6.50402 9.54188 5.90433 9.96541C6.17086 10.17 6.38504 10.3342 6.59921 10.5008C6.5778 10.5317 6.55638 10.565 6.53734 10.5959C6.24939 10.4627 5.96144 10.3271 5.6735 10.1938C4.67639 10.9957 3.94581 11.995 3.72211 13.218C3.52697 14.2816 3.5936 15.3927 3.55077 16.3921C4.26469 16.6228 4.98337 16.8275 5.68064 17.0916C5.97334 17.2034 6.09709 17.1677 6.29461 16.9226C7.16559 15.8377 8.06989 14.7788 8.96229 13.7129C8.84807 13.9128 8.75288 14.1245 8.61961 14.3101C7.83906 15.407 6.85623 16.4087 6.31127 17.6079C5.37841 19.6589 4.58358 21.8027 4.56216 24.1202C4.55264 25.041 4.62641 25.9666 5.24752 26.7042C5.71871 27.2609 6.09471 27.813 6.1899 28.572C6.41835 30.3636 7.01091 32.0101 7.93425 33.6019C8.5387 34.6441 9.16219 35.5768 10.0689 36.3572C10.4163 36.6546 10.7233 37.0805 10.8708 37.5088C11.2873 38.7104 12.125 39.5265 13.1316 40.207C13.3743 40.3712 13.6766 40.4497 13.9241 40.5568C13.9241 39.3505 13.9336 38.2107 13.9122 37.071C13.9098 36.9092 13.7908 36.6975 13.6599 36.5952C12.62 35.7767 12.1392 34.6798 11.9441 33.4044C11.8799 32.9928 11.7038 32.5931 11.5372 32.2029C11.1064 31.1916 10.6305 30.1995 10.2188 29.1811C9.82138 28.196 9.46918 27.1919 9.11936 26.1902C9.00037 25.8476 8.89328 25.4836 8.87662 25.1243C8.7624 22.8258 9.09556 20.5964 10.2021 18.5549C10.5615 17.891 11.0898 17.2986 11.6252 16.7585C12.5914 15.7853 13.7384 14.9692 14.5975 13.9151C15.4637 12.8516 16.5037 12.2805 17.7792 11.9712C18.1743 11.876 18.6764 11.7428 18.8858 11.4501C19.3784 10.7649 20.0757 10.5745 20.7944 10.3366C21.4488 10.1201 22.1936 9.97969 22.6958 9.56092C23.3669 9.00415 24.076 8.63773 24.897 8.47593C25.7633 8.307 26.6414 8.21182 27.5433 8.08096C27.3386 7.49088 27.2672 6.83418 26.9222 6.394C26.3653 5.68257 25.5729 5.35184 24.5972 5.58026C23.0408 5.94668 21.4797 6.33213 19.8996 6.55817C18.298 6.78897 16.8702 7.32432 15.6256 8.34983C15.102 8.78049 14.5761 9.20877 14.0407 9.62278C13.4291 10.0939 12.8151 10.5674 12.1797 11.0076C11.4063 11.5429 10.6115 12.0426 9.82614 12.5589C10.3663 12.045 10.8708 11.4834 11.4586 11.029C12.2178 10.4437 13.0602 9.96541 13.8384 9.4015C14.6689 8.8019 15.4209 8.07858 16.2919 7.55274C17.0558 7.09115 17.9173 6.76518 18.7716 6.49155C19.5593 6.23934 20.3969 6.1513 21.2037 5.96095C21.3774 5.9205 21.5202 5.73967 21.6772 5.62784C21.8367 5.66353 22.0009 5.74919 22.1508 5.72778C22.8386 5.62546 23.5287 5.51601 24.2069 5.36611C25.085 5.16863 25.8941 5.32329 26.6699 5.74681C26.8365 5.83723 27.0007 5.92764 27.0436 5.94906C28.1287 5.39943 29.1115 4.89976 30.0968 4.40247C30.0968 4.34061 30.092 4.28113 30.092 4.21926C28.7284 3.58873 27.2577 3.26038 25.7871 2.77262C25.8013 3.00103 25.818 3.15331 25.8156 3.30559C25.8156 3.43646 25.7894 3.5697 25.7752 3.70056C25.7442 2.88683 25.3325 2.47996 24.5662 2.37764C23.8214 2.28009 23.0789 2.10878 22.3317 2.09688C21.6987 2.08736 21.0609 2.2563 20.3803 2.35385C21.0609 3.43646 21.6177 4.44768 21.6915 5.64688L21.6963 5.63736ZM29.4518 44.5779C29.697 44.4732 29.9302 44.3257 30.1872 44.2733C30.8678 44.133 31.5627 44.0544 32.2409 43.9117C33.2333 43.7023 33.683 42.8576 34.3208 42.2104C33.9972 41.913 33.7901 41.8654 33.4855 42.0986C33.169 42.3389 32.7882 42.5245 32.4075 42.6411C31.1891 43.0099 29.9516 43.3168 28.7308 43.6833C27.7123 43.9878 26.7651 43.5833 25.8299 43.3668C25.1112 43.2003 24.3711 42.7934 23.8285 42.2913C23.0385 41.5633 22.4102 40.6567 21.7225 39.8216C21.0109 38.9579 20.792 37.949 20.7658 36.8474C20.7468 36.0075 20.5588 35.1723 20.5016 34.3324C20.4731 33.9208 20.4779 33.4687 20.6183 33.0904C21.0466 31.9269 21.6939 30.9204 23.0575 30.4921C22.8838 30.3969 22.8005 30.316 22.76 30.3351C22.0271 30.6539 21.2156 30.8728 20.5897 31.3392C19.7568 31.9602 19.6473 32.9904 19.6283 33.9731C19.5997 35.4031 19.6021 36.8331 19.614 38.2631C19.614 38.501 19.6664 38.7842 19.802 38.9698C20.2946 39.6384 20.8396 40.2689 21.3512 40.9232C21.5868 41.2254 21.7891 41.5537 21.9985 41.875C22.1889 42.1629 22.3507 42.4674 22.5577 42.741C23.3716 43.8094 24.7638 43.9735 25.7537 44.7706C25.8204 44.8254 25.937 44.8254 26.0322 44.8349C27.1316 44.9657 28.2287 45.0514 29.2876 44.6112C27.7075 45.3084 26.1511 45.5487 24.6567 44.3852C24.4949 44.2591 24.2807 44.1924 24.0808 44.1234C23.117 43.7951 22.4435 43.117 21.8843 42.3056C21.4821 41.7227 21.1132 41.1183 20.6944 40.5496C19.9852 39.5931 19.0809 38.7294 19.476 37.3494C19.5307 37.1567 19.4474 36.9283 19.4379 36.7141C19.3618 34.9177 18.9762 33.0951 20.0233 31.294C19.1904 31.5652 18.505 31.8246 17.803 32.0054C16.656 32.3004 16.0539 34.1444 16.8131 35.0533C16.9606 35.2294 17.0915 35.4983 17.082 35.7172C17.0272 36.8902 16.9392 38.0656 16.8321 39.2362C16.725 40.4188 16.7559 41.5323 17.9363 42.2366C18.0672 42.3151 18.1481 42.4793 18.2814 42.5436C18.5169 42.6601 18.774 42.7291 19.0881 42.8433C19.0881 42.81 19.0357 42.979 19.0976 43.048C19.5379 43.5405 20.0352 43.9831 20.4469 44.497C20.9728 45.1561 21.6035 45.8056 21.8795 46.5694C22.3126 47.771 23.5525 48.5752 24.7899 48.1993C25.2159 48.0708 25.6752 47.859 26.0869 47.9185C26.8556 48.028 27.598 48.3182 28.3572 48.5086C28.5523 48.5562 28.7855 48.5657 28.9735 48.5038C30.7726 47.9185 32.5693 47.3261 34.3589 46.7122C35.2798 46.3981 35.2727 46.3767 35.2513 45.375C35.3964 45.72 35.5011 45.9746 35.663 46.36C35.9057 46.0531 36.1223 45.839 36.2674 45.5868C36.6767 44.8729 37.0599 44.1425 37.4501 43.4168C37.5572 43.2169 37.6477 43.0051 37.731 42.8267C36.9147 42.7506 36.1365 42.8267 35.4821 42.5792C34.7111 42.2842 34.3113 42.5911 33.9234 43.1075C33.4022 43.7975 32.7287 44.1829 31.8697 44.2781C31.0653 44.3661 30.2633 44.4803 29.4614 44.585L29.4518 44.5779ZM29.647 8.05479C31.239 8.39979 32.7978 8.74004 34.3827 9.08505C35.2465 8.53066 36.1032 7.87158 37.0527 7.39808C38.1569 6.84845 39.3611 6.63907 40.6128 6.85559C41.7741 7.05784 42.9497 7.19584 44.1063 7.42426C45.6912 7.74071 47.288 8.12855 48.4874 9.2754C49.0799 9.84168 49.7248 10.2295 50.4221 10.6055C51.3859 11.1265 52.4306 11.562 52.9613 12.6374C53.0017 12.7183 53.1517 12.7469 53.2516 12.7968C54.1631 13.2584 55.1245 13.6439 55.9669 14.2102C56.538 14.5956 57.0045 15.1905 57.39 15.7758C57.7231 16.2826 57.8659 16.9084 58.1039 17.4794C58.4109 18.2218 58.6465 19.0212 59.4699 19.3924C60.0101 18.7928 60.0148 17.2177 59.5103 16.5039C59.1248 15.959 58.6227 15.4379 58.4371 14.8264C57.9968 13.3869 57.7231 11.8998 57.3614 10.4365C57.3043 10.201 57.1639 9.96779 57.0021 9.7822C56.331 9.00653 55.6766 8.21182 54.9412 7.50278C54.4391 7.01739 53.8394 6.62003 53.2397 6.25361C52.3806 5.72778 51.3716 5.86102 50.4292 5.69684C48.2351 5.31377 46.2766 4.27399 44.2919 3.29845C42.5023 2.41809 40.6152 2.18967 38.7424 3.189C38.5258 3.30559 38.2759 3.38173 38.0308 3.42218C37.2883 3.54591 36.5316 3.58874 35.8034 3.76719C35.1965 3.91471 34.6087 4.17168 34.0471 4.45244C33.6616 4.64517 33.338 4.95924 32.9858 5.21621C33.7497 4.46196 34.4802 3.65298 35.6106 3.46501C36.3888 3.33652 37.1789 3.25325 37.9451 3.07004C38.2474 2.99865 38.6424 2.76548 38.74 2.51089C38.9732 1.89701 39.0541 1.22603 39.1993 0.569332C39.1421 0.562194 39.085 0.545539 39.0303 0.550298C38.9161 0.559815 38.7995 0.581229 38.6852 0.600264C37.2455 0.840579 35.9771 1.48063 34.742 2.22298C34.0257 2.65365 33.3641 3.07955 33.3046 4.01464C33.3046 4.02178 33.2547 4.02416 33.2071 4.0313C33.1833 3.7886 33.1619 3.55305 33.1381 3.29845C32.1457 3.62205 32.7407 4.63327 32.2361 5.17577V3.84333C30.8559 4.50955 29.4947 5.15673 28.1454 5.82533C27.5647 6.11323 27.3767 6.71997 27.6456 7.29577C28.0145 8.0881 28.2548 8.20707 29.2615 8.08334C29.3257 6.94839 29.7303 6.55579 30.8987 6.59386C30.1515 6.89128 29.4399 7.14825 29.6446 8.05717L29.647 8.05479ZM21.0585 30.6254C20.673 29.9472 20.8348 29.3572 21.068 28.7338C21.1942 28.3935 21.2299 27.9724 21.1656 27.6131C20.792 25.4693 21.0133 23.4635 22.0675 21.4958C23.0694 19.6256 24.4354 18.1123 26.0036 16.7466C26.3463 16.4468 26.7865 16.254 27.1935 16.0351C28.5737 15.2904 30.111 15.3951 31.6008 15.2048C32.8549 15.0453 33.7497 15.6759 34.6397 16.3635C34.8705 16.542 35.0585 16.8299 35.1632 17.1059C35.2703 17.3914 35.4012 17.4366 35.6749 17.408C36.2793 17.3462 36.8885 17.339 37.493 17.2772C37.6286 17.2629 37.8 17.1368 37.8666 17.0131C38.1117 16.5538 37.8714 15.7948 37.4383 15.4617C37.2836 15.3428 37.1122 15.1691 37.0718 14.9906C36.8195 13.9056 36.0199 13.2822 35.1918 12.6089C35.0871 12.8064 35.0085 12.9515 34.9038 13.149C34.8658 12.2163 34.6397 12.014 33.7163 12.0283C33.5617 12.0283 33.407 12.0497 33.2523 12.0592C31.5175 12.1806 29.785 12.3543 28.0478 12.4066C26.2225 12.459 24.4211 12.5518 22.9504 13.7962C21.9533 14.6408 21.0109 15.5498 20.0733 16.4587C19.5878 16.9298 19.1904 17.4889 18.7121 17.9648C17.7578 18.9118 17.1962 20.0872 17.2343 21.3768C17.2866 23.0804 17.5103 24.7959 17.8363 26.471C18.0339 27.4846 18.279 28.4435 18.0053 29.4785C17.784 30.3065 18.4955 31.2321 19.2428 31.1107C19.8448 31.0108 20.4255 30.7967 21.0585 30.623V30.6254ZM60.3385 24.5723C60.11 24.1273 59.9315 23.6943 59.6817 23.3088C59.3033 22.7283 58.8297 22.2072 58.4823 21.6076C57.8802 20.5702 57.2829 19.559 56.5333 18.5977C55.3958 17.1392 53.9489 16.0685 52.5972 14.8764C52.0213 14.3696 51.3335 14.2149 50.553 14.2173C49.3964 14.2197 48.2351 14.1293 47.0833 14.0103C46.6645 13.9675 46.3218 13.9056 46.0672 14.4957C46.0838 14.2078 46.091 14.0722 46.1005 13.9247C45.427 13.8699 44.7726 13.8937 44.1586 13.7486C43.4447 13.5797 42.9759 13.9128 42.7094 14.4243C42.4 15.0215 42.2786 15.7163 42.0645 16.4111C42.4857 16.3349 42.7641 16.2255 43.0354 16.2469C43.7065 16.2969 44.3942 16.3373 45.0391 16.5086C46.3171 16.8489 47.5807 17.251 48.8324 17.6793C49.3322 17.8506 49.7082 18.3883 50.3483 18.1337C50.4388 18.098 50.6101 18.2004 50.7148 18.2789C51.1313 18.5906 51.5311 18.9237 51.9451 19.2378C52.1569 19.3996 52.3687 19.6423 52.6067 19.6756C53.9941 19.873 54.5629 20.8414 54.9793 22.0168C55.1388 22.4642 55.4267 22.8639 55.6266 23.2993C56.1335 24.401 56.7189 25.4788 57.0901 26.6257C57.409 27.6155 57.2353 28.6553 56.7546 29.6141C56.4904 30.14 56.2763 30.6896 56.0002 31.2083C55.7527 31.677 55.5457 32.229 55.1578 32.5455C54.3701 33.1903 54.2035 33.9684 54.2321 34.913C54.2463 35.346 54.0393 35.7862 53.9251 36.2216C53.8941 36.3382 53.8418 36.4476 53.7752 36.6237C54.2368 36.5737 54.6176 36.5 54.9983 36.4976C56.1787 36.4881 56.9949 35.8409 57.6684 34.9748C57.7993 34.8059 57.7684 34.5132 57.7922 34.3824C57.9397 34.2634 58.1229 34.1873 58.1753 34.0588C58.4109 33.4615 58.8083 33.0214 59.3104 32.6264C59.7007 32.3195 60.0553 31.9388 60.3361 31.5271C60.5836 31.1678 60.8025 30.7348 60.862 30.3089C61 29.2905 61.0381 28.2579 61.1119 27.23C61.1166 27.1753 61.0952 27.1158 61.0786 27.0611C60.8406 26.3568 60.6026 25.6549 60.3456 24.9006C59.7673 25.0743 59.2105 25.2409 58.656 25.4074C58.6441 25.3717 58.6298 25.3337 58.6179 25.298C59.1486 25.0743 59.6769 24.8507 60.3456 24.5699L60.3385 24.5723ZM2.77735 31.47C3.25806 32.2386 3.69355 32.9904 4.18616 33.7019C4.67401 34.4062 5.21659 35.0724 5.70919 35.7172C6.1661 35.3508 6.63729 34.9724 7.10848 34.5941C6.94904 34.9534 6.7063 35.2175 6.45167 35.4673C5.76155 36.1407 5.73775 36.1478 6.15182 36.9925C6.85147 38.4154 7.66058 39.7668 8.79809 40.8185C9.16933 40.4164 9.51201 40.0452 9.8547 39.674C9.89039 39.7026 9.92847 39.7335 9.96416 39.7621C9.68336 40.2118 9.40493 40.6639 9.1027 41.1492C9.35257 41.3491 9.58341 41.5347 9.77379 41.687C10.3925 40.8947 10.9732 40.1523 11.5396 39.4266C11.2421 38.8365 10.9494 38.2107 10.6138 37.6088C10.4116 37.2495 10.195 36.8664 9.89277 36.6023C9.12412 35.9361 8.40782 35.2413 7.99374 34.2919C7.80812 33.8684 7.68676 33.3973 7.41784 33.038C6.58494 31.9316 6.23273 30.6825 6.03522 29.3334C5.90433 28.4411 5.73537 27.5393 4.99765 26.8208C4.61451 26.4496 4.41937 25.8167 4.29325 25.267C3.97912 23.9084 4.21948 22.5831 4.67877 21.2816C5.13805 19.9777 5.54975 18.6596 5.99 17.32C5.14281 17.1106 4.34084 16.8989 3.52935 16.7252C3.41512 16.7014 3.22236 16.8417 3.1248 16.956C1.74217 18.5739 1.0687 20.525 0.557057 22.5427C0.449969 22.9638 0.459488 23.4159 0.426171 23.7609H3.2771C2.49416 23.8894 1.67791 24.0226 0.861664 24.1559C0.552298 24.2059 0.388096 24.3534 0.433311 24.7055C0.495184 25.1861 0.514222 25.6692 0.554677 26.1522C0.680804 27.6416 1.4566 28.8718 2.03725 30.1138C2.61315 29.9782 3.101 29.8616 3.59122 29.745C3.60074 29.7759 3.61264 29.8092 3.62216 29.8402C3.18191 30.0591 2.74166 30.278 2.27999 30.5064C2.42991 30.7419 2.55128 30.9347 2.67027 31.1226C2.9249 31.0417 3.15335 30.9704 3.38181 30.899C3.39133 30.9228 3.40085 30.9489 3.41274 30.9727C3.23188 31.1131 3.05102 31.2535 2.77735 31.4676V31.47ZM16.7774 43.895C15.6803 43.0837 13.6599 43.738 13.3791 45.0633C13.184 45.9865 13.0293 46.9692 13.4695 47.9138C13.6456 48.2921 13.7908 48.718 13.8098 49.1272C13.836 49.7149 14.0288 50.1646 14.4785 50.5358C15.4042 51.2996 16.4085 51.9944 17.2176 52.8676C18.467 54.2167 20.0257 54.802 21.7534 55.1161C22.8552 55.3159 23.9689 55.4611 25.0517 55.7347C26.1749 56.0202 27.2601 56.4437 28.3691 56.784C30.2253 57.3574 32.0934 57.8571 34.0709 57.5287C34.3375 57.4835 34.6349 57.3669 34.8705 57.4383C35.889 57.75 36.879 57.5478 37.8999 57.4455C39.2635 57.3075 40.5652 57.0077 41.8146 56.4628C42.024 56.37 42.2358 56.2558 42.4095 56.1059C43.1211 55.4849 42.9783 54.7663 42.093 54.4736C41.9312 54.4189 41.7551 54.3999 41.5838 54.3785C40.6033 54.2619 39.7918 54.7758 38.9351 55.1066C37.4097 55.6943 35.8533 55.9417 34.2185 55.6847C33.3189 55.542 32.4884 55.2874 31.4818 55.4849C29.9207 55.7918 28.3358 55.3707 27.1364 54.1881C26.4439 53.5076 25.6371 53.3078 24.7328 53.2054C24.0665 53.1293 23.4121 52.9604 22.7553 52.8081C21.0942 52.4274 19.8401 51.3329 18.5407 50.3407C18.1885 50.0718 17.853 49.5674 17.8173 49.1463C17.7245 48.047 17.2057 47.2261 16.5084 46.4362C15.7493 45.5749 15.7898 45.0109 16.556 44.152C16.6322 44.0687 16.7036 43.9807 16.7774 43.895ZM33.2594 19.4067C33.0167 19.0569 32.7192 19.3686 32.3861 19.5185C31.9339 19.7232 31.4437 19.8516 30.9963 20.0682C30.2229 20.4417 29.2401 20.6725 28.7522 21.2864C27.5481 22.7973 26.1868 24.2511 25.63 26.1902C25.561 26.4282 25.4253 26.6447 25.3301 26.8755C24.9565 27.7844 24.5639 28.7147 24.9827 29.6974C25.2825 30.4017 25.6776 31.0655 26.075 31.7222C26.3439 32.1648 26.4891 32.574 26.2202 33.0666C25.956 33.5496 26.1583 33.8827 26.6176 34.0921C26.7913 34.173 26.9769 34.2396 27.1649 34.2729C27.6932 34.3705 28.0835 34.5751 28.0454 35.208C28.0407 35.3032 28.1097 35.4031 28.1858 35.6196C28.6308 34.5346 28.6832 33.3664 29.735 32.7549C29.2091 32.1125 29.0187 31.4724 29.1449 30.7015C29.2091 30.3065 29.064 29.8759 29.0116 29.4619C28.8831 28.434 28.8069 27.4442 29.5732 26.5567C29.9326 26.1403 30.1491 25.5692 30.3276 25.0339C30.6013 24.2249 30.775 23.3755 31.4984 22.8187C32.0339 22.4071 32.5907 22.0192 33.1571 21.648C34.2256 20.9461 35.3584 20.7796 36.6458 21.3411C36.4007 20.4655 36.6886 19.8659 37.6762 19.5399C37.4168 19.3306 37.2693 19.1069 37.1003 19.0902C35.9319 18.9737 34.7587 18.7214 33.5878 19.045C33.4736 19.076 33.3975 19.2497 33.2618 19.4043L33.2594 19.4067ZM35.82 57.8499C35.1442 57.8309 34.5635 57.8 33.9805 57.8C33.2095 57.8 32.417 57.9427 31.6674 57.8143C30.3371 57.5858 29.0068 57.286 27.7265 56.8601C25.9417 56.2677 24.1522 55.7323 22.2793 55.4968C20.1899 55.2327 18.3337 54.4736 16.7916 52.9699C15.9778 52.1752 15.014 51.5304 14.1692 50.7642C13.8574 50.4835 13.5314 50.0671 13.4814 49.6769C13.3148 48.3896 12.6057 47.1714 12.965 45.8128C12.9912 45.7176 12.7818 45.4487 12.6747 45.444C11.8513 45.4131 11.0279 45.4273 10.1926 45.4273C9.79996 46.7598 10.1783 47.9399 11.0327 49.0463C11.3111 49.408 11.4396 49.891 11.6086 50.3312C11.7751 50.7595 11.8346 51.2449 12.0679 51.6303C12.6485 52.5868 13.2125 53.579 13.9526 54.407C14.5237 55.0494 15.3257 55.5063 16.073 55.9655C16.3466 56.1344 16.7607 56.0726 17.0962 56.113C17.22 56.1654 17.3604 56.2558 17.5127 56.2867C18.9477 56.5817 20.4041 56.7911 21.8105 57.179C22.9861 57.5026 22.9599 57.5954 23.7762 56.7174C23.7904 56.7031 23.8357 56.7174 23.9047 56.7174C23.7 57.0767 23.5049 57.4193 23.2312 57.8975C23.6667 57.9213 23.988 57.9404 24.2688 57.957C24.3711 58.0522 24.4901 58.2592 24.6305 58.2759C25.3373 58.3591 26.0702 58.5162 26.7604 58.4162C28.0383 58.2283 29.2757 58.4162 30.4989 58.647C31.5341 58.8445 32.5289 59.2609 33.5426 59.5821C35.1299 60.0818 35.237 60.0247 35.6749 58.4567C35.7106 58.3282 35.7367 58.195 35.8176 57.8523L35.82 57.8499ZM22.8838 30.9942C21.732 31.2892 20.5588 33.1641 20.7872 34.3372C20.9586 35.2175 21.0347 36.1264 21.0633 37.0234C21.0942 37.9871 21.3131 38.8627 21.9343 39.6074C22.3912 40.1571 22.929 40.6472 23.3478 41.2254C24.2926 42.5293 25.6252 43.1146 27.1459 43.324C27.7194 43.4025 28.3334 43.3549 28.9069 43.2478C29.697 43.1027 30.4751 42.8719 31.2414 42.6316C31.9125 42.4198 32.5622 42.1438 33.2618 41.8797C32.6359 41.4966 32.0648 41.2373 31.6127 40.8399C31.1891 40.4688 30.7797 40.257 30.2157 40.2927C29.4637 40.3379 28.7879 39.9477 28.0311 39.8787C27.2316 39.8049 26.4653 39.3671 25.6847 39.0863C24.7185 38.739 23.9665 37.6278 24.0594 36.7046C24.1426 35.8742 24.3259 35.051 23.9999 34.211C23.9023 33.9588 24.0641 33.5829 24.1688 33.2855C24.2688 33.0047 24.2735 32.8239 24.0522 32.5717C23.6405 32.1053 23.305 31.5723 22.8838 30.9965V30.9942ZM53.4277 39.4409C53.7728 40.0952 53.373 40.4259 52.9351 40.7614C52.6519 40.9803 52.3925 41.2325 52.1379 41.4871C51.5144 42.1057 50.9123 42.7458 50.2793 43.3549C50.0318 43.5928 49.7296 43.7761 49.4464 43.9759C48.6421 44.5375 47.8829 45.1894 47.0119 45.6177C46.5074 45.8675 45.8221 45.8294 45.2224 45.8009C43.8802 45.739 42.5404 45.6058 41.1982 45.4987C40.6652 45.4559 40.1297 45.4059 39.5419 45.356C39.423 45.5606 39.2564 45.8889 39.0541 46.1935C38.5662 46.9263 38.7899 47.6092 39.68 47.7353C40.3701 47.8329 41.0935 47.7282 41.8003 47.6901C42.3548 47.6592 42.914 47.5164 43.4614 47.5616C44.3776 47.6354 45.2819 47.89 46.1981 47.9375C47.9091 48.0256 49.5345 47.7068 50.948 46.6408C51.5192 46.2101 52.1212 45.8175 52.7114 45.4154C53.2992 45.0133 53.7918 44.5541 53.9774 43.8189C54.0393 43.5738 54.2202 43.3097 54.4225 43.1574C55.6552 42.2319 55.372 40.79 55.6671 39.5551C55.7575 39.1791 55.4743 38.9674 55.0317 39.0863C54.5295 39.222 54.0179 39.3124 53.4206 39.4432L53.4277 39.4409ZM59.1534 37.0829C59.8221 37.9157 59.477 38.9174 59.4199 39.8811C59.3557 40.9637 59.1486 42.0082 58.4728 42.9338C58.1682 43.3502 58.0135 43.9141 57.9207 44.4328C57.7374 45.4535 57.3519 46.2672 56.4238 46.8526C55.7218 47.2951 55.1411 47.9328 54.4843 48.5038C54.9008 49.0273 55.2244 49.4603 55.5814 49.8624C55.6647 49.9552 55.905 50.0195 56.0097 49.9695C57.1496 49.427 58.4204 49.0416 58.9392 47.652C58.863 47.5354 58.7655 47.3832 58.6703 47.2333C59.0748 47.6592 59.4366 47.4879 59.7578 47.1785C60.1505 46.7978 60.7859 46.4076 60.8216 45.9793C60.8953 45.0847 61.1547 44.2924 61.4903 43.4858C61.7687 42.8219 61.6331 42.5079 61.0334 42.1176C61.1761 42.0772 61.3047 42.0415 61.5926 41.9606C61.3475 41.5894 61.1524 41.2968 60.9691 41.0208C61.0905 41.0327 61.2571 41.0493 61.3213 41.0541C61.7544 39.9453 62.1685 38.8912 62.5754 37.8324C62.6302 37.6897 62.6492 37.5326 62.6682 37.3803C62.7325 36.8807 62.5873 36.5619 61.8948 36.6856C62.4921 36.4048 62.5255 36.2168 62.1971 35.5268C61.8877 34.8773 61.269 34.7559 60.7859 35.2722C60.2457 35.848 59.7269 36.4429 59.1534 37.0806V37.0829ZM36.9647 31.677C36.365 31.7627 35.7701 31.8388 35.1799 31.9364C35.0609 31.9554 34.9205 32.0268 34.8467 32.1196C34.3874 32.7073 34.5374 33.6138 35.1204 34.0802C35.4012 34.3038 35.6511 34.5751 35.8748 34.8559C36.2436 35.3198 36.6934 35.6434 37.2907 35.6434C37.75 35.6434 38.2069 35.5244 38.6686 35.4935C39.2754 35.4531 39.8846 35.4269 40.4915 35.4269C41.8598 35.4269 43.2186 35.3103 44.3918 34.5561C45.3485 33.9422 46.2266 33.2022 47.1095 32.4789C47.3451 32.2861 47.5926 31.9626 47.6116 31.6842C47.6521 31.037 47.5521 30.3803 47.5188 29.7283C47.4926 29.193 47.2071 28.9812 46.7121 29.1359C46.0172 29.3548 45.339 29.626 44.6631 29.8687C44.675 30.6254 44.5703 30.8609 44.0468 31.3106C43.9302 31.4105 43.8064 31.5081 43.7112 31.6271C42.9497 32.5859 41.9193 33.1023 40.739 33.2426C40.0607 33.3235 39.3444 33.2474 38.6662 33.1189C37.8856 32.9714 37.255 32.5431 36.9623 31.6723L36.9647 31.677ZM35.1275 11.0694C34.6563 10.8934 34.2637 10.7339 33.8615 10.5983C33.6997 10.5436 33.5236 10.5246 33.3499 10.5103C31.9482 10.3889 30.5227 10.3794 29.1472 10.1224C27.8193 9.87499 26.6295 10.2224 25.4111 10.5721C25.2564 10.6174 25.154 10.8434 25.0327 10.9766C24.9351 10.9362 24.7114 10.7482 24.5424 10.7887C23.2312 11.1099 21.8938 11.4049 20.911 12.4376C20.4755 12.8968 20.1375 13.4559 19.6759 13.8818C18.8525 14.6432 17.9696 15.338 17.1105 16.0637C16.8059 16.3207 16.5084 16.5848 16.1705 16.8774C16.7845 17.1439 17.3461 17.32 17.8316 17.6222C18.3099 17.9196 18.5883 17.8339 18.9548 17.4437C20.0519 16.2802 21.1894 15.1524 22.3198 14.0198C22.5244 13.8152 22.7624 13.6439 22.998 13.475C24.1688 12.6493 25.4729 12.2401 26.9079 12.1925C28.726 12.1306 30.5441 12.0473 32.3599 11.9308C33.2285 11.8737 34.0947 11.4834 34.999 12.0949C35.0538 11.6476 35.0918 11.3121 35.1228 11.0671L35.1275 11.0694ZM37.7214 25.0172C37.5215 24.5271 37.2764 24.0583 37.1408 23.5587C37.0028 23.0447 36.6767 22.8948 36.2127 22.8615C35.0657 22.7782 33.6735 23.6277 33.081 24.7269C32.6954 25.4407 32.2837 26.145 31.8125 26.8041C31.101 27.8034 30.8035 28.9313 30.6988 30.1186C30.6227 30.9727 31.0772 31.4795 31.8982 31.708C32.9739 32.0078 33.9948 31.6937 35.1109 31.5414C34.5397 30.83 34.7182 30.1566 35.0204 29.4428C35.3441 28.679 35.6225 27.8891 35.8319 27.0873C36.1056 26.0451 36.6934 25.3408 37.7191 25.0172H37.7214ZM42.5856 59.9105C42.757 59.8748 42.8688 59.8557 42.9807 59.8296C44.9225 59.3775 46.1886 57.9737 47.4831 56.6198C47.8163 56.2701 47.5426 55.4516 47.1238 55.4206C45.8601 55.3278 44.5965 55.2422 43.3162 55.1541C43.2639 55.8013 43.0283 56.3866 42.3786 56.6817C41.9764 56.8649 41.5457 57.0029 41.115 57.0933C39.3992 57.4502 37.6786 57.7809 35.9343 58.126C35.8581 58.6423 35.7701 59.2181 35.6915 59.7415C36.6339 59.7415 37.5406 59.6702 38.4306 59.763C39.2921 59.851 40.1274 60.1651 40.9864 60.2817C42.1382 60.4363 42.4048 60.1722 42.4333 59.2038C42.4357 59.0872 42.4524 58.973 42.4738 58.7113C42.519 59.1824 42.5476 59.5084 42.5856 59.9128V59.9105ZM34.1399 17.546C34.0757 16.9464 33.5831 16.4706 33.0524 16.3778C31.665 16.1303 30.2895 16.1303 28.9307 16.5467C28.4547 16.6942 27.8574 16.7228 27.529 17.0297C26.3415 18.1456 24.9541 19.0855 24.2355 20.6463C23.957 21.2531 23.5334 21.7932 23.1836 22.369C22.9552 22.7426 22.5839 23.109 22.5458 23.5039C22.4269 24.7055 22.3888 25.9238 22.4173 27.1325C22.434 27.8034 22.6339 28.4554 22.2246 29.0978C22.1318 29.2453 22.3221 29.5713 22.384 29.8164C22.5411 29.6808 22.7148 29.5618 22.8457 29.4047C22.9242 29.3096 22.9528 29.1573 22.9694 29.0264C23.1051 28.0128 23.2193 26.9968 23.3669 25.9856C23.5168 24.9554 23.8547 24.0226 24.6091 23.2398C25.2873 22.5355 25.9156 21.7789 26.2178 20.7939C26.4153 20.1443 27.0079 19.8278 27.6242 19.5875C27.8884 19.4852 28.1739 19.371 28.3786 19.1854C30.0135 17.7055 31.8649 16.994 34.1423 17.546H34.1399ZM42.657 29.5737C43.5423 29.4238 44.3585 29.3001 45.17 29.1478C45.9625 28.9979 46.2671 28.6719 46.2504 27.8558C46.2433 27.4703 46.11 27.0563 45.9244 26.7137C45.6793 26.2592 45.3675 25.8214 45.0106 25.4479C44.2895 24.6984 43.5613 23.9703 42.3786 23.9513C41.7408 23.9417 41.1102 23.6396 40.4677 23.5848C39.768 23.5254 39.047 23.5277 38.3545 23.6396C37.7809 23.7324 37.6548 24.0607 37.988 24.5509C38.5139 25.3242 39.1279 26.0356 39.6942 26.7613C40.6723 26.3044 41.3386 26.8255 42.074 27.23C43.083 27.7892 42.5333 28.6933 42.6594 29.5737H42.657ZM54.7271 32.3195C54.7889 32.3456 54.8508 32.3718 54.9127 32.3956C55.1578 31.9959 55.4291 31.6104 55.6433 31.1964C55.8908 30.7182 56.0859 30.2137 56.3072 29.7212C56.4785 29.3405 56.7189 28.9788 56.8236 28.5815C57.1163 27.468 56.9355 26.3877 56.4357 25.3646C55.7765 24.0107 55.1031 22.6664 54.4201 21.3245C54.1131 20.7201 53.6943 20.1919 52.9756 20.0919C52.3806 20.0087 51.9499 19.7232 51.5287 19.321C51.1884 18.9927 50.7529 18.7619 50.3602 18.4859C50.6339 19.528 51.2384 20.1586 52.195 20.4845C52.6043 20.6225 52.9423 20.9699 53.3111 21.2221C53.2802 21.2721 53.2492 21.3221 53.2159 21.372C52.7043 21.1246 52.195 20.8795 51.7238 20.6535C51.957 21.3601 52.176 22.0192 52.4092 22.7259C53.0041 22.783 53.3873 23.1637 53.4753 23.8585C53.4991 24.0464 53.5776 24.232 53.6562 24.4081C53.906 24.972 53.8037 25.4836 53.5134 26.0094C53.1231 26.7137 53.2112 26.8612 53.8561 27.3157C54.5748 27.8225 55.4196 28.265 55.4291 29.3786C55.5314 28.4816 56.5714 27.9129 56.2263 26.8684C56.3405 27.2205 56.4762 27.5941 56.4048 27.92C56.2953 28.4078 56.0811 28.886 55.8336 29.3215C55.5909 29.7498 55.2244 30.1067 54.9555 30.523C54.7794 30.7943 54.6128 31.1084 54.57 31.4201C54.5319 31.708 54.6652 32.0197 54.7247 32.3218L54.7271 32.3195ZM58.9606 14.836C59.1581 15.2238 59.2724 15.6164 59.5127 15.8995C60.4908 17.0392 60.2956 18.2908 59.9577 19.578C59.922 19.7136 59.9434 19.9064 60.0172 20.0229C60.4361 20.6725 60.8858 21.3007 61.3094 21.9455C61.6497 22.4642 62.6349 22.8306 63.1846 22.5332C63.4226 22.4047 63.663 22.0502 63.6749 21.7884C63.7058 21.1389 63.6082 20.4845 63.563 19.8302C63.2061 19.8707 62.8872 19.9064 62.5683 19.9421C62.7968 19.735 63.0585 19.6446 63.2775 19.4924C63.3869 19.4162 63.5035 19.2116 63.4774 19.0974C63.1799 17.8411 62.8919 16.58 62.5255 15.3428C62.3422 14.7265 61.6973 14.5314 61.1167 14.7884C60.9382 14.8669 60.7454 14.9145 60.5598 14.9763C60.5455 14.943 60.5312 14.9121 60.5193 14.8788C60.7621 14.7051 61.0072 14.5314 61.2642 14.3482C60.3361 13.7605 59.7245 14.4243 58.963 14.836H58.9606ZM35.3798 46.8216C34.9657 46.9596 34.692 47.0453 34.4231 47.1428C33.6449 47.4284 32.8787 47.7543 32.0862 47.9994C31.1676 48.2849 30.23 48.5157 29.2924 48.7346C28.945 48.8155 28.569 48.8607 28.2168 48.8179C27.6861 48.7537 27.1697 48.5657 26.6366 48.4919C26.3606 48.4539 25.9346 48.4444 25.8085 48.6061C25.3777 49.1534 25.0517 49.7839 24.6852 50.3788C25.3325 50.493 25.3301 50.4906 25.7228 50.0076C25.8965 49.7934 26.0869 49.596 26.2678 49.389L26.3963 49.4984C26.1155 49.8434 25.8346 50.186 25.5062 50.5882C26.589 50.8761 27.598 51.3139 28.7403 51.026C29.2424 50.8998 29.7731 50.8832 30.28 50.769C30.4418 50.7333 30.6322 50.5644 30.6988 50.4097C30.8892 49.9529 31.0225 49.4746 31.1795 49.0035C31.22 49.013 31.2605 49.0202 31.3009 49.0297C31.2057 49.6007 31.1081 50.1741 31.0058 50.7904C32.3575 50.5691 33.6759 50.374 34.8467 49.6721C34.9919 49.5841 35.1537 49.4009 35.1704 49.2462C35.2608 48.4824 35.306 47.7139 35.3774 46.8169L35.3798 46.8216ZM36.7957 22.5855C36.7315 21.9145 36.3912 21.472 35.7677 21.3982C35.2418 21.3364 34.6087 21.2555 34.1756 21.4791C32.6407 22.2714 31.0772 23.0733 30.6179 25.0125C30.4728 25.6311 30.1729 26.2664 29.7755 26.7565C29.0877 27.6036 29.2044 28.5101 29.3091 29.4547C29.3614 29.9425 29.3781 30.435 29.4495 30.9204C29.5161 31.363 29.6065 31.8103 29.7588 32.229C29.8017 32.348 30.1087 32.4646 30.2681 32.4337C30.6512 32.3599 31.0201 32.2005 31.4556 32.0553C30.6417 31.5581 30.4014 30.8443 30.4394 29.9996C30.4942 28.7956 30.825 27.6892 31.5103 26.6851C31.9649 26.0165 32.4075 25.3313 32.7906 24.6199C33.3998 23.492 35.1561 22.1953 36.7981 22.5879L36.7957 22.5855ZM51.6286 39.8168C51.581 39.7502 51.5358 39.6836 51.4882 39.6146C50.6125 39.7193 49.6701 39.4599 49.0252 40.4854C48.416 41.4562 47.5426 42.189 46.3361 42.3318C44.4038 42.5602 42.4666 42.7601 40.5319 42.9457C40.0417 42.9932 39.8037 43.2645 39.9441 43.7451C40.1059 44.3043 40.5438 44.3899 41.0388 44.3971C42.4095 44.4137 43.7779 44.4589 45.1462 44.4423C45.5341 44.4375 45.9387 44.2971 46.3028 44.1425C46.8263 43.9188 47.3166 43.619 47.8234 43.3573C48.4231 43.0456 49.03 42.7506 49.6201 42.4222C49.732 42.3603 49.7772 42.1843 49.8557 42.0629C50.0818 41.7203 50.2865 41.3634 50.5411 41.0446C50.8814 40.6187 51.2622 40.2261 51.6239 39.8192L51.6286 39.8168ZM18.2647 44.7183C17.5246 44.0069 17.17 43.9616 16.6869 44.5256C16.1634 45.1347 16.1539 45.5558 16.7607 46.2601C17.4722 47.0834 18.0291 47.9471 18.1409 49.0749C18.1719 49.4032 18.4075 49.7863 18.6669 50.0052C20.4541 51.5137 22.4459 52.5916 24.8161 52.8914C25.7133 53.0056 26.5557 53.2649 27.2768 53.9311C28.4381 55.0042 29.9159 55.2327 31.4437 55.1875C31.6174 55.1827 31.7888 55.0875 31.9601 55.0352C31.9672 54.9852 31.9744 54.9376 31.9815 54.8876C31.7507 54.7782 31.5151 54.5641 31.2914 54.576C30.2324 54.6307 29.2924 54.2904 28.4857 53.6766C27.2316 52.7224 25.8061 52.2727 24.3045 51.9158C23.4335 51.7088 22.5506 51.3876 21.7867 50.9284C20.2399 49.9957 19.0524 48.6442 18.1457 47.0976C17.7126 46.36 17.6674 45.4868 18.2671 44.723L18.2647 44.7183ZM48.7277 12.3091C48.7396 12.2615 48.7515 12.2163 48.7658 12.1687C48.1423 11.7832 47.5164 11.4073 46.9001 11.0123C46.4456 10.722 46.0434 10.2795 45.5508 10.1367C43.8183 9.63944 42.0597 9.23971 40.3058 8.81618C40.1488 8.77811 39.9608 8.83521 39.7942 8.8709C39.3992 8.95894 38.997 9.03746 38.6138 9.1707C38.3426 9.2635 38.0974 9.43719 37.8404 9.5752C38.59 9.95351 39.254 10.2961 39.9227 10.6269C40.4391 10.8815 40.501 11.3216 40.3915 11.8094C40.313 12.1568 40.1869 12.4947 40.0726 12.8587C40.3439 12.8873 40.5652 12.9111 40.7247 12.9301C41.0674 12.4828 41.3577 12.0735 41.6837 11.6928C42.2358 11.0456 42.8474 10.9695 43.5994 11.3668C44.0396 11.6 44.5013 11.8689 44.982 11.9355C46.2243 12.114 47.4784 12.1901 48.7301 12.3067L48.7277 12.3091ZM23.5358 26.628C24.0094 26.5971 24.2521 26.5233 24.4639 26.5757C25.1255 26.7422 25.3325 26.352 25.5396 25.8429C25.8227 25.1481 26.1297 24.4557 26.5176 23.818C26.9365 23.128 27.4981 22.526 27.9312 21.8455C28.6761 20.6749 29.7612 20.0634 31.0606 19.7136C31.5817 19.5732 32.0672 19.3115 32.6383 19.0736C31.4223 18.0957 30.7559 17.9339 30.1063 18.4002C30.3014 18.5049 30.4942 18.6072 30.6869 18.7095C29.7374 18.3931 29.1115 18.9403 28.4762 19.4638C28.3738 19.5495 28.2548 19.6375 28.1311 19.6732C26.6866 20.0634 26.3867 21.3625 25.8489 22.4713C26.1369 22.5355 26.3867 22.5903 26.639 22.6474C25.4777 22.4023 24.8851 23.2351 24.4449 23.9751C23.9999 24.7222 23.8547 25.6477 23.5358 26.6304V26.628ZM22.0175 25.524L22.0889 25.5193C22.0889 25.1719 22.0223 24.8055 22.1032 24.4771C22.265 23.8109 22.4316 23.1256 22.7338 22.5189C23.1003 21.7837 23.6715 21.1508 24.0451 20.4179C24.8518 18.838 26.2987 17.8982 27.5576 16.768C27.7194 16.6228 27.9717 16.5515 28.1953 16.5015C29.4709 16.2088 30.7202 15.8305 32.0743 16.0066C33.1476 16.147 34.1471 16.285 34.6278 17.4318C34.6516 17.4866 34.7991 17.546 34.8443 17.5222C34.9062 17.4889 34.98 17.3509 34.9562 17.301C34.8515 17.0797 34.7515 16.8322 34.5778 16.6752C34.2208 16.3516 33.8425 16.0304 33.4236 15.7996C33.1071 15.6259 32.7145 15.5164 32.3551 15.5141C31.5651 15.5069 30.7726 15.6259 29.9825 15.6235C28.588 15.6235 27.3053 16.0661 26.2606 16.8965C24.6091 18.2099 23.1122 19.7208 22.2222 21.6933C21.8343 22.5522 21.3798 23.4373 21.2727 24.3486C21.1442 25.4241 21.3774 26.54 21.4155 27.6393C21.4297 28.0533 21.3369 28.4697 21.2822 28.8837C21.2346 29.243 21.1156 29.6046 21.1394 29.9568C21.1489 30.1186 21.4369 30.3946 21.5773 30.385C21.8486 30.3636 22.108 30.2209 21.9818 29.7926C21.9009 29.519 21.9961 29.1906 22.0247 28.886C22.0723 28.3792 22.1746 27.8748 22.1698 27.3704C22.1627 26.7541 22.0699 26.1403 22.0128 25.5264L22.0175 25.524ZM47.0524 12.5898C46.8977 12.5613 46.7573 12.5304 46.6121 12.5113C45.4009 12.3519 44.1325 12.4542 43.0782 11.6191C42.9236 11.4977 42.4904 11.5524 42.3001 11.6857C41.9288 11.945 41.56 12.271 41.3244 12.6517C40.4391 14.0936 40.313 15.7258 40.2297 17.3747C41.153 17.2486 41.5028 16.8917 41.7408 16.0923C41.9217 15.4879 42.1763 14.8931 42.4904 14.3482C42.8617 13.7081 43.4019 13.306 44.2276 13.5678C44.518 13.6582 44.8392 13.6439 45.1462 13.6843C46.0386 13.8033 46.6621 13.4488 47.05 12.5875L47.0524 12.5898ZM50.0699 39.1268C51.5906 39.0435 52.9542 39.0054 54.3106 38.8817C55.1649 38.8032 55.1602 38.7437 55.0388 37.8515C55.0388 37.8372 55.0864 37.8158 55.1388 37.7753C55.2649 38.0133 55.3886 38.2488 55.5766 38.6033C56.6665 38.0133 57.7517 37.4256 58.8345 36.8402C58.6655 36.481 58.5489 36.2335 58.4323 35.9837C58.4585 35.9694 58.487 35.9575 58.5132 35.9432C58.6846 36.1645 58.8535 36.3834 59.0296 36.6094C59.3628 36.2121 58.9654 35.4816 58.1396 34.9011C58.0825 34.9772 58.0301 35.0581 57.9706 35.1319C57.1901 36.086 56.3143 36.8331 54.9698 36.864C54.3677 36.8759 53.7609 37.0853 53.1731 37.2614C52.621 37.4256 52.0974 37.6849 51.5501 37.861C50.9266 38.0608 50.553 38.5153 50.0723 39.1268H50.0699ZM52.6257 12.5589C52.3616 12.29 52.176 12.0164 51.9166 11.8522C51.1337 11.3573 50.3222 10.9053 49.5249 10.4341C49.2775 10.2866 48.9657 10.1796 48.811 9.96303C48.1994 9.11122 47.3332 8.62821 46.3837 8.35221C44.9582 7.9382 43.5066 7.59081 42.0454 7.3267C41.0674 7.15063 40.0512 7.09353 39.0541 7.11732C37.3811 7.15539 36.3269 8.53542 34.9181 9.16119C34.9038 9.16833 34.9133 9.22781 34.911 9.26112C35.3227 9.41578 36.722 9.07553 37.1027 8.69959C38.4592 7.35764 40.1083 7.42426 41.7051 7.95009C42.4738 8.20231 43.2377 8.42835 44.0254 8.59014C44.2895 8.64487 44.5632 8.67104 44.8226 8.7448C46.141 9.12788 47.4236 9.53475 48.4874 10.5127C49.1394 11.1123 50.0128 11.4715 50.7814 11.945C51.3145 12.2734 51.7928 12.7326 52.6281 12.5565L52.6257 12.5589ZM52.0332 39.5503C52.0594 39.6027 52.0855 39.655 52.1093 39.705C51.6858 40.207 51.3097 40.7614 50.8219 41.1921C50.4792 41.4966 50.1365 41.7203 50.0985 42.2342C50.0866 42.396 49.8771 42.6007 49.7058 42.6816C48.8919 43.0741 48.059 43.4334 47.2333 43.8046C47.0572 43.8831 46.8335 43.9188 46.7169 44.0521C46.1505 44.6921 45.4247 44.7492 44.6441 44.7111C43.6827 44.6636 42.7165 44.5969 41.7575 44.654C41.0983 44.6945 40.4653 44.7968 39.8846 44.378C39.6895 44.9348 39.8037 45.1537 40.2987 45.2251C40.432 45.2441 40.57 45.2346 40.7033 45.2465C41.8717 45.3417 43.0449 45.394 44.2062 45.5463C45.6103 45.7319 46.9334 45.701 48.0995 44.7445C49.0252 43.9854 50.0176 43.3097 50.9242 42.5293C51.7214 41.844 52.1546 40.8019 53.0993 40.2356C53.1969 40.1761 53.2231 39.8787 53.1731 39.7312C53.135 39.6193 52.9232 39.5146 52.7804 39.5004C52.5353 39.4766 52.2807 39.5265 52.0308 39.5456L52.0332 39.5503ZM47.5807 60.1222C48.1685 59.456 48.842 58.816 49.3655 58.0712C50.3269 56.7055 50.2793 57.0981 49.425 55.7966C49.3893 55.7418 49.3607 55.6776 49.3298 55.6181C49.3893 55.561 49.4512 55.5063 49.5107 55.4492C49.7891 55.768 50.0699 56.0868 50.3936 56.4556C50.8219 55.4301 51.4573 54.5117 51.6025 53.2411C50.2936 54.012 49.1014 54.714 47.8591 55.4444C48.2137 56.2367 47.9448 56.8744 47.2523 57.3788C47.1286 57.4693 47.0143 57.5882 46.9406 57.7191C46.8834 57.819 46.8477 57.9761 46.8811 58.0807C47.0905 58.7279 47.3213 59.3704 47.5831 60.1199L47.5807 60.1222ZM36.0366 53.7884C35.4607 53.7884 35.0704 53.8288 34.692 53.7765C34.3089 53.7218 33.9305 53.6004 33.564 53.4648C32.8263 53.1912 32.4313 52.5702 32.0481 51.9301C31.5841 51.1568 29.8778 50.9117 29.1687 51.4947C29.5708 52.3893 30.7821 53.7051 31.8625 54.4736C32.7311 55.0923 33.7187 55.3064 34.7491 55.4063C34.8562 55.4159 35.0228 55.4064 35.0657 55.3421C35.3726 54.8853 35.6535 54.4094 36.0342 53.7884H36.0366ZM47.9496 29.0003C47.902 29.0241 47.852 29.0478 47.8044 29.0693C47.8044 29.7593 47.6973 30.4683 47.833 31.1298C47.9924 31.9126 47.7282 32.3908 47.1333 32.8048C46.5455 33.2141 45.9815 33.6567 45.3961 34.0659C44.8131 34.4728 44.2633 35.0176 43.6113 35.2128C42.6594 35.4959 41.6266 35.6506 40.639 35.6125C39.7918 35.5816 39.0017 35.6981 38.1879 35.8433C37.1194 36.0336 36.1841 35.8219 35.5797 34.7987C35.4964 34.656 35.3465 34.5394 35.2061 34.4442C34.1685 33.7423 34.0733 33.4711 34.4612 32.2766C34.4874 32.1934 34.4921 32.1029 34.5112 31.9816C33.8472 32.0672 33.802 32.5955 33.7068 33.0142C33.5974 33.4949 33.6093 34.0326 34.1614 34.2658C34.6801 34.4847 34.9562 34.8892 35.1251 35.3603C35.3917 36.1026 35.97 36.2597 36.641 36.2621C36.9885 36.2621 37.3383 36.1645 37.681 36.1883C39.1207 36.2858 40.5414 36.343 41.9955 36.1359C43.2258 35.9623 44.3181 35.7338 45.2224 34.8059C45.5698 34.449 46.1148 34.2848 46.5765 34.0445C46.8834 33.8827 47.269 33.8089 47.4974 33.5758C47.8472 33.2165 48.2922 32.7787 48.3422 32.3337C48.435 31.4843 48.2946 30.6039 48.2161 29.7402C48.1923 29.488 48.0424 29.2477 47.9496 29.0003ZM35.9009 30.3612C35.9533 31.0965 36.5696 31.4439 37.2717 31.0965C37.938 30.7681 38.6043 30.4279 39.2421 30.0472C39.3825 29.9615 39.53 29.5856 39.4658 29.5071C38.9684 28.8789 39.1112 28.1508 39.0755 27.4537C39.0493 26.9754 38.8256 26.6352 38.3806 26.49C37.9356 26.3425 37.5192 26.4686 37.2526 26.8588C37.0385 27.1729 36.8576 27.5203 36.7267 27.8772C36.5696 28.3055 36.5006 28.7671 36.3579 29.2025C36.2293 29.5975 36.0556 29.9782 35.9009 30.3636V30.3612ZM35.4893 49.2747C37.1884 48.0541 38.6472 46.686 39.2659 44.6326C39.342 44.378 39.3825 44.102 39.3849 43.8355C39.3896 42.9552 39.1088 42.6863 38.2973 42.6649C38.0356 43.0956 37.7809 43.4715 37.5715 43.8712C37.2526 44.4803 36.9885 45.118 36.6506 45.7152C36.4697 46.0364 36.177 46.291 35.9485 46.5885C35.8343 46.736 35.682 46.9002 35.6606 47.0715C35.5797 47.7781 35.544 48.4896 35.4869 49.2771L35.4893 49.2747ZM59.5294 36.1145C60.2576 35.434 61.0429 34.7559 61.752 34.0088C62.059 33.6852 62.2542 33.2308 62.416 32.8025C62.4874 32.6121 62.416 32.2743 62.2803 32.1244C61.9258 31.7341 61.4974 31.4082 61.1357 31.0893C60.4836 31.7722 59.8721 32.3575 59.3271 33C58.963 33.4282 58.6798 33.9303 58.3871 34.4157C58.3395 34.4942 58.3871 34.6822 58.4537 34.7702C58.8131 35.2413 59.1938 35.6981 59.5341 36.1169L59.5294 36.1145ZM47.7187 18.7143C47.8353 18.7857 47.8996 18.8261 47.9662 18.8642C49.3251 19.6042 50.1818 20.6273 49.9723 22.2976C49.939 22.5593 50.0152 22.9043 50.1746 23.1042C50.5221 23.5373 50.9528 23.9084 51.3621 24.2891C51.4264 24.3486 51.5858 24.37 51.6691 24.3343C52.1236 24.144 52.5663 23.9275 52.9946 23.73C52.8661 22.8877 52.0284 23.1447 51.6358 22.7378C52.0189 22.2619 51.9118 21.8455 51.5929 21.4054C51.186 20.8438 50.7362 20.2894 50.4626 19.6637C50.0414 18.7 49.2394 18.2813 48.3613 17.8458C48.1328 18.1552 47.9329 18.4288 47.7211 18.7167L47.7187 18.7143ZM43.252 60.7528C43.1734 61.2405 43.1068 61.6688 43.033 62.1328C44.4347 61.8734 45.6983 61.3857 46.8501 60.6171C46.9953 60.5196 47.1976 60.3197 47.1809 60.196C47.0786 59.4917 46.9191 58.7969 46.7597 58.0094C45.5056 59.0825 44.3562 59.9818 42.8474 60.2579C42.7189 60.2817 42.5618 60.4601 42.5214 60.5981C42.3524 61.1644 42.2215 61.7426 42.0668 62.3564C43.1139 62.2851 42.6784 61.2048 43.252 60.7528ZM61.0881 26.1141C61.3499 26.7637 61.5402 27.4108 61.0595 28.0366C61.0143 28.0961 61.0572 28.2222 61.0595 28.3174C61.0881 29.0003 61.1119 29.6855 61.1452 30.3684C61.1547 30.5516 61.1238 30.8062 61.2285 30.9014C61.6021 31.2464 62.0257 31.539 62.4517 31.8674C62.723 31.2606 63.0585 30.7229 63.2084 30.1352C63.5083 28.9574 63.1323 27.8368 62.6944 26.7613C62.316 25.8357 62.2827 25.8476 61.2832 26.0189C61.2475 26.0261 61.2142 26.0499 61.0833 26.1117L61.0881 26.1141ZM14.8307 42.8719C14.5285 42.22 14.2929 41.706 14.0502 41.1968C14.005 41.104 13.9431 40.9946 13.8574 40.947C13.1316 40.5425 12.3986 40.1499 11.5871 39.7097C11.154 40.3474 10.6329 41.1159 10.1165 41.8773C10.7923 42.446 12.351 43.1884 13.0626 43.2217C13.7075 43.2502 14.4286 43.4429 14.8307 42.8743V42.8719ZM36.0247 9.5633C36.5387 9.50857 37.048 9.58233 37.4264 9.39436C38.6424 8.78049 39.8418 8.28796 41.2173 8.84235C41.3386 8.89232 41.4838 8.87804 41.6195 8.89946C42.381 9.02318 43.1568 9.09932 43.9016 9.29205C44.587 9.4705 45.2819 9.7013 45.9006 10.0415C46.8977 10.5888 47.8115 11.2883 48.8086 11.8332C49.4488 12.183 50.1746 12.3733 50.8624 12.635C50.8909 12.5708 50.9195 12.5042 50.948 12.4399C50.8505 12.3638 50.7553 12.2781 50.6506 12.2115C49.8248 11.6833 48.9205 11.2455 48.1899 10.6102C47.1095 9.66799 45.8364 9.24446 44.5132 8.88042C43.5518 8.61393 42.5856 8.3641 41.6171 8.12141C40.4082 7.82161 39.1897 7.79068 38.0451 8.31414C37.3645 8.62345 36.7624 9.1017 36.0271 9.56568L36.0247 9.5633ZM22.6339 57.9642C22.5839 57.9166 22.5625 57.8809 22.5292 57.8642C21.0014 57.0648 19.3165 56.9006 17.6531 56.6555C17.5413 56.6389 17.3961 56.7198 17.2914 56.7935C16.7274 57.1932 16.1729 57.6073 15.6184 58.0117C16.2491 58.4424 17.0058 58.9754 17.8482 58.6375C18.9072 58.2116 19.9281 58.3353 20.9157 58.6375C21.7391 58.8897 22.1913 58.6018 22.6339 57.9642ZM20.2542 47.7995C20.573 48.3087 20.8086 48.9464 21.2536 49.3461C22.0009 50.0123 22.9671 50.2884 23.9784 50.3217C24.1355 50.3264 24.364 50.2884 24.4401 50.1837C24.8375 49.6459 25.1969 49.0796 25.6585 48.3849C23.6096 48.8798 22.0723 48.5895 21.5035 46.3862C21.1347 46.8026 20.7444 47.2452 20.2518 47.7995H20.2542ZM38.928 2.51327C40.8627 2.1516 42.688 2.11591 44.4561 2.90586C44.6227 2.4752 44.7702 2.08736 44.9535 1.61625C43.5994 1.25935 42.2953 0.807268 40.9531 0.585988C39.5491 0.35519 39.7775 0.226705 39.2659 1.56628C39.1564 1.85418 39.0589 2.14685 38.9303 2.51327H38.928ZM52.9732 34.0183C52.8304 34.3681 52.7162 34.7321 52.5377 35.0629C52.3806 35.3508 52.2045 35.6791 51.9451 35.8504C51.3193 36.2644 50.5625 36.5071 50.0057 36.9878C49.475 37.4446 49.0704 38.087 48.7349 38.7128C48.6325 38.9055 48.9419 39.3171 49.1061 39.7359C49.406 39.291 49.5821 38.8722 49.889 38.6129C50.434 38.1513 51.0123 37.6302 51.6667 37.4184C52.5163 37.1448 53.2088 36.8426 53.6609 36.0146C54.1131 35.1866 53.9346 34.4442 52.9708 34.0183H52.9732ZM23.4549 59.2419C24.9637 59.7582 26.4391 60.2698 27.9217 60.7599C28.0978 60.817 28.4095 60.8265 28.4976 60.7218C28.9521 60.1793 29.3543 59.594 29.7731 59.0254C29.7517 58.9587 29.7303 58.8921 29.7089 58.8255C28.757 58.7898 27.8074 58.7541 26.8556 58.7232C26.163 58.6994 25.4467 58.7827 24.7828 58.628C24.1284 58.4757 23.7619 58.6447 23.4525 59.2419H23.4549ZM38.2283 16.0137C38.5306 15.1405 39.1112 14.2149 38.4544 13.3393C37.7024 12.3352 37.0956 11.0337 35.5011 11.0028C35.4369 11.3335 35.3488 11.6143 35.3417 11.8998C35.3369 12.1068 35.3703 12.4209 35.5059 12.5113C36.7981 13.3798 37.1812 14.9335 38.2307 16.0161L38.2283 16.0137ZM16.3181 39.2458C15.7802 39.5551 15.2139 39.8715 14.657 40.207C14.5761 40.2546 14.4904 40.4164 14.5142 40.4902C14.6951 41.0683 14.776 41.7346 15.1258 42.1866C15.7874 43.0408 16.8083 43.4263 17.8078 43.7999C18.0243 43.5429 18.2171 43.3121 18.4194 43.0718C17.8292 42.5364 17.1081 42.1224 16.7583 41.499C16.418 40.8923 16.4609 40.0738 16.3157 39.2458H16.3181ZM43.5304 29.9687C42.7498 29.9687 42.0264 29.8997 41.3267 29.9948C40.9317 30.0496 40.5795 30.3874 40.194 30.5754C39.9822 30.6801 39.749 30.7443 39.5205 30.8109C39.085 30.9371 38.6019 30.9727 38.2164 31.1869C37.6929 31.4748 37.7405 31.9626 38.314 32.0791C39.0113 32.2195 39.7871 32.3266 40.4605 32.16C41.1982 31.9792 41.8432 31.4462 42.5499 31.1155C43.0425 30.8871 43.3495 30.5445 43.528 29.9687H43.5304ZM35.5249 9.92734C35.5368 10.1677 35.5464 10.3913 35.5583 10.6126C35.6011 10.5721 35.6439 10.5317 35.6868 10.4912C36.2032 10.7649 36.8171 10.9386 37.2169 11.3312C37.9428 12.045 38.5401 12.8896 39.2421 13.7391C39.4801 13.0728 39.7371 12.4114 39.9489 11.7357C40.0702 11.3478 39.9108 11.0575 39.5562 10.8077C38.3521 9.96779 37.0242 9.73699 35.5273 9.92734H35.5249ZM24.8399 27.418C24.5282 27.4703 24.3806 27.506 24.2307 27.5203C23.6619 27.5798 23.3811 27.851 23.4216 28.4601C23.462 29.0716 23.393 29.6926 23.443 30.3041C23.4787 30.7324 23.6453 31.1512 23.7405 31.5747C23.8785 32.1838 24.3782 31.9602 24.859 31.9745C24.6115 32.1148 24.4663 32.1957 24.2759 32.3028C24.8946 32.9857 25.4848 32.3099 26.1821 32.4408C25.3254 30.8181 23.9285 29.469 24.8352 27.4156L24.8399 27.418ZM41.7075 53.7765C42.1097 53.9859 42.4619 54.1786 42.826 54.3547C43.1877 54.5284 43.547 54.7758 43.9278 54.821C44.8273 54.9257 45.7412 54.9424 46.6478 54.9638C46.774 54.9662 46.9905 54.8282 47.0167 54.7211C47.1214 54.2809 47.1666 53.8265 47.2309 53.3863C46.4027 53.5005 45.6603 53.6171 44.913 53.698C44.7131 53.7194 44.487 53.6837 44.299 53.6076C43.5589 53.3101 42.8284 52.9889 42.0645 52.6606C41.9241 53.1008 41.8194 53.4243 41.7075 53.7741V53.7765ZM7.95567 44.3661C8.60295 44.5303 9.19551 44.6778 9.74047 44.8158C10.0641 44.1425 10.3592 43.5262 10.6472 42.9219C9.79996 42.2223 8.9266 41.5062 7.9628 40.7114C7.51541 41.9749 8.11511 43.1574 7.95329 44.3661H7.95567ZM29.6922 8.55445C27.7718 8.57111 25.8918 8.54969 23.9784 9.05412C24.1902 9.29681 24.3259 9.45623 24.4663 9.61327C24.6828 9.85358 24.8661 10.2343 25.1279 10.2961C25.4253 10.3675 25.7918 10.1629 26.125 10.0677C26.3106 10.0154 26.4938 9.95113 26.6699 9.87023C27.4172 9.53237 28.1596 9.5514 28.9235 9.83455C29.2734 9.96303 29.6589 9.99872 30.1467 10.101C29.9778 9.52761 29.8445 9.07315 29.6922 8.55445ZM44.3086 42.2128C45.8792 42.0391 47.4022 41.9654 48.4588 40.5758C49.0395 39.8097 49.0847 39.5503 48.3684 38.7865C47.0048 39.7359 45.8673 41.0731 44.0968 41.361C44.1729 41.6703 44.2348 41.9106 44.3086 42.2128ZM19.752 13.4083C20.8301 11.5334 22.7005 10.9743 24.6234 10.4199C24.3307 9.99158 24.0641 9.60137 23.7643 9.16119C23.5453 9.37057 23.3835 9.52523 23.2312 9.67037C23.2978 9.84406 23.3502 9.98682 23.3788 10.063C23.1455 10.063 22.9266 10.0225 22.7338 10.0725C22.365 10.1677 22.0033 10.2938 21.6534 10.446C20.9395 10.7554 20.2066 11.0409 19.5402 11.4359C19.1761 11.6524 18.931 12.0688 18.6431 12.3805C18.9524 12.6684 19.3046 12.9943 19.752 13.4107V13.4083ZM61.4879 23.1589C60.812 21.6956 59.9863 20.4132 58.8345 19.3377C58.4347 18.9641 58.1325 18.9689 57.6898 19.371C58.2776 20.4108 58.825 21.4958 59.4842 22.507C60.1671 23.5515 60.2171 23.5206 61.4879 23.1589ZM54.6676 15.9233C55.4219 16.8108 56.1263 17.6269 56.8141 18.4526C57.3709 19.1212 57.3971 19.1331 58.1943 18.6453C58.0658 18.2717 57.9706 17.8768 57.7993 17.5199C57.4352 16.7585 57.0473 16.009 56.6308 15.2761C56.5642 15.1619 56.2548 15.0667 56.1311 15.1239C55.6123 15.3665 55.1221 15.6687 54.6676 15.9233ZM62.5588 41.3896C63.1894 40.2023 63.7891 39.0887 64.3745 37.9681C64.6672 37.4065 64.641 36.8283 64.4364 36.2216C63.9438 36.3667 63.4726 36.5071 63.2203 36.5809C62.9657 37.3803 62.7634 38.0252 62.5564 38.6676C62.2922 39.4861 62.021 40.3022 61.7354 41.173C62.1185 41.2754 62.3874 41.3467 62.5588 41.3896ZM14.7998 16.6847C14.8165 16.7442 14.8331 16.8037 14.8498 16.8632C15.2757 16.8013 15.7826 16.8632 16.1087 16.6514C16.7155 16.2564 17.2128 15.6997 17.7602 15.2143C18.3789 14.667 19 14.1245 19.6711 13.5344C19.1761 13.1966 18.7763 12.9015 18.3504 12.6469C18.2671 12.597 18.0315 12.6684 17.9625 12.7588C17.6507 13.168 17.3104 13.5749 17.0986 14.0365C16.6607 14.9954 16.0206 15.7615 15.171 16.3706C15.0401 16.4658 14.9212 16.58 14.7974 16.6871L14.7998 16.6847ZM26.125 32.5431C25.7228 32.6883 25.342 32.7311 25.0922 32.9357C24.7709 33.1974 24.3973 33.5591 24.333 33.9303C24.2521 34.3824 24.4663 34.882 25.0446 35.0367C25.5253 35.1652 26.0131 35.2865 26.4772 35.4602C26.6771 35.534 26.9293 35.7029 26.9864 35.8837C27.153 36.3929 27.4981 36.5595 27.9645 36.6094C28.2572 35.8195 27.8003 34.8011 27.0697 34.5537C25.937 34.1682 25.7633 33.8303 26.125 32.5455V32.5431ZM37.443 23.6586C37.6905 23.5634 37.7738 23.5349 37.8571 23.4992C38.7519 23.0971 39.6704 23.0186 40.6271 23.2565C41.3172 23.4278 42.0193 23.542 42.7094 23.7086C43.0973 23.8014 43.5804 23.8371 43.8374 24.0869C44.6489 24.8768 45.4128 25.7286 46.1219 26.6138C46.555 27.1515 46.6098 27.8225 46.3456 28.4911C46.3123 28.5767 46.3313 28.6814 46.3266 28.779C46.4003 28.7909 46.4741 28.8028 46.5455 28.8147C46.674 28.246 46.9715 27.6559 46.8953 27.1158C46.6597 25.436 45.8887 24.1963 43.9825 23.6824C43.1282 23.4516 42.2596 23.2708 41.3958 23.0828C40.6842 22.9281 39.9703 22.6926 39.2564 22.6878C38.7328 22.6854 38.2045 22.99 37.6905 23.1875C37.6001 23.2208 37.5691 23.4064 37.443 23.6586ZM41.7432 17.9791C42.5285 17.9791 43.3162 17.9315 44.0968 17.991C44.9535 18.0576 45.8173 18.1623 46.6502 18.3645C47.5022 18.5739 47.4855 18.6358 47.9829 17.7792C47.5426 17.6936 47.0786 17.6959 46.7002 17.5151C45.734 17.0583 44.775 16.6371 43.6684 16.7965C43.6161 16.8037 43.5566 16.768 43.5018 16.7537C42.6094 16.511 41.9026 16.994 41.7456 17.9767L41.7432 17.9791ZM64.3174 35.9194C64.7481 34.7369 64.365 33.8708 63.4583 33.1713C63.0776 32.8786 62.7849 32.9571 62.5445 33.3473C62.2875 33.7685 62.0329 34.1896 61.7473 34.6631C62.5707 34.863 62.5802 35.6553 62.8396 36.3168C63.3536 36.1788 63.8343 36.0479 64.3174 35.9194ZM28.1025 38.8294L28.231 38.6367C28.0883 37.9871 28.2072 37.2186 27.2506 36.9878C27.0293 36.9354 26.7794 36.5452 26.7461 36.2858C26.6914 35.8552 26.5652 35.6601 26.1202 35.6862C25.9703 35.6958 25.8108 35.6458 25.6681 35.5935C25.2564 35.4412 25.0969 35.6577 25.0232 36.0122C24.8661 36.7641 25.154 37.3542 25.8418 37.7301C26.0274 37.8324 26.1868 37.9847 26.3772 38.0727C26.946 38.3368 27.5243 38.5772 28.1002 38.8294H28.1025ZM41.479 29.5451C42.1144 29.7712 42.2739 29.4571 42.281 28.9717C42.2858 28.5886 42.4333 28.039 42.2406 27.8582C41.7979 27.4442 41.2149 27.1348 40.6366 26.9207C40.1226 26.7327 40.0012 26.9849 40.0893 27.5203C40.1702 28.0128 40.094 28.5315 40.0869 29.0383C40.0845 29.2144 40.0012 29.488 40.0798 29.5475C40.2392 29.6641 40.4867 29.7117 40.6961 29.6998C40.9769 29.6855 41.253 29.5927 41.479 29.5451ZM42.8974 42.3009C43.064 41.4538 42.4762 41.0993 41.7146 41.2397C40.5629 41.4514 39.4087 41.7488 38.2378 41.3015C38.1093 41.2539 37.9213 41.3634 37.7405 41.4038C37.7571 41.6751 37.7714 41.8987 37.7833 42.1129C39.4991 42.3532 41.1506 43.0646 42.895 42.3009H42.8974ZM37.8785 19.0688C38.2164 18.4811 38.1236 18.029 37.5192 17.822C37.1003 17.6793 36.603 17.6079 36.1699 17.684C35.3131 17.8316 34.485 18.0172 33.5926 17.891C32.8644 17.7887 32.11 17.8696 31.3652 17.8696C31.7055 18.1575 32.0696 18.3051 32.3765 18.5311C32.7169 18.7857 33.0286 18.8499 33.4474 18.7333C34.692 18.3836 35.9438 18.6144 37.1884 18.7714C37.4168 18.8 37.6263 18.957 37.8737 19.0688H37.8785ZM61.9948 42.5174C61.9329 42.9076 61.9115 43.255 61.8163 43.581C61.7187 43.9117 61.5212 44.2115 61.4189 44.5422C61.3046 44.9086 61.1833 45.2893 61.1785 45.6676C61.1714 46.2744 60.9001 46.6931 60.4456 47.0382C60.1457 47.2666 59.8459 47.495 59.508 47.7543C59.734 47.9447 59.9054 48.0898 60.0719 48.2302C62.2946 46.0341 62.999 44.5375 62.7063 42.6149C62.4779 42.584 62.2375 42.5507 61.9972 42.515L61.9948 42.5174ZM50.9171 52.0253C50.6839 52.1157 50.453 52.199 50.227 52.2942C49.6796 52.5202 49.1513 52.8176 48.585 52.9628C47.6592 53.1983 47.6497 53.1579 47.4927 54.0882C47.4451 54.3666 47.3856 54.6402 47.307 55.0328C47.645 54.9305 47.9139 54.8972 48.1376 54.7758C48.9157 54.3499 49.6749 53.8907 50.4435 53.4505C50.9623 53.1523 51.121 52.678 50.9195 52.0277L50.9171 52.0253ZM31.4318 39.3576C29.7493 39.191 29.2686 38.6485 29.2805 37.0115C29.2805 36.8379 29.3281 36.6285 29.2496 36.4976C28.8331 35.8076 29.1377 35.1985 29.3947 34.5679C29.5161 34.2705 29.5756 33.9493 29.6874 33.552C29.5185 33.6257 29.4756 33.6329 29.4542 33.6567C28.2477 35.001 28.1192 38.0585 29.2234 39.4908C29.3448 39.6455 29.5423 39.8049 29.7279 39.8358C30.2324 39.9191 30.7488 39.9358 31.2843 39.9834C31.3366 39.7716 31.3818 39.5884 31.4366 39.36L31.4318 39.3576ZM12.7151 45.3702C13.1744 44.6992 13.5124 44.2043 13.8384 43.7309C13.1721 43.581 12.4843 43.4096 11.7894 43.2788C11.6038 43.2431 11.3754 43.2907 11.204 43.3763C10.5805 43.6809 10.3878 44.2448 10.2926 44.9562C11.1897 45.1109 12.0369 45.256 12.7151 45.3726V45.3702ZM54.2701 33.1665C54.2701 32.6811 54.3511 32.2647 54.2535 31.8959C54.0322 31.0465 54.2416 30.3541 54.7794 29.6879C55.1197 29.2644 55.0935 28.7814 54.6842 28.3792C54.4367 28.1366 54.1821 27.8891 53.8941 27.6988C53.3706 27.3514 53.1088 27.4632 52.8923 28.0723C53.8513 28.6909 53.9846 29.2287 53.5467 30.3303C53.4515 30.5706 53.4753 30.9371 53.5991 31.1631C53.8228 31.5795 53.8132 31.9245 53.561 32.3004C53.4587 32.4527 53.3754 32.6193 53.2659 32.8096C53.5824 32.9214 53.8347 33.0119 54.2701 33.1641V33.1665ZM53.5396 24.903C52.9256 25.1124 52.4544 25.2647 51.9927 25.4407C51.9071 25.4741 51.8238 25.593 51.7928 25.6882C51.4716 26.7161 51.1622 27.7487 50.8005 28.9384C51.2169 28.7528 51.612 28.66 51.9023 28.4316C53.0136 27.5536 52.8352 26.0974 53.5372 24.9006L53.5396 24.903ZM37.5644 31.3915C37.1027 31.8008 37.2526 32.0411 37.5334 32.2957C38.6067 33.2736 39.9203 33.1546 41.1483 32.9095C42.4024 32.6597 43.3567 31.7651 44.2276 30.849C44.3514 30.7182 44.4228 30.5135 44.4632 30.3303C44.487 30.2209 44.4275 29.9972 44.3681 29.9829C44.2491 29.9544 44.0396 29.9925 43.9802 30.0781C43.4994 30.7776 42.7831 31.1845 42.1359 31.6913C41.015 32.5693 39.818 32.7763 38.4853 32.4575C37.9927 32.3409 37.5787 32.0982 37.5668 31.3891L37.5644 31.3915ZM34.3874 10.2795C34.5207 9.82265 34.3137 9.51333 33.6806 9.38485C32.8311 9.21115 32.0029 8.93753 31.1605 8.72814C30.8154 8.64249 30.4561 8.60918 30.0634 8.54493C30.1348 9.10646 30.1967 9.57044 30.2372 9.88213C31.6721 10.0201 33.0167 10.1462 34.3898 10.2771L34.3874 10.2795ZM36.8838 55.2446C37.2526 55.1684 37.581 55.1375 37.8809 55.0304C38.8233 54.6878 39.7442 54.2904 40.6937 53.9645C41.4005 53.7218 41.5504 53.5719 41.5409 52.6582C40.62 53.0222 39.7537 53.3839 38.8732 53.7027C38.5472 53.8193 38.1784 53.8193 37.8357 53.8931C37.6881 53.924 37.4858 53.9764 37.424 54.0834C37.2265 54.4308 37.0837 54.8068 36.8862 55.2469L36.8838 55.2446ZM18.7859 44.3519C19.2404 45.4035 19.6497 46.3529 20.0685 47.3213C20.3969 47.0691 20.6873 46.8454 20.9752 46.6241C21.5725 46.1649 21.6082 46.1292 21.0918 45.5487C20.5254 44.9086 19.8877 44.3328 19.2523 43.7023C19.0667 43.9593 18.9025 44.1924 18.7859 44.3542V44.3519ZM16.8154 31.9863C16.6631 31.8721 16.4799 31.7841 16.3633 31.639C16.0991 31.313 15.8278 31.3534 15.5042 31.5343C14.5618 32.0625 14.0502 33.069 14.1977 34.0968C14.757 33.9208 15.3257 33.7566 15.8826 33.5567C16.023 33.5068 16.1634 33.3688 16.2348 33.2355C16.4394 32.8477 16.6084 32.4408 16.8154 31.9863ZM35.9604 31.3915C35.4964 30.7919 35.632 30.1614 35.8058 29.5523C35.9747 28.9669 36.2103 28.3983 36.4173 27.8249C36.7743 26.8398 37.2217 25.9618 38.5448 26.176C38.0475 25.3456 37.7214 25.2218 37.0432 25.7548C36.6387 26.0713 36.2674 26.5329 36.0866 27.0064C35.6939 28.0319 35.4274 29.1049 35.1204 30.1614C34.9276 30.8252 35.2346 31.2963 35.9604 31.3963V31.3915ZM15.8112 28.6267C15.8183 28.5672 15.8255 28.5077 15.8302 28.4482C14.4476 27.8391 13.4862 26.8517 13.0721 25.3622C12.7746 25.5026 12.5533 25.6049 12.3701 25.6906C12.3844 26.6138 12.6009 27.4299 13.3458 27.9248C13.9145 28.3031 14.569 28.5577 15.2091 28.8075C15.3614 28.867 15.6065 28.6933 15.8088 28.6267H15.8112ZM59.1462 47.9257C58.5656 49.3604 57.1734 49.6792 56.0193 50.355C56.2358 50.6595 56.3405 51.0569 56.8474 50.9117C58.1872 50.5287 59.2105 49.7601 59.8768 48.5086C59.6436 48.323 59.4485 48.166 59.1462 47.9257ZM51.4668 52.7462C53.0708 52.1324 54.6295 51.5351 56.3548 50.8737C55.9241 50.7642 55.579 50.5548 55.3149 50.631C54.0012 51.0022 52.709 51.4447 51.4121 51.8682C51.3478 51.8897 51.2979 51.9539 51.236 52.0039C51.3217 52.2823 51.4026 52.5392 51.4668 52.7462ZM24.7471 35.3484C24.621 35.4673 24.5115 35.5221 24.4806 35.6053C23.9903 37.0044 24.759 38.4296 25.956 38.8318C26.6866 39.0768 27.4077 39.3552 28.1382 39.6074C28.3072 39.6645 28.4904 39.6812 28.6665 39.7169C28.6975 39.6693 28.7284 39.6241 28.7593 39.5765C28.6094 39.4004 28.469 39.0792 28.312 39.0721C27.3386 39.0173 26.6747 38.3107 25.8418 37.9895C24.9684 37.654 24.7328 37.071 24.7471 36.2525C24.7519 35.9908 24.7471 35.7291 24.7471 35.3508V35.3484ZM36.9123 20.6225L37.0266 20.7463C37.6691 20.3894 38.2759 19.8683 38.966 19.7113C39.9632 19.4828 40.2511 18.8261 40.5176 17.9101C39.5991 18.2741 38.6353 18.3051 38.1546 19.3068C37.9785 19.6732 37.5334 19.9087 37.2217 20.2157C37.1027 20.3346 37.0147 20.4845 36.9123 20.6202V20.6225ZM39.8251 19.697C38.9161 20.1467 38.1022 20.5036 37.3359 20.9461C37.0075 21.1341 36.791 21.4981 37.0599 21.836C37.4335 21.7123 37.7643 21.5386 38.1093 21.4958C39.5467 21.3245 39.5491 21.3387 39.8251 19.697ZM62.0043 25.6097C61.8258 24.8721 61.6545 24.1654 61.4784 23.4421C61.1262 23.5492 60.7811 23.6562 60.4408 23.7585C60.4717 24.2534 60.5717 24.6318 61.2452 24.5128C60.6383 24.8673 60.6264 25.0505 61.0881 25.85C61.3951 25.7691 61.7068 25.6858 62.0019 25.6073L62.0043 25.6097ZM39.5039 21.4553C38.897 21.579 38.3616 21.6552 37.8499 21.8027C37.2027 21.9907 37.0742 22.4499 37.4049 22.9234C38.1212 22.6997 38.8042 22.4856 39.5443 22.2548C39.5372 22.0835 39.5229 21.8217 39.5062 21.4553H39.5039ZM39.8061 16.7727C39.68 16.6776 39.4111 16.3421 39.2683 16.3897C38.9256 16.5015 38.521 16.7299 38.364 17.0297C38.1736 17.3938 38.5353 17.9862 38.8137 18.0029C39.2849 18.0314 39.7299 17.5627 39.8061 16.7727ZM38.9922 15.2381C39.4063 15.2856 39.7204 15.319 40.0393 15.3547C40.2035 14.6861 40.3772 13.9841 40.5557 13.2561C40.1369 13.1442 39.8513 13.2204 39.6871 13.6249C39.4682 14.1578 39.2326 14.6837 38.9946 15.2381H38.9922ZM35.3988 55.3849C36.415 55.4492 36.8124 55.0923 37.0551 53.9407C36.6006 53.805 36.3031 53.9454 36.0889 54.3904C35.9247 54.7306 35.6582 55.0185 35.3988 55.3849ZM16.8749 31.5152C16.5632 30.6444 16.2467 29.7617 15.8873 28.7599C15.7588 28.9741 15.5732 29.1383 15.5875 29.2858C15.6708 30.247 16.0325 31.0584 16.8749 31.5152ZM15.6446 17.2391C14.331 16.956 14.0407 17.0392 13.5266 17.822C13.8527 17.822 14.1906 17.7626 14.4976 17.8363C15.052 17.9696 15.3709 17.7388 15.6446 17.2415V17.2391ZM53.3896 24.6437C53.2469 24.4033 53.1469 24.232 53.047 24.0655C52.5782 24.2582 52.1427 24.439 51.7072 24.6175C51.7786 24.8626 51.8404 25.0672 51.9094 25.3027C52.4021 25.0838 52.8542 24.884 53.3896 24.6437ZM8.02706 44.7397C7.91283 45.0942 7.97232 45.3131 8.3626 45.3869C8.68387 45.4464 8.99561 45.5701 9.31688 45.6177C9.44062 45.6343 9.58341 45.513 9.71905 45.4559C9.63576 45.3536 9.57389 45.1942 9.46918 45.1585C8.99799 45.0014 8.51728 44.8777 8.02944 44.7397H8.02706ZM23.681 58.3853C23.251 58.1458 22.7695 58.3052 22.2365 58.8636C23.0028 59.2776 23.117 59.2419 23.681 58.3853ZM44.6251 3.04624C44.8083 3.1319 44.9606 3.20328 45.1129 3.27228C45.3461 2.81307 45.5603 2.38954 45.7745 1.96363C45.2771 1.76377 45.1201 1.90891 44.6251 3.04386V3.04624ZM43.8826 42.2176V41.4038C43.0521 41.4419 42.9902 41.5323 43.2829 42.289C43.4757 42.2652 43.6779 42.2414 43.8826 42.2176ZM39.8323 16.3349C39.8941 16.3183 39.9584 16.3016 40.0203 16.285C39.9037 16.0542 39.8418 15.7068 39.6562 15.614C39.2373 15.407 39.0017 15.7544 38.7542 15.9947C39.1612 16.1232 39.4967 16.2303 39.8323 16.3349ZM25.1064 26.6352C24.5115 26.835 23.9356 26.8041 23.6096 27.3561C24.0855 27.1515 24.8185 27.5536 25.1064 26.6352ZM41.5504 17.6341C41.5005 17.5936 41.4481 17.5508 41.3981 17.5103C40.777 17.7435 40.6818 18.3146 40.5105 18.8356C40.5676 18.8737 40.6247 18.9118 40.6818 18.9475C40.9722 18.5097 41.2625 18.0719 41.5528 17.6317L41.5504 17.6341ZM53.2445 32.9619C52.947 33.6067 53.3278 33.8303 53.7585 34.0588C53.8537 33.8589 53.9441 33.6733 54.0393 33.4758C53.768 33.2998 53.5277 33.1451 53.2445 32.9619ZM18.1267 44.014C18.6669 44.309 18.8287 43.7546 19.2237 43.5381C18.4955 43.017 18.4075 43.7285 18.1267 44.014ZM34.5683 10.6626C34.8229 10.6174 35.1085 10.6316 35.1442 10.546C35.2227 10.3461 35.2275 10.0844 35.1632 9.87737C35.1347 9.7822 34.8681 9.76316 34.6587 9.69178C34.6254 10.0511 34.5992 10.3104 34.5659 10.6626H34.5683ZM62.6468 42.2842C62.8182 41.4134 62.1971 41.6846 61.8425 41.5514C61.6497 42.3437 62.2565 42.1391 62.6468 42.2842Z"></path>
</svg>
