<svg xmlns="http://www.w3.org/2000/svg" fill="none" viewBox="0 0 50 46" height="46" width="50">
<path fill="black" d="M28.1014 18.3647C28.2715 18.4395 28.3484 18.637 28.2724 18.8065C28.1973 18.976 27.9992 19.0526 27.8291 18.9769C27.0284 18.6225 26.329 18.4584 25.7401 18.5991C25.171 18.7343 24.6788 19.1707 24.2626 20.0183C24.05 20.4502 24.1161 20.8379 24.3676 21.1832C24.658 21.5808 25.1836 21.9388 25.8296 22.257C29.3228 23.9738 33.3434 23.9945 36.7416 22.89C38.2769 22.3905 39.6829 21.6629 40.8527 20.7594C42.0135 19.8623 42.9408 18.793 43.5298 17.6028C44.2907 16.0655 44.4861 14.3208 43.8845 12.4824C42.5581 8.42861 38.7854 5.63804 34.0971 4.11517C31.2843 3.20091 28.1439 2.74468 25 2.74468C21.856 2.74468 18.7157 3.20181 15.9029 4.11517C11.2155 5.63804 7.44183 8.42861 6.1155 12.4824C5.51837 14.3073 5.56994 16.1025 6.13721 17.7362C6.64296 19.1924 7.55855 20.5232 8.7917 21.634C10.0303 22.7511 11.59 23.6474 13.3751 24.228C16.4439 25.2252 20.1759 25.2866 24.0952 23.9341C24.0301 23.3895 24.1115 22.8016 24.3368 22.147C24.3395 22.1389 24.3431 22.1299 24.3468 22.1218C24.1387 21.9505 23.9613 21.7693 23.8211 21.5772C23.7904 21.5348 23.7605 21.4916 23.7324 21.4474C22.2433 21.8252 20.5758 21.9298 18.9184 21.7783C16.7922 21.5844 14.6806 20.9704 12.9842 19.975C11.2698 18.9688 9.9769 17.5721 9.51367 15.8257C9.34811 15.2026 9.2893 14.5354 9.35353 13.8276C9.60053 11.1317 11.3602 9.03722 13.7044 7.49361C16.8239 5.43968 20.9875 4.36042 23.9623 4.14492C24.079 4.13681 24.1794 4.22427 24.1875 4.33968C24.1957 4.45599 24.1079 4.55607 23.9921 4.56419C21.0734 4.77517 16.9913 5.83279 13.9369 7.84345C11.6914 9.32213 10.0068 11.3166 9.77243 13.8655C9.71181 14.5228 9.767 15.1413 9.9208 15.7193C10.3542 17.3503 11.5747 18.6613 13.1968 19.6134C14.8389 20.5773 16.8891 21.1724 18.9555 21.3608C20.5342 21.5051 22.1211 21.4104 23.5434 21.0615C23.4212 20.7161 23.4167 20.3465 23.5569 19.9534C23.6393 19.6189 23.6004 19.3078 23.5054 19.0454C23.3715 18.6766 23.1417 18.4179 22.9842 18.3313C22.664 18.1555 22.4251 18.004 22.2107 17.8002C21.9954 17.5956 21.8189 17.3494 21.6299 16.9897C21.049 15.8852 20.4836 15.2937 19.8312 14.9574C19.1708 14.6175 18.3855 14.5201 17.3957 14.4164C17.2102 14.3975 17.0754 14.2325 17.0953 14.0485C17.1143 13.8637 17.2799 13.7293 17.4645 13.7492C18.5266 13.861 19.3725 13.9665 20.1398 14.3614C20.3632 14.4759 20.5767 14.6139 20.783 14.7825C20.926 14.6292 21.0988 14.4831 21.3041 14.3461C21.5955 14.1522 21.9547 13.9764 22.3889 13.8267C22.9444 13.6356 23.5207 13.5084 24.1034 13.4444C24.1152 13.4399 24.1278 13.4363 24.1414 13.4345C24.4499 13.3849 24.7249 13.3471 24.971 13.3137C26.2331 13.1424 26.6611 13.0838 26.9886 11.7178C27.137 11.0984 27.3242 10.469 27.5622 9.94968C27.8137 9.40148 28.1276 8.96959 28.5221 8.78296C28.6669 8.71443 28.8216 8.66033 28.9853 8.62156C27.621 8.3123 26.2214 8.16263 24.8217 8.17525C22.9191 8.19148 21.021 8.50705 19.2215 9.12648C16.9678 9.90189 15.7111 10.9784 15.1909 12.1208C14.8796 12.8043 14.8326 13.5157 14.9909 14.2009C15.1529 14.8997 15.5283 15.575 16.0576 16.1701C17.1849 17.4369 18.9962 18.3331 20.9377 18.3385C21.1232 18.3385 21.2743 18.4882 21.2743 18.6739C21.2743 18.8597 21.1241 19.0093 20.9377 19.0093C18.7971 19.0039 16.7977 18.0139 15.5537 16.6146C14.9511 15.9366 14.5214 15.1611 14.3341 14.3506C14.1432 13.5265 14.2002 12.669 14.5766 11.8449C15.1683 10.5448 16.5516 9.33656 19.0025 8.49263C20.8717 7.84886 22.8431 7.52156 24.8172 7.50443C26.804 7.4873 28.7944 7.78394 30.6862 8.38984C33.2991 9.22656 34.7684 10.4618 35.3972 11.798C35.7835 12.6194 35.8531 13.4724 35.6749 14.2938C35.4994 15.1016 35.0823 15.878 34.4915 16.5587C33.2511 17.9869 31.2273 19.003 29.0577 19.0093C28.8722 19.0093 28.7211 18.8597 28.7211 18.6739C28.7211 18.4882 28.8713 18.3385 29.0577 18.3385C31.0255 18.3331 32.8594 17.4134 33.9822 16.1196C34.4997 15.5236 34.8643 14.8492 35.0154 14.1522C35.1637 13.4679 35.1067 12.761 34.7874 12.083C34.2427 10.9271 32.9408 9.84238 30.6075 9.07148C30.3687 9.01558 30.1307 8.97951 29.9 8.96689C29.4558 8.94254 29.0414 9.00296 28.704 9.16345C28.409 9.3032 28.1575 9.66205 27.9449 10.1255C27.7187 10.6178 27.5405 11.221 27.3975 11.817C27.1406 12.8863 26.8393 13.2902 26.2557 13.4958C26.6683 13.5598 27.0754 13.6563 27.4726 13.7834C27.7811 13.8826 28.0553 13.9944 28.2968 14.118C28.5049 14.2243 28.6886 14.3389 28.8487 14.4588C29.5951 14.1973 30.4456 14.0828 31.3223 14.0431C31.5077 14.035 31.6651 14.1784 31.6733 14.3641C31.6814 14.5489 31.5376 14.7058 31.3512 14.7139C30.1732 14.7671 29.0577 14.9592 28.2525 15.4893C27.5278 15.9672 27.0456 16.7417 26.9877 17.9788C27.3414 18.0617 27.7115 18.1943 28.0978 18.3647H28.0996H28.1014ZM26.2684 9.2482C26.3082 9.1391 26.4286 9.0832 26.538 9.12287C26.6475 9.16255 26.7036 9.28246 26.6638 9.39156C26.5914 9.58902 26.5254 9.79459 26.4647 10.0038C26.4032 10.2166 26.3471 10.4321 26.2956 10.6448C26.1119 11.4103 25.8957 11.8341 25.551 12.0983C25.2072 12.3616 24.7711 12.4427 24.1332 12.5311C24.0183 12.5473 23.9116 12.4671 23.8962 12.3516C23.8799 12.2371 23.9604 12.1307 24.0762 12.1154C24.6471 12.0361 25.0325 11.9675 25.2949 11.7656C25.5564 11.5654 25.7283 11.2102 25.8875 10.5475C25.9409 10.3248 25.9988 10.103 26.0612 9.88656C26.1255 9.66656 26.1942 9.45197 26.2684 9.2491V9.2482ZM30.8717 34.9548C30.9604 34.8791 31.0934 34.8899 31.1684 34.9774C31.2444 35.0657 31.2336 35.1983 31.1458 35.2731C30.2927 35.998 29.1201 36.4723 27.6916 37.0502C27.3016 37.208 26.8936 37.373 26.5263 37.5272C26.4195 37.5723 26.2956 37.5218 26.2512 37.4154C26.206 37.309 26.2567 37.1855 26.3634 37.1413C26.8085 36.9538 27.1795 36.8041 27.5332 36.6607C28.9283 36.0963 30.0728 35.6338 30.8717 34.9539V34.9548ZM20.3397 30.8794C20.3397 30.8957 20.3397 30.9119 20.337 30.9281C20.1931 32.0588 20.2538 32.9316 20.4935 33.624C20.7269 34.2966 21.1359 34.807 21.6995 35.228C21.7176 35.2416 21.7167 35.2397 21.7221 35.2443C21.8506 35.3461 22.1627 35.6473 22.2179 36.2027C22.2677 36.6977 22.1094 37.41 21.3847 38.372C21.3331 38.4415 21.2879 38.5001 21.2508 38.5461C20.7722 39.1466 20.9694 40.0112 21.1811 40.9399C21.2164 41.0941 21.2517 41.2492 21.2598 41.2861C21.7873 43.6962 23.9948 44.6231 26.2539 44.7268C27.231 44.7719 28.2154 44.6646 29.0848 44.4563C29.9425 44.2516 30.6808 43.9505 31.1784 43.6043C31.6353 43.286 31.8669 42.9479 31.7366 42.653C31.6109 42.3654 31.4815 42.0381 31.4344 41.6775C30.6039 42.3627 29.4893 42.8252 28.1421 43.3707C27.9693 43.4402 27.773 43.3572 27.7024 43.1859C27.6328 43.0137 27.716 42.818 27.8879 42.7477C29.5345 42.0814 30.8138 41.5467 31.5566 40.6C31.5837 40.5648 31.6109 40.5288 31.6371 40.4918C31.6823 40.407 31.7339 40.3214 31.7954 40.2357C31.8045 40.2231 31.8135 40.2123 31.8235 40.2015C32.3166 39.3332 32.4812 38.1124 32.2487 36.2343C31.401 36.8861 30.289 37.3361 28.9546 37.8752C28.5547 38.0375 28.1358 38.207 27.7911 38.3513C26.9759 38.6939 26.1264 39.1538 25.4677 39.8048C24.8272 40.4377 24.3658 41.26 24.2952 42.3465C24.2834 42.5313 24.1233 42.672 23.9378 42.6602C23.7524 42.6485 23.6112 42.4889 23.623 42.3041C23.7053 41.031 24.2454 40.068 24.9927 39.3287C25.7229 38.6065 26.6475 38.1052 27.5296 37.7337C27.9974 37.5371 28.3574 37.3911 28.7012 37.2522C30.0855 36.6923 31.2218 36.2325 32.0053 35.567C32.5445 35.109 32.9282 34.5419 33.1317 33.7548C33.3434 32.9352 33.366 31.8721 33.1706 30.4475C33.167 30.4205 33.167 30.3925 33.1697 30.3664C31.7068 30.1238 30.2999 29.6739 29.026 29.0175C28.1982 28.5911 27.4364 28.0708 26.7814 27.5443C26.7443 27.5145 26.7072 27.4848 26.671 27.4541C24.8163 29.343 22.702 30.4178 20.3397 30.8776V30.8794ZM32.2216 40.8326C32.1058 41.0679 32.0768 41.2988 32.0949 41.5188C32.1211 41.8253 32.2378 42.1238 32.3536 42.3861C32.635 43.0263 32.2966 43.6448 31.5629 44.1561C30.9974 44.5492 30.1787 44.8864 29.2396 45.1109C28.3122 45.3327 27.2636 45.4472 26.2241 45.3994C23.6908 45.2831 21.2082 44.2147 20.5994 41.4295C20.5568 41.2366 20.5396 41.1617 20.5234 41.0878C20.2746 39.9977 20.0429 38.9807 20.7224 38.1286C20.7758 38.0628 20.8165 38.0096 20.8464 37.9699C21.4471 37.1711 21.5828 36.6274 21.5475 36.2685C21.5177 35.9701 21.3648 35.8204 21.3023 35.7699C21.287 35.7573 21.306 35.7717 21.296 35.7645C20.6274 35.265 20.1389 34.6537 19.8575 33.8422C19.5951 33.0848 19.5182 32.1598 19.6503 30.9948C19.5499 31.0093 19.4503 31.0228 19.349 31.0345C16.5679 31.3726 13.4683 30.9398 10.0692 30.0418C7.33598 29.3196 4.80092 27.8671 2.95436 25.677C1.3168 23.7366 0.222975 21.2175 0.0157914 18.1167C-0.063825 16.923 0.163263 15.5263 0.569488 14.2505C0.879811 13.2794 1.29508 12.3742 1.76193 11.6772C2.31834 10.5943 3.05931 9.58541 3.93871 8.65222C6.56063 5.86976 10.4229 3.75902 14.3142 2.36328C17.3903 1.25878 20.4718 0.606892 23.5723 0.448203C26.6765 0.289515 29.8005 0.624924 32.9589 1.49771C37.346 2.70951 42.0678 4.86533 45.3112 7.90386C46.5236 9.03992 47.5305 10.2995 48.2398 11.6781C48.7058 12.3751 49.121 13.2785 49.4305 14.2496C49.8376 15.5254 50.0638 16.9211 49.9842 18.1158C49.8494 20.1346 49.3391 21.9072 48.5475 23.4346C47.2202 25.9952 45.104 27.8634 42.6459 29.0455C40.1931 30.2257 37.3984 30.7234 34.705 30.5449C34.4191 30.526 34.1342 30.4998 33.8501 30.4656C34.0419 31.9253 34.0102 33.0388 33.7813 33.9225C33.594 34.6456 33.2801 35.2118 32.8512 35.6834C32.8531 35.6906 32.854 35.6978 32.8549 35.7059C33.2258 38.2179 32.9716 39.7507 32.2179 40.8335H32.2197L32.2216 40.8326ZM21.2716 15.2495C21.6 15.6174 21.9148 16.0835 22.2288 16.6813C22.3808 16.9698 22.5174 17.1628 22.6775 17.3152C22.8395 17.4693 23.0385 17.5938 23.3108 17.7434C23.5741 17.8877 23.9469 18.2853 24.1405 18.82C24.1495 18.8452 24.1586 18.8705 24.1667 18.8966C24.5784 18.3737 25.0506 18.0707 25.5826 17.9445C25.8188 17.8886 26.0639 17.8688 26.3182 17.8805C26.4005 16.4361 26.9949 15.5137 27.8825 14.9285C27.9603 14.8771 28.0399 14.8293 28.1213 14.7834C28.0797 14.7599 28.0363 14.7365 27.9919 14.7139C27.7847 14.6084 27.5441 14.5102 27.2681 14.4218C26.5127 14.1802 25.7192 14.0611 24.9267 14.0684C24.1396 14.0747 23.3543 14.2054 22.6097 14.4615C22.2333 14.5904 21.9266 14.741 21.6805 14.9042C21.5159 15.0133 21.3801 15.1296 21.2698 15.2486L21.2716 15.2495ZM0.643676 15.6219C0.467253 16.4712 0.385827 17.3251 0.436492 18.0897C0.636438 21.0948 1.69407 23.5329 3.27554 25.4092C5.06239 27.5289 7.52236 28.9355 10.1759 29.637C13.5262 30.5224 16.5742 30.9498 19.2975 30.6189C21.9592 30.2952 24.3151 29.2448 26.3462 27.1845C26.2702 27.1187 26.196 27.0529 26.1246 26.9879C25.9726 27.235 25.7753 27.4757 25.5256 27.7093C25.1755 28.0348 24.7195 28.3494 24.1332 28.6515C22.5373 29.4738 20.6374 29.9462 18.6207 30.0797C15.5084 30.2861 12.1084 29.6829 9.11197 28.307C6.10374 26.9257 3.4972 24.7636 1.98992 21.854C1.2408 20.4087 0.7631 18.7812 0.642771 16.9761C0.61201 16.5154 0.612915 16.0646 0.642771 15.6228L0.643676 15.6219ZM28.1783 20.8252C28.0688 20.7874 28.01 20.6675 28.0489 20.5584C28.0869 20.4493 28.2073 20.3907 28.3167 20.4294C29.0116 20.6702 29.8756 20.7387 30.7432 20.7161C32.0316 20.6819 33.3235 20.4457 34.0898 20.268C36.0594 19.8118 37.6798 18.9372 38.7637 17.7966C39.8159 16.6903 40.3614 15.3325 40.2266 13.8664C40.0764 12.2317 39.33 10.8252 38.2226 9.63771C36.909 8.22845 35.0868 7.12574 33.1453 6.30976C33.0385 6.26468 32.9879 6.14205 33.0331 6.03566C33.0783 5.92927 33.2014 5.87878 33.3081 5.92386C35.3004 6.76058 37.1732 7.89664 38.5303 9.35189C39.6983 10.6043 40.4854 12.092 40.6446 13.8285C40.7912 15.4217 40.2022 16.8923 39.0677 18.0861C37.9277 19.2852 36.234 20.2022 34.1821 20.6774C33.4004 20.8586 32.0777 21.1002 30.7514 21.1354C29.8394 21.1598 28.9247 21.0849 28.1765 20.8261L28.1783 20.8252ZM29.5055 4.69312C29.6186 4.71927 29.6892 4.83197 29.663 4.94558C29.6367 5.05828 29.5236 5.12861 29.4096 5.10246C28.8089 4.96091 28.2235 4.8455 27.6644 4.75714C27.0854 4.66517 26.529 4.60115 26.006 4.56328C25.8893 4.55517 25.8025 4.45509 25.8106 4.33878C25.8188 4.22246 25.9192 4.13591 26.0359 4.14402C26.5643 4.18279 27.1333 4.24861 27.7305 4.34238C28.3068 4.43345 28.9021 4.54976 29.5046 4.69222L29.5055 4.69312ZM24.8733 25.6815C24.8498 25.6517 24.8353 25.6175 24.8299 25.5832C24.7819 25.5237 24.7358 25.4642 24.6924 25.4038C24.5015 25.1396 24.3558 24.8691 24.2536 24.5887C20.2067 25.97 16.3489 25.8997 13.1688 24.8664C11.2942 24.2569 9.6521 23.312 8.34295 22.1308C7.02747 20.9443 6.04764 19.5179 5.5039 17.9535C4.88959 16.1845 4.83259 14.2433 5.47676 12.2741C6.87728 7.99312 10.8147 5.06189 15.6966 3.47501C18.5791 2.5382 21.7918 2.07025 25.0018 2.07025C28.2118 2.07025 31.4245 2.5391 34.307 3.47501C39.1889 5.06099 43.1263 7.99222 44.5268 12.2741C45.1873 14.292 44.972 16.2089 44.1351 17.8985C43.5 19.1816 42.5056 20.3311 41.2653 21.2896C40.0339 22.2408 38.5583 23.0063 36.9506 23.5284C33.3995 24.6825 29.1925 24.6581 25.532 22.8584C25.3184 22.7539 25.1158 22.643 24.9258 22.5275C24.6236 23.5112 24.724 24.2975 25.2397 25.0116C25.8179 25.8131 26.9099 26.5543 28.5239 27.3856C30.1714 28.234 32.0524 28.7236 33.9885 28.8516C36.5914 29.0239 39.2902 28.5442 41.657 27.4054C44.0138 26.2711 46.0413 24.4832 47.3098 22.0352C48.0679 20.5728 48.5574 18.8723 48.6868 16.9329C48.9102 13.5788 47.336 10.7197 44.8516 8.39255C41.6941 5.43427 37.0782 3.33074 32.7816 2.14419C29.6937 1.29124 26.6412 0.963039 23.6085 1.11812C20.5731 1.2732 17.5558 1.91246 14.5431 2.99353C10.7414 4.35771 6.97499 6.41164 4.43089 9.11205C2.36991 11.3003 1.11595 13.916 1.3177 16.9338C1.4317 18.6424 1.88316 20.1815 2.59066 21.5466C4.02376 24.3119 6.51448 26.3739 9.39606 27.6966C12.2903 29.0257 15.5745 29.6081 18.58 29.4089C20.5062 29.2817 22.3138 28.8327 23.8256 28.0546C24.3549 27.7823 24.7611 27.5037 25.0678 27.2179C25.3175 26.9852 25.4985 26.7508 25.6252 26.5128C25.323 26.2107 25.0696 25.9276 24.8742 25.6833H24.8724L24.8733 25.6815ZM27.6762 27.6984C28.153 28.0393 28.6705 28.3639 29.2178 28.6461C30.8807 29.5026 32.7789 29.9967 34.7322 30.1257C37.3559 30.2997 40.0764 29.8155 42.4631 28.6677C44.8435 27.5226 46.8909 25.7157 48.1738 23.2416C48.9401 21.7639 49.4341 20.0471 49.5644 18.0888C49.615 17.3242 49.5345 16.4703 49.3572 15.6201C49.387 16.0628 49.3879 16.5136 49.3572 16.9743C49.2215 19.0111 48.7058 20.8009 47.9069 22.3427C46.5661 24.9295 44.43 26.8157 41.9474 28.0104C39.4748 29.2006 36.6575 29.7019 33.9442 29.5225C31.9167 29.3881 29.9443 28.8742 28.2136 27.9825C28.0281 27.8869 27.849 27.7922 27.6753 27.6984H27.6762Z"></path>
</svg>
