<svg xmlns="http://www.w3.org/2000/svg" fill="none" viewBox="0 0 52 48" height="48" width="52">
<path fill="#020202" d="M44.1218 32.9203C44.0609 33.0626 44.0203 33.2252 43.9594 33.3675C43.797 33.2049 43.6142 33.0626 43.4315 32.8797C43.269 34.4245 43.0863 36.0302 42.9035 37.636C42.8629 37.6563 42.8426 37.6767 42.802 37.7173C42.6599 37.4124 42.4975 37.1279 42.3959 36.823C42.0508 35.705 42.2538 34.5871 42.3553 33.4692C42.4365 32.4528 42.4365 31.4569 42.0711 30.5015C41.9695 30.2373 41.8477 30.0137 41.6853 29.6275C41.6244 29.8714 41.5838 29.9731 41.5838 30.0747C41.5634 32.7171 41.6041 35.3595 42.0914 37.9612C42.132 38.1645 42.0711 38.4084 42.0508 38.7133C40.1218 35.6441 40.2437 32.2496 40.3046 28.8754C40.264 28.8754 40.203 28.8754 40.1624 28.8754C40.1218 28.9974 40.0609 29.099 40.0406 29.221C40 30.2576 39.9188 31.3146 39.9188 32.3512C39.9188 33.0626 40 33.7537 40.0203 34.4651C40.0203 35.7457 40.264 36.9856 40.731 38.1645C40.8325 38.4491 40.9746 38.7133 41.0355 38.9979C41.0964 39.3028 41.0964 39.628 41.1167 39.9329C40.9137 39.7703 40.7107 39.5873 40.5076 39.4247C40.4264 39.3637 40.3452 39.2824 40.203 39.1808C40.1624 40.0142 40.1218 40.7866 40.0812 41.559C39.9797 41.5793 39.8782 41.5996 39.797 41.6199C39.3503 40.441 38.9239 39.2621 38.4365 37.9612C38.2741 39.6686 38.1117 41.2337 37.9695 42.7785C37.868 42.7785 37.7868 42.7988 37.6853 42.7988C37.6244 42.5753 37.5228 42.372 37.5025 42.1484C37.3604 40.7459 37.2386 39.3434 37.1168 37.9409C37.0964 37.6767 37.0355 37.3921 36.8934 37.1279C36.8934 38.1238 36.8934 39.0995 36.8934 40.0955C36.8934 40.2987 36.934 40.502 36.8934 40.7053C36.8528 40.9492 36.7716 41.2134 36.7107 41.4573C36.5888 41.2337 36.467 41.0305 36.3655 40.7866C36.3046 40.6646 36.2843 40.5426 36.1421 40.4207C36.0406 41.1321 35.9391 41.8638 35.797 42.5753C35.7563 42.7582 35.5939 42.9005 35.4924 43.0631C35.4112 42.8802 35.269 42.7175 35.2487 42.5346C35.0863 41.1728 34.9442 39.8109 34.802 38.4694C34.7817 38.3474 34.7411 38.2051 34.7005 37.9816C34.6193 40.0142 34.5584 41.9248 34.4975 43.8355C34.4365 43.8558 34.3756 43.8761 34.2944 43.8965C34.1523 43.6729 33.9898 43.4696 33.7868 43.185C33.8477 43.5712 33.8883 43.8965 33.9289 44.2217C33.8883 44.2623 33.8274 44.303 33.7868 44.3436C33.2995 43.7338 32.8122 43.1241 32.2843 42.4533C32.2437 43.185 32.2234 43.8558 32.1827 44.4859C31.0863 44.6282 30.9239 43.6322 30.4772 43.0428C30.3147 42.8192 30.1726 42.5549 29.9289 42.372C30.0508 43.5306 30.1523 44.6689 30.2741 45.8274C30.1929 45.8478 30.132 45.8681 30.0508 45.8681C28.8528 44.1404 28.7107 42.0061 28.3249 39.9532C28.203 42.0265 28.0609 44.0997 27.9391 46.2543C27.4924 45.4412 27.066 44.6282 27.0051 43.6932C26.9645 43.0631 27.1066 42.4127 27.1472 41.7825C27.1878 41.1118 27.2284 40.4613 27.1878 39.7906C26.4365 41.0305 26.0711 42.3923 26.0305 43.8355C26.0102 44.4249 26.0508 45.0347 26.0508 45.6242C26.0508 45.8071 25.9898 45.99 25.868 46.173C25.2792 45.3193 25.2995 44.2827 25.0558 43.2867C24.8934 43.4086 24.731 43.5103 24.467 43.6932C24.4467 43.3883 24.4264 43.1647 24.4467 42.9411C24.5482 40.8272 24.731 38.7133 24.2437 36.6197C24.1218 36.1319 24 35.6644 23.797 35.1969C23.4721 37.1685 24.0812 39.0792 24.0812 41.0305C24.0203 41.0508 23.9594 41.0711 23.8985 41.0914C23.736 40.8679 23.5736 40.6646 23.4112 40.4613C23.3909 40.4817 23.3503 40.4817 23.3299 40.502C23.6751 41.5996 23.9594 42.7175 24.3452 43.7948C24.7107 44.8315 25.1777 45.8478 25.5025 46.9251C23.5939 45.6648 22.8629 43.5509 22.132 41.4167C22.0711 43.4696 22.9442 45.3803 22.8426 47.4332C21.0152 45.3396 20.9543 42.6566 20.8731 39.9735C20.6091 40.0751 20.4264 40.1565 20.2437 40.2378C19.9797 38.3474 19.7563 36.4368 19.1472 34.6277C19.3299 36.0912 19.5736 37.5547 19.8579 38.9979C19.9391 39.4247 20.1218 39.8109 20.264 40.2174C20.8528 41.9248 20.9543 43.6932 20.5279 45.5632C20.4467 45.4209 20.3046 45.2786 20.2843 45.116C20.1624 44.5469 20.0406 43.9778 19.9797 43.4086C19.8376 42.0671 19.2893 40.9288 18.6802 39.6686C18.5178 40.8679 18.8223 41.8842 19.0863 42.9005C19.3706 43.8965 19.6548 44.8924 19.6142 46.1323C18.3959 44.7095 18.335 42.8598 17.4619 41.3557C17.0761 42.6159 16.8934 43.8965 15.9594 44.8111C15.9797 42.8802 16.6904 41.0305 16.3249 38.9166C16.2437 39.4044 16.264 39.8719 16.1218 39.9329C15.3503 40.2784 15.6345 41.1321 15.3299 41.7012C14.9645 42.372 14.6599 43.0834 14.335 43.7745C14.2132 43.7135 14.132 43.6932 14.0305 43.6525C14.2741 42.0061 14.7817 40.4004 14.5381 38.7133C14.2944 37.0466 14.132 35.3798 13.9086 33.6927C13.8274 33.6927 13.7665 33.7131 13.6853 33.7131C13.7056 34.0993 13.7259 34.4855 13.7665 34.8513C14.0102 36.701 13.9289 38.5507 13.5025 40.3597C13.4619 40.502 13.4213 40.624 13.3604 40.7459C13.3401 40.8069 13.2792 40.8679 13.1168 41.0914C13.0558 40.7053 12.9949 40.441 12.9746 40.1971C12.8934 38.9166 12.8731 37.6157 12.731 36.3351C12.6091 35.2579 12.3452 34.2009 12.0609 33.1236C12 33.4285 11.8985 33.7131 11.8579 34.018C11.7157 35.6237 11.8376 37.1888 12.3655 38.7133C12.8528 40.1361 13.2183 41.5996 12.8325 43.1444C12.7716 43.368 12.67 43.5916 12.5076 43.8152C12.1421 42.7379 12.2437 41.5386 11.533 40.5426C11.3299 41.2541 11.4315 42.0468 10.6802 42.5753C10.4772 41.0711 10.2741 39.6483 10.0711 38.2255C10.0102 38.2255 9.96954 38.2255 9.90863 38.2255C9.7665 39.2214 9.7665 40.2378 9.40102 41.1728C9.3401 41.1728 9.27919 41.1728 9.19797 41.1728C9.15736 40.9492 9.09645 40.7053 9.07614 40.4817C8.97462 38.2864 8.75127 36.1115 8 34.0383C7.95939 33.896 7.89848 33.774 7.77665 33.6318C7.93909 35.888 8.30457 38.1442 7.26904 40.2378C7.18782 40.2378 7.1269 40.2581 7.04569 40.2581C6.98477 39.9125 6.90355 39.567 6.88325 39.2215C6.82233 38.0832 6.78173 36.9653 6.74112 35.827C6.6802 35.827 6.63959 35.827 6.57868 35.827C6.29442 36.5791 5.98985 37.3311 5.70558 38.1035C5.60406 38.0832 5.52284 38.0629 5.42132 38.0425C5.60406 35.2172 4.67005 32.3919 5.66497 29.4852C4.58883 30.1153 4.36548 30.6641 4.38579 31.7821C4.40609 33.1033 4.34518 34.4448 4.30457 35.766C4.30457 35.9489 4.22335 36.1319 4.16244 36.3148C4.10152 36.3351 4.04061 36.3351 3.9797 36.3555C3.87817 36.1115 3.71574 35.888 3.67513 35.6237C3.47208 34.3838 3.30964 33.1236 2.98477 31.8634C2.74112 32.4732 2.51777 33.1033 2.27411 33.7131C2.2132 33.6927 2.15228 33.6724 2.07107 33.6521C2.03046 31.8634 2.70051 29.9731 2.2132 28.0827C1.82741 29.1194 1.7868 30.2576 1.21827 31.1926C1.13706 31.1723 1.05584 31.152 0.974619 31.1316C0.974619 30.156 0.974619 29.16 0.974619 28.1844C0.893401 28.1437 0.812183 28.0827 0.730964 28.0421C0.568528 28.3673 0.406091 28.6722 0.243655 28.9974C0.182741 28.9364 0.121827 28.8958 0.0406091 28.8348C0.0406091 28.7535 0 28.6315 0 28.5299C0.0812183 27.2087 0.0609137 25.8672 0.263959 24.546C0.588832 22.5134 1.3198 20.6637 2.90355 19.4238C4.32487 18.3059 5.17766 16.6594 6.25381 15.2163C6.76142 14.5659 7.30964 13.9154 7.85787 13.2853C8.20304 12.8788 8.60914 12.5129 8.62944 11.8828C8.62944 11.7405 8.73096 11.5576 8.83249 11.456C9.44162 10.8258 10.0711 10.1957 10.7208 9.60628C11.0863 9.26073 11.533 9.1591 12.0406 9.19976C12.3858 9.19976 12.7919 8.91519 13.1371 8.65095C13.4416 8.40704 13.6853 8.08182 13.9289 7.7566C14.132 7.49236 14.3147 7.22812 14.4569 6.92323C14.8223 6.02888 15.3706 5.43942 16.3046 5.39877C17.0761 5.39877 17.4619 4.74833 17.9898 4.28083C18.3147 3.99627 18.7005 3.75235 19.0863 3.58975C19.736 3.32551 20.4061 3.14257 21.0761 2.89866C21.7462 2.65474 22.4162 2.3905 23.1066 2.14659C23.3503 2.06529 23.6345 2.04496 23.8782 1.88235C24.6497 1.35387 25.401 1.51648 26.1929 1.82137C26.4772 1.923 26.8223 1.88235 27.1269 1.80105C28.2843 1.49615 29.4213 1.00833 30.6599 1.29289C30.8223 1.33354 31.0457 1.25224 31.2081 1.15061C31.5736 0.947348 31.9391 0.723761 32.264 0.459521C33.401 -0.434828 34.4365 0.154629 35.4721 0.723761C36.0609 1.04898 36.7513 1.25224 37.0355 1.96365C37.4416 3.00029 38.4772 3.38648 38.9645 4.32149C39.0457 4.46377 39.0254 4.66703 39.0457 4.82964C38.9035 4.72801 38.7614 4.66703 38.6396 4.54507C38.132 4.07757 37.6447 3.61007 37.1777 3.10192C37.0558 2.97996 36.934 2.75637 36.9543 2.59376C36.9746 2.20757 36.8122 2.02463 36.5482 1.82137C35.6345 1.21159 34.7411 0.581478 33.6447 0.5205C33.3807 0.500174 33.0761 0.459521 32.8528 0.561152C32.3655 0.784739 31.9188 1.10996 31.4721 1.39452C31.1066 1.63844 30.7411 1.88235 30.7614 2.43116C30.7614 2.49213 30.6193 2.55311 30.4569 2.6954C30.4975 2.3092 30.5178 2.02463 30.5381 1.74007C30.4975 1.71974 30.4772 1.71974 30.4365 1.69942C30.2741 2.04496 30.132 2.34985 29.9695 2.67507C29.9086 2.65474 29.8477 2.61409 29.7868 2.59376C29.868 2.3092 29.9289 2.02463 30.0102 1.65876C29.7868 1.63844 29.5635 1.55713 29.3807 1.59778C28.5888 1.80105 27.797 2.08561 27.0051 2.26855C26.7005 2.32952 26.3553 2.32953 26.0711 2.20757C25.4213 1.923 24.8528 1.88235 24.1827 2.14659C22.5584 2.7767 20.8731 3.28485 19.2284 3.87431C18.7614 4.03692 18.3553 4.38246 17.868 4.68736C18.0305 4.93127 18.132 5.05323 18.3147 5.31747C17.9898 5.29714 17.8071 5.27681 17.6244 5.25649C17.5838 5.29714 17.5635 5.31747 17.5431 5.33779C17.7056 5.4191 17.868 5.52073 18.0305 5.60203C17.7665 5.90692 17.5838 6.11019 17.3401 6.39475C17.1777 6.31345 16.9137 6.21182 16.6904 6.06953C15.7563 5.45975 14.7817 6.53703 14.7817 7.32975C14.7817 7.65497 15.1878 7.98019 15.4518 8.38671C15.0457 8.65095 14.8223 8.08182 14.5381 7.93954C13.2792 8.38671 13.1371 9.78921 12.5076 10.7649C12.467 10.7445 12.4264 10.7242 12.3858 10.7039C12.467 10.3787 12.5482 10.0535 12.6294 9.72824C11.6548 9.50465 10.9036 9.78921 10.2538 10.6226C9.96954 11.0088 9.54315 11.2933 9.19797 11.6186C9.11675 11.6999 9.05584 11.8422 8.99492 11.9438C8.69035 12.4519 8.467 13.0211 8.08122 13.4479C7.28934 14.3423 6.61929 15.2976 5.98985 16.3546C5.27919 17.5538 4.32487 18.6108 3.30964 19.5254C1.84772 20.8466 0.893401 22.4117 0.670051 24.485C0.548223 25.5013 0.507614 26.5176 0.426396 27.5543C0.48731 27.5746 0.527919 27.5746 0.588832 27.5949C0.649746 27.3103 0.730964 27.0258 0.771574 26.7412C0.893401 25.8469 0.974619 24.9322 1.11675 24.0582C1.44162 22.1475 2.41624 20.7653 4 19.9116C4.69036 19.5458 5.25888 19.0783 5.62437 18.2855C5.7868 17.8993 6.09137 17.5944 6.37563 17.2896C5.96954 18.6108 5.3401 19.6677 4.12183 20.2572C2.35533 21.0905 1.50254 22.7573 1.3198 24.7696C1.17766 26.3957 1.25888 28.0421 1.23858 29.6885C1.29949 29.6885 1.3401 29.7088 1.40102 29.7088C1.44162 29.6072 1.52284 29.4852 1.54315 29.3836C1.70558 28.347 1.88832 27.3307 2.01015 26.294C2.2335 24.0582 2.96447 22.1882 4.73096 20.8873C5.7665 20.1352 6.76142 19.3018 7.45178 18.1229C7.49239 18.0416 7.5736 17.9806 7.71574 17.8587C7.59391 18.6717 7.20812 19.2002 6.74112 19.6474C6.05076 20.2978 5.3401 20.9483 4.60914 21.558C2.82234 23.0418 2.2335 25.0745 2.53807 27.4323C2.6802 28.6315 2.82233 29.8308 2.6599 31.03C2.61929 31.2739 2.6599 31.5382 2.6599 31.965C3.14721 30.8674 3.28934 29.8511 3.30964 28.8145C3.32995 27.9811 3.28934 27.1477 3.39086 26.3347C3.61421 24.4444 4.48731 22.8996 5.72589 21.5987C6.15228 21.1515 6.55838 20.7043 7.00508 20.2775C7.1066 20.1149 7.28934 20.1149 7.5533 20.0336C8.18274 18.936 8.85279 17.6758 9.58376 16.4562C10.2944 15.3179 11.1066 14.2813 12.264 13.6715C12.6091 13.4886 12.8731 13.143 13.2386 12.8381C13.2589 13.4479 12.9543 13.7325 12.5888 13.9357C11.066 14.7285 10.0914 16.0903 9.3198 17.6961C8.54822 19.3425 7.71574 20.9483 6.98477 22.615C6.63959 23.428 6.37563 24.3021 6.19289 25.1761C5.92893 26.477 5.70558 27.7778 5.13706 28.9771C5.09645 29.0787 5.07614 29.2007 5.05584 29.3023C5.09645 29.3226 5.13706 29.3633 5.17766 29.3836C5.54315 28.7332 6.01015 28.1031 6.27411 27.3916C6.78173 26.0704 7.22843 24.6883 7.65482 23.3264C8.38579 20.9686 9.50254 18.8343 10.8223 16.883C11.6345 15.6838 12.8528 14.9114 14.1117 14.3626C15.1472 13.9154 15.8579 14.4439 16.7107 15.2569C18.0305 16.5375 17.5838 18.001 17.3807 19.4441C17.0761 21.7207 16.5888 23.9972 16.3046 26.2737C16.1624 27.3916 16.2843 28.5502 16.3655 29.6682C16.9746 26.1314 17.1371 22.5134 18.6599 19.4035C18.8832 19.3831 19.1066 19.4238 19.2284 19.3425C20.3249 18.5701 21.401 17.818 22.4569 17.005C22.9239 16.6594 23.3706 16.4359 23.9391 16.5375C24.1015 16.5578 24.3249 16.5578 24.467 16.4765C24.8934 16.2326 25.2589 16.2732 25.5838 16.6798C26.132 16.2326 26.6599 16.131 27.269 16.6188C27.6142 16.9034 28.1218 16.883 28.5685 17.0253C28.8528 17.1269 29.1371 17.2896 29.4213 17.3912C29.6853 17.4928 29.9695 17.6554 30.2335 17.6148C30.802 17.5131 31.2081 17.6961 31.533 18.1839C31.7766 18.5498 32.0406 18.6717 32.4264 18.5498C32.5482 18.5091 32.7107 18.4888 32.7919 18.5701C33.3198 19.0783 33.868 18.8343 34.4569 18.6921C34.4975 18.2652 34.5584 17.818 34.599 17.3709C34.6599 17.3709 34.7005 17.3709 34.7614 17.3709C34.7614 17.8384 34.7614 18.3059 34.7614 18.7937C34.7817 18.7937 34.8223 18.7937 34.8426 18.7937C34.9442 18.5294 35.0457 18.2652 35.1675 17.9806C35.2284 17.9806 35.269 17.9806 35.3299 17.9806C35.4721 18.7124 35.4315 19.5864 36.264 19.9523C36.1218 19.5254 36.0406 19.0783 35.8376 18.6921C35.1269 17.3099 35.4315 15.8667 35.6142 14.4439C35.6142 14.4236 35.6142 14.4032 35.6345 14.3829C36.203 13.9967 36.3655 13.204 36.8528 12.7772C37.3401 12.3503 37.5228 11.8218 37.6041 11.1917C37.6447 10.9275 37.7462 10.6632 37.8071 10.46C38.132 10.7852 38.3959 11.0698 38.7411 11.4153C38.8832 11.0698 38.9645 10.8258 39.0863 10.6429C39.1878 10.4803 39.3299 10.3583 39.4518 10.2364C39.6345 10.0738 39.797 9.89085 40 9.74856C40.1827 9.62661 40.4061 9.464 40.5888 9.50465C41.2386 9.62661 41.8883 9.87052 42.5381 9.9315C42.7817 9.95182 43.066 9.60628 43.4112 9.38269C42.9848 8.48834 41.9492 8.65095 41.4619 7.85823C41.3807 8.38671 41.2589 8.73226 40.7107 8.44769C40.8325 8.18345 40.9543 7.89888 41.0761 7.63464C41.0355 7.59399 40.9746 7.53301 40.934 7.49236C40.8122 7.7566 40.6904 8.02084 40.5482 8.32573C40.3858 8.10215 40.3452 8.06149 40.3452 8.06149C40.6497 7.47204 40.5279 7.02486 40.0203 6.65899C40 6.63866 39.9594 6.59801 39.9594 6.55736C40 5.92725 39.736 5.45975 39.1066 5.09388C39.9594 5.0329 40.3046 5.31747 40.2437 5.9679C40.203 6.53703 40.5685 6.74029 40.8934 6.98421C41.4213 7.39073 41.9492 7.7566 42.4975 8.1428C42.6193 8.2241 42.7817 8.24443 42.9035 8.32573C43.1675 8.48834 43.5533 8.63062 43.6142 8.89487C43.7766 9.52497 44.2233 9.60628 44.6497 9.82987C45.2183 10.1348 45.7259 10.6023 46.2741 10.9885C46.7208 11.3137 47.1269 11.6999 47.6142 11.9031C48.5888 12.3503 49.2995 13.143 49.8274 14.078C50.8629 15.8871 51.4924 17.879 51.6751 20.0336C51.7157 20.6027 51.8579 21.1515 51.9391 21.7003C51.9797 21.9442 51.9797 22.1882 52 22.4321C51.9391 22.4524 51.8985 22.4727 51.8376 22.5134C51.5939 22.1678 51.3503 21.8223 51.1269 21.4767C51.0863 21.4971 51.066 21.4971 51.0254 21.5174C51.1269 23.6516 51.2284 25.7859 51.3299 28.0827C51.1472 27.8388 51.0051 27.7169 50.9239 27.5543C50.2335 26.3957 49.9289 25.0948 49.8071 23.7329C49.7868 23.428 49.5838 23.1435 49.3604 22.9199C49.4416 24.0785 49.4213 25.2574 49.665 26.3753C49.8071 27.1071 50.335 27.7575 50.6599 28.4486C50.7614 28.6519 50.7817 28.8754 50.8426 29.099C50.802 29.1397 50.7411 29.1803 50.7005 29.2007C50.3959 28.9161 50.0711 28.6519 49.6244 28.2453C49.6244 29.7088 49.6244 31.0097 49.6244 32.3106C49.5634 32.3309 49.5025 32.3309 49.4416 32.3512C49.3604 32.2496 49.2386 32.148 49.198 32.026C48.934 31.03 48.5888 30.034 48.4873 29.0177C48.3655 27.6356 48.1421 26.3347 47.7563 25.0135C47.3299 23.5907 47.1269 22.0865 46.7614 20.623C46.4772 19.5254 46.132 18.4481 45.7868 17.3505C45.7056 17.066 45.5431 16.8221 45.2995 16.6188C45.5228 17.6758 45.7056 18.753 45.9695 19.7897C46.4568 21.68 47.0254 23.55 47.4924 25.4607C47.7157 26.3957 47.8173 27.3916 47.8376 28.3673C47.8985 29.8714 48.4467 31.1723 49.0152 32.4732C49.1167 32.6968 49.2183 32.9 49.2792 33.1236C49.3198 33.2456 49.2792 33.4082 49.2792 33.5505C49.1371 33.5505 48.9543 33.5911 48.8731 33.5098C48.5279 33.2049 48.203 32.9 47.9188 32.5342C47.736 32.3106 47.6142 32.0463 47.5127 31.8431C47.1675 32.8797 46.8223 33.9163 46.4568 34.953C46.3959 35.0952 46.2741 35.2172 46.1726 35.3392C46.0711 35.1765 45.9086 35.0343 45.9086 34.8717C45.8883 34.5261 45.9086 34.1806 45.9492 33.8554C46.1117 32.6155 45.7462 31.4569 45.3604 30.3389C45.3198 30.1966 45.2183 30.0747 45.0761 29.9527C45.0761 32.0463 45.665 34.1399 45.0964 36.2132C45.0355 36.2335 44.9543 36.2538 44.8934 36.2742C44.8122 35.9489 44.6904 35.6237 44.6294 35.2782C44.5279 34.5871 44.467 33.8757 44.3655 33.1846C44.264 33.1033 44.1827 33.022 44.1218 32.9203C44.1218 31.6805 44.0203 30.4812 43.5127 29.3429C43.4518 29.4852 43.4518 29.6275 43.4721 29.7698C43.6954 30.8268 43.8985 31.8837 44.1218 32.9203ZM21.9289 18.4685C21.9695 18.5091 22.0305 18.5498 22.0711 18.5904C21.9086 18.9156 21.7665 19.2409 21.5634 19.5254C21.0355 20.3588 20.5076 21.1718 19.9797 21.9849C18.4365 24.3224 18.1117 26.9241 18.6396 29.6885C19.1269 32.2496 19.7157 34.7904 20.264 37.3311C20.3452 37.7376 20.4061 38.1238 20.5076 38.6523C20.731 37.7986 20.731 36.2132 20.467 35.2579C19.8376 32.8797 19.5127 30.4609 19.3909 28.0014C19.2487 25.1761 19.8985 22.5947 21.8071 20.5824C22.335 20.0336 22.7411 19.4238 23.066 18.7124C23.3299 18.1229 23.6345 17.5741 23.9391 16.9643C23.2081 16.883 22.7005 17.1269 22.2132 17.5944C21.6853 18.1026 21.1168 18.5091 20.5076 18.8953C19.6142 19.4441 18.802 20.0946 18.3756 21.1515C17.3198 23.7126 17.1371 26.4363 17.3401 29.2007C17.4822 31.0707 17.7868 32.9 18.0305 34.77C18.132 35.5627 18.2538 36.3555 18.3756 37.1482C18.4365 37.1482 18.4772 37.1482 18.5381 37.1482C18.5787 36.5994 18.7208 36.0709 18.6802 35.5424C18.5787 33.6927 18.4975 31.8431 18.2741 30.0137C17.8274 26.6599 18.0914 23.55 20.1827 20.867C20.731 20.1759 21.1777 19.3831 21.6853 18.6514C21.7462 18.5701 21.8477 18.5294 21.9289 18.4685ZM16.1827 15.4602C15.6751 14.5862 14.6599 14.3626 13.7056 14.9521C12.2843 15.8464 10.9442 16.8627 10.2335 18.5294C9.74619 19.6474 9.29949 20.8263 9.09645 22.0255C8.40609 26.0908 8.34518 30.1357 9.40102 34.1806C9.96954 36.3555 10.7005 38.51 10.8426 40.8069C10.8629 40.9898 10.8832 41.1524 10.9036 41.3354C10.9645 41.3354 11.0051 41.3354 11.066 41.315C11.066 40.563 11.1675 39.7906 11.0457 39.0792C10.802 37.7986 10.3553 36.5791 10.1117 35.2985C9.46193 31.8634 9.48223 28.3673 9.72589 24.8915C9.82741 23.489 9.86802 22.0865 10.3959 20.745C11.066 19.1189 11.9188 17.6554 13.2792 16.6391C13.5635 16.4155 14.0914 16.1716 14.3147 16.3139C15.1675 16.8627 15.6142 16.4155 16.0203 15.6635C16.0609 15.6025 16.1218 15.5415 16.1827 15.4602ZM38.9036 29.9121C39.0051 29.8918 39.1066 29.8918 39.2081 29.8714C39.1269 28.3266 39.0457 26.7615 38.9442 25.2167C38.8426 23.6923 37.9492 22.5743 37.2995 21.3141C37.2386 21.1922 37.1167 21.0905 37.0152 21.0296C36.3249 20.6434 35.5939 20.3385 35.1472 19.5254C35.0254 19.3018 34.4162 19.2002 34.1726 19.3425C33.8883 19.5051 34.0102 19.9726 34.2132 20.2978C34.3553 20.5417 34.4162 20.8466 34.5178 21.1312C34.6802 21.5784 34.7817 22.0662 35.0051 22.4524C35.9594 23.9972 36.5888 25.6842 36.6904 27.5543C36.7716 28.9771 36.7107 30.4202 36.8325 31.8431C36.9746 33.4488 37.5025 34.9123 38.1929 36.3351C38.7208 37.4531 39.1472 38.6117 39.6142 39.7703C39.6548 39.7499 39.7157 39.7499 39.7563 39.7296C39.6142 38.9775 39.533 38.2051 39.3299 37.4734C39.0457 36.4571 38.5381 35.4814 38.3756 34.4448C37.8477 31.1113 37.4213 27.7778 36.9746 24.424C36.9137 24.0175 36.9137 23.5703 36.934 23.1638C36.934 23.0012 37.0964 22.8386 37.1777 22.676C37.2995 22.7979 37.5025 22.8996 37.5431 23.0418C37.7868 23.8752 38.0711 24.7086 38.2132 25.5826C38.4975 27.0258 38.6802 28.4689 38.9036 29.9121ZM12.67 42.1281C12.5685 41.4167 12.5482 40.6443 12.3249 39.9735C11.6751 38.0629 11.4518 36.0506 11.2284 34.0586C10.9645 31.7414 10.802 29.4243 10.6396 27.0867C10.5787 26.0501 10.4975 24.9728 10.6396 23.9565C10.9645 21.3548 12.0203 19.2002 14.1726 17.879C14.6193 17.6148 14.3959 17.2692 14.4162 16.944C14.1726 16.9034 13.9086 16.8221 13.665 16.8627C13.4416 16.9034 13.2183 17.066 13.0558 17.2489C12.2437 18.1839 11.4518 19.1392 10.9645 20.3385C10.4569 21.5987 10.2335 22.8792 10.1523 24.2411C9.98985 27.1681 9.88832 30.0747 10.1117 33.0017C10.335 36.2335 11.6954 39.1198 12.67 42.1281ZM14.8223 41.7216C15.2893 40.5833 15.5939 39.3637 15.4518 38.1238C15.1878 35.6237 14.7817 33.1439 14.4569 30.6641C14.2335 28.9364 13.9289 27.2087 13.8071 25.4607C13.665 23.5094 13.9492 21.6393 15.3503 20.1962C15.533 19.9929 15.6548 19.7084 15.8173 19.4644C15.7766 19.4238 15.736 19.3831 15.6954 19.3425C15.3096 19.5051 14.8832 19.6067 14.5584 19.8506C13.7462 20.4604 13.4416 21.4361 13.2995 22.4321C12.6904 26.3957 13.2792 30.2373 14.1929 34.0586C14.7817 36.5587 15.1066 39.1198 14.8223 41.7216ZM11.533 33.2456C11.5736 33.2456 11.5939 33.2659 11.6345 33.2659C11.6751 33.083 11.7563 32.9 11.7766 32.7171C11.8376 31.4365 11.9188 30.156 11.9391 28.8754C11.9797 27.3103 11.8985 25.7249 12 24.1598C12.1421 21.9239 12.731 19.9726 14.9036 19.0783C15.8376 18.7124 15.9188 18.2449 15.3909 17.2286C15.3299 17.2692 15.2487 17.2896 15.2081 17.3302C14.5178 17.94 13.8274 18.5701 13.1371 19.1799C12.9746 19.3222 12.8122 19.4644 12.6904 19.6271C11.3503 21.3548 10.8629 23.4077 10.9645 25.6436C11.0457 27.2494 11.2081 28.8551 11.3299 30.4609C11.3909 31.3756 11.4721 32.3106 11.533 33.2456ZM39.5127 29.6072C40.0203 28.164 40 26.7209 39.736 25.2574C39.4315 23.4687 39.1878 21.6393 38.802 19.871C38.3147 17.6148 37.7259 15.3992 37.1777 13.1837C36.9137 13.326 36.7513 13.4479 36.7513 13.5699C36.731 14.1797 36.6091 14.8301 36.7513 15.4196C37.4416 18.2449 37.6244 21.2531 39.066 23.8549C39.2284 24.1598 39.3096 24.546 39.3299 24.8915C39.3909 26.2737 39.4112 27.6559 39.4518 29.0381C39.4721 29.2007 39.4924 29.4039 39.5127 29.6072ZM16.6091 32.9813C16.7107 32.7984 16.7513 32.7577 16.7513 32.7374C16.7107 32.5545 16.6904 32.3715 16.6294 32.2089C15.6142 29.4446 15.736 26.5989 16.1827 23.7533C16.467 21.9036 16.9137 20.0946 17.198 18.2449C17.2995 17.6148 17.198 16.9034 17.0355 16.2936C16.8731 15.6635 16.4264 15.6025 16.0812 16.1513C15.9391 16.4155 15.8985 16.7814 15.9188 17.1066C15.9391 17.4522 16.1624 17.818 16.1421 18.1636C16.0812 19.3222 16.0609 20.5011 15.8376 21.619C15.2893 24.4037 14.9239 27.1884 15.5736 29.9934C15.8173 30.969 16.2437 31.904 16.6091 32.9813ZM25.8883 21.1718C25.5838 22.493 25.3198 23.6313 25.0761 24.7696C25.0558 24.8915 25.0761 25.0135 25.0558 25.1354C24.9543 26.4363 25.2995 27.6356 25.6244 28.8551C26.0711 30.4406 26.4569 32.026 26.4772 33.7334C26.4975 35.2579 26.802 36.7823 27.0051 38.4287C27.066 38.1442 27.1269 37.9409 27.1472 37.7376C27.2081 36.9856 27.3299 36.2132 27.3096 35.4611C27.269 34.1602 27.2081 32.839 27.0254 31.5585C26.8832 30.5625 26.4162 29.6072 26.2944 28.5909C26.1117 27.1884 26.132 25.7452 26.0508 24.3224C25.9898 23.3264 25.9289 22.3304 25.8883 21.1718ZM22.3147 45.8274C22.3553 45.8071 22.4162 45.8071 22.4569 45.7868C22.3553 45.238 22.2335 44.6892 22.1726 44.1404C22.0305 42.9208 21.8883 41.7216 21.7665 40.502C21.7056 39.9532 21.7462 39.3841 21.7259 38.8353C21.6853 37.9612 21.5634 37.0669 21.5431 36.1929C21.5025 34.3025 21.5228 32.4122 21.5228 30.5219C21.5228 29.8714 21.5228 29.221 21.5228 28.4486C21.0355 29.3226 20.6091 30.0137 20.2437 30.7455C20.1421 30.9284 20.1421 31.213 20.1827 31.4365C20.4467 33.022 20.7919 34.5871 20.9746 36.1725C21.2183 38.4287 21.3401 40.6849 21.5025 42.9615C21.5635 43.9778 21.8477 44.9331 22.3147 45.8274ZM25.2183 16.9847C24.7716 16.6391 24.467 16.8627 24.2843 17.2083C23.8173 18.2042 23.2893 19.1799 22.9848 20.2368C22.4569 22.0052 22.802 23.8142 23.1066 25.542C23.4924 27.6559 24.0609 29.7088 24.6091 31.7821C24.7919 32.4528 25.1371 33.083 25.4213 33.7131C25.4619 33.6927 25.5025 33.6724 25.5635 33.6521C25.198 32.0463 24.9543 30.3593 24.4061 28.8145C22.9442 24.7289 23.3299 20.8263 25.2183 16.9847ZM41.3401 10.0738C41.868 11.1917 42.2944 12.208 42.8426 13.143C43.533 14.3016 44.0203 15.5415 44.1015 16.9034C44.264 19.688 44.8528 22.3508 45.7665 24.9322C45.8477 25.1964 45.9492 25.4403 46.0711 25.7656C45.8883 24.7086 45.7056 23.7533 45.5838 22.7979C45.401 21.2735 45.3604 19.7084 45.0761 18.1839C44.7919 16.6188 44.3046 15.0943 43.8985 13.5495C43.6954 12.7975 43.4721 12.0454 43.1675 11.3543C42.8223 10.6226 42.2741 10.1348 41.3401 10.0738ZM32.1421 19.0173C32.4264 19.81 32.731 20.5011 32.934 21.2531C33.2589 22.4524 33.5431 23.6516 33.8071 24.8712C34.0914 26.1517 34.4366 27.4526 34.5787 28.7535C34.7614 30.3796 35.0254 31.9244 35.8173 33.3269C36.1218 33.8554 36.4467 34.3432 36.7716 34.8513C36.5685 34.0789 36.2843 33.3675 36.0406 32.6358C35.0457 29.5869 34.6193 26.4363 34.4975 23.2248C34.4365 21.9036 33.9289 20.7856 33.3401 19.7084C33.1167 19.2815 32.7716 18.8547 32.1421 19.0173ZM15.8782 38.4084C15.9391 38.4084 16 38.4084 16.0609 38.4287C16.1015 37.7376 16.1827 37.0262 16.1421 36.3351C16.0609 34.953 15.8985 33.5708 15.7766 32.1886C15.7563 32.0667 15.736 31.9447 15.6954 31.8431C14.7005 28.7941 14.6802 25.7046 15.3299 22.554C15.4721 21.9036 15.5736 21.2532 15.7157 20.4604C14.9645 21.1922 14.4569 21.9442 14.335 22.8996C14.1117 24.3834 14.0711 25.8672 14.2944 27.351C14.6599 29.7088 15.0051 32.0667 15.3503 34.4448C15.5533 35.7457 15.6954 37.0872 15.8782 38.4084ZM40.8731 23.7126C40.934 23.6923 40.9949 23.6923 41.0558 23.672C40.8731 22.9199 40.731 22.1475 40.5076 21.4158C39.9188 19.4441 39.4112 17.4725 39.3909 15.3586C39.3909 14.2813 39.0457 13.204 38.7817 12.1267C38.7208 11.8828 38.3756 11.6795 38.1117 11.5373C38.0711 11.5169 37.8274 11.8625 37.7056 12.0657C37.3401 12.7365 37.4822 13.4073 37.7056 14.0984C38.0305 15.074 38.4569 16.0497 38.6193 17.066C39.0051 19.4645 40.2233 21.4564 40.8731 23.7126ZM49.3807 22.1475C48.9543 21.1718 48.4873 20.2165 48.1015 19.2205C47.5939 17.9197 47.4518 16.5172 47.2081 15.135C46.802 12.9194 46.2538 10.6836 43.8579 9.99248C43.4721 9.87052 43.1878 9.9315 42.9442 10.2974C43.2893 10.7242 43.5533 11.2324 43.9594 11.5373C45.1777 12.4723 45.9086 13.7731 46.4568 15.196C46.9645 16.4968 47.2893 17.8993 47.6751 19.2612C47.9797 20.4198 48.6091 21.3548 49.3807 22.1475ZM39.6751 10.5819C39.4315 10.5413 39.2487 10.7852 39.2284 11.1307C39.2081 11.5779 39.1675 12.0861 39.3096 12.4926C39.736 13.7325 40.1015 15.0537 41.0355 16.009C41.2183 16.2123 41.3198 16.5172 41.4416 16.7814C41.8477 17.6758 42.1929 18.6311 42.7005 19.4441C43.2081 20.2165 43.533 21.0296 43.736 21.9442C43.7766 22.1068 43.8376 22.2491 43.8782 22.4117C43.9188 22.3914 43.9797 22.3914 44.0203 22.3711C43.7766 21.1922 43.5533 20.0133 43.3096 18.814C42.7208 19.0579 42.6802 19.0579 42.6193 18.5091C42.3756 16.1716 41.5634 14.0984 40.467 12.1267C40.1827 11.6592 39.9594 11.1714 39.6751 10.5819ZM46.0508 29.3429C45.868 29.1194 45.7056 28.9161 45.5228 28.6925C45.2386 28.3673 44.8934 28.1031 44.7107 27.7372C43.8782 26.0095 42.9645 24.3427 42.5381 22.4117C42.3553 21.5784 42.2944 20.7043 42.0711 19.871C41.8274 18.9766 41.4619 18.1026 41.198 17.2083C40.9746 16.3952 40.4264 15.9074 39.8579 15.2569C39.8173 16.3749 40.0609 17.2692 40.5482 18.1026C41.198 19.2205 41.6447 20.3995 41.8883 21.7003C42.0508 22.5947 42.2741 23.4687 42.4772 24.3427C43.0051 26.5786 44.1015 28.3063 46.0508 29.3429ZM22.6396 25.6233C22.599 25.6233 22.5584 25.6233 22.5178 25.6233C22.5178 25.8062 22.4975 25.9891 22.5178 26.1517C22.802 28.8754 23.066 31.5788 23.9594 34.1806C24.6904 36.3351 25.2183 38.5507 24.934 40.9085C24.9137 40.9898 24.9543 41.0915 24.9543 41.1728C25.1371 40.9898 25.2792 40.7866 25.2995 40.563C25.4619 38.0629 25.4213 35.5831 24.67 33.1643C24.203 31.7008 23.7766 30.2373 23.3706 28.7535C23.0863 27.7169 22.8832 26.6599 22.6396 25.6233ZM9.44162 38.2661C9.50254 38.2458 9.58376 38.2458 9.64467 38.2255C9.48223 37.1279 9.44162 35.9896 9.15736 34.9326C8.22335 31.4365 8.0203 27.8795 8.4264 24.2817C8.52792 23.4077 8.64975 22.5337 8.75127 21.6597C8.4467 22.3101 8.22335 23.0012 8.04061 23.672C7.43147 25.8062 7.30964 28.0218 7.59391 30.1763C7.85787 32.1886 8.50761 34.1399 8.97462 36.1319C9.15736 36.8433 9.29949 37.5547 9.44162 38.2661ZM3.95939 34.9733C4.0203 34.9733 4.06091 34.9733 4.12183 34.953C4.14213 34.77 4.16244 34.5668 4.16244 34.3838C4.10152 33.3269 4.06091 32.2902 4 31.2536C3.91878 29.9934 4.12183 28.7941 4.60914 27.6152C5.42132 25.6639 6.15228 23.672 6.90355 21.68C6.96447 21.5174 6.90355 21.2938 6.90355 21.0905C6.82233 21.0702 6.76142 21.0499 6.6802 21.0499C6.47716 21.4361 6.2335 21.8223 6.05076 22.2288C5.84772 22.6353 5.7665 23.1435 5.52284 23.489C4.34518 25.0745 4 26.9851 3.67513 28.8958C3.45178 30.2373 3.45178 31.5788 3.63452 32.9203C3.71574 33.5911 3.85787 34.2822 3.95939 34.9733ZM13.4619 38.4491C13.4822 38.4491 13.4822 38.4694 13.5025 38.4694C13.5025 37.636 13.5228 36.8026 13.5025 35.9693C13.4416 34.8107 13.3807 33.6724 13.2995 32.5342C13.2589 31.8227 13.1574 31.091 13.0964 30.3796C12.9746 29.221 12.7919 28.0624 12.7513 26.9038C12.7107 24.8712 12.5888 22.7979 13.3198 20.8263C13.1574 21.0092 13.0152 21.1922 12.9543 21.4158C12.7107 22.5134 12.4061 23.5907 12.3046 24.7086C12.0609 27.5542 12.264 30.3796 12.5888 33.2049C12.7919 34.953 13.1574 36.6807 13.4619 38.4491ZM22.1523 31.5585C22.0914 31.5788 22.0102 31.5991 21.9492 31.6195C21.9492 32.839 22.0305 34.0789 21.9289 35.2782C21.7259 38.0222 22.2538 40.6036 23.2081 43.1037C23.533 43.9778 24.0609 44.7908 24.5076 45.6242C24.5685 45.5835 24.6294 45.5429 24.6904 45.5225C24.6091 45.3193 24.5076 45.0957 24.4264 44.8924C23.9797 43.4696 23.4924 42.0671 23.0863 40.624C22.5787 38.7946 22.9036 36.9043 22.6802 35.0343C22.5381 33.8757 22.3147 32.7171 22.1523 31.5585ZM49.7259 27.4323C49.5838 27.2087 49.4619 26.9648 49.2995 26.7615C48.5685 25.8265 48.203 24.7289 48 23.55C47.797 22.2491 47.6142 20.9279 47.3503 19.6271C46.8629 17.2896 46.2944 14.9724 44.8528 13.0617C44.6294 12.7568 44.3249 12.4926 44.0609 12.208C43.9594 12.391 43.9797 12.4723 44 12.5332C44.264 13.8951 44.8528 15.074 45.6041 16.1919C46.5178 17.5335 46.7817 19.1596 47.1066 20.745C47.3909 22.0865 47.6142 23.428 47.9797 24.7289C48.2843 25.7859 48.8122 26.7615 49.7259 27.4323ZM34.0914 31.0707C34.1726 31.0503 34.2741 31.0503 34.3553 31.03C34.2741 29.9731 34.2944 28.8958 34.0914 27.8795C33.6244 25.542 33.0761 23.2248 32.4467 20.9483C32.203 20.0539 31.6345 19.2612 31.1675 18.4481C30.9239 18.0416 30.5178 17.9806 30.0914 18.2652C30.3553 18.753 30.5178 19.2815 30.8426 19.688C31.5736 20.6434 32 21.7003 32.2234 22.9199C32.3452 23.5907 32.4873 24.2817 32.7919 24.8509C33.3401 25.8875 33.5228 26.9851 33.665 28.1234C33.7665 29.099 33.9492 30.095 34.0914 31.0707ZM28.5888 17.5131C28.8731 18.1229 29.1574 18.5701 29.2792 19.0579C29.6041 20.2572 29.8883 21.4564 30.1117 22.676C30.335 23.8346 30.5584 24.9932 30.599 26.1721C30.6599 27.9608 31.066 29.6072 31.9594 31.091C31.8985 30.5625 31.7766 30.034 31.6954 29.5259C31.4315 27.6965 31.0051 25.8672 30.9645 24.0378C30.9442 22.5134 30.6599 21.0905 30.2538 19.6677C30.0102 18.7937 29.5838 18.001 28.5888 17.5131ZM30.1117 29.6478C30.0102 29.1803 29.8274 28.7332 29.7868 28.2657C29.6853 26.9648 29.6041 25.6639 29.5838 24.363C29.5431 22.1678 29.2589 20.0336 28.3655 18.0416C28.264 17.7977 28.1218 17.5335 27.9188 17.3709C27.797 17.2692 27.5127 17.2692 27.3706 17.3505C27.2893 17.4115 27.2487 17.7164 27.2893 17.879C27.4315 18.3872 27.6142 18.8953 27.8173 19.4035C28.6294 21.4158 29.0558 23.5093 29.0761 25.7249C29.0964 27.1071 29.2995 28.4689 30.1117 29.6478ZM46.599 11.9641C46.802 12.4723 46.9848 12.9601 47.2081 13.4073C47.3299 13.6512 47.5127 13.8544 47.6751 14.0374C48.4061 14.8707 49.2792 15.6025 49.8274 16.5578C50.3756 17.5131 50.599 18.6921 50.9645 19.7897C51.066 20.0742 51.1269 20.3791 51.2081 20.684C51.3096 20.5214 51.3503 20.3791 51.3096 20.2572C51.0051 18.875 50.802 17.4522 50.335 16.131C49.665 14.1797 48.5685 12.5942 46.599 11.9641ZM7.32995 26.0095C7.26903 25.9891 7.22843 25.9891 7.16751 25.9688C7.1066 26.2534 7.02538 26.5176 6.98477 26.8022C6.86294 27.9201 6.80203 29.0381 6.61929 30.156C6.37563 31.5788 6.33502 32.961 6.72081 34.3838C7.00508 35.4205 7.1066 36.5181 7.28934 37.575C7.32995 37.8799 7.32995 38.1848 7.35025 38.4897C7.39086 38.4897 7.43147 38.4897 7.49239 38.4897C7.53299 38.1645 7.65482 37.8189 7.63452 37.4937C7.51269 35.2579 7.35025 33.0423 7.24873 30.8064C7.18782 29.7291 7.20812 28.6315 7.20812 27.5543C7.20812 27.0461 7.28934 26.5176 7.32995 26.0095ZM28.0203 34.4448C27.9594 34.4651 27.8782 34.5058 27.8173 34.5261C27.3909 37.0466 29.401 41.2541 31.0863 42.9005C30.9442 42.4127 30.7614 41.9451 30.5787 41.4776C30.2741 40.6849 29.9492 39.9125 29.665 39.1198C29.1167 37.575 28.5685 36.0099 28.0203 34.4448ZM47.5939 14.5659C47.5127 15.8057 47.6954 16.8627 48.3858 17.7164C49.665 19.3018 49.9086 21.2735 50.3147 23.2045C50.335 23.2858 50.3147 23.3671 50.2944 23.4484C49.9695 24.5053 50.3959 25.42 50.7411 26.355C50.7208 24.7696 50.8832 23.1232 50.4772 21.6597C49.8477 19.3425 48.8325 17.1473 47.9594 14.9114C47.9391 14.7691 47.7766 14.7081 47.5939 14.5659ZM18.6599 42.9615C18.1726 38.9979 17.6853 34.953 17.198 30.9081C17.1371 30.9081 17.0761 30.9284 16.9949 30.9284C16.9746 31.2536 16.8934 31.5585 16.934 31.8634C17.0152 32.4732 17.1777 33.083 17.2792 33.6927C17.2995 33.835 17.2589 33.9976 17.2386 34.1399C17.1777 34.4245 17.0355 34.709 17.0558 34.9733C17.1371 36.0506 17.2183 37.1482 17.3401 38.2255C17.5635 39.9125 17.868 41.559 18.6599 42.9615ZM34.9645 23.1841C34.599 24.7289 35.736 31.3349 36.5888 32.6358C36.5482 32.2496 36.5076 31.9447 36.467 31.6398C36.3249 29.8104 36.203 27.9811 36.0203 26.1721C35.9391 25.1151 35.4924 24.1598 34.9645 23.1841ZM22.4365 22.615C22.3756 22.615 22.3147 22.615 22.2335 22.615C22.1117 23.611 21.9898 24.607 21.8883 25.5826C21.7056 27.2697 21.7665 28.9568 22.1929 30.6032C22.6599 32.3919 23.0457 34.1806 23.0863 36.0506C23.1066 37.0872 23.3096 38.1035 23.4315 39.1401C23.4315 37.8189 23.3909 36.4977 23.3706 35.1765C23.3706 34.6684 23.4518 34.1602 23.3706 33.6724C23.0863 32.026 22.7411 30.3999 22.4569 28.7738C22.1726 27.0258 22.0102 25.2574 22.4162 23.489C22.4772 23.2248 22.4365 22.9199 22.4365 22.615ZM40.3858 38.4491C39.8173 36.8433 39.6548 35.1765 39.6345 33.4692C39.6345 32.9813 39.4924 32.4732 39.3503 32.0057C39.1675 31.4365 38.802 30.9081 38.6802 30.3186C38.3553 28.6722 38.1117 27.0054 37.8274 25.3387C37.7259 24.8102 37.6041 24.3021 37.4822 23.7736C37.401 23.7939 37.3198 23.8142 37.2183 23.8346C37.5025 25.7046 37.6244 27.6356 38.1117 29.4649C38.6599 31.5788 39.1269 33.6927 39.4315 35.8676C39.5736 36.823 39.8376 37.6767 40.3858 38.4491ZM26.9645 17.9806C26.3756 18.4685 26.2944 18.9766 26.3959 19.6067C26.5178 20.2572 26.5787 20.9076 26.6193 21.5784C26.7005 22.5743 26.6802 23.5907 26.8426 24.5866C27.0254 25.6842 27.3909 26.7615 27.6548 27.8388C27.8173 27.7575 27.8579 27.7169 27.8579 27.6965C27.3299 25.1151 27.3096 22.5134 27.2487 19.8913C27.2487 19.2612 27.066 18.6717 26.9645 17.9806ZM27.7157 29.16C27.3706 31.6195 28.2843 35.2782 30.0102 38.0629C29.8883 37.4531 29.7056 36.8433 29.5228 36.2335C29.3198 35.5831 29.0152 34.9733 28.9137 34.3025C28.7513 33.2456 28.731 32.148 28.6497 31.0707C28.6294 30.7861 28.6497 30.4812 28.5279 30.2576C28.3046 29.8714 28 29.5259 27.7157 29.16ZM41.3198 36.3148C41.3401 36.2945 41.3807 36.2945 41.401 36.2742C41.3401 34.709 41.2589 33.1439 41.2183 31.5991C41.198 30.6032 41.2792 29.5869 41.2792 28.5706C41.2995 27.412 40.7716 26.477 40.264 25.542C40.3249 26.355 40.4873 27.1274 40.5279 27.9201C40.6294 29.8918 40.6497 31.8634 40.7919 33.835C40.8731 34.6684 41.1371 35.4814 41.3198 36.3148ZM31.1269 20.8873C31.2487 22.6353 31.3096 24.3224 31.5127 25.9891C31.7157 27.6356 32.0609 29.2616 32.3249 30.9081C32.3858 30.8877 32.4467 30.8877 32.4873 30.8674C32.4873 30.6641 32.5076 30.4609 32.4873 30.278C32.3249 28.164 32.1827 26.0704 31.9797 23.9565C31.8985 22.8996 31.7157 21.8426 31.1269 20.8873ZM31.8782 33.774C31.1269 35.766 32.1421 41.8232 33.4213 43.1241C33.2589 42.5956 33.1371 42.1484 33.0152 41.7216C32.5888 40.2581 32.2843 38.7336 32.4873 37.2092C32.6294 35.9896 32 35.0343 31.8782 33.774ZM46.1117 28.8958C46.1523 28.8754 46.2132 28.8551 46.2538 28.8348C46.2132 28.7332 46.1929 28.6112 46.1523 28.5096C45.6244 27.2494 45.0964 25.9891 44.5685 24.7289C44.5279 24.6476 44.467 24.5257 44.4061 24.5257C43.8985 24.546 43.8376 24.0785 43.7157 23.7329C43.5736 23.3061 43.533 22.8386 43.4112 22.3914C43.2284 21.741 43.0051 21.1109 42.802 20.4808C42.7411 20.5214 42.6802 20.5417 42.599 20.5824C42.9442 23.7736 44.1218 26.5583 46.1117 28.8958ZM32.6497 25.5623C32.5888 25.5623 32.5482 25.5826 32.4873 25.5826C32.5076 25.8469 32.5482 26.1314 32.5685 26.3957C32.6701 27.4933 32.8325 28.5909 32.8325 29.6885C32.8122 31.6805 33.3401 33.5301 33.9289 35.3798C33.7056 32.5545 33.4416 29.7495 33.1167 26.9445C33.0558 26.477 32.8122 26.0298 32.6497 25.5623ZM28.5279 29.1397C29.0152 27.3103 28.4061 21.4767 27.6954 20.7043C27.5939 23.1638 27.9188 26.5583 28.5279 29.1397ZM25.6244 30.3796C25.5431 30.0747 25.4619 29.7698 25.401 29.4649C25.1574 28.4689 24.934 27.4526 24.7107 26.4363C24.6091 25.9891 24.9746 25.3794 24.3249 25.1151C24.2843 25.0948 24.264 24.9322 24.2843 24.8305C24.3046 24.5257 24.3452 24.2411 24.3655 23.9362C24.4467 22.676 24.5279 21.3954 24.6091 20.1352C23.3096 22.1678 23.8376 27.229 25.6244 30.3796ZM37.4822 20.5417C37.0152 18.4278 36.5685 16.4155 36.1218 14.3829C35.1878 15.9684 36.1015 19.9726 37.4822 20.5417ZM35.736 40.6036C35.8376 38.0222 35.0863 35.5831 35.0051 33.0626C34.9442 33.1033 34.8832 33.1236 34.8426 33.1643C34.599 32.839 34.335 32.5138 34.0711 32.1683C34.1726 33.022 34.1726 33.8554 34.3553 34.6481C34.7614 36.6197 35.2487 38.571 35.736 40.6036ZM45.9086 21.9442C45.9289 23.611 46.335 25.1558 46.9645 26.6599C47.066 26.9038 47.1066 27.1884 47.2081 27.5543C46.9442 27.4526 46.8223 27.3916 46.6396 27.3307C46.6802 27.5542 46.7005 27.7169 46.7208 27.8795C46.9239 28.7332 47.1269 29.5869 47.3299 30.4406C47.5127 31.2739 47.9594 31.9244 48.4467 32.5545C48.467 32.4122 48.4467 32.3106 48.3858 32.2089C47.6345 30.6845 47.3706 29.0584 47.3299 27.3307C47.3299 25.3997 46.5178 23.6923 45.9086 21.9442ZM20.731 23.0622C19.8376 25.2167 19.3909 27.4323 20 29.9324C21.0152 27.6559 20.467 25.3184 20.731 23.0622ZM42.8223 16.8017C42.8223 16.6594 42.8426 16.5172 42.8223 16.3749C42.4569 14.7894 42.1523 13.1634 41.7056 11.5982C41.5431 11.0291 41.0761 10.5413 40.731 10.0331C40.67 9.9315 40.4061 9.82987 40.3655 9.87052C40.264 9.97215 40.1624 10.1754 40.203 10.3177C40.264 10.6836 40.3046 11.1104 40.4873 11.3747C41.6041 13.0211 42.4162 14.7894 42.8223 16.8017ZM30.7411 35.9693C30.7817 35.9693 30.802 35.9896 30.8426 35.9896C30.9848 35.5221 31.1472 35.0546 31.2487 34.5871C31.533 33.2252 31.6548 31.8024 31.1675 30.5422C30.6193 29.1397 30.2335 27.7575 30.2741 26.2534C30.2741 25.9078 30.2335 25.5623 30.1929 25.2371C30.132 24.6883 30.0508 24.1395 29.9898 23.5907C29.9086 24.2411 29.9898 24.8915 29.9695 25.5216C29.9289 26.8835 30.132 28.2047 30.4365 29.5056C30.9036 31.4365 31.1269 33.4082 30.7614 35.4001C30.7411 35.5831 30.7614 35.7863 30.7411 35.9693ZM27.1472 16.9847C26.5584 16.6594 26.2335 16.6798 25.868 17.005C25.3604 17.4522 25.0964 18.001 25.0761 18.7124C25.0152 20.2775 24.9543 21.8426 24.8934 23.4077C24.8934 23.4687 24.934 23.5297 24.9543 23.5703C25.401 21.2735 25.0964 18.7124 27.1472 16.9847ZM25.9898 34.9123C25.9289 34.953 25.868 34.9733 25.8274 35.0139C25.8274 36.4571 25.868 37.9002 25.8274 39.3434C25.7868 40.7866 25.2995 42.2094 25.6447 43.6729C25.7056 43.5306 25.7259 43.368 25.7462 43.2257C25.9289 41.6809 26.0711 40.1158 26.335 38.571C26.5381 37.4734 26.4772 36.4164 26.2741 35.3392C26.2132 35.1765 26.0711 35.0546 25.9898 34.9123ZM41.6041 23.7329C41.5431 23.7329 41.5025 23.7533 41.4416 23.7533C40.731 26.9851 42.3959 30.5422 43.533 31.904C43.4721 31.7008 43.4518 31.5585 43.3909 31.4569C42.3959 29.9324 42.1726 28.1844 42.0305 26.3753C41.9492 25.5013 41.7462 24.6273 41.6041 23.7329ZM5.86802 36.5994C6.27411 35.705 6.43655 34.8717 6.2335 34.0383C5.94924 32.8797 6.01015 31.7211 6.2132 30.5625C6.35533 29.7088 6.47716 28.8551 6.59898 28.0014C6.53807 28.0014 6.47716 27.9811 6.41624 27.9811C5.42132 30.7251 5.52284 33.5911 5.86802 36.5994ZM32.0406 32.5748C32.4467 34.5464 32.8528 36.3148 33.7868 37.8393C33.8274 37.8189 33.8883 37.7986 33.9289 37.7783C33.5228 36.0099 33.1371 34.2212 32.731 32.4528C32.5482 32.7781 32.4264 33.0017 32.0406 32.5748ZM16.3452 33.0423C16.2843 33.0626 16.203 33.083 16.1421 33.1236C16.3249 36.1522 17.1574 39.1401 16.9137 42.2297C17.0761 41.4167 17.198 40.5833 17.1574 39.7703C17.0761 37.9206 16.934 36.0912 16.7513 34.2415C16.731 33.835 16.4873 33.4285 16.3452 33.0423ZM29.1777 31.5991C29.1371 31.6195 29.0761 31.6195 29.0355 31.6398C28.9543 33.0626 29.7665 36.5791 30.5178 38.0019C30.3756 36.8839 30.335 35.7863 30.1117 34.7294C29.8883 33.6724 29.5025 32.6561 29.1777 31.5991ZM45.5025 29.8714C46.0711 31.2536 46.4365 32.5951 46.2944 34.0383C46.8629 32.9407 47.0254 31.8024 46.802 30.6032C46.7817 30.5015 46.7005 30.3796 46.6193 30.3389C46.2944 30.1763 45.9492 30.0544 45.5025 29.8714ZM20.9949 27.1477C21.5431 25.0135 21.5635 22.7776 22.3756 20.7247C21.7056 21.2531 21.2995 21.9646 21.2183 22.8183C21.0964 24.2614 21.0761 25.7046 20.9949 27.1477ZM36.4061 39.1198C36.6091 37.1685 36.0203 34.1196 35.3503 33.5505C35.5533 35.4611 35.7766 37.3311 36.4061 39.1198ZM26.5178 25.1558C26.2132 26.1111 26.7208 29.8308 27.3096 30.4609C27.4924 28.6315 27.0051 26.9648 26.5178 25.1558ZM29.198 28.9974C29.0964 30.7861 29.7868 32.2902 30.4365 33.8757C30.5178 33.774 30.5584 33.7334 30.5584 33.7131C30.5787 33.6318 30.5787 33.5505 30.5787 33.4692C30.5178 32.5138 30.5178 31.5788 29.9086 30.7455C29.5431 30.278 29.4213 29.5869 29.198 28.9974ZM20.3249 42.6362C20.3655 42.6362 20.4061 42.6159 20.4264 42.6159C20.4264 42.4533 20.467 42.2907 20.4264 42.1484C19.9391 40.2987 19.4518 38.4491 18.9645 36.6197C18.7411 37.3108 18.7614 38.1035 18.9645 38.7946C19.3503 40.0955 19.8782 41.3557 20.3249 42.6362ZM27.533 43.7948C28.0812 41.7216 28.1624 39.6483 27.6954 37.5954C27.6345 37.5954 27.5939 37.5954 27.533 37.5954C27.533 39.6483 27.533 41.7216 27.533 43.7948ZM43.8579 19.9726C43.9188 19.9523 44 19.932 44.0609 19.932C43.8579 17.9197 43.8579 15.8464 42.7614 14.078C43.1269 16.0497 43.4924 18.0213 43.8579 19.9726ZM34.1726 42.2094C34.2538 41.4167 34.3147 40.624 34.3959 39.8312C34.4365 39.2824 34.2132 38.9166 33.6853 38.6523C33.7259 39.9125 33.6447 41.0915 34.1726 42.2094ZM43.3909 27.7169C44.3655 29.5056 44.3655 31.5788 44.7716 33.5301C44.8325 33.3269 44.8528 33.1439 44.8325 32.961C44.731 31.9447 44.6091 30.9284 44.5279 29.9121C44.467 28.9771 43.9797 28.3266 43.3909 27.7169ZM49.0964 25.359C49.0152 23.9972 48.9746 22.6353 48.1827 21.4971C48.2233 22.8589 48.4467 24.1801 49.0964 25.359ZM31.3299 41.8435C31.2081 40.7866 31.0863 39.7703 30.9442 38.7743C30.9239 38.6117 30.7411 38.4694 30.6396 38.3068C30.599 38.3271 30.5584 38.3677 30.5178 38.3881C30.7411 39.5263 30.2335 40.8475 31.3299 41.8435ZM46.2335 27.229C45.6041 25.3997 44.9746 23.5907 44.3046 21.68C44.6294 23.7329 45.1371 25.5826 46.2335 27.229ZM50.4569 19.749C50.2335 18.3059 49.8071 16.9643 48.9137 15.8667C48.8528 15.8871 48.7919 15.9277 48.7513 15.948C49.3198 17.2286 49.8883 18.4888 50.4569 19.749ZM48.6091 27.1477C48.6904 28.2047 48.7513 29.2007 48.8122 30.1966C48.8528 30.1966 48.9137 30.1966 48.9543 30.1763C49.401 27.9811 49.3807 27.6762 48.6091 27.1477ZM33.0964 37.3311C32.9746 37.3514 32.8528 37.3718 32.731 37.3921C32.9543 38.9572 33.1574 40.5223 33.3807 42.1078C33.4213 42.1078 33.4822 42.0874 33.5228 42.0874C33.4416 41.2947 33.3604 40.502 33.2792 39.7093C33.2386 38.8962 33.1777 38.1238 33.0964 37.3311ZM49.3604 21.3751C49.4213 21.3548 49.4619 21.3345 49.5228 21.2938C49.4416 20.2775 48.7513 18.7327 48.0609 18.2855C48.5279 19.4035 48.934 20.3791 49.3604 21.3751ZM29.0964 41.0508C29.0355 41.0711 28.9746 41.0914 28.9137 41.0914C29.1574 42.1687 29.3807 43.2663 29.6244 44.3436C29.7056 44.3233 29.7868 44.303 29.868 44.2827C29.3401 43.2867 29.9492 41.9858 29.0964 41.0508ZM37.6447 36.4164C37.2995 37.6157 37.8883 38.7743 37.8274 39.9735C37.8883 38.7946 38.1117 37.5954 37.6447 36.4164ZM5.60406 22.3914C5.56345 22.3711 5.52284 22.3304 5.48223 22.3101C4.73096 23.2451 4.08122 24.2614 3.93909 25.5623C4.50761 24.5053 5.05584 23.4484 5.60406 22.3914ZM31.7766 42.5956C32.3858 41.4776 31.7766 40.4817 31.5127 39.4654C31.5939 40.502 31.6751 41.5386 31.7766 42.5956ZM42.8223 31.8227C42.7817 32.839 42.7208 33.835 42.6802 34.8513C43.0457 33.835 43.1675 32.8187 42.8223 31.8227ZM39.8173 21.68C39.7563 21.7003 39.6751 21.741 39.6142 21.7613C39.9391 22.8183 40.2843 23.8752 40.6091 24.9322C40.6904 24.9119 40.7513 24.8712 40.8325 24.8509C40.4873 23.7939 40.1421 22.737 39.8173 21.68ZM41.2995 21.741C41.3807 21.7206 41.4619 21.68 41.5228 21.6597C41.2183 20.745 40.8934 19.8506 40.5888 18.936C40.5076 18.9766 40.4264 18.9969 40.3452 19.0376C40.6701 19.9523 40.9746 20.8466 41.2995 21.741ZM4.38579 29.3633C4.46701 29.4039 4.54822 29.4243 4.60914 29.4649C4.91371 28.6112 5.21827 27.7778 5.50254 26.9241C5.42132 26.8835 5.3401 26.8632 5.25888 26.8225C4.97462 27.6762 4.69036 28.5299 4.38579 29.3633ZM42.8629 29.4852C42.9442 29.4649 43.0254 29.4446 43.1066 29.4243C42.9442 28.6315 42.802 27.8185 42.6396 27.0258C42.5787 27.0461 42.4975 27.0664 42.4365 27.0664C42.5787 27.8795 42.7208 28.6722 42.8629 29.4852ZM25.401 31.6398C25.6244 32.4528 25.8071 33.1236 25.9898 33.7944C26.0305 33.774 26.0711 33.774 26.132 33.7537C25.9898 33.083 26.2132 32.2699 25.401 31.6398ZM38.5381 33.6724C38.599 33.6724 38.6599 33.6724 38.7208 33.6724C38.6193 33.1033 38.4975 32.5342 38.3959 31.965C38.3553 31.9853 38.2944 31.9853 38.2538 32.0057C38.3553 32.5545 38.4569 33.1033 38.5381 33.6724Z"></path>
</svg>
