<svg xmlns="http://www.w3.org/2000/svg" fill="none" viewBox="0 0 57 61" height="61" width="57">
<path fill="#231F20" d="M39.1378 22.4769C39.3295 21.9972 38.9844 21.7478 38.7255 21.5367C38.016 20.9324 37.6516 20.1457 37.4599 19.2727C37.4024 19.0137 37.3448 18.7835 37.1339 18.6012C36.5394 18.0736 36.5011 17.4308 36.6833 16.6826C36.8654 15.9727 37.3448 15.3491 37.2969 14.5625C37.2777 14.3322 37.3448 14.102 37.6612 14.15C37.8913 14.1883 38.1214 14.2651 38.1214 14.5337C38.1406 15.5602 38.5145 16.5866 38.2077 17.6131C38.016 18.2463 38.2077 18.6876 38.5721 19.2248C39.3295 20.3184 40.2787 21.3928 39.9911 22.9181C39.9336 23.2155 40.1828 23.369 40.4034 23.5129C41.5923 24.2996 42.6853 25.163 44.1714 25.5179C45.4178 25.8153 46.5492 26.6499 47.2971 27.8203C47.3546 27.9066 47.4409 28.0793 47.4121 28.1081C46.7697 28.7604 47.5463 29.1058 47.7189 29.5758C47.834 29.8828 47.9586 30.1994 48.0162 30.5256C48.2079 31.6 47.9874 32.0317 46.9135 32.0701C46.7218 32.0701 46.5492 32.118 46.3958 32.214C45.8493 32.5689 45.3507 32.5881 44.7754 32.1564C44.344 31.8302 43.7495 31.7247 43.2126 32.0988C43.0017 32.2523 42.7236 32.3962 42.4839 32.3195C41.6977 32.0509 41.0074 32.6265 40.25 32.5305C40.0199 32.5017 39.8089 32.7512 39.6363 32.7224C39.1282 32.6552 39.5309 33.9503 38.6296 33.3172C38.3228 33.1061 37.7763 33.6721 37.2777 33.509C37.2394 33.4994 37.1914 33.4898 37.1722 33.509C36.0217 34.3149 34.4397 34.0558 33.27 35.1399C33.8932 35.3509 34.4685 35.1974 35.015 35.2454C36.2135 35.3509 37.2585 35.9457 38.4091 36.1951C39.876 36.5309 41.3046 37.0873 42.8195 37.1736C42.925 37.1736 43.1072 37.1736 43.1359 37.2216C43.6153 38.2673 44.9384 37.7876 45.5712 38.5838C45.7055 38.7565 45.9931 38.6414 46.2136 38.651C46.5013 38.6702 46.8177 38.6702 47.0861 38.7757C47.9874 39.121 48.1216 40.0132 47.3546 40.5792C47.1245 40.7519 46.8464 40.9054 46.5684 40.9821C45.8397 41.1932 45.3507 41.7112 44.7659 42.1333C43.8167 42.824 42.9154 43.697 41.7361 44.0232C40.9307 44.2438 40.2116 44.7618 39.3391 44.781C39.0898 44.781 39.0035 45.04 38.9556 45.2607C38.8405 45.8459 38.7638 46.4215 38.7926 47.0258C38.8309 47.8509 38.62 48.6087 38.179 49.5201C38.0352 48.7142 37.9776 48.0619 37.7475 47.5535C37.4791 46.9491 37.8242 46.3831 37.5653 45.7883C36.8463 45.9226 36.1751 46.2104 35.456 46.2968C35.13 46.3351 34.7753 46.6805 34.5643 47.0738C34.4109 47.3616 34.1712 47.6014 33.9699 47.87C33.6631 48.2826 33.2987 48.4073 32.8098 48.177C32.1194 47.8509 31.4195 47.918 30.7963 48.3113C29.943 48.8485 29.0705 48.8294 28.1405 48.5799C27.3926 48.3785 27.0954 48.532 26.7694 49.1459C26.6543 49.3666 26.616 49.568 26.8365 49.7311C27.383 50.1436 27.383 50.7288 27.3638 51.3332C27.3447 51.8128 27.7282 52.0623 28.0158 51.7265C28.8691 50.7096 30.0005 50.8727 31.1127 50.6713C32.1865 50.4794 33.1357 50.5657 34.1329 50.8727C34.8232 51.0838 35.5519 51.0358 36.1463 50.5657C37.1435 49.7791 38.1502 49.9997 39.1378 50.5178C39.4637 50.6904 39.761 50.7576 40.087 50.6713C41.1704 50.3739 42.1004 50.5945 42.9346 51.3524C43.3852 51.7649 43.9029 51.9184 44.5645 51.7457C45.878 51.3907 46.8368 52.1582 47.7285 52.964C48.0257 53.2326 47.834 53.5396 47.4984 53.6355C47.0574 53.7698 46.5492 53.6355 46.2999 54.2303C46.0794 54.7484 46.3191 55.1513 46.4246 55.6117C46.6163 56.4847 46.53 57.3481 46.1465 58.2019C45.9068 57.8278 46.1465 57.4153 46.089 57.0315C46.0027 56.5615 45.9548 56.0818 45.8301 55.6213C45.7151 55.18 45.8109 54.7484 45.8301 54.2207C45.2069 54.3358 44.6508 54.5277 44.0659 54.5085C43.692 54.4989 43.3085 54.5277 42.9729 54.3646C41.669 53.6835 40.6239 54.2783 39.5884 54.9882C39.1665 55.276 36.0888 56.6862 35.6286 56.667C35.0917 56.6382 34.5452 56.5711 34.0082 56.4943C33.4713 56.4272 32.9344 56.2737 32.3783 56.2929C32.0715 56.2929 31.851 56.101 31.6113 55.9091C30.7675 55.228 29.9238 54.7292 28.6966 55.0553C27.4981 55.3815 26.4146 54.71 25.3791 54.1632C25.0627 53.9905 25.034 53.2614 25.3216 52.9832C25.5613 52.753 25.8394 52.5611 26.0982 52.3597C27.0378 51.6402 27.0858 50.8631 26.1845 50.0477C25.8585 49.7503 25.8873 49.5105 26.0791 49.1843C26.2421 48.9061 26.6447 48.7718 26.5872 48.3689C26.5393 47.9948 26.1078 47.9468 25.9448 47.6494C25.7339 47.2465 25.3791 46.9587 24.9764 46.7668C24.4012 46.4982 23.8355 46.3447 23.1643 46.527C22.3206 46.7668 21.8029 46.4023 21.6111 45.5197C21.5248 45.1264 21.2659 44.9345 20.9975 44.8194C20.6907 44.6947 20.566 45.0209 20.4701 45.2511C20.2976 45.6444 19.9524 45.7116 19.636 45.5869C19.1087 45.3854 18.6389 45.2127 18.0732 45.5197C17.891 45.6156 17.5746 45.4526 17.3157 45.443C16.8076 45.4142 16.3186 45.2991 15.8104 45.5869C15.3502 45.8459 14.89 45.5677 14.4873 45.2607C14.0175 44.8961 13.6244 44.5796 12.9437 45.0401C12.3204 45.4622 11.8602 45.1552 11.5534 44.3685C11.1603 43.3612 10.9781 43.4092 9.91388 43.6107C8.67704 43.8409 7.32515 44.2534 6.18419 43.2173C5.94449 42.9967 5.65685 43.0063 5.35004 43.0063C4.54466 42.9967 3.71051 43.0639 3.12565 42.306C2.97225 42.1045 2.80925 42.2292 2.65585 42.3348C2.19563 42.6513 1.88881 42.4211 1.64912 42.0278C1.33272 41.5098 1.00673 41.0205 0.49857 40.6272C0 40.253 0 39.5336 0 38.91C0 38.6606 0.230109 38.5455 0.431455 38.4495C1.1889 38.0754 1.93675 37.73 2.62708 37.2024C3.0873 36.8379 3.81598 36.8379 4.42002 36.7036C5.86779 36.387 7.19092 35.7059 8.64828 35.3989C9.58789 35.207 10.4987 34.8905 11.4671 34.948C12.052 34.9864 12.5122 34.5931 13.0779 34.5739C15.3598 34.4779 17.6225 34.3149 19.9236 34.6506C21.822 34.9288 23.7108 35.255 25.6188 35.4756C26.3475 35.562 27.0666 35.7538 27.7761 35.9553C28.3226 36.1184 28.8595 36.1088 29.4252 36.0608C29.013 35.0152 29.013 35.0152 28.0158 35.2646C27.6898 35.3509 27.3063 35.4181 27.0474 35.2262C26.5009 34.8233 25.9065 34.737 25.2641 34.7945C24.8326 34.8329 24.5642 34.6602 24.4299 34.2381C24.3724 34.0654 24.2669 33.768 24.1902 33.7776C23.3082 33.8064 22.8384 32.9814 22.0809 32.7991C21.7933 32.732 21.4481 32.6169 21.218 32.8183C20.6236 33.3076 20.1442 33.039 19.636 32.684C19.4922 32.5785 19.2621 32.425 19.147 32.473C18.2458 32.8375 17.4212 32.4346 16.5679 32.2811C15.3694 32.0701 15.2543 31.9549 15.5899 30.7366C14.8996 30.8901 14.2284 31.1491 13.586 30.7174C13.5381 30.6886 13.4135 30.6982 13.3751 30.7366C12.541 31.4465 11.9177 30.7366 11.2082 30.4584C10.748 30.2857 10.7001 30.0075 10.748 29.595C10.911 28.2232 11.7452 27.1871 12.8574 26.6595C13.7586 26.2374 14.3818 25.5371 15.1968 25.0574C16.9418 24.0118 18.6676 23.0045 20.8153 23.1868C21.5152 23.2443 22.2151 23.2251 22.9246 23.2539C23.1452 23.2635 23.3753 23.3594 23.5383 23.1484C23.9218 22.6495 24.4108 22.8702 24.871 22.9469C25.0532 22.9757 25.2161 23.062 25.3887 23.1388C27.1433 23.8391 27.3447 23.6856 27.1721 21.8149C27.0762 20.8364 26.8269 19.8291 27.6035 18.9658C27.7953 18.7643 27.6515 18.4285 27.4501 18.2655C27.0091 17.9201 26.9707 17.4596 26.9995 16.9704C27.057 15.9247 26.8653 15.0134 25.9161 14.3706C25.523 14.102 25.3024 13.7375 25.7051 13.2002C26.1462 12.6055 26.2708 11.8668 26.2612 11.0897C26.2612 9.90978 26.3283 8.72982 26.4913 7.54986C26.6639 6.26437 26.3859 4.96929 26.3092 3.67421C26.29 3.28089 26.1749 2.88757 26.453 2.36954C26.8461 3.05065 26.5105 3.74136 26.8557 4.30736C27.3159 3.66462 26.7502 2.6957 27.4693 2.01459C27.4693 3.28089 27.5077 4.41289 27.4597 5.54488C27.4118 6.87833 27.4597 8.2022 27.5172 9.53565C27.5748 10.8019 27.3542 12.0395 26.9228 13.2194C26.5968 14.1116 26.6543 14.4186 27.4981 15.0901C27.7378 14.8982 27.6898 14.6296 27.6706 14.3898C27.6131 13.6703 27.6706 13.0084 28.1692 12.4136C28.4952 12.0203 28.3418 11.4927 28.2843 11.013C28.2267 10.447 28.198 9.90978 28.476 9.39175C28.6199 9.12314 28.7924 8.8929 29.0897 8.78738C29.1855 8.7586 29.3102 8.71063 29.3773 8.83535C29.4348 8.94087 29.4636 9.06558 29.3581 9.13274C28.4952 9.66036 28.7349 10.4566 28.8691 11.2145C28.9746 11.8188 28.9842 12.3752 28.5048 12.8645C28.198 13.1715 28.2076 13.6032 28.2651 14.0157C28.3418 14.5817 28.1788 15.0517 27.9295 15.589C27.5556 16.3756 27.383 17.2774 28.1692 18.016C28.5911 18.4093 28.4185 18.8027 28.1309 19.196C27.6419 19.8867 27.6515 19.8963 28.198 20.5294C28.2939 20.6446 28.3706 20.7693 28.4281 20.9036C28.5144 21.0763 28.5527 21.2777 28.3802 21.412C28.1788 21.5559 28.0638 21.3545 27.9295 21.2297C27.8624 21.1626 27.7953 21.0379 27.5844 21.2106C27.6323 21.7957 27.6898 22.4481 27.7378 23.11C27.7761 23.5225 28.0254 23.6089 28.3514 23.5033C28.8116 23.369 29.291 23.2443 29.7033 23.0045C30.7675 22.4001 31.966 22.0644 33.0111 21.4408C34.8999 20.3184 36.9134 20.7117 38.8118 22.2658C38.8981 22.3713 39.0035 22.4001 39.1282 22.4481M32.0715 55.4199C31.7135 55.0234 31.3236 54.8571 30.9018 54.921C31.2661 55.2472 31.6784 55.3239 32.1003 55.3815C32.9056 55.9955 32.9152 55.9955 33.2508 55.1992C32.8385 55.228 32.4454 55.2376 32.0811 55.4103M1.44777 40.3394C1.36148 40.2339 1.28478 40.1091 1.17931 40.0132C1.07384 39.9269 0.920437 39.8501 0.834146 40.0516C0.814971 40.09 0.949201 40.2243 1.03549 40.253C1.16972 40.301 1.32313 40.301 1.46695 40.3202C1.48612 40.9438 1.88881 41.3754 2.17645 41.8839C2.50244 41.6728 2.68461 41.385 2.42574 41.1548C2.09975 40.8766 1.98469 40.3586 1.44777 40.3394ZM26.1653 24.2516C26.2708 24.2804 26.3859 24.2804 26.4626 24.3379C26.5872 24.4339 26.5872 24.7217 26.8365 24.5778C26.894 24.5394 26.9228 24.3667 26.8844 24.2708C26.8077 24.031 26.6064 24.0885 26.4338 24.1365C26.3283 24.1653 26.2325 24.2228 26.1366 24.2708C26.1558 24.1269 26.1941 23.9638 26.0024 23.9158C25.5901 23.8199 25.1778 24.1557 25.0244 24.7121C24.8902 25.2109 25.1874 25.3644 25.6093 25.4124C25.7818 25.4316 25.9736 25.4891 26.127 25.3164C26.1078 24.9615 25.9352 24.597 26.1653 24.242M28.4569 52.705C28.965 53.1655 28.965 53.1847 29.7608 53.1079C30.1635 53.0695 30.5662 53.1943 30.9689 53.06C31.1511 53.0024 31.3524 53.06 31.3812 53.2902C31.4099 53.5396 31.199 53.578 31.0168 53.5876C29.9142 53.6739 28.8116 53.7411 27.6994 53.8178C27.1721 53.8562 26.6735 53.8274 26.2037 53.5396C25.9832 53.4053 25.7818 53.4149 25.7147 53.7315C26.4817 54.4126 27.3926 54.5757 28.3802 54.6045C28.8212 54.6236 29.1376 54.2975 29.5403 54.3071C30.8155 54.3454 32.0331 54.0385 33.27 53.8082C33.8932 53.6931 34.5068 53.7315 35.1013 53.9809C36.2902 54.4606 37.5366 54.5757 38.8022 54.4414C39.3966 54.3838 40.0486 54.3263 40.5855 53.7027C39.713 53.7219 38.9556 53.9905 38.1982 53.8466C38.2077 53.6355 38.3036 53.5012 38.4474 53.4821C39.435 53.3669 40.4321 53.1175 41.4101 53.2902C41.9087 53.3765 42.4743 53.223 42.9154 53.5492C43.9988 54.3454 45.0343 53.7986 46.0794 53.4629C45.274 53.1271 44.4207 53.5972 43.6153 53.2998C43.7495 52.964 44.0468 52.9257 44.344 52.9065C44.7179 52.8873 45.0823 52.8777 45.4466 52.8489C45.6192 52.8393 45.8589 52.8777 45.8685 52.6187C45.878 52.4076 45.6863 52.3213 45.5041 52.2541C45.2932 52.187 45.0918 52.1486 44.8521 52.1774C44.1522 52.2733 43.4715 52.3692 42.7908 52.5419C41.6306 52.8393 40.4897 52.8873 39.3966 52.1774C38.6104 51.6593 38.2365 51.7745 37.7955 52.5899C37.5653 53.0312 37.2777 53.1655 36.8271 53.1271C36.4244 53.0983 36.0505 53.0791 35.6765 52.8393C34.9479 52.3597 34.1233 52.187 33.2412 52.2349C32.9056 52.2541 32.5701 52.2637 32.2441 52.2349C31.64 52.1678 30.9593 52.2541 30.6333 51.5059C30.5374 51.2852 30.269 51.2852 30.0484 51.266C29.2047 51.1989 28.7637 51.6018 28.4473 52.6954C27.5172 52.2733 27.2584 52.3309 26.8077 53.0695C27.4693 53.4821 27.987 53.223 28.4377 52.6954M31.4291 26.9953L31.4099 26.9761C31.7263 27.2735 32.1098 27.4461 32.5221 27.3502C33.2604 27.1679 33.9891 26.9089 34.7561 26.8322C34.7849 26.8322 34.8136 26.7842 34.8328 26.7554C34.9479 26.5444 34.8136 26.1415 35.1684 26.1415C35.7053 26.1415 35.2738 26.6019 35.4177 26.813C35.4368 26.8418 35.4656 26.861 35.504 26.8897C35.8299 27.1392 36.9709 27.024 37.3065 26.6883C37.7283 26.2566 38.2173 26.0935 38.8118 26.1798C39.5405 26.2854 40.2787 26.3621 41.0074 26.4676C42.0333 26.6211 42.0333 26.6307 42.5894 25.6426C41.9949 25.2781 41.3909 24.9327 40.8156 24.5298C40.3075 24.1844 39.8473 23.7623 39.2816 24.4435C39.1953 24.549 38.9364 24.5298 38.7542 24.5586C37.9297 24.7217 37.1339 24.6257 36.3669 24.3283C35.7628 24.0885 35.1396 24.1077 34.5164 24.0406C33.9507 23.9734 33.6247 24.5394 33.0878 24.501C33.0782 23.935 33.7398 24.031 33.8548 23.628C35.13 23.6664 35.4464 23.3115 35.1396 22.1219C35.0821 21.9109 35.0917 21.6135 34.7465 21.4312C34.804 21.9109 34.8424 22.3426 34.9191 22.7647C34.9574 22.9949 35.0437 23.2443 34.7657 23.3115C34.4301 23.3978 34.5548 22.9853 34.4013 22.8798C34.0082 22.6016 34.2671 22.0931 33.9987 21.767C33.759 22.4001 33.9603 23.0333 33.8836 23.6472C33.4138 23.6089 33.4234 23.2923 33.4234 22.9373C33.4234 22.6591 33.596 22.285 33.1453 22.0835C32.781 22.6495 33.1645 23.3403 32.7235 23.983C32.3975 23.5033 32.5988 23.1004 32.5413 22.7359C32.5221 22.6016 32.5413 22.4289 32.3208 22.4097C32.1578 22.4001 31.9756 22.496 31.9564 22.6016C31.8989 23.0429 31.6017 23.5417 32.1194 23.9062C32.2537 24.0022 32.34 24.1077 32.2632 24.2708C32.1674 24.4722 31.9948 24.4818 31.803 24.4051C31.6976 24.3667 31.5921 24.3475 31.4866 24.2996C31.2086 24.194 30.9593 24.194 30.8538 24.5106C30.7388 24.8752 31.0456 24.9231 31.2853 25.0095C31.7647 25.1917 32.2345 25.3836 32.8193 25.6234C32.0811 26.0072 31.5442 25.7194 31.1031 25.4699C30.0389 24.8752 29.013 25.1246 28.0062 25.4603C27.1529 25.7385 26.29 25.892 25.4079 25.892C24.6217 25.892 24.2286 25.3452 24.4971 24.597C24.5546 24.4339 24.6984 24.29 24.823 24.1557C24.9285 24.0214 24.9573 23.8871 24.8518 23.7624C24.7463 23.6472 24.5929 23.5705 24.4587 23.6952C24.1327 24.0022 23.7588 23.8487 23.404 23.8391C22.4452 23.8007 21.4865 23.7336 20.5277 23.724C20.0675 23.7144 19.5593 23.6568 19.31 24.194C19.473 24.4914 19.7415 24.501 19.9907 24.549C20.7865 24.6929 21.5823 24.8272 22.3781 24.9807C22.6082 25.0287 22.9438 25.067 22.8671 25.4316C22.7137 26.1511 23.2506 26.3045 23.7204 26.506C24.3724 26.7746 25.0148 26.7458 25.6476 26.4484C26.1749 26.199 26.6735 26.2374 27.3638 26.6883C26.5201 26.6979 25.9448 26.8322 25.36 27.0624C24.6505 27.3502 23.893 27.2159 23.241 26.8034C22.7904 26.5252 21.985 26.5827 22.1097 25.6906C22.1288 25.5179 21.9754 25.4124 21.822 25.4316C21.1988 25.4699 20.6235 25.0382 19.9812 25.2589L20.0099 25.2781C19.7319 24.9423 19.2333 25.0574 18.9265 24.76C18.6772 24.5298 18.543 24.0501 18.054 24.2612C17.6897 24.4147 17.239 24.4722 17.0664 24.9039C16.9514 25.2013 16.7213 25.2685 16.4528 25.2397C16.2323 25.2109 16.0118 25.1725 15.8104 25.3069C15.5899 25.4508 15.4653 25.7098 15.7529 25.8057C16.8939 26.199 18.0156 26.7842 19.2621 26.554C19.8949 26.4389 20.3359 26.5348 20.6619 27.1008C21.1221 27.8874 21.7837 28.2328 22.7137 27.9834C22.9151 27.9258 23.1739 28.0505 23.3753 27.9834C24.0848 27.7627 24.6409 27.9258 25.1586 28.4822C25.4367 28.77 25.9161 28.9235 26.2804 28.6165C27.0858 27.9258 27.9103 28.1656 28.7828 28.4055C29.6458 28.6357 30.4607 28.9715 31.2949 29.2784C31.6209 29.3936 32.0907 29.6238 32.2728 29.1729C32.4934 28.6261 32.8385 28.6741 33.2508 28.77C34.0466 28.9619 34.8616 28.9619 35.6669 29.0194C36.0313 29.0386 36.3477 29.0194 36.5874 28.7604C37.4695 27.8107 38.5913 27.9738 39.5788 28.2999C40.1924 28.5014 40.5184 28.3863 40.969 28.0793C41.9087 27.4365 42.9346 27.1967 44.0084 27.6476C44.7946 27.9834 45.3315 27.7531 45.8109 27.12C45.322 26.4676 44.5933 26.3717 43.9509 26.1127C43.6441 25.9976 43.2893 26.0743 43.1455 26.3333C42.6278 27.2543 41.8224 27.0816 41.017 26.9857C40.3554 26.9089 39.6939 26.8226 39.0323 26.7746C38.6775 26.7458 38.2557 26.6403 38.0064 27.0144C37.4886 27.7819 36.76 27.6956 36.0217 27.5229C35.1013 27.3022 34.2096 27.2159 33.3371 27.7147C32.9632 27.9258 32.5317 27.8299 32.1386 27.7723C31.4099 27.6668 30.8251 27.2255 30.0005 26.9569C30.6333 26.5732 31.0648 26.8705 31.4962 26.9761M8.84962 38.0754L8.82086 38.0562C10.0865 38.4975 11.4096 38.5838 12.541 37.8547C13.4039 37.2983 14.2284 37.2024 15.168 37.3751C16.1939 37.5574 16.587 38.1138 16.3569 39.1402C16.2227 39.7734 16.2898 39.9077 16.913 40.09C17.9294 40.3874 18.9553 40.3682 19.9907 40.2051C20.5085 40.1187 21.0454 39.9844 21.5248 40.1859C22.5603 40.6272 23.5287 40.2818 24.4587 39.9652C25.5805 39.5911 26.7119 39.6103 27.8528 39.6103C28.2555 39.6103 28.6582 39.8022 28.5911 40.2435C28.476 41.0493 29.0225 41.1644 29.5595 41.3179C31.1511 41.7784 32.7139 41.3083 34.2767 41.126C34.7082 41.0781 35.1109 40.7519 35.0341 40.1955C34.9862 39.8597 35.0917 39.6295 35.341 39.4184C36.1176 38.7565 36.9038 38.2385 38.0352 38.392C39.3583 38.5742 40.691 38.5071 42.0141 38.3056C42.2346 38.2768 42.4839 38.2385 42.4648 37.9411C42.4552 37.7396 42.2634 37.6341 42.0717 37.6245C41.2183 37.5574 40.4225 37.2408 39.6172 37.001C39.3103 36.905 39.0419 36.8762 38.946 37.2983C38.8693 37.6437 38.62 37.73 38.2748 37.7013C37.5941 37.6437 36.8846 37.826 36.2614 37.3079C36.0121 37.0969 35.619 37.1928 35.2834 37.2216C34.8232 37.2696 34.5931 37.4326 34.6027 37.9986C34.6315 39.1594 34.1521 39.6679 33.0111 39.8885C32.7522 39.9365 32.5029 39.9748 32.2441 40.0228C31.6017 40.1379 31.1511 39.994 30.7675 39.3609C30.1731 38.3536 28.4185 37.9219 27.546 38.603C26.8077 39.1786 26.0599 39.1594 25.3696 38.8428C24.1519 38.296 23.0781 38.4975 21.985 39.0923C21.0262 39.6199 20.0579 39.4568 19.0703 39.1978C18.543 39.0635 18.1595 38.7565 17.9102 38.2577C17.5938 37.6341 18.0444 37.0393 17.9389 36.4254C17.9198 36.2815 18.1691 36.3102 18.3129 36.3102C18.5334 36.3102 18.6676 36.435 18.6484 36.6556C18.6389 36.7995 18.543 36.9338 18.5046 37.0681C18.1882 38.037 18.4567 38.5071 19.3963 38.8045C20.4222 39.1306 21.3714 39.0059 22.2631 38.4591C23.1931 37.8931 24.1519 37.9123 25.149 38.1713C25.5038 38.2673 25.8489 38.4303 26.2133 38.4879C26.6735 38.5646 27.2296 38.4687 27.2775 37.9699C27.3542 37.2312 27.4501 37.0777 27.9583 37.7204C28.0829 37.8739 28.2939 37.8739 28.476 37.8547C29.6362 37.7396 30.547 38.2097 31.3332 39.0155L31.2949 38.9867C31.314 39.4088 31.5442 39.5336 31.9373 39.5719C32.3975 39.6103 32.6755 39.3417 33.0399 39.1786C33.3179 39.0539 33.7014 39.2362 33.922 38.8716C34.1233 38.5263 33.922 38.2193 33.9028 37.9027C33.8932 37.5094 33.9603 37.1449 34.363 36.9818C35.0246 36.7036 35.7532 36.4445 36.386 36.8475C37.0572 37.2792 37.4982 37.0297 38.0831 36.694C35.9833 35.7442 33.8644 35.6387 31.7359 35.9169C31.1415 35.9937 30.3169 35.9841 30.1635 36.9242C30.1347 37.1065 29.78 37.3079 29.6937 36.9722C29.5882 36.5309 29.3965 36.646 29.0801 36.6556C28.1692 36.6652 27.2488 36.6844 26.3571 36.3678C26.0503 36.2527 25.7051 36.1568 25.6188 36.6844C25.5805 36.8858 25.3983 36.9722 25.1874 36.8954C25.0244 36.8283 24.9669 36.6652 25.034 36.5309C25.2161 36.1088 24.9093 36.0224 24.6313 35.9169C24.104 35.7059 23.567 35.6291 23.0013 35.6771C22.474 35.7155 21.9179 36.0224 21.4289 35.5236C21.2947 35.3797 21.1701 35.5236 21.0838 35.6483C20.8057 36.0129 20.7003 35.8977 20.4893 35.5428C20.2017 35.0823 19.9045 35.1111 19.5881 35.6099C19.3867 35.9265 19.2621 35.9073 19.0032 35.6867C18.3704 35.1591 17.6609 34.8905 16.798 35.1015C16.3761 35.207 15.8967 35.2358 15.4749 35.1495C14.0463 34.8713 12.7327 35.4373 11.3712 35.6291C11.0836 35.6675 10.6809 35.5332 10.5083 35.9553C10.8343 36.339 11.2562 36.2143 11.6493 36.1568C12.8861 35.9937 14.123 35.821 15.3598 35.6387C15.8488 35.5716 16.2323 35.7251 16.5199 36.1184C16.7213 36.4062 16.798 36.7228 16.5679 37.0393C16.4624 37.1832 16.3474 37.3655 16.1364 37.2983C15.9063 37.2216 15.9351 37.0393 16.0022 36.8475C16.2227 36.1951 15.9063 36.2143 15.3886 36.2623C14.1038 36.3774 12.8094 36.4541 11.5342 36.6652C10.9685 36.7611 10.4029 36.7419 10.0385 36.2047C9.75088 35.773 9.37696 35.8306 8.96468 35.9265C8.44693 36.0512 8.01548 36.339 7.64155 36.694C7.38267 36.9338 7.0471 37.2216 7.21968 37.6341C7.39226 38.037 7.78537 38.2097 8.21682 38.2289C8.41817 38.2289 8.6291 38.1138 8.84003 38.0562M13.7874 38.3824H13.7682C13.797 38.5359 13.7394 38.6606 13.5669 38.6702C12.541 38.7373 11.5055 38.862 10.47 38.862C9.58789 38.862 8.69621 38.7661 7.83331 38.603C6.86493 38.4112 6.65399 38.0274 6.78823 37.0297C6.8074 36.9242 6.82658 36.8091 6.61564 36.7228C6.13625 37.0969 5.28293 36.8475 4.92817 37.6245C4.86106 37.778 4.69807 37.7204 4.54466 37.6821C3.73928 37.471 3.29823 37.6437 2.80925 38.344C3.21194 38.6414 3.68175 38.6894 4.16114 38.7661C5.11993 38.9388 6.18419 38.8237 6.92246 39.687C7.02792 39.8118 7.18133 39.8022 7.26762 39.6103C7.35391 39.3993 7.48814 39.1498 7.72784 39.4184C7.89083 39.6103 7.94836 39.9077 7.59361 40.0324C7.45938 40.0804 7.25803 40.0516 7.2868 40.253C7.31556 40.4737 7.52649 40.5217 7.71825 40.5025C8.56199 40.4161 9.40572 40.3106 10.2495 40.2435C11.5918 40.1283 12.9532 40.1379 14.0942 39.2554C14.1805 39.3801 14.2476 39.4472 14.2476 39.5048C14.2476 39.687 14.2284 39.8693 14.1805 40.042C13.9312 40.8766 13.9312 40.867 14.6791 41.2603C16.1844 42.047 17.9485 41.5865 19.4634 42.2964C20.3839 41.9798 21.3618 42.1045 22.3014 41.8743C23.0493 41.692 23.8355 41.6441 24.6025 41.5481C24.7368 41.5289 24.9093 41.5673 24.9573 41.74C25.0244 41.9798 24.8422 42.0662 24.6792 42.1333C24.5833 42.1813 24.4683 42.2005 24.3532 42.2005C22.7616 42.2388 21.2084 42.565 19.6456 42.7761C19.0128 42.8624 18.4183 43.0639 17.9581 42.4019C17.8239 42.2101 17.5458 42.2676 17.3349 42.2676C16.9226 42.2676 16.5199 42.2964 16.1172 42.2676C15.053 42.1621 14.0942 41.74 13.4997 40.867C13.1929 40.4161 12.9724 40.4065 12.541 40.4641C11.1507 40.656 9.76047 40.8286 8.37023 40.9629C7.67031 41.0301 6.95122 41.0493 6.5677 40.2243C6.39512 39.8597 6.02119 39.7638 5.65685 39.6775C4.65013 39.4184 3.60505 39.2649 2.67502 38.8333C1.98469 38.5071 1.52447 38.5551 0.968377 38.9963C1.5053 39.4376 2.0614 39.783 2.49285 40.2914C2.65585 40.4833 2.8476 40.5217 3.0873 40.4353C3.43246 40.3202 3.71051 39.9557 4.10362 40.0804C4.64054 40.253 4.29537 40.7999 4.49672 41.1356C4.61177 41.3371 4.74601 41.5193 4.99529 41.5002C5.27334 41.481 5.35963 41.2987 5.35004 41.0397C5.35004 40.8958 5.32128 40.7423 5.33087 40.5984C5.33087 40.4353 5.42674 40.3202 5.60891 40.3202C5.80067 40.3202 5.84861 40.4737 5.83902 40.6272C5.77191 41.6824 5.7815 41.7208 6.82658 41.8455C8.28394 42.0182 9.74129 42.306 11.1891 41.788C11.3616 41.7304 11.5534 41.7304 11.7356 41.7208C12.3588 41.7016 12.4834 41.8551 12.1958 42.4691C11.9753 42.9487 12.215 43.083 12.5697 43.1502C12.8574 43.1982 13.1642 43.1886 13.4518 43.1502C13.8257 43.1022 14.2093 43.083 14.5257 43.3037C15.2447 43.7929 16.031 43.8697 16.8555 43.7066C17.076 43.6682 17.3157 43.6394 17.5171 43.7066C18.6676 44.0519 19.7798 43.8505 20.892 43.486C21.2372 43.3708 21.6015 43.2845 21.9563 43.2078C22.1672 43.1598 22.4165 43.1118 22.5411 43.3612C22.6466 43.5627 22.4644 43.6874 22.359 43.8409C21.7549 44.7618 21.7933 44.8386 22.8575 44.9729C23.0301 44.9921 23.2027 45.1648 23.3657 45.1552C24.219 45.1168 25.1682 45.8363 25.9161 44.8386C26.0407 44.6659 26.2037 44.8194 26.3763 44.9249C26.942 45.2991 27.4214 45.2511 27.8432 44.7523C28.0158 44.5508 28.2076 44.3973 28.3322 44.6659C28.6198 45.2991 28.965 45.0592 29.2718 44.7618C29.6362 44.4165 29.9046 44.1479 30.3361 44.6851C30.5662 44.9825 30.9209 44.877 31.2661 44.8194C32.5317 44.6179 33.7206 44.0136 35.0246 43.956C35.1588 43.956 35.3218 43.8793 35.4177 43.7833C35.8491 43.39 36.3189 43.3421 36.8654 43.486C37.4407 43.6394 37.9489 43.5819 38.3516 43.0543C38.7159 42.5842 39.0515 42.7089 39.2624 43.2078C39.435 43.6299 39.7706 43.7737 40.1349 43.7162C40.7869 43.6203 41.4293 43.4572 42.0717 43.2941C42.2059 43.2557 42.3305 43.1502 42.436 43.0543C42.7812 42.7569 42.8195 42.1813 42.5415 41.6345C42.3401 41.2411 42.0429 41.5002 41.7744 41.5289C40.854 41.6345 39.9336 41.5961 39.0131 41.4906C38.5337 41.433 38.0543 41.3946 37.5749 41.3755C37.3736 41.3755 37.1914 41.3755 37.0284 41.6153C36.1847 42.9104 35.0054 43.5339 33.4426 43.3708C32.6563 43.2941 31.8414 42.9104 31.0935 43.5243C31.0552 43.5627 30.9497 43.5435 30.8826 43.5243C29.8855 43.2269 28.9171 43.4572 27.9199 43.5627C27.3063 43.6298 26.7119 43.5819 26.453 44.3685C26.1909 43.9017 25.9288 43.5755 25.6668 43.39C24.9669 42.9104 24.9285 42.7473 25.4463 42.0758C25.638 41.8359 25.8298 41.3467 26.1845 41.6537C26.5393 41.9606 26.0119 42.0758 25.8585 42.2676C25.5517 42.6418 25.5997 42.8144 26.0791 42.9679C26.6927 43.1694 27.3159 43.1214 27.9487 43.0734C29.7512 42.9296 31.525 42.5938 33.3563 42.872C34.526 43.0447 35.5902 42.7281 36.2135 41.6537C36.6929 40.8286 37.2873 40.7423 38.1502 40.867C40.365 41.1932 42.5702 41.2795 44.4303 39.6679C44.5837 39.5336 44.8713 39.5144 44.9001 39.2554C44.9289 38.9388 44.6412 38.862 44.4303 38.7181C44.0851 38.4975 43.74 38.4495 43.3756 38.5934C42.8962 38.7853 42.4168 38.958 41.9566 39.2074C40.7102 39.8885 39.3966 39.9269 38.0543 39.5144C39.2336 39.3705 40.4801 39.6487 41.6019 39.0155C40.2691 38.9676 38.9556 38.8524 37.6325 38.7757C37.0476 38.7373 36.5011 38.9004 36.2135 39.4664C36.5011 39.8118 36.923 39.524 37.2681 39.783C36.7887 40.042 36.4436 39.7446 36.0792 39.783C35.8012 39.8118 35.5327 39.8405 35.5615 40.1955C35.6574 41.2028 34.9574 41.3946 34.2096 41.6249C33.3467 41.8935 32.4358 41.7208 31.5729 41.9414C30.4415 42.2292 29.4732 41.7496 28.4856 41.3563C28.1692 41.2316 27.9583 40.9533 28.0254 40.56C28.1117 40.0612 27.7857 40.0228 27.4214 40.0132C26.4146 39.9652 25.4079 40.0516 24.5162 40.5312C23.6725 40.9821 22.8 41.0301 21.9371 40.819C21.2372 40.6464 20.5373 40.608 19.8469 40.7327C19.0607 40.867 18.3033 40.7327 17.5362 40.7135C16.9706 40.6943 16.3665 40.5408 15.9255 40.0708C15.5516 39.6679 15.7817 39.2266 15.8104 38.8045C15.8296 38.4207 15.8008 38.0658 15.3886 37.8643C14.5448 37.4518 13.6436 37.6629 12.9053 38.4399C13.2409 38.6606 13.5477 38.5646 13.8449 38.392M26.6927 30.6215C26.0982 31.3602 26.1174 31.4273 27.0283 31.5616C27.6802 31.6575 28.3322 31.7343 29.013 31.6192C29.6553 31.5136 30.4703 31.3122 30.9497 31.7247C31.803 32.4634 32.5509 32.2619 33.3946 31.8974C33.9795 31.6384 34.5739 31.5136 35.2259 31.6863C36.4723 32.0317 37.038 31.8206 37.7859 30.8038C38.3707 30.0075 38.6584 29.9212 39.5596 30.3912C40.5376 30.8997 41.6306 30.9381 42.5511 30.6311C43.6728 30.2569 44.6987 30.2665 45.8013 30.4872C46.2616 30.5831 46.7697 30.727 47.1053 30.2186C47.3066 29.9212 47.1724 29.643 46.9902 29.3936C46.6259 28.9043 46.1849 29.2401 45.7726 29.3072C43.3852 29.7485 41.0074 30.3721 38.5529 29.6334C38.0735 29.4895 37.5558 29.595 37.2681 30.0363C36.5107 31.1971 35.3505 31.2163 34.2288 31.0244C33.548 30.9093 32.9632 30.8517 32.3016 31.0915C31.6496 31.3218 30.9305 31.2738 30.3936 30.8517C29.8279 30.4008 29.2239 30.2761 28.5623 30.1898C27.8624 30.1034 27.1721 29.9691 26.4913 29.8444C26.2037 29.7869 25.9161 29.7389 25.7051 29.4991C24.9477 28.6453 24.0464 28.2807 22.8671 28.5014C21.9371 28.6837 21.0071 28.5589 20.451 27.59C20.2496 27.2447 19.9332 27.1392 19.5209 27.1392C18.0636 27.1487 16.6733 26.765 15.3406 26.1702C15.0817 26.0551 14.8804 25.94 14.6407 26.1511C14.123 26.5923 13.4326 26.9089 13.4614 27.7627C13.8257 28.0985 14.2764 28.0025 14.7174 27.9929C15.7146 27.9642 16.6925 27.7052 17.6992 27.7915C18.4663 27.849 18.7539 28.1656 18.6197 28.9331C18.5813 29.1729 18.5142 29.3648 18.7539 29.4991C19.1854 29.7389 19.6935 29.6526 20.1537 29.7197C20.6523 29.7869 20.5181 29.1537 20.9208 28.981C21.2755 29.4127 21.6782 29.5854 22.311 29.5183C23.8738 29.384 25.3504 29.8252 26.7119 30.6215M39.7418 31.4945C38.9652 30.6886 38.6775 30.6982 38.0064 31.5136C37.4215 32.2139 36.6257 32.7128 35.782 32.473C34.7369 32.1852 33.8452 32.3674 32.8673 32.6361C32.129 32.8375 31.362 32.9718 30.6908 32.2907C30.3265 31.9166 29.8183 32.0221 29.3294 32.1372C28.0925 32.425 26.8844 32.2715 25.8202 31.6096C25.3887 31.3506 25.1203 31.5712 24.7943 31.648C24.5162 31.7151 24.4875 31.9549 24.66 32.166C24.9669 32.5401 25.3216 32.8663 25.8202 32.9718C26.2325 33.0582 26.5776 33.2692 26.8269 33.6146C27.1146 34.0079 27.431 34.3532 27.9199 34.5163C28.4281 34.689 28.7924 34.2573 29.2239 34.1518C29.3294 34.3053 29.3869 34.3916 29.4444 34.4875C29.8759 35.1015 29.895 35.1303 30.4224 34.6986C30.8634 34.334 31.4579 34.1806 31.803 33.6337C32.0523 33.2404 32.5125 33.3747 32.8769 33.6529C33.1262 33.8352 33.0782 34.2189 33.4042 34.3436C33.6918 34.1038 33.9987 33.9215 34.3822 33.8832C35.6286 33.7393 36.6833 32.9143 37.968 32.9143C38.131 32.9143 38.3803 32.7991 38.4378 32.6648C38.6871 32.0796 39.2816 31.8782 39.7226 31.5041M26.453 29.2784C26.779 29.4895 27.0762 29.4799 27.3734 29.5183C28.6486 29.6622 29.9622 29.6526 31.0552 30.5256C31.3812 30.7846 31.8222 30.7654 32.2153 30.5639C32.8769 30.2186 33.5193 30.2953 34.2383 30.4968C35.0917 30.727 36.0313 30.7174 36.6833 29.9308C37.3832 29.1058 38.2365 29.0002 39.1953 29.2976C39.5213 29.4031 39.8377 29.4511 40.1733 29.4799C41.7361 29.5854 43.251 29.2209 44.785 29.0386C45.3124 28.981 45.7822 28.77 46.2424 28.5589C46.5588 28.415 46.7026 28.1656 46.4917 27.8491C46.2616 27.5037 46.0315 27.7819 45.8493 27.9258C45.2165 28.4534 44.5262 28.5206 43.7879 28.1848C43.0017 27.8395 42.1484 28.0601 41.5731 28.4342C40.7294 28.981 40.0007 29.0962 39.109 28.7508C38.5146 28.5206 37.853 28.3767 37.3448 28.9331C36.8271 29.4991 36.2039 29.5758 35.5231 29.4991C34.8616 29.4319 34.1904 29.4991 33.5384 29.3072C33.3179 29.2401 33.0782 29.2113 32.9248 29.4127C32.2824 30.1994 31.5346 29.9116 30.8155 29.6142C29.9622 29.2688 29.0992 28.9523 28.198 28.722C27.5172 28.5494 26.9611 28.6837 26.4722 29.288M25.36 30.7366C24.8422 30.3529 24.3149 30.1514 23.7204 30.1418C22.9822 30.1418 22.2439 30.1034 21.5152 30.209C20.5948 30.3433 19.6743 30.2665 18.7635 30.0843C18.1403 29.9596 17.8335 29.6622 17.9102 29.0386C17.9677 28.5302 17.6801 28.4918 17.3828 28.3767C17.124 28.2903 16.8747 28.3959 16.6158 28.4246C15.2927 28.5398 13.96 28.5973 12.6848 28.1177C12.493 28.0505 12.3109 27.8203 12.1095 28.0793C11.9082 28.3479 11.9177 28.7508 12.1383 28.8851C12.3971 29.0482 12.5793 29.4223 12.9724 29.3456C14.1421 29.1154 15.3214 29.6334 16.4912 29.3072C16.7596 29.2305 17.0281 29.2305 17.2007 29.4607C17.402 29.7389 17.1527 29.8924 16.9897 30.1034C16.6254 30.5639 16.6829 30.6886 17.2582 30.775C19.5209 31.1107 21.8029 31.245 24.0848 31.1683C24.5258 31.1491 24.9573 31.1683 25.3696 30.727M30.7579 45.6732C30.5374 45.8651 30.5566 46.0569 30.5087 46.2392C30.4224 46.6133 30.8634 47.2657 30.3936 47.2944C29.8087 47.3328 30.3936 46.5366 29.9622 46.2008C29.2335 46.4119 28.4089 46.5462 27.872 47.2753C27.8049 47.3712 27.7186 47.4288 27.5939 47.4C27.4118 47.3712 27.3542 47.2369 27.383 47.0738C27.4501 46.6133 27.4885 46.1529 27.2104 45.7308C26.7981 45.9034 26.9132 46.2488 26.8365 46.5174C26.6735 47.1218 26.3188 46.2968 26.1174 46.6037C26.3475 46.8915 26.2708 47.3232 26.6927 47.5055C27.8336 47.9852 28.9554 48.2826 30.221 47.9372C31.0456 47.707 31.8797 47.2177 32.781 47.5055C33.4617 47.7261 33.8261 47.5727 33.922 46.834C33.9699 46.5078 34.3055 46.4119 34.526 46.2296C35.015 45.8171 35.6478 45.654 36.1559 45.2319C35.2547 44.8962 34.478 45.2319 33.7206 45.654C33.3467 45.8651 32.9823 46.1049 32.5892 46.2488C32.4742 46.2872 32.1865 45.7308 32.1961 46.3735C32.1961 46.6901 32.014 46.8436 31.7167 46.8436C31.362 46.8436 31.3045 46.6229 31.2949 46.3351C31.2757 45.9898 31.0648 45.8075 30.7579 45.6732ZM47.0478 39.7254C46.9327 39.5431 46.9615 39.2266 46.6643 39.1306C46.2903 39.0059 45.8685 38.9867 45.6863 39.3897C45.4658 39.8885 45.0151 40.042 44.6412 40.3298C44.2289 40.6464 43.7879 40.9054 43.2893 41.0685C43.1263 41.1164 42.9633 41.2411 43.04 41.481C43.1934 41.9127 44.1235 42.2005 44.344 41.8263C44.8234 40.9821 45.6479 40.7999 46.4341 40.4929C46.7601 40.3778 46.9998 40.1571 47.0478 39.735M40.4705 31.7535C41.1033 32.0892 41.5443 31.5808 42.0141 31.7343C42.5223 31.907 42.9346 31.811 43.3468 31.4753C43.6441 31.2259 43.9988 31.1779 44.3823 31.3889C44.7083 31.5616 45.0535 31.6767 45.3891 31.8398C45.6384 31.9645 45.8972 32.0701 46.1177 31.8878C46.5013 31.552 46.9327 31.4465 47.4217 31.4273C47.623 31.4273 47.7573 31.2354 47.6806 31.034C47.5943 30.8038 47.3929 30.8613 47.2204 30.9476C46.6259 31.2546 46.0315 31.2642 45.4082 31.0532C44.6316 30.7942 43.855 30.6119 43.0784 31.1395C42.8579 31.293 42.5031 31.245 42.2155 31.293C41.6786 31.3793 41.132 31.4369 40.4801 31.7535M18.6293 44.57C17.9102 44.2438 17.2486 44.2438 16.5966 44.311C16.1172 44.3589 15.5995 44.4645 15.1872 44.2246C14.2093 43.6394 13.1354 43.8505 12.0328 43.6778C12.1095 43.9848 12.167 44.2246 12.2341 44.4645C12.3204 44.7427 12.5601 44.8194 12.7423 44.6467C13.4806 43.9656 14.1517 44.3014 14.8516 44.6947C15.1009 44.8386 15.3694 45.136 15.6474 44.9825C16.2994 44.6179 16.9322 44.8482 17.565 44.9249C17.9102 44.9633 18.2266 44.8961 18.6293 44.57ZM23.4712 31.7055C20.8824 31.9549 18.495 31.3218 16.0214 31.2163C16.2131 31.6 16.4241 31.8014 16.7596 31.7439C17.076 31.6959 17.3541 31.7823 17.613 31.907C18.0348 32.1276 18.4183 32.166 18.869 31.9549C19.2237 31.7919 19.7031 31.7151 19.9907 32.1084C20.3551 32.6073 20.7194 32.6169 21.2084 32.3003C21.496 32.118 21.8604 32.2235 22.1864 32.2427C22.6274 32.2811 23.0685 32.2907 23.4712 31.7151M36.76 21.7862C36.6353 22.026 36.5299 22.3905 36.8079 22.4481C37.69 22.6208 37.2585 23.2539 37.4119 23.6568C37.1914 23.8487 37.0764 23.7432 36.9709 23.6376C36.7504 23.417 36.3381 23.8199 36.1559 23.3115C36.0217 22.9469 36.0888 22.6975 36.1847 22.3905C36.2422 22.1987 36.1751 21.9588 36.1176 21.7382C36.0984 21.6518 35.9738 21.5367 35.8971 21.5271C35.7436 21.5271 35.619 21.6518 35.6286 21.8149C35.6765 22.3617 35.8204 22.899 35.7053 23.4554C35.6765 23.5993 35.8587 23.6952 35.9929 23.7432C36.597 23.9638 37.201 24.2228 37.8434 24.2036C38.0735 23.6185 37.3736 23.1004 37.8434 22.4865C38.2365 23.0045 38.0831 23.7048 38.62 24.1173C38.5114 22.851 37.8913 22.0771 36.76 21.7957M37.9776 55.1705C37.3832 54.8155 37.038 55.0745 36.6545 55.3911C35.8587 56.0338 35.1204 55.8708 34.5548 54.9882C34.4493 54.8155 34.4685 54.5373 34.1616 54.5277C33.7973 55.5926 34.0945 56.0626 35.0917 56.1298C36.1655 56.2065 37.0572 55.8036 37.968 55.1705M10.307 42.613H6.31842C7.48814 43.6011 9.04138 43.6011 10.2111 42.613M11.4096 29.902C11.9944 30.1322 12.4547 30.9477 13.2505 30.2282C13.4806 30.0267 13.797 30.1898 14.0846 30.2665C14.6886 30.4488 15.2735 30.3529 16.0214 30.0075C14.3435 29.8061 12.8861 29.7773 11.4096 29.902ZM32.5605 35.3701C32.7331 35.1111 32.5796 34.8905 32.6276 34.689C32.6755 34.4684 32.6659 34.2477 32.4358 34.123C32.1961 33.9887 32.014 34.1518 31.8701 34.3053C31.5633 34.6218 31.2086 34.8713 30.7963 35.0344C30.5566 35.1207 30.4224 35.3125 30.4128 35.5908C31.1798 35.5236 31.8989 35.4469 32.5701 35.3797M3.0106 41.2316C3.74886 41.3563 3.47082 42.3156 4.20908 42.4499C4.75559 42.5458 5.55139 42.5458 5.90614 42.3444C5.69521 42.2964 5.52262 42.2388 5.34045 42.2101C4.64054 42.0949 3.9598 42.0278 3.78722 41.1068C3.72969 40.7807 3.36535 40.9342 3.0106 41.2411M37.7667 15.5985C36.8558 17.1526 36.8367 17.4308 37.5653 18.0448C37.9297 17.239 37.8722 16.4236 37.7667 15.5985ZM26.568 34.0942C25.8681 33.6529 25.3504 33.3843 24.6792 33.298C25.018 34.0271 25.6476 34.2925 26.568 34.0942ZM38.1694 45.6156C38.5721 45.2031 38.4091 44.6851 38.7926 44.4357C38.8789 44.3781 38.9652 44.2726 38.8885 44.1479C38.8022 43.9944 38.6584 44.0232 38.505 44.0424C37.8818 44.1095 37.7859 44.2054 37.9105 44.7906C37.9585 45.0496 38.0639 45.2895 38.1694 45.6156ZM26.7119 11.1665C27.1241 10.2551 27.0283 9.3246 26.8844 8.39406C26.5776 9.30541 26.6352 10.2455 26.7119 11.1665ZM22.963 46.268C23.1356 46.1816 23.3561 46.0761 23.5862 45.9706C23.4424 45.7499 23.1835 45.9226 23.0109 45.8075C22.8959 45.7212 22.7712 45.6444 22.6562 45.5581C22.5028 45.4334 22.3302 45.3374 22.1864 45.5197C22.0426 45.702 22.1864 45.8555 22.3206 45.9802C22.4836 46.1337 22.6658 46.2488 22.9726 46.2584M30.3265 24.0214C30.3169 23.8007 30.2594 23.5609 29.9813 23.5897C29.6937 23.628 29.4156 23.7624 29.3965 24.1173C29.3773 24.4722 29.6362 24.501 29.9046 24.501C30.2306 24.501 30.3457 24.3188 30.3265 24.0118M37.3065 44.3973C37.0093 44.4453 36.9709 44.8194 36.6545 44.8578C36.5107 44.877 36.5203 45.1072 36.5682 45.2319C36.6353 45.3758 36.7887 45.3854 36.9325 45.3278C37.3736 45.1552 37.5462 44.8578 37.3065 44.3973ZM19.1374 44.5604C19.6296 44.861 20.1505 44.7011 20.7003 44.0807C20.1442 44.2534 19.7127 44.3877 19.1374 44.5604ZM41.7265 51.8992C41.5539 51.7169 41.947 51.2756 41.4484 51.2277C41.2183 51.2085 41.1416 51.4099 41.1608 51.6018C41.18 51.88 41.1225 52.2349 41.5635 52.2349C41.7265 52.2349 41.784 52.0623 41.7361 51.8896M36.8558 51.3332C36.8175 51.6785 36.7887 51.9088 36.7791 52.139C36.7791 52.2733 36.76 52.4364 36.9325 52.5036C37.0955 52.5707 37.2106 52.4652 37.2969 52.3501C37.4119 52.2062 37.5174 51.9951 37.3161 51.8896C37.1051 51.7841 36.9517 51.6689 36.8558 51.3332ZM31.1031 23.8775C31.4003 23.8487 31.4291 23.628 31.4195 23.3978C31.4195 23.2251 31.4483 22.9853 31.1894 22.9853C30.9497 22.9853 30.7963 23.1676 30.7484 23.3978C30.7004 23.6568 30.8634 23.7911 31.0935 23.8775M38.9748 51.314C38.6296 50.9431 38.2717 50.9079 37.9009 51.2085C38.2844 51.2468 38.6008 51.2756 38.9748 51.314ZM24.3628 32.9143C24.2861 32.7704 24.2574 32.7032 24.2094 32.6361C24.0752 32.4346 23.9697 32.118 23.6437 32.377C23.4807 32.5017 23.241 32.6552 23.3657 32.9047C23.4903 33.1445 23.7396 33.0486 23.9601 33.0102C24.0656 32.991 24.1615 32.9622 24.3628 32.9047M27.4981 25.1054C27.8432 24.8464 27.8145 24.4914 27.7474 24.1365C27.7474 24.0981 27.5172 24.0501 27.4789 24.0885C27.22 24.3571 27.3926 24.6833 27.3926 24.9903C27.3926 25.0191 27.4405 25.0478 27.4981 25.1054ZM28.5911 24.6929C28.7061 24.6257 28.965 24.597 28.9554 24.3092C28.9363 24.0501 28.7349 24.0501 28.5527 24.0693C28.3034 24.0981 28.1405 24.2324 28.1884 24.501C28.2172 24.6737 28.3514 24.7217 28.5911 24.6929ZM36.2422 52.4268C36.2902 52.2733 36.3573 52.1486 36.3764 52.0143C36.3956 51.8128 36.4627 51.4963 36.2039 51.4867C35.8587 51.4675 35.8875 51.7937 35.9066 52.0431C35.9162 52.187 35.9546 52.3213 36.2518 52.4364M40.7198 52.0431C40.6111 51.4739 40.3363 51.3268 39.8952 51.6018C40.1637 51.7457 40.4225 51.8896 40.7198 52.0431ZM33.0974 51.4771C33.107 51.314 33.0303 51.1893 32.8769 51.1989C32.7235 51.1989 32.6468 51.3428 32.6372 51.4963C32.6372 51.6498 32.7043 51.7937 32.8673 51.7841C33.0207 51.7841 33.059 51.6114 33.0974 51.4771ZM35.456 51.7745C35.3889 51.6018 35.3122 51.4483 35.0821 51.5155C34.9383 51.5538 34.8328 51.6498 34.8903 51.8224C34.9383 51.9663 35.0629 52.0335 35.2163 52.0431C35.4081 52.0623 35.4368 51.928 35.456 51.7841M25.6955 46.1624C25.7147 45.961 25.6093 45.8267 25.4079 45.8171C25.2833 45.8075 25.0915 45.7883 25.1107 45.9994C25.1299 46.1912 25.3024 46.2776 25.475 46.3255C25.5997 46.3543 25.6668 46.2776 25.7051 46.1624M34.1808 51.6785C34.2096 51.4867 34.1041 51.4291 33.9987 51.4291C33.9028 51.4291 33.7398 51.4771 33.7302 51.5346C33.6918 51.6977 33.7973 51.8128 33.9699 51.8128C34.0849 51.8128 34.1712 51.7457 34.1808 51.6785ZM38.2653 19.6085C38.2653 19.6085 38.1502 19.6948 38.1406 19.7428C38.1119 19.9443 38.2269 20.0882 38.3899 20.1745C38.5337 20.2512 38.5817 20.1265 38.5721 20.021C38.5529 19.8291 38.4474 19.6948 38.2653 19.6085ZM38.179 46.4694C38.0639 46.5078 37.9872 46.5846 37.9968 46.6997C37.9968 46.7572 38.0543 46.8532 38.1119 46.8723C38.2653 46.9395 38.294 46.8148 38.3036 46.7093C38.3132 46.6133 38.3228 46.5078 38.179 46.4694ZM36.3381 44.1191C36.2326 44.1191 36.108 44.1191 36.0984 44.2342C36.0984 44.2822 36.2326 44.3493 36.3189 44.4069C36.434 44.474 36.5203 44.4261 36.5394 44.2918C36.5394 44.1575 36.4436 44.1287 36.3381 44.1191Z"></path>
<path fill="#231F20" d="M31.8413 15.4546C31.7934 15.8479 31.7646 16.2124 32.1098 16.4715C32.2249 16.5674 32.3303 16.6921 32.2153 16.8264C32.081 16.9895 31.8893 16.9607 31.7263 16.8552C31.5249 16.7401 31.4003 16.5578 31.3907 16.3276C31.3715 16.0398 31.3428 15.7424 31.3715 15.4546C31.3907 15.1956 31.2853 14.7543 31.7455 14.8406C32.1194 14.9078 31.8318 15.2627 31.8509 15.4546"></path>
<path fill="#231F20" d="M33.3567 19.8867C32.4458 20.4047 32.0048 20.2129 31.9185 19.3783C31.8993 19.148 31.9089 18.889 32.1582 18.8315C32.4746 18.7547 32.4362 19.0617 32.4842 19.2631C32.6088 19.7332 32.6088 19.7332 33.3567 19.8963"></path>
<path fill="#231F20" d="M28.4957 50.1628C28.4382 50.3355 28.3998 50.4794 28.2368 50.5082C28.0834 50.5369 27.6807 49.7503 27.7095 49.4529C27.7095 49.3474 27.7766 49.2131 27.9012 49.2611C28.3423 49.4049 28.3806 49.8271 28.4957 50.1628Z"></path>
<path fill="#231F20" d="M34.9674 49.0116C35.1592 49.0692 35.2071 49.2227 35.188 49.4145C35.1688 49.5872 35.0441 49.6639 34.9003 49.6543C34.7086 49.6352 34.5648 49.52 34.5935 49.309C34.6223 49.1171 34.7373 49.002 34.9674 49.0116Z"></path>
<path fill="#231F20" d="M29.9907 49.9997C29.7893 49.9997 29.6647 49.9038 29.6455 49.6927C29.6455 49.5392 29.7126 49.4145 29.866 49.3762C30.0674 49.3186 30.2208 49.4241 30.2591 49.6064C30.3071 49.8079 30.1633 49.923 29.9811 49.9997"></path>
<path fill="#231F20" d="M32.6558 49.6735C32.5791 49.8174 32.4544 49.8942 32.2914 49.8366C32.0709 49.7695 32.0325 49.5872 32.1188 49.4049C32.1955 49.2514 32.3585 49.2418 32.4928 49.3186C32.627 49.3857 32.7229 49.5009 32.6462 49.6735"></path>
<path fill="#231F20" d="M9.21341 41.5673C9.19424 41.7208 9.13671 41.8551 8.96413 41.8455C8.80113 41.8455 8.71484 41.7016 8.71484 41.5481C8.71484 41.433 8.81072 41.3466 8.92578 41.3275C9.09836 41.2987 9.19424 41.3754 9.21341 41.5673Z"></path>
<path fill="#231F20" d="M32.3786 44.0615C32.3499 44.2246 32.254 44.3109 32.091 44.3109C31.8993 44.3109 31.8801 44.1575 31.8897 44.0232C31.8992 43.8601 32.0047 43.7641 32.1677 43.7737C32.3499 43.7737 32.3691 43.9272 32.3882 44.0615"></path>
<path fill="#231F20" d="M6.07909 37.9506C6.07909 38.1713 6.02157 38.296 5.84898 38.296C5.73393 38.296 5.65723 38.2193 5.65723 38.0945C5.65723 37.9411 5.70517 37.8067 5.88734 37.8163C5.9928 37.8163 6.08868 37.8835 6.07909 37.9506Z"></path>
<path fill="#231F20" d="M16.4998 43.0062C16.4423 43.1597 16.3368 43.2269 16.1738 43.1789C16.0684 43.1405 15.9725 43.0638 16.0013 42.9391C16.0492 42.776 16.1834 42.7376 16.3273 42.7856C16.4327 42.8144 16.5286 42.8719 16.4902 43.0158"></path>
<path fill="#231F20" d="M23.8075 43.7258C23.6349 43.7066 23.5582 43.6107 23.587 43.4476C23.6157 43.2941 23.7404 43.2269 23.8938 43.2269C24.0855 43.2269 24.1239 43.3516 24.1143 43.5051C24.1047 43.6778 23.9609 43.7162 23.8171 43.7258"></path>
<path fill="#231F20" d="M23.7784 44.4069C23.7497 44.5892 23.6058 44.6275 23.4716 44.6084C23.3086 44.5988 23.2127 44.4932 23.2319 44.3206C23.2415 44.1383 23.3853 44.0999 23.5291 44.1095C23.6921 44.1287 23.7593 44.2534 23.788 44.3973"></path>
<path fill="#231F20" d="M13.7498 38.4399C13.9991 38.4207 14.2484 38.4112 14.4977 38.392C14.2484 38.4975 13.9991 38.5551 13.7402 38.4303H13.7498"></path>
<path fill="#231F20" d="M12.6462 41.4234C12.4832 41.4234 12.3682 41.3467 12.3682 41.1644C12.3682 41.0493 12.4449 40.9629 12.5695 40.9725C12.7325 40.9725 12.8476 41.0589 12.8476 41.2315C12.8476 41.3467 12.7709 41.4234 12.6462 41.4234Z"></path>
<path fill="#231F20" d="M9.44359 39.3992C9.434 39.5335 9.3573 39.6007 9.24225 39.6007C9.06966 39.6007 9.00255 39.4855 9.02172 39.332C9.03131 39.2073 9.12719 39.1498 9.23266 39.1402C9.434 39.121 9.42442 39.2745 9.44359 39.3992Z"></path>
<path fill="#231F20" d="M21.2658 36.5692C21.3712 36.8474 21.4959 37.116 21.5918 37.3942C21.6397 37.5285 21.6109 37.7108 21.4479 37.7588C21.2562 37.8163 21.0548 37.7108 21.0261 37.519C20.9781 37.2216 21.0165 36.905 21.0165 36.598L21.2658 36.5596V36.5692Z"></path>
<path fill="#231F20" d="M31.2953 39.073C31.0652 38.7853 31.209 38.4495 31.1035 38.1329C31.5446 38.0082 31.7747 38.248 31.8226 38.5071C31.9089 38.91 31.4966 38.91 31.2569 39.0347L31.2953 39.0635"></path>
<path fill="#231F20" d="M20.2978 36.9722C20.2594 37.2312 20.1156 37.3655 19.8471 37.3079C19.6937 37.2695 19.5691 37.1736 19.6266 37.0009C19.6745 36.8283 19.7512 36.6268 19.9718 36.6268C20.2019 36.6076 20.2882 36.7611 20.2978 36.9817"></path>
<path fill="#231F20" d="M33.078 37.0585C33.0204 37.0009 32.8766 36.9338 32.8862 36.8666C32.915 36.4925 33.2505 36.4829 33.5094 36.4062C33.6245 36.3678 33.7203 36.4925 33.7108 36.598C33.682 36.9721 33.4135 37.0297 33.078 37.0585Z"></path>
<path fill="#231F20" d="M23.9982 37.5573C23.8065 37.5286 23.6435 37.4518 23.6147 37.2408C23.586 37.0393 23.701 36.8666 23.9119 36.8666C24.1516 36.8666 24.3146 37.0489 24.305 37.2983C24.305 37.4518 24.1516 37.5382 23.9982 37.5573Z"></path>
<path fill="#231F20" d="M8.80241 38.1137C8.62983 37.8643 8.61066 37.6341 8.95582 37.5189C9.06129 37.4806 9.18593 37.5285 9.21469 37.6532C9.26263 37.9794 9.10923 38.1233 8.78324 38.0849L8.812 38.1041L8.80241 38.1137Z"></path>
<path fill="#231F20" d="M22.3682 36.4158C22.56 36.4733 22.6079 36.6364 22.5696 36.8187C22.5504 36.9242 22.4545 36.9914 22.3395 36.9818C22.1381 36.9626 22.0135 36.8666 22.0518 36.646C22.0806 36.4925 22.1861 36.4062 22.3682 36.4158Z"></path>
<path fill="#231F20" d="M11.0843 37.212C11.2186 37.26 11.3912 37.2791 11.3528 37.4806C11.324 37.6533 11.1802 37.6821 11.0268 37.6821C10.9022 37.6821 10.8255 37.6149 10.8159 37.4902C10.8063 37.2983 10.9501 37.2504 11.0939 37.2024"></path>
<path fill="#231F20" d="M28.8683 27.1008C28.782 27.2063 28.7341 27.3118 28.6382 27.3502C28.4465 27.4365 28.2259 27.5037 28.0438 27.3118C28.0054 27.2734 28.0054 27.1583 28.0342 27.1199C28.1684 26.9665 28.3602 26.9952 28.5327 27.0144C28.6382 27.0144 28.7341 27.0624 28.8683 27.0912"></path>
<path fill="#231F20" d="M40.978 25.8345C40.978 25.8345 40.8438 25.892 40.7 25.8728C40.5082 25.844 40.3644 25.7385 40.3836 25.5179C40.4027 25.3356 40.537 25.2685 40.6808 25.2781C40.8821 25.2972 40.9972 25.4315 40.978 25.8345Z"></path>
<path fill="#231F20" d="M37.2591 25.7577C37.0865 25.7673 36.9906 25.6906 36.9618 25.5275C36.9331 25.3644 36.981 25.2397 37.1632 25.2205C37.3549 25.2013 37.5467 25.2493 37.5467 25.4795C37.5467 25.633 37.4125 25.7193 37.2591 25.7673"></path>
<path fill="#231F20" d="M19.9624 25.2876C19.9336 25.3452 19.8857 25.4028 19.8761 25.4699C19.8473 25.6618 19.7994 25.8249 19.5597 25.7961C19.5022 25.7961 19.4255 25.7289 19.4159 25.681C19.3488 25.4603 19.5118 25.3548 19.6748 25.2972C19.761 25.2589 19.8761 25.2972 19.9816 25.3164L19.9624 25.2972V25.2876Z"></path>
<path fill="#231F20" d="M17.7759 25.9112C17.6512 25.892 17.4786 25.9112 17.4595 25.7098C17.4403 25.4699 17.6129 25.3932 17.8046 25.3836C17.9676 25.3836 18.0923 25.4891 18.0827 25.6522C18.0827 25.8249 17.9389 25.892 17.7759 25.9112Z"></path>
<path fill="#231F20" d="M30.6048 28.108C30.4706 28.108 30.3843 28.0409 30.3747 27.9162C30.3555 27.7243 30.5089 27.6667 30.6527 27.6572C30.7678 27.6476 30.8732 27.7147 30.8828 27.8394C30.902 28.0313 30.7486 28.0697 30.6048 28.108Z"></path>
<path fill="#231F20" d="M21.9939 26.8609C21.9843 27.0144 21.9171 27.1391 21.7542 27.1583C21.5912 27.1775 21.4665 27.0912 21.4761 26.9281C21.4857 26.7746 21.6295 26.6883 21.7733 26.6691C21.8884 26.6499 21.9555 26.7458 21.9843 26.8609"></path>
<path fill="#231F20" d="M31.4483 27.0144C31.4195 26.9089 31.3524 26.813 31.3716 26.7171C31.3907 26.5828 31.4291 26.4293 31.6208 26.4293C31.6784 26.4293 31.7742 26.458 31.7934 26.506C31.8701 26.6403 31.8222 26.7842 31.7071 26.8801C31.6304 26.9377 31.525 26.9665 31.4291 26.9953L31.4483 27.0144Z"></path>
<path fill="#231F20" d="M29.0801 52.2925C29.0801 52.2925 29.0322 52.187 29.0705 52.0239C29.1089 51.8704 29.2144 51.7361 29.3678 51.7457C29.5979 51.7457 29.6554 51.9375 29.6075 52.139C29.5691 52.2925 29.4541 52.3788 29.0801 52.3021"></path>
<path fill="#231F20" d="M30.173 52.7146C30.0004 52.7625 29.9141 52.6954 29.8758 52.5994C29.8278 52.4364 29.9141 52.3116 30.0387 52.2445C30.1922 52.1773 30.3168 52.2541 30.336 52.4268C30.3551 52.5898 30.2976 52.705 30.173 52.7146Z"></path>
<path fill="#231F20" d="M27.21 33.202C27.0375 33.1829 26.9512 33.0773 26.9512 32.9238C26.9512 32.7895 27.0087 32.636 27.1909 32.636C27.4114 32.636 27.4977 32.7799 27.4977 32.9718C27.4977 33.1541 27.3539 33.1829 27.21 33.202Z"></path>
<path fill="#231F20" d="M29.4056 32.6072C29.5974 32.6072 29.7028 32.6936 29.7124 32.8567C29.7124 33.0006 29.6741 33.1541 29.4919 33.1732C29.3193 33.1924 29.2139 33.0869 29.2139 32.9238C29.2139 32.7799 29.233 32.6264 29.4152 32.6072"></path>
<path fill="#231F20" d="M34.6502 32.8375C34.8132 32.8375 34.9379 32.895 34.9474 33.0677C34.9474 33.2116 34.9091 33.3555 34.7269 33.3651C34.5735 33.3651 34.4393 33.2787 34.4201 33.1253C34.3913 32.9814 34.4872 32.8662 34.6502 32.8375Z"></path>
<path fill="#231F20" d="M30.6434 33.3076C30.7872 33.3267 30.9406 33.3747 30.931 33.5474C30.931 33.7392 30.7872 33.8448 30.5859 33.8544C30.4708 33.8544 30.3941 33.7872 30.3654 33.6721C30.3078 33.4419 30.49 33.3843 30.6434 33.3076Z"></path>
</svg>
