<?xml version="1.0" encoding="utf-8"?>
<!-- Generator: Adobe Illustrator 25.0.1, SVG Export Plug-In . SVG Version: 6.00 Build 0)  -->
<svg version="1.1" id="Слой_1" xmlns="http://www.w3.org/2000/svg" xmlns:xlink="http://www.w3.org/1999/xlink" x="0px" y="0px"
	 viewBox="0 0 1511 296" style="enable-background:new 0 0 1511 296;" xml:space="preserve">
<style type="text/css">
	.st0{opacity:0.3;}
	.st1{fill:#030305;}
</style>
<g class="st0">
	<path class="st1" d="M118.9,55.7c4.6,1.9,6.9,3.1,8.3,5c2.6,3.8,1.1,7.6-2.7,10.2c-1.7,1.2-2.8,1.9-6.5,2.4c0,0-2.9-0.4-6.9,2.7
		c-4.3,2.7-4.9,5.6-4.9,5.6c-1.7,3.3-2.8,4-4.5,5.2c-3.8,2.6-7.9,2.8-10.5-1c-1.3-1.9-1.6-4.5-1.8-9.5c0,0-0.6-9.8,0.7-15.6
		c1-4.2,4.8-6.8,4.8-6.8L96,53l0,0c0,0,4-2.8,8-2.1C109.9,51.9,118.9,55.7,118.9,55.7z M82.9,55.3c4-2.8,3.7-10-0.6-16.2
		s-11-9-15-6.2c-4,2.8-3.7,10,0.6,16.2C72.2,55.2,78.9,58,82.9,55.3z M83.6,70.9c2-3.4-0.7-8.6-5.9-11.7c-5.3-3.1-11.2-2.9-13.1,0.5
		c-2,3.4,0.7,8.6,5.9,11.7C75.7,74.5,81.6,74.3,83.6,70.9z M99.6,43.6c4-2.8,3.7-10-0.6-16.2s-11-9-15-6.2s-3.7,10,0.6,16.2
		C89,43.6,95.7,46.4,99.6,43.6z M110.2,27.9c-3.9,0.7-6.1,6.1-5.1,12.1s5.1,10.4,8.9,9.7c3.9-0.7,6.1-6.1,5.1-12.1
		C118.1,31.5,114.1,27.2,110.2,27.9z"/>
</g>
<g class="st0">
	<path class="st1" d="M293.6,209.9c2.7,4.2,4,6.4,4.1,8.8c0.1,4.6-3.3,6.9-8,7c-2,0-3.4,0-6.7-1.6c0,0-2.2-1.9-7.2-1.7
		c-5.1-0.1-7.2,1.9-7.2,1.9c-3.3,1.8-4.6,1.8-6.6,1.8c-4.6,0.1-8.1-2.1-8.2-6.7c0-2.3,1.2-4.6,3.8-8.9c0,0,5-8.5,9.3-12.5
		c3.1-2.9,7.8-3,7.8-3l1.4,0v0c0,0,4.8-0.1,7.8,2.7C288.3,201.7,293.6,209.9,293.6,209.9z M264,189.4c4.8-0.1,8.7-6.2,8.6-13.8
		c-0.1-7.5-4.1-13.6-8.9-13.5c-4.8,0.1-8.7,6.2-8.6,13.8S259.2,189.5,264,189.4z M255.8,202.7c3.5-1.7,4.3-7.5,1.6-13.1
		c-2.6-5.5-7.7-8.6-11.2-6.9c-3.5,1.7-4.3,7.5-1.6,13.1C247.3,201.3,252.3,204.4,255.8,202.7z M284.4,189.1
		c4.8-0.1,8.7-6.2,8.6-13.8c-0.1-7.5-4.1-13.6-8.9-13.5c-4.8,0.1-8.7,6.2-8.6,13.8C275.6,183.1,279.6,189.2,284.4,189.1z M302,182
		c-3.6-1.6-8.5,1.6-11,7.2c-2.5,5.6-1.6,11.4,2,13c3.6,1.6,8.5-1.6,11-7.2C306.4,189.4,305.6,183.6,302,182z"/>
</g>
<g class="st0">
	<path class="st1" d="M524,130.5c2.9,4.1,4.3,6.2,4.5,8.6c0.3,4.6-3,7.1-7.6,7.3c-2,0.1-3.3,0.2-6.8-1.3c0,0-2.3-1.8-7.3-1.3
		c-5.1,0.1-7.1,2.2-7.1,2.2c-3.2,1.9-4.5,2-6.5,2.1c-4.6,0.3-8.2-1.8-8.4-6.4c-0.1-2.3,1-4.6,3.4-9c0,0,4.6-8.7,8.7-12.9
		c3-3,7.6-3.3,7.6-3.3l1.4-0.1l0,0c0,0,4.8-0.3,8,2.4C518.3,122.5,524,130.5,524,130.5z M493.5,111.4c4.8-0.3,8.4-6.6,7.9-14.1
		c-0.4-7.5-4.7-13.4-9.5-13.1s-8.4,6.6-7.9,14.1S488.7,111.6,493.5,111.4z M485.9,125c3.5-1.8,3.9-7.7,1.1-13.1
		c-2.9-5.4-8-8.3-11.5-6.4s-3.9,7.7-1.1,13.1C477.3,124,482.5,126.9,485.9,125z M513.9,110.2c4.8-0.3,8.4-6.6,7.9-14.1
		c-0.4-7.5-4.7-13.4-9.5-13.1s-8.4,6.6-7.9,14.1C504.8,104.6,509,110.4,513.9,110.2z M531.1,102.3c-3.7-1.4-8.4,2-10.7,7.7
		s-1.1,11.5,2.6,12.9c3.7,1.4,8.4-2,10.7-7.7S534.8,103.7,531.1,102.3z"/>
</g>
<g class="st0">
	<path class="st1" d="M1054.9,80.3c-3,4-4.7,5.9-6.9,6.8c-4.3,1.6-7.6-0.8-9.2-5.2c-0.7-1.9-1.2-3.1-0.7-6.9c0,0,1.1-2.7-0.8-7.4
		c-1.6-4.8-4.2-6.2-4.2-6.2c-2.8-2.5-3.2-3.7-3.9-5.6c-1.6-4.3-0.7-8.3,3.7-9.9c2.2-0.8,4.7-0.4,9.6,0.7c0,0,9.7,1.8,14.9,4.6
		c3.8,2,5.4,6.3,5.4,6.3l0.5,1.3l0,0c0,0,1.7,4.5,0,8.3C1060.9,72.5,1054.9,80.3,1054.9,80.3z M1064.4,45.6
		c1.7,4.5,8.8,6.1,15.8,3.5c7.1-2.6,11.4-8.4,9.8-12.9s-8.8-6.1-15.8-3.5C1067.1,35.2,1062.7,41,1064.4,45.6z M1049.1,42.3
		c2.8,2.8,8.5,1.5,12.9-2.8c4.3-4.3,5.6-10.1,2.8-12.9s-8.5-1.5-12.9,2.8C1047.5,33.7,1046.3,39.5,1049.1,42.3z M1071.4,64.7
		c1.7,4.5,8.8,6.1,15.8,3.5c7.1-2.6,11.4-8.4,9.8-12.9s-8.8-6.1-15.8-3.5S1069.7,60.1,1071.4,64.7z M1084,78.9
		c0.3-3.9-4.4-7.5-10.5-8c-6.1-0.5-11.3,2.3-11.6,6.2c-0.3,3.9,4.4,7.5,10.5,8S1083.7,82.8,1084,78.9z"/>
</g>
<g class="st0">
	<path class="st1" d="M969.8,207.5c0.5,5,0.7,7.6-0.4,9.6c-2.1,4.1-6.1,4.6-10.3,2.6c-1.8-0.9-3-1.5-5.2-4.5c0,0-1.1-2.7-5.7-4.8
		c-4.5-2.4-7.3-1.6-7.3-1.6c-3.7,0.1-4.9-0.5-6.7-1.4c-4.1-2.1-6.2-5.6-4.2-9.7c1-2.1,3.2-3.5,7.5-6.1c0,0,8.3-5.3,14-6.9
		c4.1-1.1,8.3,0.9,8.3,0.9l1.3,0.6l0,0c0,0,4.3,2.1,5.7,6C968.8,197.8,969.8,207.5,969.8,207.5z M952.9,175.8
		c4.3,2.2,10.6-1.6,13.9-8.3c3.4-6.7,2.6-14-1.8-16.1c-4.3-2.2-10.6,1.6-13.9,8.3C947.8,166.4,948.5,173.6,952.9,175.8z
		 M939.5,183.9c3.9,0.1,7.3-4.7,7.4-10.9c0.2-6.1-2.9-11.2-6.8-11.3c-3.9-0.1-7.2,4.7-7.4,10.9C932.5,178.7,935.5,183.8,939.5,183.9
		z M971.1,184.9c4.3,2.2,10.6-1.6,13.9-8.3c3.4-6.7,2.6-14-1.8-16.1c-4.3-2.2-10.6,1.6-13.9,8.3S966.8,182.7,971.1,184.9z
		 M990,186.6c-2.5-3.1-8.3-2.4-13.1,1.4c-4.8,3.8-6.6,9.4-4.2,12.5c2.5,3.1,8.3,2.4,13.1-1.4C990.6,195.2,992.4,189.6,990,186.6z"/>
</g>
<g class="st0">
	<path class="st1" d="M588.8,257.7c3.6,3.5,5.3,5.4,5.8,7.7c1,4.5-1.8,7.5-6.3,8.5c-2,0.5-3.3,0.7-6.9-0.2c0,0-2.5-1.4-7.4-0.1
		c-5,0.9-6.7,3.4-6.7,3.4c-2.9,2.4-4.1,2.7-6.1,3.1c-4.5,1-8.4-0.4-9.4-4.9c-0.5-2.3,0.2-4.7,1.9-9.5c0,0,3.1-9.3,6.5-14.2
		c2.5-3.5,7-4.5,7-4.5l1.4-0.3l0,0c0,0,4.7-1.1,8.2,1C581.9,250.8,588.8,257.7,588.8,257.7z M555.6,243.9c4.7-1.1,7.2-7.9,5.5-15.2
		c-1.7-7.3-6.9-12.4-11.6-11.4c-4.7,1.1-7.2,7.9-5.5,15.2C545.7,239.9,550.9,245,555.6,243.9z M550.4,258.6
		c3.1-2.4,2.6-8.3-1.1-13.1c-3.7-4.8-9.3-6.8-12.4-4.4c-3.1,2.4-2.6,8.3,1.1,13.1C541.7,259,547.3,261,550.4,258.6z M575.5,239.4
		c4.7-1.1,7.2-7.9,5.5-15.2c-1.7-7.3-6.9-12.4-11.6-11.4c-4.7,1.1-7.2,7.9-5.5,15.2C565.6,235.4,570.7,240.4,575.5,239.4z
		 M591.2,228.7c-3.8-0.8-8,3.4-9.2,9.4c-1.3,6,0.8,11.5,4.7,12.3c3.8,0.8,8-3.4,9.2-9.4C597.1,235,595,229.5,591.2,228.7z"/>
</g>
<g class="st0">
	<path class="st1" d="M80.2,269c-2.4,4.4-3.8,6.6-5.8,7.7c-4,2.2-7.7,0.3-9.9-3.8c-1-1.8-1.6-2.9-1.7-6.7c0,0,0.7-2.8-1.9-7.2
		c-2.3-4.6-5.1-5.5-5.1-5.5c-3.1-2.1-3.7-3.2-4.7-5c-2.2-4.1-1.9-8.1,2.1-10.4c2.1-1.1,4.6-1.1,9.6-0.8c0,0,9.8,0.4,15.4,2.3
		c4,1.4,6.3,5.5,6.3,5.5l0.7,1.3l0,0c0,0,2.3,4.2,1.3,8.2C84.9,260.5,80.2,269,80.2,269z M84.3,233.3c2.3,4.2,9.6,4.7,16.2,1.1
		c6.6-3.6,10.1-10,7.7-14.2c-2.3-4.2-9.6-4.7-16.2-1.1C85.4,222.7,82,229.1,84.3,233.3z M68.7,232.3c3.2,2.3,8.7,0.2,12.3-4.7
		s4-10.8,0.9-13.1c-3.2-2.3-8.7-0.2-12.3,4.7C65.9,224.1,65.5,230,68.7,232.3z M94.1,251.1c2.3,4.2,9.6,4.7,16.2,1.1
		c6.6-3.6,10.1-10,7.7-14.2s-9.6-4.7-16.2-1.1C95.3,240.5,91.8,246.9,94.1,251.1z M108.7,263.3c-0.3-3.9-5.4-6.7-11.5-6.3
		c-6.1,0.4-10.8,4-10.5,7.9c0.3,3.9,5.4,6.7,11.5,6.3S109,267.2,108.7,263.3z"/>
</g>
<g class="st0">
	<path class="st1" d="M756.1,79.9c1.5,4.8,2.1,7.3,1.5,9.5c-1.2,4.5-5.1,5.7-9.6,4.5c-2-0.5-3.2-0.9-6-3.4c0,0-1.6-2.5-6.5-3.6
		c-4.9-1.5-7.5-0.2-7.5-0.2c-3.7,0.8-4.9,0.4-6.8-0.1c-4.5-1.2-7.2-4.3-6-8.7c0.6-2.3,2.4-4.1,6.1-7.5c0,0,7.1-6.8,12.4-9.5
		c3.8-1.9,8.3-0.7,8.3-0.7l1.4,0.4l0,0c0,0,4.7,1.3,6.8,4.8C753.2,70.5,756.1,79.9,756.1,79.9z M733.2,52.1c4.7,1.3,10-3.6,12-10.9
		c2-7.3-0.2-14.2-4.9-15.5c-4.7-1.3-10,3.6-12,10.9C726.4,43.9,728.6,50.8,733.2,52.1z M721.7,62.6c3.9-0.7,6.2-6.1,5.2-12.1
		c-1-6-5-10.4-8.9-9.7c-3.9,0.7-6.2,6.1-5.2,12.1C713.9,58.9,717.8,63.3,721.7,62.6z M752.9,57.4c4.7,1.3,10-3.6,12-10.9
		c2-7.3-0.2-14.2-4.9-15.5c-4.7-1.3-10,3.6-12,10.9C746,49.2,748.2,56.1,752.9,57.4z M771.8,55.4c-3-2.5-8.6-0.8-12.6,3.9
		s-4.7,10.5-1.7,13.1c3,2.5,8.6,0.8,12.6-3.9C774,63.7,774.8,57.9,771.8,55.4z"/>
</g>
<g class="st0">
	<path class="st1" d="M1322.4,233.7c4.3,2.5,6.5,3.9,7.6,6c2.2,4.1,0.2,7.7-3.9,9.8c-1.8,1-3,1.6-6.7,1.6c0,0-2.8-0.7-7.2,1.8
		c-4.6,2.2-5.6,5-5.6,5c-2.1,3.1-3.3,3.7-5.1,4.6c-4.1,2.2-8.2,1.8-10.3-2.3c-1.1-2.1-1-4.6-0.6-9.6c0,0,0.6-9.8,2.6-15.4
		c1.5-4,5.6-6.2,5.6-6.2l1.3-0.7l0,0c0,0,4.3-2.3,8.2-1.1C1313.9,228.8,1322.4,233.7,1322.4,233.7z M1286.7,228.9
		c4.3-2.3,4.9-9.5,1.4-16.2c-3.5-6.7-9.8-10.2-14.1-8c-4.3,2.3-4.9,9.5-1.4,16.2C1276.2,227.5,1282.5,231.1,1286.7,228.9z
		 M1285.5,244.5c2.4-3.1,0.4-8.7-4.5-12.4c-4.9-3.7-10.7-4.2-13.1-1.1c-2.4,3.1-0.4,8.7,4.5,12.4
		C1277.2,247.1,1283.1,247.6,1285.5,244.5z M1304.8,219.4c4.3-2.3,4.9-9.5,1.4-16.2c-3.5-6.7-9.8-10.2-14.1-8
		c-4.3,2.3-4.9,9.5-1.4,16.2C1294.2,218,1300.5,221.6,1304.8,219.4z M1317.2,205c-3.9,0.2-6.8,5.3-6.5,11.4
		c0.3,6.1,3.8,10.9,7.7,10.7c3.9-0.2,6.8-5.3,6.5-11.4C1324.5,209.6,1321.1,204.8,1317.2,205z"/>
</g>
<g class="st0">
	<path class="st1" d="M813,217.4c2.9,4.1,4.3,6.2,4.5,8.6c0.3,4.6-3,7.1-7.6,7.3c-2,0.1-3.3,0.2-6.8-1.3c0,0-2.3-1.8-7.3-1.3
		c-5.1,0.1-7.1,2.2-7.1,2.2c-3.2,1.9-4.5,2-6.5,2.1c-4.6,0.3-8.2-1.8-8.4-6.4c-0.1-2.3,1-4.6,3.4-9c0,0,4.6-8.7,8.7-12.9
		c3-3,7.6-3.3,7.6-3.3l1.4-0.1l0,0c0,0,4.8-0.3,8,2.4C807.4,209.4,813,217.4,813,217.4z M782.6,198.3c4.8-0.3,8.4-6.6,7.9-14.1
		c-0.4-7.5-4.7-13.4-9.5-13.1s-8.4,6.6-7.9,14.1C773.5,192.7,777.8,198.5,782.6,198.3z M775,211.9c3.5-1.8,3.9-7.7,1.1-13.1
		s-8-8.3-11.5-6.4c-3.5,1.8-3.9,7.7-1.1,13.1C766.4,210.9,771.5,213.8,775,211.9z M802.9,197.1c4.8-0.3,8.4-6.6,7.9-14.1
		c-0.4-7.5-4.7-13.4-9.5-13.1s-8.4,6.6-7.9,14.1C793.8,191.5,798.1,197.4,802.9,197.1z M820.1,189.2c-3.7-1.4-8.4,2-10.7,7.7
		s-1.1,11.5,2.6,12.9c3.7,1.4,8.4-2,10.7-7.7C824.9,196.4,823.8,190.6,820.1,189.2z"/>
</g>
<g class="st0">
	<path class="st1" d="M332,85.6c0.5,5,0.7,7.6-0.4,9.6c-2.1,4.1-6.1,4.6-10.3,2.6c-1.8-0.9-3-1.5-5.2-4.5c0,0-1.1-2.7-5.7-4.8
		c-4.5-2.4-7.3-1.6-7.3-1.6c-3.7,0.1-4.9-0.5-6.7-1.4c-4.1-2.1-6.2-5.6-4.2-9.7c1-2.1,3.2-3.5,7.5-6.1c0,0,8.3-5.3,14-6.9
		c4.1-1.1,8.3,0.9,8.3,0.9l1.3,0.6l0,0c0,0,4.3,2.1,5.7,6C331,75.8,332,85.6,332,85.6z M315.1,53.8c4.3,2.2,10.6-1.6,13.9-8.3
		s2.6-14-1.8-16.1s-10.6,1.6-13.9,8.3S310.8,51.7,315.1,53.8z M301.7,61.9c3.9,0.1,7.3-4.7,7.4-10.9c0.2-6.1-2.9-11.2-6.8-11.3
		c-3.9-0.1-7.2,4.7-7.4,10.9C294.7,56.8,297.8,61.8,301.7,61.9z M333.3,62.9c4.3,2.2,10.6-1.6,13.9-8.3s2.6-14-1.8-16.1
		c-4.3-2.2-10.6,1.6-13.9,8.3S329,60.7,333.3,62.9z M352.2,64.6c-2.5-3.1-8.3-2.4-13.1,1.4s-6.6,9.4-4.2,12.5
		c2.5,3.1,8.3,2.4,13.1-1.4C352.8,73.2,354.7,67.7,352.2,64.6z"/>
</g>
<g class="st0">
	<path class="st1" d="M1194.6,155.4c3.6,3.5,5.3,5.4,5.8,7.7c1,4.5-1.8,7.5-6.3,8.5c-2,0.5-3.3,0.7-6.9-0.2c0,0-2.5-1.4-7.4-0.1
		c-5,0.9-6.7,3.4-6.7,3.4c-2.9,2.4-4.1,2.7-6.1,3.1c-4.5,1-8.4-0.4-9.4-4.9c-0.5-2.3,0.2-4.7,1.9-9.5c0,0,3.1-9.3,6.5-14.2
		c2.5-3.5,7-4.5,7-4.5l1.4-0.3l0,0c0,0,4.7-1.1,8.2,1C1187.7,148.5,1194.6,155.4,1194.6,155.4z M1161.4,141.6
		c4.7-1.1,7.2-7.9,5.5-15.2c-1.7-7.3-6.9-12.4-11.6-11.4c-4.7,1.1-7.2,7.9-5.5,15.2C1151.5,137.6,1156.7,142.7,1161.4,141.6z
		 M1156.2,156.3c3.1-2.4,2.6-8.3-1.1-13.1c-3.7-4.8-9.3-6.8-12.4-4.4c-3.1,2.4-2.6,8.3,1.1,13.1
		C1147.5,156.7,1153,158.7,1156.2,156.3z M1181.2,137c4.7-1.1,7.2-7.9,5.5-15.2c-1.7-7.3-6.9-12.4-11.6-11.4
		c-4.7,1.1-7.2,7.9-5.5,15.2C1171.3,133,1176.5,138.1,1181.2,137z M1196.9,126.4c-3.8-0.8-8,3.4-9.2,9.4c-1.3,6,0.8,11.5,4.7,12.3
		c3.8,0.8,8-3.4,9.2-9.4C1202.9,132.7,1200.8,127.2,1196.9,126.4z"/>
</g>
<g class="st0">
	<path class="st1" d="M1438.5,135.4c1.5,4.8,2.1,7.3,1.5,9.5c-1.2,4.5-5.1,5.7-9.6,4.5c-2-0.5-3.2-0.9-6-3.4c0,0-1.6-2.5-6.5-3.6
		c-4.9-1.5-7.5-0.2-7.5-0.2c-3.7,0.8-4.9,0.4-6.8-0.1c-4.5-1.2-7.2-4.3-6-8.7c0.6-2.3,2.4-4.1,6.1-7.5c0,0,7.1-6.8,12.4-9.5
		c3.8-1.9,8.3-0.7,8.3-0.7l1.4,0.4l0,0c0,0,4.7,1.3,6.8,4.8C1435.6,126.1,1438.5,135.4,1438.5,135.4z M1415.7,107.6
		c4.7,1.3,10-3.6,12-10.9c2-7.3-0.2-14.2-4.9-15.5c-4.7-1.3-10,3.6-12,10.9S1411,106.4,1415.7,107.6z M1404.1,118.2
		c3.9-0.7,6.2-6.1,5.2-12.1s-5-10.4-8.9-9.7c-3.9,0.7-6.2,6.1-5.2,12.1C1396.3,114.5,1400.3,118.8,1404.1,118.2z M1435.3,113
		c4.7,1.3,10-3.6,12-10.9c2-7.3-0.2-14.2-4.9-15.5c-4.7-1.3-10,3.6-12,10.9C1428.5,104.8,1430.7,111.7,1435.3,113z M1454.2,110.9
		c-3-2.5-8.6-0.8-12.6,3.9c-3.9,4.7-4.7,10.5-1.7,13.1c3,2.5,8.6,0.8,12.6-3.9S1457.2,113.5,1454.2,110.9z"/>
</g>
</svg>
